# Converted from HGS (Mercury 3D Engine)
# Model: Haus
o Haus

# Submesh 0: 50 vertices
v 0.457514 0.380985 0.498620
vn 1.000000 0.000000 0.000000
vt 0.000500 0.510192
v 0.457514 0.380986 -0.498620
vn 1.000000 0.000000 0.000000
vt 0.999500 0.510192
v 0.457514 0.634671 0.000000
vn 1.000000 0.000000 0.000000
vt 0.500000 0.849579
v -0.444457 -0.000000 -0.444457
vn -1.000000 -0.000000 -0.000000
vt 0.054758 0.000500
v -0.444457 -0.000001 0.444457
vn -1.000000 -0.000000 -0.000000
vt 0.945241 0.000500
v -0.444457 0.380528 0.444457
vn -1.000000 -0.000000 -0.000000
vt 0.945241 0.509580
v -0.444457 0.380528 -0.444457
vn -1.000000 -0.000000 -0.000000
vt 0.054758 0.509580
v -0.444457 -0.000001 0.444457
vn -0.000000 -0.000001 1.000000
vt 0.014755 0.000500
v 0.444457 -0.000001 0.444457
vn -0.000000 -0.000001 1.000000
vt 0.985245 0.000500
v 0.444457 0.380528 0.444457
vn -0.000000 -0.000001 1.000000
vt 0.985245 0.509580
v -0.444457 0.380528 0.444457
vn -0.000000 -0.000001 1.000000
vt 0.014755 0.509580
v 0.444457 -0.000001 0.444457
vn 1.000000 0.000000 0.000000
vt 0.054758 0.000500
v 0.444457 -0.000000 -0.444457
vn 1.000000 0.000000 0.000000
vt 0.945241 0.000500
v 0.444457 0.380528 -0.444457
vn 1.000000 0.000000 0.000000
vt 0.945241 0.509580
v 0.444457 0.380528 0.444457
vn 1.000000 0.000000 0.000000
vt 0.054758 0.509580
v 0.444457 -0.000000 -0.444457
vn 0.000000 0.000000 -1.000000
vt 0.014755 0.000500
v -0.444457 -0.000000 -0.444457
vn 0.000000 0.000000 -1.000000
vt 0.985245 0.000500
v -0.444457 0.380528 -0.444457
vn 0.000000 0.000000 -1.000000
vt 0.985245 0.509580
v 0.444457 0.380528 -0.444457
vn 0.000000 0.000000 -1.000000
vt 0.014755 0.509580
v -0.457514 0.380985 0.498620
vn -0.000000 0.891277 0.453460
vt 0.999500 0.000500
v 0.457514 0.380985 0.498620
vn -0.000000 0.891277 0.453460
vt 0.999500 0.999500
v 0.457514 0.634671 0.000000
vn -0.000000 0.891277 0.453460
vt 0.500000 0.999500
v -0.457514 0.634671 -0.000000
vn -0.000000 0.891277 0.453460
vt 0.500000 0.000500
v 0.457514 0.380986 -0.498620
vn 0.000000 0.891277 -0.453460
vt 0.000500 0.999500
v -0.457514 0.380985 -0.498620
vn 0.000000 0.891277 -0.453460
vt 0.000500 0.000500
v -0.457514 0.634671 -0.000000
vn 0.000000 0.891277 -0.453460
vt 0.500000 0.000500
v 0.457514 0.634671 0.000000
vn 0.000000 0.891277 -0.453460
vt 0.500000 0.999500
v -0.080681 0.746734 -0.083126
vn 0.000000 1.000000 -0.000001
vt 0.416727 0.411915
v -0.080681 0.746734 0.083126
vn 0.000000 1.000000 -0.000001
vt 0.583273 0.411915
v 0.080681 0.746734 0.083126
vn 0.000000 1.000000 -0.000001
vt 0.583273 0.588085
v 0.080681 0.746734 -0.083126
vn 0.000000 1.000000 -0.000001
vt 0.416727 0.588085
v -0.080681 0.536474 -0.083126
vn -1.000000 -0.000000 -0.000000
vt 0.416727 0.718209
v -0.080681 0.536474 0.083126
vn -1.000000 -0.000000 -0.000000
vt 0.583273 0.718209
v -0.080681 0.746734 0.083126
vn -1.000000 -0.000000 -0.000000
vt 0.583273 0.999500
v -0.080681 0.746734 -0.083126
vn -1.000000 -0.000000 -0.000000
vt 0.416727 0.999500
v -0.080681 0.536474 0.083126
vn -0.000000 0.000000 1.000000
vt 0.411915 0.718209
v 0.080681 0.536474 0.083126
vn -0.000000 0.000000 1.000000
vt 0.588085 0.718209
v 0.080681 0.746734 0.083126
vn -0.000000 0.000000 1.000000
vt 0.588085 0.999500
v -0.080681 0.746734 0.083126
vn -0.000000 0.000000 1.000000
vt 0.411915 0.999500
v 0.080681 0.536474 0.083126
vn 1.000000 0.000000 0.000000
vt 0.416727 0.718209
v 0.080681 0.536474 -0.083126
vn 1.000000 0.000000 0.000000
vt 0.583273 0.718209
v 0.080681 0.746734 -0.083126
vn 1.000000 0.000000 0.000000
vt 0.583273 0.999500
v 0.080681 0.746734 0.083126
vn 1.000000 0.000000 0.000000
vt 0.416727 0.999500
v 0.080681 0.536474 -0.083126
vn 0.000000 -0.000001 -1.000000
vt 0.411915 0.718209
v -0.080681 0.536474 -0.083126
vn 0.000000 -0.000001 -1.000000
vt 0.588085 0.718209
v -0.080681 0.746734 -0.083126
vn 0.000000 -0.000001 -1.000000
vt 0.588085 0.999500
v 0.080681 0.746734 -0.083126
vn 0.000000 -0.000001 -1.000000
vt 0.411915 0.999500
v -0.457514 0.380985 -0.498620
vn -1.000000 0.000000 -0.000000
vt 0.000500 0.510192
v -0.457514 0.380985 0.498620
vn -1.000000 0.000000 -0.000000
vt 0.999500 0.510192
v -0.457514 0.634671 -0.000000
vn -1.000000 0.000000 -0.000000
vt 0.500000 0.849579
g Haus_part_0
# Submesh 0: 24 triangles
f 1/1/1 2/2/2 3/3/3
f 4/4/4 5/5/5 6/6/6
f 4/4/4 6/6/6 7/7/7
f 8/8/8 9/9/9 10/10/10
f 8/8/8 10/10/10 11/11/11
f 12/12/12 13/13/13 14/14/14
f 12/12/12 14/14/14 15/15/15
f 16/16/16 17/17/17 18/18/18
f 16/16/16 18/18/18 19/19/19
f 20/20/20 21/21/21 22/22/22
f 20/20/20 22/22/22 23/23/23
f 24/24/24 25/25/25 26/26/26
f 24/24/24 26/26/26 27/27/27
f 28/28/28 29/29/29 30/30/30
f 28/28/28 30/30/30 31/31/31
f 32/32/32 33/33/33 34/34/34
f 32/32/32 34/34/34 35/35/35
f 36/36/36 37/37/37 38/38/38
f 36/36/36 38/38/38 39/39/39
f 40/40/40 41/41/41 42/42/42
f 40/40/40 42/42/42 43/43/43
f 44/44/44 45/45/45 46/46/46
f 44/44/44 46/46/46 47/47/47
f 48/48/48 49/49/49 50/50/50
