# Converted from HGS (Mercury 3D Engine)
# Model: Gefaengnis
o Gefaengnis

# Submesh 0: 232 vertices
v -3.213731 -2.843728 0.210000
vn 0.000000 0.000000 1.000000
vt 0.617684 -0.338451
v -3.213731 -3.213731 0.210000
vn 0.000000 0.000000 1.000000
vt 0.715751 -0.338451
v 3.213731 -3.213731 0.210000
vn 0.000000 0.000000 1.000000
vt 0.715751 1.360621
v 3.213731 -2.843728 0.210000
vn 0.000000 0.000000 1.000000
vt 0.617684 1.360621
v 3.243728 -2.843728 2.006282
vn 0.000000 1.000000 0.000000
vt 0.279465 1.360621
v -3.243728 -2.843728 2.006282
vn 0.000000 1.000000 0.000000
vt 0.279465 -0.346344
v -3.243728 -2.843728 2.186285
vn 0.000000 1.000000 0.000001
vt 0.231756 -0.346344
v -3.213731 -2.843728 2.216282
vn 0.000000 1.000000 0.000001
vt 0.223806 -0.338451
v 3.213731 -2.843728 2.216282
vn 0.000000 1.000000 0.000001
vt 0.223806 1.360621
v 3.243728 -2.843728 2.186285
vn 0.000000 1.000000 0.000001
vt 0.231756 1.360621
v -2.426656 -3.047227 0.203170
vn 1.000000 0.000000 0.000000
vt 4.282238 -1.703050
v -2.463853 -2.957424 0.203170
vn 0.707107 0.707107 0.000000
vt 4.387834 -1.703050
v -2.463853 -2.957424 2.110943
vn 0.707107 0.707107 0.000000
vt 4.387834 -0.034291
v -2.426656 -3.047227 2.110943
vn 1.000000 0.000000 0.000000
vt 4.282238 -0.034291
v -2.463853 -3.137029 0.203170
vn 0.707107 -0.707107 0.000000
vt 4.176645 -1.703050
v -2.463853 -3.137029 2.110943
vn 0.707107 -0.707107 0.000000
vt 4.176645 -0.034291
v -1.410973 -3.047227 0.203170
vn 1.000000 0.000000 0.000000
vt 4.757816 -1.703050
v -1.448171 -2.957424 0.203170
vn 0.707107 0.707106 0.000000
vt 4.863408 -1.703050
v -1.448171 -2.957424 2.110943
vn 0.707107 0.707106 0.000000
vt 4.863408 -0.034291
v -1.410973 -3.047227 2.110943
vn 1.000000 0.000000 0.000000
vt 4.757816 -0.034291
v -1.448171 -3.137029 0.203170
vn 0.707107 -0.707106 0.000000
vt 4.652218 -1.703050
v -1.448171 -3.137029 2.110943
vn 0.707107 -0.707106 0.000000
vt 4.652218 -0.034291
v -0.395291 -3.047227 0.203170
vn 1.000000 0.000000 0.000000
vt 5.233387 -1.703050
v -0.432488 -2.957424 0.203170
vn 0.707107 0.707106 0.000000
vt 5.338983 -1.703050
v -0.432488 -2.957424 2.110943
vn 0.707107 0.707106 0.000000
vt 5.338983 -0.034291
v -0.395291 -3.047227 2.110943
vn 1.000000 0.000000 0.000000
vt 5.233387 -0.034291
v -0.432488 -3.137029 0.203170
vn 0.707107 -0.707106 0.000000
vt 5.127792 -1.703050
v -0.432488 -3.137029 2.110943
vn 0.707107 -0.707106 0.000000
vt 5.127792 -0.034291
v 0.620392 -3.047227 0.203170
vn 1.000000 -0.000000 0.000000
vt 5.170177 -0.021799
v 0.583194 -2.957424 0.203170
vn 0.707107 0.707106 0.000000
vt 5.275775 -0.021799
v 0.583194 -2.957424 2.110943
vn 0.707107 0.707106 0.000000
vt 5.275775 1.646960
v 0.620392 -3.047227 2.110943
vn 1.000000 -0.000000 0.000000
vt 5.170177 1.646960
v 0.583194 -3.137029 0.203170
vn 0.707107 -0.707106 0.000000
vt 5.064584 -0.021799
v 0.583194 -3.137029 2.110943
vn 0.707107 -0.707106 0.000000
vt 5.064584 1.646960
v 1.636074 -3.047227 0.203170
vn 1.000000 0.000000 0.000000
vt 4.696178 -0.021799
v 1.598877 -2.957424 0.203170
vn 0.707107 0.707106 0.000000
vt 4.801772 -0.021799
v 1.598877 -2.957424 2.110943
vn 0.707107 0.707106 0.000000
vt 4.801772 1.646960
v 1.636074 -3.047227 2.110943
vn 1.000000 0.000000 0.000000
vt 4.696178 1.646960
v 1.598877 -3.137029 0.203170
vn 0.707107 -0.707106 0.000000
vt 4.590580 -0.021799
v 1.598877 -3.137029 2.110943
vn 0.707107 -0.707106 0.000000
vt 4.590580 1.646960
v 2.399023 -3.047227 0.203170
vn -1.000000 0.000000 0.000000
vt 3.806665 -0.034290
v 2.436220 -3.137029 0.203170
vn -0.707107 -0.707107 0.000000
vt 3.701071 -0.034290
v 2.436220 -3.137029 2.110943
vn -0.707107 -0.707107 0.000000
vt 3.701071 -1.703050
v 2.399023 -3.047227 2.110943
vn -1.000000 0.000000 0.000000
vt 3.806665 -1.703050
v 2.436220 -2.957424 0.203170
vn -0.707107 0.707107 0.000000
vt 3.912261 -0.034290
v 2.436220 -2.957424 2.110943
vn -0.707107 0.707107 0.000000
vt 3.912261 -1.703050
v 2.653023 -3.047227 0.203170
vn 1.000000 0.000000 0.000000
vt 4.222175 -0.021798
v 2.615825 -2.957424 0.203170
vn 0.707107 0.707107 0.000000
vt 4.327765 -0.021798
v 2.615825 -2.957424 2.110943
vn 0.707107 0.707107 0.000000
vt 4.327765 1.646961
v 2.653023 -3.047227 2.110943
vn 1.000000 0.000000 0.000000
vt 4.222175 1.646961
v 2.615825 -3.137029 0.203170
vn 0.707107 -0.707107 0.000000
vt 4.116579 -0.021798
v 2.615825 -3.137029 2.110943
vn 0.707107 -0.707107 0.000000
vt 4.116579 1.646961
v 2.526023 -2.920227 0.203170
vn 0.000000 1.000000 0.000000
vt 3.985170 1.646960
v 2.436220 -2.957424 0.203170
vn -0.707107 0.707107 0.000000
vt 3.879578 1.646960
v 2.436220 -2.957424 2.110943
vn -0.707107 0.707107 0.000000
vt 3.879578 -0.021799
v 2.526023 -2.920227 2.110943
vn 0.000000 1.000000 0.000000
vt 3.985170 -0.021799
v 2.615825 -2.957424 0.203170
vn 0.707107 0.707107 0.000000
vt 4.090766 1.646960
v 2.615825 -2.957424 2.110943
vn 0.707107 0.707107 0.000000
vt 4.090766 -0.021799
v -3.213731 -3.213731 0.210000
vn 0.000000 -0.707106 0.707107
vt 0.960952 0.518754
v -3.243728 -3.243728 0.180003
vn 0.000000 -0.707106 0.707107
vt 0.963626 0.518486
v 3.243728 -3.243728 0.180003
vn 0.000000 -0.707106 0.707107
vt 0.963626 0.576417
v 3.213731 -3.213731 0.210000
vn 0.000000 -0.707106 0.707107
vt 0.960952 0.576149
v -3.243728 -3.243728 0.180003
vn -0.707105 0.000000 0.707108
vt 0.963626 0.518486
v -3.213731 -3.213731 0.210000
vn -0.707105 0.000000 0.707108
vt 0.960952 0.518754
v -3.213731 -2.843728 0.210000
vn -0.707105 0.000000 0.707108
vt 0.960952 0.518754
v -3.243728 -2.843728 0.180003
vn -0.707105 0.000000 0.707108
vt 0.963626 0.518486
v 3.213731 -3.213731 0.210000
vn 0.707105 0.000000 0.707108
vt 0.960952 0.576149
v 3.243728 -3.243728 0.180003
vn 0.707105 0.000000 0.707108
vt 0.963626 0.576417
v 3.243728 -2.843728 0.180003
vn 0.707105 0.000000 0.707108
vt 0.963626 0.576417
v 3.213731 -2.843728 0.210000
vn 0.707105 0.000000 0.707108
vt 0.960952 0.576149
v -3.243728 -3.243728 0.000000
vn 0.000000 -1.000000 0.000000
vt 0.018967 -0.346344
v 3.243728 -3.243728 0.000000
vn 0.000000 -1.000000 0.000000
vt 0.018967 1.360621
v 3.243728 -3.243728 0.180003
vn 0.000000 -1.000000 0.000000
vt 0.066676 1.360621
v -3.243728 -3.243728 0.180003
vn 0.000000 -1.000000 0.000000
vt 0.066676 -0.346344
v 3.243728 -2.843728 0.000000
vn 0.000000 1.000000 0.000000
vt 0.140927 1.360621
v -3.243728 -2.843728 0.000000
vn 0.000000 1.000000 0.000000
vt 0.140927 -0.346344
v -3.243728 -2.843728 0.180003
vn 0.000000 1.000000 0.000001
vt 0.093218 -0.346344
v -3.213731 -2.843728 0.210000
vn 0.000000 1.000000 0.000001
vt 0.085268 -0.338451
v 3.213731 -2.843728 0.210000
vn 0.000000 1.000000 0.000001
vt 0.085268 1.360621
v 3.243728 -2.843728 0.180003
vn 0.000000 1.000000 0.000001
vt 0.093218 1.360621
v -3.243728 -3.243728 2.006282
vn 0.000000 -1.000000 0.000000
vt 0.154537 -0.346344
v 3.243728 -3.243728 2.006282
vn 0.000000 -1.000000 0.000000
vt 0.154537 1.360621
v 3.243728 -3.243728 2.186285
vn 0.000000 -1.000000 0.000000
vt 0.202246 1.360621
v -3.243728 -3.243728 2.186285
vn 0.000000 -1.000000 0.000000
vt 0.202246 -0.346344
v -3.243728 -3.243728 1.381800
vn 0.000000 0.000000 1.000000
vt 0.486208 -0.346344
v 3.243728 -3.243728 1.381800
vn 0.000000 0.000000 1.000000
vt 0.486208 1.360621
v 3.243728 -2.843728 1.381800
vn 0.000000 0.000000 1.000000
vt 0.380190 1.360621
v -3.243728 -2.843728 1.381800
vn 0.000000 0.000000 1.000000
vt 0.380190 -0.346344
v -3.243728 -3.243728 1.281476
vn 0.000000 -1.000000 0.000000
vt 0.293075 -0.346344
v 3.243728 -3.243728 1.281476
vn 0.000000 -1.000000 0.000000
vt 0.293075 1.360621
v 3.243728 -3.243728 1.381800
vn 0.000000 -1.000000 0.000000
vt 0.319665 1.360621
v -3.243728 -3.243728 1.381800
vn 0.000000 -1.000000 0.000000
vt 0.319665 -0.346344
v 3.243728 -2.843728 1.281476
vn 0.000000 1.000000 0.000000
vt 0.359248 1.360621
v -3.243728 -2.843728 1.281476
vn 0.000000 1.000000 0.000000
vt 0.359248 -0.346344
v -3.243728 -2.843728 1.381800
vn 0.000000 1.000000 0.000000
vt 0.332657 -0.346344
v 3.243728 -2.843728 1.381800
vn 0.000000 1.000000 0.000000
vt 0.332657 1.360621
v 2.526023 -3.174227 0.203170
vn 0.000000 -1.000000 0.000000
vt 4.044455 -1.703050
v 2.615825 -3.137029 0.203170
vn 0.707107 -0.707107 0.000000
vt 4.150046 -1.703050
v 2.615825 -3.137029 2.110943
vn 0.707107 -0.707107 0.000000
vt 4.150046 -0.034290
v 2.526023 -3.174227 2.110943
vn 0.000000 -1.000000 0.000000
vt 4.044455 -0.034290
v 2.436220 -3.137029 0.203170
vn -0.707107 -0.707107 0.000000
vt 3.938859 -1.703050
v 2.436220 -3.137029 2.110943
vn -0.707107 -0.707107 0.000000
vt 3.938859 -0.034290
v 1.509074 -3.174227 0.203170
vn 0.000000 -1.000000 0.000000
vt 3.568879 -1.703050
v 1.598877 -3.137029 0.203170
vn 0.707107 -0.707106 0.000000
vt 3.674475 -1.703050
v 1.598877 -3.137029 2.110943
vn 0.707107 -0.707106 0.000000
vt 3.674475 -0.034290
v 1.509074 -3.174227 2.110943
vn 0.000000 -1.000000 0.000000
vt 3.568879 -0.034290
v 1.419272 -3.137029 0.203170
vn -0.707107 -0.707106 0.000000
vt 3.463286 -1.703050
v 1.419272 -3.137029 2.110943
vn -0.707107 -0.707106 0.000000
vt 3.463286 -0.034290
v 3.243728 -2.843728 2.186285
vn 1.000000 0.000000 0.000000
vt 0.912035 0.604479
v 3.243728 -3.243728 2.186285
vn 1.000000 0.000000 0.000000
vt 0.820791 0.604479
v 3.243728 -3.243728 2.006282
vn 1.000000 0.000000 0.000000
vt 0.820791 0.563418
v 3.243728 -2.843728 2.006282
vn 1.000000 0.000000 0.000000
vt 0.912035 0.563418
v -3.243728 -3.243728 2.186285
vn -1.000000 0.000000 0.000000
vt 0.820791 0.627101
v -3.243728 -2.843728 2.186285
vn -1.000000 0.000000 0.000000
vt 0.912035 0.627101
v -3.243728 -2.843728 2.006282
vn -1.000000 0.000000 0.000000
vt 0.912035 0.668161
v -3.243728 -3.243728 2.006282
vn -1.000000 0.000000 0.000000
vt 0.820791 0.668161
v -3.243728 -3.243728 1.381800
vn -1.000000 0.000000 0.000000
vt 0.820791 0.677098
v -3.243728 -2.843728 1.381800
vn -1.000000 0.000000 0.000000
vt 0.912035 0.677098
v -3.243728 -2.843728 1.281476
vn -1.000000 0.000000 0.000000
vt 0.912035 0.699983
v -3.243728 -3.243728 1.281476
vn -1.000000 0.000000 0.000000
vt 0.820791 0.699983
v -3.243728 -3.243728 0.180003
vn -1.000000 0.000000 0.000000
vt 0.820791 0.715762
v -3.243728 -2.843728 0.180003
vn -1.000000 0.000000 0.000000
vt 0.912035 0.715762
v -3.243728 -2.843728 0.000000
vn -1.000000 0.000000 0.000000
vt 0.912035 0.756822
v -3.243728 -3.243728 0.000000
vn -1.000000 0.000000 0.000000
vt 0.820791 0.756822
v 3.243728 -2.843728 1.381800
vn 1.000000 0.000000 0.000000
vt 0.912035 0.788644
v 3.243728 -3.243728 1.381800
vn 1.000000 0.000000 0.000000
vt 0.820791 0.788644
v 3.243728 -3.243728 1.281476
vn 1.000000 0.000000 0.000000
vt 0.820791 0.765759
v 3.243728 -2.843728 1.281476
vn 1.000000 0.000000 0.000000
vt 0.912035 0.765759
v 3.243728 -2.843728 0.180003
vn 1.000000 0.000000 0.000000
vt 0.912035 0.838641
v 3.243728 -3.243728 0.180003
vn 1.000000 0.000000 0.000000
vt 0.820791 0.838641
v 3.243728 -3.243728 0.000000
vn 1.000000 0.000000 0.000000
vt 0.820791 0.797581
v 3.243728 -2.843728 0.000000
vn 1.000000 0.000000 0.000000
vt 0.912035 0.797581
v -3.213731 -2.843728 2.216282
vn 0.000000 0.000000 1.000000
vt 0.498937 -0.338451
v -3.213731 -3.213731 2.216282
vn 0.000000 0.000000 1.000000
vt 0.597004 -0.338451
v 3.213731 -3.213731 2.216282
vn 0.000000 0.000000 1.000000
vt 0.597004 1.360621
v 3.213731 -2.843728 2.216282
vn 0.000000 0.000000 1.000000
vt 0.498937 1.360621
v -3.213731 -3.213731 2.216282
vn 0.000000 -0.707108 0.707106
vt 0.967381 0.518754
v -3.243728 -3.243728 2.186285
vn 0.000000 -0.707108 0.707106
vt 0.970055 0.518486
v 3.243728 -3.243728 2.186285
vn 0.000000 -0.707108 0.707106
vt 0.970055 0.576417
v 3.213731 -3.213731 2.216282
vn 0.000000 -0.707108 0.707106
vt 0.967381 0.576149
v -3.243728 -3.243728 2.186285
vn -0.707109 0.000000 0.707105
vt 0.957304 0.576417
v -3.213731 -3.213731 2.216282
vn -0.707109 0.000000 0.707105
vt 0.954629 0.576149
v -3.213731 -2.843728 2.216282
vn -0.707109 0.000000 0.707105
vt 0.954629 0.572845
v -3.243728 -2.843728 2.186285
vn -0.707109 0.000000 0.707105
vt 0.957304 0.572845
v 3.213731 -3.213731 2.216282
vn 0.707109 0.000000 0.707105
vt 0.950981 0.576149
v 3.243728 -3.243728 2.186285
vn 0.707109 0.000000 0.707105
vt 0.948307 0.576417
v 3.243728 -2.843728 2.186285
vn 0.707109 0.000000 0.707105
vt 0.948307 0.572845
v 3.213731 -2.843728 2.216282
vn 0.707109 0.000000 0.707105
vt 0.950981 0.572845
v -2.553656 -2.920227 0.203170
vn 0.000000 1.000000 0.000000
vt 4.520024 -0.034291
v -2.643458 -2.957424 0.203170
vn -0.707107 0.707107 0.000000
vt 4.414433 -0.034291
v -2.643458 -2.957424 2.110943
vn -0.707107 0.707107 0.000000
vt 4.414433 -1.703050
v -2.553656 -2.920227 2.110943
vn 0.000000 1.000000 0.000000
vt 4.520024 -1.703050
v -2.463853 -2.957424 0.203170
vn 0.707107 0.707107 0.000000
vt 4.625620 -0.034291
v -2.463853 -2.957424 2.110943
vn 0.707107 0.707107 0.000000
vt 4.625620 -1.703050
v 1.382074 -3.047227 0.203170
vn -1.000000 0.000000 0.000000
vt 3.331093 -0.034290
v 1.419272 -3.137029 0.203170
vn -0.707107 -0.707106 0.000000
vt 3.225495 -0.034290
v 1.419272 -3.137029 2.110943
vn -0.707107 -0.707106 0.000000
vt 3.225495 -1.703050
v 1.382074 -3.047227 2.110943
vn -1.000000 0.000000 0.000000
vt 3.331093 -1.703050
v 1.419272 -2.957424 0.203170
vn -0.707107 0.707106 0.000000
vt 3.436687 -0.034290
v 1.419272 -2.957424 2.110943
vn -0.707107 0.707106 0.000000
vt 3.436687 -1.703050
v -2.680656 -3.047227 0.203170
vn -1.000000 0.000000 0.000000
vt 1.427978 -0.034290
v -2.643458 -3.137029 0.203170
vn -0.707107 -0.707107 0.000000
vt 1.322385 -0.034290
v -2.643458 -3.137029 2.110943
vn -0.707107 -0.707107 0.000000
vt 1.322385 -1.703050
v -2.680656 -3.047227 2.110943
vn -1.000000 0.000000 0.000000
vt 1.427978 -1.703050
v -2.643458 -2.957424 0.203170
vn -0.707107 0.707107 0.000000
vt 1.533573 -0.034290
v -2.643458 -2.957424 2.110943
vn -0.707107 0.707107 0.000000
vt 1.533573 -1.703050
v 1.509074 -2.920227 0.203170
vn -0.000000 1.000000 0.000000
vt 4.459175 1.646960
v 1.419272 -2.957424 0.203170
vn -0.707107 0.707106 0.000000
vt 4.353578 1.646960
v 1.419272 -2.957424 2.110943
vn -0.707107 0.707106 0.000000
vt 4.353578 -0.021799
v 1.509074 -2.920227 2.110943
vn -0.000000 1.000000 0.000000
vt 4.459175 -0.021799
v 1.598877 -2.957424 0.203170
vn 0.707107 0.707106 0.000000
vt 4.564770 1.646960
v 1.598877 -2.957424 2.110943
vn 0.707107 0.707106 0.000000
vt 4.564770 -0.021799
v -2.553656 -3.174227 0.203170
vn 0.000000 -1.000000 0.000000
vt 1.666586 -1.703050
v -2.463853 -3.137029 0.203170
vn 0.707107 -0.707107 0.000000
vt 1.772181 -1.703050
v -2.463853 -3.137029 2.110943
vn 0.707107 -0.707107 0.000000
vt 1.772181 -0.034290
v -2.553656 -3.174227 2.110943
vn 0.000000 -1.000000 0.000000
vt 1.666586 -0.034290
v -2.643458 -3.137029 0.203170
vn -0.707107 -0.707107 0.000000
vt 1.560991 -1.703050
v -2.643458 -3.137029 2.110943
vn -0.707107 -0.707107 0.000000
vt 1.560991 -0.034290
v 0.493392 -3.174227 0.203170
vn 0.000000 -1.000000 0.000000
vt 3.093306 -1.703050
v 0.583194 -3.137029 0.203170
vn 0.707107 -0.707106 0.000000
vt 3.198901 -1.703050
v 0.583194 -3.137029 2.110943
vn 0.707107 -0.707106 0.000000
vt 3.198901 -0.034290
v 0.493392 -3.174227 2.110943
vn 0.000000 -1.000000 0.000000
vt 3.093306 -0.034290
v 0.403589 -3.137029 0.203170
vn -0.707107 -0.707106 0.000000
vt 2.987712 -1.703050
v 0.403589 -3.137029 2.110943
vn -0.707107 -0.707106 0.000000
vt 2.987712 -0.034290
v -1.537973 -2.920227 0.203170
vn 0.000000 1.000000 0.000000
vt 4.995599 -0.034291
v -1.627776 -2.957424 0.203170
vn -0.707107 0.707106 0.000000
vt 4.890004 -0.034291
v -1.627776 -2.957424 2.110943
vn -0.707107 0.707106 0.000000
vt 4.890004 -1.703050
v -1.537973 -2.920227 2.110943
vn 0.000000 1.000000 0.000000
vt 4.995599 -1.703050
v -1.448171 -2.957424 0.203170
vn 0.707107 0.707106 0.000000
vt 5.101196 -0.034291
v -1.448171 -2.957424 2.110943
vn 0.707107 0.707106 0.000000
vt 5.101196 -1.703050
v 0.366392 -3.047227 0.203170
vn -1.000000 0.000000 0.000000
vt 2.855518 -0.034290
v 0.403589 -3.137029 0.203170
vn -0.707107 -0.707106 0.000000
vt 2.749922 -0.034290
v 0.403589 -3.137029 2.110943
vn -0.707107 -0.707106 0.000000
vt 2.749922 -1.703050
v 0.366392 -3.047227 2.110943
vn -1.000000 0.000000 0.000000
vt 2.855518 -1.703050
v 0.403589 -2.957424 0.203170
vn -0.707107 0.707106 0.000000
vt 2.961112 -0.034290
v 0.403589 -2.957424 2.110943
vn -0.707107 0.707106 0.000000
vt 2.961112 -1.703050
v -1.664973 -3.047227 0.203170
vn -1.000000 0.000000 0.000000
vt 1.904372 -0.034290
v -1.627776 -3.137029 0.203170
vn -0.707107 -0.707106 0.000000
vt 1.798778 -0.034290
v -1.627776 -3.137029 2.110943
vn -0.707107 -0.707106 0.000000
vt 1.798778 -1.703050
v -1.664973 -3.047227 2.110943
vn -1.000000 0.000000 0.000000
vt 1.904372 -1.703050
v -1.627776 -2.957424 0.203170
vn -0.707107 0.707106 0.000000
vt 2.009967 -0.034290
v -1.627776 -2.957424 2.110943
vn -0.707107 0.707106 0.000000
vt 2.009967 -1.703050
v 0.493392 -2.920227 0.203170
vn 0.000000 1.000000 0.000000
vt 4.933177 1.646960
v 0.403589 -2.957424 0.203170
vn -0.707107 0.707106 0.000000
vt 4.827584 1.646960
v 0.403589 -2.957424 2.110943
vn -0.707107 0.707106 0.000000
vt 4.827584 -0.021799
v 0.493392 -2.920227 2.110943
vn 0.000000 1.000000 0.000000
vt 4.933177 -0.021799
v 0.583194 -2.957424 0.203170
vn 0.707107 0.707106 0.000000
vt 5.038773 1.646960
v 0.583194 -2.957424 2.110943
vn 0.707107 0.707106 0.000000
vt 5.038773 -0.021799
v -1.537973 -3.174227 0.203170
vn -0.000000 -1.000000 0.000000
vt 2.142159 -1.703050
v -1.448171 -3.137029 0.203170
vn 0.707107 -0.707106 0.000000
vt 2.247754 -1.703050
v -1.448171 -3.137029 2.110943
vn 0.707107 -0.707106 0.000000
vt 2.247754 -0.034290
v -1.537973 -3.174227 2.110943
vn -0.000000 -1.000000 0.000000
vt 2.142159 -0.034290
v -1.627776 -3.137029 0.203170
vn -0.707107 -0.707106 0.000000
vt 2.036563 -1.703050
v -1.627776 -3.137029 2.110943
vn -0.707107 -0.707106 0.000000
vt 2.036563 -0.034290
v -0.522291 -3.174227 0.203170
vn 0.000000 -1.000000 0.000000
vt 2.617733 -1.703050
v -0.432488 -3.137029 0.203170
vn 0.707107 -0.707106 0.000000
vt 2.723328 -1.703050
v -0.432488 -3.137029 2.110943
vn 0.707107 -0.707106 0.000000
vt 2.723328 -0.034290
v -0.522291 -3.174227 2.110943
vn 0.000000 -1.000000 0.000000
vt 2.617733 -0.034290
v -0.612093 -3.137029 0.203170
vn -0.707107 -0.707106 0.000000
vt 2.512138 -1.703050
v -0.612093 -3.137029 2.110943
vn -0.707107 -0.707106 0.000000
vt 2.512138 -0.034290
v -0.522291 -2.920227 0.203170
vn 0.000000 1.000000 0.000000
vt 5.407182 1.646960
v -0.612093 -2.957424 0.203170
vn -0.707107 0.707106 0.000000
vt 5.301589 1.646960
v -0.612093 -2.957424 2.110943
vn -0.707107 0.707106 0.000000
vt 5.301589 -0.021799
v -0.522291 -2.920227 2.110943
vn 0.000000 1.000000 0.000000
vt 5.407182 -0.021799
v -0.432488 -2.957424 0.203170
vn 0.707107 0.707106 0.000000
vt 5.512777 1.646960
v -0.432488 -2.957424 2.110943
vn 0.707107 0.707106 0.000000
vt 5.512777 -0.021799
v -0.649291 -3.047227 0.203170
vn -1.000000 0.000000 0.000000
vt 2.379946 -0.034290
v -0.612093 -3.137029 0.203170
vn -0.707107 -0.707106 0.000000
vt 2.274351 -0.034290
v -0.612093 -3.137029 2.110943
vn -0.707107 -0.707106 0.000000
vt 2.274351 -1.703050
v -0.649291 -3.047227 2.110943
vn -1.000000 0.000000 0.000000
vt 2.379946 -1.703050
v -0.612093 -2.957424 0.203170
vn -0.707107 0.707106 0.000000
vt 2.485541 -0.034290
v -0.612093 -2.957424 2.110943
vn -0.707107 0.707106 0.000000
vt 2.485541 -1.703050
g Gefaengnis_part_0
# Submesh 0: 142 triangles
f 1/1/1 2/2/2 3/3/3
f 1/1/1 3/3/3 4/4/4
f 5/5/5 6/6/6 7/7/7
f 5/5/5 7/7/7 8/8/8
f 5/5/5 8/8/8 9/9/9
f 5/5/5 9/9/9 10/10/10
f 11/11/11 12/12/12 13/13/13
f 11/11/11 13/13/13 14/14/14
f 15/15/15 11/11/11 14/14/14
f 15/15/15 14/14/14 16/16/16
f 17/17/17 18/18/18 19/19/19
f 17/17/17 19/19/19 20/20/20
f 21/21/21 17/17/17 20/20/20
f 21/21/21 20/20/20 22/22/22
f 23/23/23 24/24/24 25/25/25
f 23/23/23 25/25/25 26/26/26
f 27/27/27 23/23/23 26/26/26
f 27/27/27 26/26/26 28/28/28
f 29/29/29 30/30/30 31/31/31
f 29/29/29 31/31/31 32/32/32
f 33/33/33 29/29/29 32/32/32
f 33/33/33 32/32/32 34/34/34
f 35/35/35 36/36/36 37/37/37
f 35/35/35 37/37/37 38/38/38
f 39/39/39 35/35/35 38/38/38
f 39/39/39 38/38/38 40/40/40
f 41/41/41 42/42/42 43/43/43
f 41/41/41 43/43/43 44/44/44
f 45/45/45 41/41/41 44/44/44
f 45/45/45 44/44/44 46/46/46
f 47/47/47 48/48/48 49/49/49
f 47/47/47 49/49/49 50/50/50
f 51/51/51 47/47/47 50/50/50
f 51/51/51 50/50/50 52/52/52
f 53/53/53 54/54/54 55/55/55
f 53/53/53 55/55/55 56/56/56
f 57/57/57 53/53/53 56/56/56
f 57/57/57 56/56/56 58/58/58
f 59/59/59 60/60/60 61/61/61
f 59/59/59 61/61/61 62/62/62
f 63/63/63 64/64/64 65/65/65
f 63/63/63 65/65/65 66/66/66
f 67/67/67 68/68/68 69/69/69
f 67/67/67 69/69/69 70/70/70
f 71/71/71 72/72/72 73/73/73
f 71/71/71 73/73/73 74/74/74
f 75/75/75 76/76/76 77/77/77
f 75/75/75 77/77/77 78/78/78
f 75/75/75 78/78/78 79/79/79
f 75/75/75 79/79/79 80/80/80
f 81/81/81 82/82/82 83/83/83
f 81/81/81 83/83/83 84/84/84
f 85/85/85 86/86/86 87/87/87
f 85/85/85 87/87/87 88/88/88
f 89/89/89 90/90/90 91/91/91
f 89/89/89 91/91/91 92/92/92
f 93/93/93 94/94/94 95/95/95
f 93/93/93 95/95/95 96/96/96
f 97/97/97 98/98/98 99/99/99
f 97/97/97 99/99/99 100/100/100
f 101/101/101 97/97/97 100/100/100
f 101/101/101 100/100/100 102/102/102
f 103/103/103 104/104/104 105/105/105
f 103/103/103 105/105/105 106/106/106
f 107/107/107 103/103/103 106/106/106
f 107/107/107 106/106/106 108/108/108
f 109/109/109 110/110/110 111/111/111
f 109/109/109 111/111/111 112/112/112
f 113/113/113 114/114/114 115/115/115
f 113/113/113 115/115/115 116/116/116
f 117/117/117 118/118/118 119/119/119
f 117/117/117 119/119/119 120/120/120
f 121/121/121 122/122/122 123/123/123
f 121/121/121 123/123/123 124/124/124
f 125/125/125 126/126/126 127/127/127
f 125/125/125 127/127/127 128/128/128
f 129/129/129 130/130/130 131/131/131
f 129/129/129 131/131/131 132/132/132
f 133/133/133 134/134/134 135/135/135
f 133/133/133 135/135/135 136/136/136
f 137/137/137 138/138/138 139/139/139
f 137/137/137 139/139/139 140/140/140
f 141/141/141 142/142/142 143/143/143
f 141/141/141 143/143/143 144/144/144
f 145/145/145 146/146/146 147/147/147
f 145/145/145 147/147/147 148/148/148
f 149/149/149 150/150/150 151/151/151
f 149/149/149 151/151/151 152/152/152
f 153/153/153 149/149/149 152/152/152
f 153/153/153 152/152/152 154/154/154
f 155/155/155 156/156/156 157/157/157
f 155/155/155 157/157/157 158/158/158
f 159/159/159 155/155/155 158/158/158
f 159/159/159 158/158/158 160/160/160
f 161/161/161 162/162/162 163/163/163
f 161/161/161 163/163/163 164/164/164
f 165/165/165 161/161/161 164/164/164
f 165/165/165 164/164/164 166/166/166
f 167/167/167 168/168/168 169/169/169
f 167/167/167 169/169/169 170/170/170
f 171/171/171 167/167/167 170/170/170
f 171/171/171 170/170/170 172/172/172
f 173/173/173 174/174/174 175/175/175
f 173/173/173 175/175/175 176/176/176
f 177/177/177 173/173/173 176/176/176
f 177/177/177 176/176/176 178/178/178
f 179/179/179 180/180/180 181/181/181
f 179/179/179 181/181/181 182/182/182
f 183/183/183 179/179/179 182/182/182
f 183/183/183 182/182/182 184/184/184
f 185/185/185 186/186/186 187/187/187
f 185/185/185 187/187/187 188/188/188
f 189/189/189 185/185/185 188/188/188
f 189/189/189 188/188/188 190/190/190
f 191/191/191 192/192/192 193/193/193
f 191/191/191 193/193/193 194/194/194
f 195/195/195 191/191/191 194/194/194
f 195/195/195 194/194/194 196/196/196
f 197/197/197 198/198/198 199/199/199
f 197/197/197 199/199/199 200/200/200
f 201/201/201 197/197/197 200/200/200
f 201/201/201 200/200/200 202/202/202
f 203/203/203 204/204/204 205/205/205
f 203/203/203 205/205/205 206/206/206
f 207/207/207 203/203/203 206/206/206
f 207/207/207 206/206/206 208/208/208
f 209/209/209 210/210/210 211/211/211
f 209/209/209 211/211/211 212/212/212
f 213/213/213 209/209/209 212/212/212
f 213/213/213 212/212/212 214/214/214
f 215/215/215 216/216/216 217/217/217
f 215/215/215 217/217/217 218/218/218
f 219/219/219 215/215/215 218/218/218
f 219/219/219 218/218/218 220/220/220
f 221/221/221 222/222/222 223/223/223
f 221/221/221 223/223/223 224/224/224
f 225/225/225 221/221/221 224/224/224
f 225/225/225 224/224/224 226/226/226
f 227/227/227 228/228/228 229/229/229
f 227/227/227 229/229/229 230/230/230
f 231/231/231 227/227/227 230/230/230
f 231/231/231 230/230/230 232/232/232

# Submesh 1: 216 vertices
v 2.843727 3.213731 2.216282
vn 0.000000 0.707104 0.707110
vt 0.970079 0.576417
v 2.843727 3.243728 2.186285
vn 0.000000 0.707104 0.707110
vt 0.967029 0.576417
v -2.843728 3.243728 2.186285
vn 0.000000 0.707104 0.707110
vt 0.967029 0.518486
v -2.843728 3.213731 2.216282
vn 0.000000 0.707104 0.707110
vt 0.970079 0.518486
v -2.843728 2.843728 2.216282
vn -1.000000 0.000001 0.000000
vt 0.861713 0.620504
v -2.843728 3.213731 2.216282
vn -1.000000 0.000001 0.000000
vt 0.954052 0.620504
v -2.843728 3.243728 2.186285
vn -1.000000 0.000001 0.000000
vt 0.961538 0.627990
v -2.843728 3.243728 2.006282
vn -1.000000 0.000001 0.000000
vt 0.961538 0.672912
v -2.843728 2.843728 2.006282
vn -1.000000 0.000001 0.000000
vt 0.861713 0.672912
v 2.426656 3.047227 0.203170
vn -1.000000 0.000000 0.000000
vt 1.427978 -0.034290
v 2.463853 2.957424 0.203170
vn -0.707107 -0.707107 0.000000
vt 1.322385 -0.034290
v 2.463853 2.957424 2.110943
vn -0.707107 -0.707107 0.000000
vt 1.322385 -1.703050
v 2.426656 3.047227 2.110943
vn -1.000000 0.000000 0.000000
vt 1.427978 -1.703050
v 2.463853 3.137029 0.203170
vn -0.707107 0.707107 0.000000
vt 1.533573 -0.034290
v 2.463853 3.137029 2.110943
vn -0.707107 0.707107 0.000000
vt 1.533573 -1.703050
v 1.410973 3.047227 0.203170
vn -1.000000 0.000000 0.000000
vt 1.666586 -0.034290
v 1.448171 2.957424 0.203170
vn -0.707107 -0.707106 0.000000
vt 1.560991 -0.034290
v 1.448171 2.957424 2.110943
vn -0.707107 -0.707106 0.000000
vt 1.560991 -1.703050
v 1.410973 3.047227 2.110943
vn -1.000000 0.000000 0.000000
vt 1.666586 -1.703050
v 1.448171 3.137029 0.203170
vn -0.707107 0.707106 0.000000
vt 1.772181 -0.034290
v 1.448171 3.137029 2.110943
vn -0.707107 0.707106 0.000000
vt 1.772181 -1.703050
v 0.395291 3.047227 0.203170
vn -1.000000 0.000000 0.000000
vt 1.904372 -0.034290
v 0.432488 2.957424 0.203170
vn -0.707107 -0.707106 0.000000
vt 1.798778 -0.034290
v 0.432488 2.957424 2.110943
vn -0.707107 -0.707106 0.000000
vt 1.798778 -1.703050
v 0.395291 3.047227 2.110943
vn -1.000000 0.000000 0.000000
vt 1.904372 -1.703050
v 0.432488 3.137029 0.203170
vn -0.707107 0.707106 0.000000
vt 2.009966 -0.034290
v 0.432488 3.137029 2.110943
vn -0.707107 0.707106 0.000000
vt 2.009966 -1.703050
v -0.620392 3.047227 0.203170
vn -1.000000 0.000000 0.000000
vt 2.142159 -0.034290
v -0.583194 2.957424 0.203170
vn -0.707107 -0.707106 0.000000
vt 2.036563 -0.034290
v -0.583194 2.957424 2.110943
vn -0.707107 -0.707106 0.000000
vt 2.036563 -1.703050
v -0.620392 3.047227 2.110943
vn -1.000000 0.000000 0.000000
vt 2.142159 -1.703050
v -0.583194 3.137029 0.203170
vn -0.707107 0.707106 0.000000
vt 2.247754 -0.034290
v -0.583194 3.137029 2.110943
vn -0.707107 0.707106 0.000000
vt 2.247754 -1.703050
v -1.636074 3.047227 0.203170
vn -1.000000 0.000000 0.000000
vt 2.379946 -0.034290
v -1.598877 2.957424 0.203170
vn -0.707107 -0.707106 0.000000
vt 2.274351 -0.034290
v -1.598877 2.957424 2.110943
vn -0.707107 -0.707106 0.000000
vt 2.274351 -1.703050
v -1.636074 3.047227 2.110943
vn -1.000000 0.000000 0.000000
vt 2.379946 -1.703050
v -1.598877 3.137029 0.203170
vn -0.707107 0.707106 0.000000
vt 2.485538 -0.034290
v -1.598877 3.137029 2.110943
vn -0.707107 0.707106 0.000000
vt 2.485538 -1.703050
v -2.526023 2.920227 0.203170
vn -0.000000 -1.000000 0.000000
vt 4.044453 -1.703050
v -2.436220 2.957424 0.203170
vn 0.707107 -0.707107 0.000000
vt 4.150046 -1.703050
v -2.436220 2.957424 2.110943
vn 0.707107 -0.707107 0.000000
vt 4.150046 -0.034290
v -2.526023 2.920227 2.110943
vn -0.000000 -1.000000 0.000000
vt 4.044453 -0.034290
v -2.615825 2.957424 0.203170
vn -0.707107 -0.707107 0.000000
vt 3.938859 -1.703050
v -2.615825 2.957424 2.110943
vn -0.707107 -0.707107 0.000000
vt 3.938859 -0.034290
v -2.399023 3.047227 0.203170
vn 1.000000 -0.000000 0.000000
vt 4.222175 -0.021799
v -2.436220 3.137029 0.203170
vn 0.707107 0.707107 0.000000
vt 4.327768 -0.021799
v -2.436220 3.137029 2.110943
vn 0.707107 0.707107 0.000000
vt 4.327768 1.646962
v -2.399023 3.047227 2.110943
vn 1.000000 -0.000000 0.000000
vt 4.222175 1.646962
v -2.436220 2.957424 0.203170
vn 0.707107 -0.707107 0.000000
vt 4.116579 -0.021799
v -2.436220 2.957424 2.110943
vn 0.707107 -0.707107 0.000000
vt 4.116579 1.646962
v 2.843727 3.243728 0.180003
vn 1.000000 0.000000 0.000000
vt 0.961538 0.822626
v 2.843727 3.213731 0.210000
vn 1.000000 0.000000 0.000000
vt 0.954051 0.830112
v 2.843727 2.843728 0.210000
vn 1.000000 0.000000 0.000000
vt 0.861713 0.830112
v 2.843727 2.843728 0.000000
vn 1.000000 0.000000 0.000000
vt 0.861713 0.777704
v 2.843727 3.243728 0.000000
vn 1.000000 0.000000 0.000000
vt 0.961538 0.777704
v 2.843727 3.213731 0.210000
vn 0.000000 0.707103 0.707111
vt 0.963644 0.576417
v 2.843727 3.243728 0.180003
vn 0.000000 0.707103 0.707111
vt 0.960593 0.576417
v -2.843728 3.243728 0.180003
vn 0.000000 0.707103 0.707111
vt 0.960593 0.518486
v -2.843728 3.213731 0.210000
vn 0.000000 0.707103 0.707111
vt 0.963644 0.518486
v 2.843727 3.213731 0.210000
vn 0.000000 0.000000 1.000000
vt 0.126325 0.345530
v -2.843728 3.213731 0.210000
vn 0.000000 0.000000 1.000000
vt 0.126325 1.945359
v -2.843728 2.843728 0.210000
vn 0.000000 0.000000 1.000000
vt 0.019035 1.945359
v 2.843727 2.843728 0.210000
vn 0.000000 0.000000 1.000000
vt 0.019035 0.345530
v 2.843727 3.243728 0.000000
vn 0.000000 1.000000 0.000000
vt 0.208119 -1.978934
v -2.843728 3.243728 0.000000
vn 0.000000 1.000000 0.000000
vt 0.208119 -0.379105
v -2.843728 3.243728 0.180003
vn 0.000000 1.000000 0.000000
vt 0.155923 -0.379105
v 2.843727 3.243728 0.180003
vn 0.000000 1.000000 0.000000
vt 0.155923 -1.978934
v -2.843728 2.843728 0.000000
vn -0.000000 -1.000000 0.000000
vt 0.631723 -0.379105
v 2.843727 2.843728 0.000000
vn -0.000000 -1.000000 0.000000
vt 0.631723 -1.978934
v 2.843727 2.843728 0.210000
vn -0.000000 -1.000000 0.000000
vt 0.692617 -1.978934
v -2.843728 2.843728 0.210000
vn -0.000000 -1.000000 0.000000
vt 0.692617 -0.379105
v 2.843727 3.213731 2.216282
vn 0.000000 0.000000 1.000000
vt 0.328536 0.345530
v -2.843728 3.213731 2.216282
vn 0.000000 0.000000 1.000000
vt 0.328536 1.945359
v -2.843728 2.843728 2.216282
vn 0.000000 0.000000 1.000000
vt 0.221245 1.945359
v 2.843727 2.843728 2.216282
vn 0.000000 0.000000 1.000000
vt 0.221245 0.345530
v 2.843727 3.243728 2.006282
vn 0.000000 1.000000 0.000000
vt 0.409993 -1.978934
v -2.843728 3.243728 2.006282
vn 0.000000 1.000000 0.000000
vt 0.409993 -0.379104
v -2.843728 3.243728 2.186285
vn 0.000000 1.000000 0.000000
vt 0.357798 -0.379104
v 2.843727 3.243728 2.186285
vn 0.000000 1.000000 0.000000
vt 0.357798 -1.978934
v -2.843728 2.843728 2.006282
vn -0.000000 -1.000000 0.000000
vt 0.705744 -0.379105
v 2.843727 2.843728 2.006282
vn -0.000000 -1.000000 0.000000
vt 0.705744 -1.978934
v 2.843727 2.843728 2.216282
vn -0.000000 -1.000000 0.000000
vt 0.766638 -1.978934
v -2.843728 2.843728 2.216282
vn -0.000000 -1.000000 0.000000
vt 0.766638 -0.379105
v 2.843727 3.243728 1.381800
vn 0.000000 0.000000 1.000000
vt 0.539108 0.345530
v -2.843728 3.243728 1.381800
vn 0.000000 0.000000 1.000000
vt 0.539108 1.945359
v -2.843728 2.843728 1.381800
vn 0.000000 0.000000 1.000000
vt 0.423120 1.945359
v 2.843727 2.843728 1.381800
vn 0.000000 0.000000 1.000000
vt 0.423120 0.345530
v 2.843727 3.243728 1.281476
vn 0.000000 1.000000 0.000000
vt 0.580065 -1.978934
v -2.843728 3.243728 1.281476
vn 0.000000 1.000000 0.000000
vt 0.580065 -0.379104
v -2.843728 3.243728 1.381800
vn 0.000000 1.000000 0.000000
vt 0.550973 -0.379104
v 2.843727 3.243728 1.381800
vn 0.000000 1.000000 0.000000
vt 0.550973 -1.978934
v -2.843728 2.843728 1.281476
vn -0.000000 -1.000000 0.000000
vt 0.591348 -0.379104
v 2.843727 2.843728 1.281476
vn -0.000000 -1.000000 0.000000
vt 0.591348 -1.978934
v 2.843727 2.843728 1.381800
vn -0.000000 -1.000000 0.000000
vt 0.620439 -1.978934
v -2.843728 2.843728 1.381800
vn -0.000000 -1.000000 0.000000
vt 0.620439 -0.379104
v 2.843727 3.243728 1.381800
vn 1.000000 0.000000 0.000000
vt 0.961538 0.768588
v 2.843727 2.843728 1.381800
vn 1.000000 0.000000 0.000000
vt 0.861713 0.768588
v 2.843727 2.843728 1.281476
vn 1.000000 0.000000 0.000000
vt 0.861713 0.743551
v 2.843727 3.243728 1.281476
vn 1.000000 0.000000 0.000000
vt 0.961538 0.743551
v -2.843728 2.843728 1.381800
vn -1.000000 0.000000 0.000000
vt 0.861713 0.839228
v -2.843728 3.243728 1.381800
vn -1.000000 0.000000 0.000000
vt 0.961538 0.839227
v -2.843728 3.243728 1.281476
vn -1.000000 0.000000 0.000000
vt 0.961538 0.864265
v -2.843728 2.843728 1.281476
vn -1.000000 0.000000 0.000000
vt 0.861713 0.864265
v -2.843728 2.843728 0.210000
vn -1.000000 0.000000 0.000000
vt 0.861713 0.873380
v -2.843728 3.213731 0.210000
vn -1.000000 0.000000 0.000000
vt 0.954052 0.873380
v -2.843728 3.243728 0.180003
vn -1.000000 0.000000 0.000000
vt 0.961538 0.880866
v -2.843728 3.243728 0.000000
vn -1.000000 0.000000 0.000000
vt 0.961538 0.925788
v -2.843728 2.843728 0.000000
vn -1.000000 0.000000 0.000000
vt 0.861713 0.925788
v 2.843727 3.243728 2.186285
vn 1.000000 0.000000 0.000000
vt 0.961538 0.726949
v 2.843727 3.213731 2.216282
vn 1.000000 0.000000 0.000000
vt 0.954052 0.734436
v 2.843727 2.843728 2.216282
vn 1.000000 0.000000 0.000000
vt 0.861713 0.734436
v 2.843727 2.843728 2.006282
vn 1.000000 0.000000 0.000000
vt 0.861713 0.682028
v 2.843727 3.243728 2.006282
vn 1.000000 0.000000 0.000000
vt 0.961538 0.682028
v -2.526023 3.174227 0.203170
vn 0.000000 1.000000 0.000000
vt 3.985171 1.646960
v -2.615825 3.137029 0.203170
vn -0.707107 0.707107 0.000000
vt 3.879578 1.646960
v -2.615825 3.137029 2.110943
vn -0.707107 0.707107 0.000000
vt 3.879578 -0.021799
v -2.526023 3.174227 2.110943
vn 0.000000 1.000000 0.000000
vt 3.985171 -0.021799
v -2.436220 3.137029 0.203170
vn 0.707107 0.707107 0.000000
vt 4.090766 1.646960
v -2.436220 3.137029 2.110943
vn 0.707107 0.707107 0.000000
vt 4.090766 -0.021799
v -2.653023 3.047227 0.203170
vn -1.000000 0.000000 0.000000
vt 2.617733 -0.034290
v -2.615825 2.957424 0.203170
vn -0.707107 -0.707107 0.000000
vt 2.512138 -0.034290
v -2.615825 2.957424 2.110943
vn -0.707107 -0.707107 0.000000
vt 2.512138 -1.703050
v -2.653023 3.047227 2.110943
vn -1.000000 0.000000 0.000000
vt 2.617733 -1.703050
v -2.615825 3.137029 0.203170
vn -0.707107 0.707107 0.000000
vt 2.723328 -0.034290
v -2.615825 3.137029 2.110943
vn -0.707107 0.707107 0.000000
vt 2.723328 -1.703050
v 2.553656 2.920227 0.203170
vn -0.000000 -1.000000 0.000000
vt 2.855520 -1.703050
v 2.643458 2.957424 0.203170
vn 0.707107 -0.707107 0.000000
vt 2.961116 -1.703050
v 2.643458 2.957424 2.110943
vn 0.707107 -0.707107 0.000000
vt 2.961116 -0.034290
v 2.553656 2.920227 2.110943
vn -0.000000 -1.000000 0.000000
vt 2.855520 -0.034290
v 2.463853 2.957424 0.203170
vn -0.707107 -0.707107 0.000000
vt 2.749925 -1.703050
v 2.463853 2.957424 2.110943
vn -0.707107 -0.707107 0.000000
vt 2.749925 -0.034290
v -1.509074 3.174227 0.203170
vn -0.000000 1.000000 0.000000
vt 4.459178 1.646960
v -1.598877 3.137029 0.203170
vn -0.707107 0.707106 0.000000
vt 4.353580 1.646960
v -1.598877 3.137029 2.110943
vn -0.707107 0.707106 0.000000
vt 4.353580 -0.021799
v -1.509074 3.174227 2.110943
vn -0.000000 1.000000 0.000000
vt 4.459178 -0.021799
v -1.419272 3.137029 0.203170
vn 0.707107 0.707106 0.000000
vt 4.564770 1.646960
v -1.419272 3.137029 2.110943
vn 0.707107 0.707106 0.000000
vt 4.564770 -0.021799
v 2.680656 3.047227 0.203170
vn 1.000000 -0.000000 0.000000
vt 4.282241 -1.703050
v 2.643458 3.137029 0.203170
vn 0.707107 0.707107 0.000000
vt 4.387834 -1.703050
v 2.643458 3.137029 2.110943
vn 0.707107 0.707107 0.000000
vt 4.387834 -0.034291
v 2.680656 3.047227 2.110943
vn 1.000000 -0.000000 0.000000
vt 4.282241 -0.034291
v 2.643458 2.957424 0.203170
vn 0.707107 -0.707107 0.000000
vt 4.176645 -1.703050
v 2.643458 2.957424 2.110943
vn 0.707107 -0.707107 0.000000
vt 4.176645 -0.034291
v -1.382074 3.047227 0.203170
vn 1.000000 -0.000000 0.000000
vt 4.696178 -0.021799
v -1.419272 3.137029 0.203170
vn 0.707107 0.707106 0.000000
vt 4.801772 -0.021799
v -1.419272 3.137029 2.110943
vn 0.707107 0.707106 0.000000
vt 4.801772 1.646960
v -1.382074 3.047227 2.110943
vn 1.000000 -0.000000 0.000000
vt 4.696178 1.646960
v -1.419272 2.957424 0.203170
vn 0.707107 -0.707106 0.000000
vt 4.590583 -0.021799
v -1.419272 2.957424 2.110943
vn 0.707107 -0.707106 0.000000
vt 4.590583 1.646960
v 2.553656 3.174227 0.203170
vn 0.000000 1.000000 0.000000
vt 4.520028 -0.034291
v 2.463853 3.137029 0.203170
vn -0.707107 0.707107 0.000000
vt 4.414433 -0.034291
v 2.463853 3.137029 2.110943
vn -0.707107 0.707107 0.000000
vt 4.414433 -1.703050
v 2.553656 3.174227 2.110943
vn 0.000000 1.000000 0.000000
vt 4.520028 -1.703050
v 2.643458 3.137029 0.203170
vn 0.707107 0.707107 0.000000
vt 4.625620 -0.034291
v 2.643458 3.137029 2.110943
vn 0.707107 0.707107 0.000000
vt 4.625620 -1.703050
v -1.509074 2.920227 0.203170
vn 0.000000 -1.000000 0.000000
vt 3.806667 -1.703050
v -1.419272 2.957424 0.203170
vn 0.707107 -0.707106 0.000000
vt 3.912260 -1.703050
v -1.419272 2.957424 2.110943
vn 0.707107 -0.707106 0.000000
vt 3.912260 -0.034290
v -1.509074 2.920227 2.110943
vn 0.000000 -1.000000 0.000000
vt 3.806667 -0.034290
v -1.598877 2.957424 0.203170
vn -0.707107 -0.707106 0.000000
vt 3.701074 -1.703050
v -1.598877 2.957424 2.110943
vn -0.707107 -0.707106 0.000000
vt 3.701074 -0.034290
v 1.537973 2.920227 0.203170
vn -0.000000 -1.000000 0.000000
vt 3.093306 -1.703050
v 1.627776 2.957424 0.203170
vn 0.707107 -0.707106 0.000000
vt 3.198901 -1.703050
v 1.627776 2.957424 2.110943
vn 0.707107 -0.707106 0.000000
vt 3.198901 -0.034290
v 1.537973 2.920227 2.110943
vn -0.000000 -1.000000 0.000000
vt 3.093306 -0.034290
v 1.448171 2.957424 0.203170
vn -0.707107 -0.707106 0.000000
vt 2.987712 -1.703050
v 1.448171 2.957424 2.110943
vn -0.707107 -0.707106 0.000000
vt 2.987712 -0.034290
v -0.493392 3.174227 0.203170
vn 0.000000 1.000000 0.000000
vt 4.933178 1.646960
v -0.583194 3.137029 0.203170
vn -0.707107 0.707106 0.000000
vt 4.827584 1.646960
v -0.583194 3.137029 2.110943
vn -0.707107 0.707106 0.000000
vt 4.827584 -0.021799
v -0.493392 3.174227 2.110943
vn 0.000000 1.000000 0.000000
vt 4.933178 -0.021799
v -0.403589 3.137029 0.203170
vn 0.707107 0.707106 0.000000
vt 5.038774 1.646960
v -0.403589 3.137029 2.110943
vn 0.707107 0.707106 0.000000
vt 5.038774 -0.021799
v 1.664973 3.047227 0.203170
vn 1.000000 -0.000000 0.000000
vt 4.757814 -1.703050
v 1.627776 3.137029 0.203170
vn 0.707107 0.707106 0.000000
vt 4.863408 -1.703050
v 1.627776 3.137029 2.110943
vn 0.707107 0.707106 0.000000
vt 4.863408 -0.034291
v 1.664973 3.047227 2.110943
vn 1.000000 -0.000000 0.000000
vt 4.757814 -0.034291
v 1.627776 2.957424 0.203170
vn 0.707107 -0.707106 0.000000
vt 4.652215 -1.703050
v 1.627776 2.957424 2.110943
vn 0.707107 -0.707106 0.000000
vt 4.652215 -0.034291
v -0.366392 3.047227 0.203170
vn 1.000000 -0.000000 0.000000
vt 5.170177 -0.021799
v -0.403589 3.137029 0.203170
vn 0.707107 0.707106 0.000000
vt 5.275775 -0.021799
v -0.403589 3.137029 2.110943
vn 0.707107 0.707106 0.000000
vt 5.275775 1.646960
v -0.366392 3.047227 2.110943
vn 1.000000 -0.000000 0.000000
vt 5.170177 1.646960
v -0.403589 2.957424 0.203170
vn 0.707107 -0.707106 0.000000
vt 5.064584 -0.021799
v -0.403589 2.957424 2.110943
vn 0.707107 -0.707106 0.000000
vt 5.064584 1.646960
v 1.537973 3.174227 0.203170
vn 0.000000 1.000000 0.000000
vt 4.995603 -0.034291
v 1.448171 3.137029 0.203170
vn -0.707107 0.707106 0.000000
vt 4.890007 -0.034291
v 1.448171 3.137029 2.110943
vn -0.707107 0.707106 0.000000
vt 4.890007 -1.703050
v 1.537973 3.174227 2.110943
vn 0.000000 1.000000 0.000000
vt 4.995603 -1.703050
v 1.627776 3.137029 0.203170
vn 0.707107 0.707106 0.000000
vt 5.101196 -0.034291
v 1.627776 3.137029 2.110943
vn 0.707107 0.707106 0.000000
vt 5.101196 -1.703050
v -0.493392 2.920227 0.203170
vn -0.000000 -1.000000 0.000000
vt 3.568880 -1.703050
v -0.403589 2.957424 0.203170
vn 0.707107 -0.707106 0.000000
vt 3.674475 -1.703050
v -0.403589 2.957424 2.110943
vn 0.707107 -0.707106 0.000000
vt 3.674475 -0.034290
v -0.493392 2.920227 2.110943
vn -0.000000 -1.000000 0.000000
vt 3.568880 -0.034290
v -0.583194 2.957424 0.203170
vn -0.707107 -0.707106 0.000000
vt 3.463286 -1.703050
v -0.583194 2.957424 2.110943
vn -0.707107 -0.707106 0.000000
vt 3.463286 -0.034290
v 0.522291 2.920227 0.203170
vn -0.000000 -1.000000 0.000000
vt 3.331093 -1.703050
v 0.612093 2.957424 0.203170
vn 0.707107 -0.707106 0.000000
vt 3.436690 -1.703050
v 0.612093 2.957424 2.110943
vn 0.707107 -0.707106 0.000000
vt 3.436690 -0.034290
v 0.522291 2.920227 2.110943
vn -0.000000 -1.000000 0.000000
vt 3.331093 -0.034290
v 0.432488 2.957424 0.203170
vn -0.707107 -0.707106 0.000000
vt 3.225495 -1.703050
v 0.432488 2.957424 2.110943
vn -0.707107 -0.707106 0.000000
vt 3.225495 -0.034290
v 0.522291 3.174227 0.203170
vn 0.000000 1.000000 0.000000
vt 5.407182 1.646960
v 0.432488 3.137029 0.203170
vn -0.707107 0.707106 0.000000
vt 5.301589 1.646960
v 0.432488 3.137029 2.110943
vn -0.707107 0.707106 0.000000
vt 5.301589 -0.021799
v 0.522291 3.174227 2.110943
vn 0.000000 1.000000 0.000000
vt 5.407182 -0.021799
v 0.612093 3.137029 0.203170
vn 0.707107 0.707106 0.000000
vt 5.512777 1.646960
v 0.612093 3.137029 2.110943
vn 0.707107 0.707106 0.000000
vt 5.512777 -0.021799
v 0.649291 3.047227 0.203170
vn 1.000000 -0.000000 0.000000
vt 5.233391 -1.703050
v 0.612093 3.137029 0.203170
vn 0.707107 0.707106 0.000000
vt 5.338983 -1.703050
v 0.612093 3.137029 2.110943
vn 0.707107 0.707106 0.000000
vt 5.338983 -0.034291
v 0.649291 3.047227 2.110943
vn 1.000000 -0.000000 0.000000
vt 5.233391 -0.034291
v 0.612093 2.957424 0.203170
vn 0.707107 -0.707106 0.000000
vt 5.127792 -1.703050
v 0.612093 2.957424 2.110943
vn 0.707107 -0.707106 0.000000
vt 5.127792 -0.034291
g Gefaengnis_part_1
# Submesh 1: 134 triangles
f 233/233/233 234/234/234 235/235/235
f 233/233/233 235/235/235 236/236/236
f 237/237/237 238/238/238 239/239/239
f 237/237/237 239/239/239 240/240/240
f 237/237/237 240/240/240 241/241/241
f 242/242/242 243/243/243 244/244/244
f 242/242/242 244/244/244 245/245/245
f 246/246/246 242/242/242 245/245/245
f 246/246/246 245/245/245 247/247/247
f 248/248/248 249/249/249 250/250/250
f 248/248/248 250/250/250 251/251/251
f 252/252/252 248/248/248 251/251/251
f 252/252/252 251/251/251 253/253/253
f 254/254/254 255/255/255 256/256/256
f 254/254/254 256/256/256 257/257/257
f 258/258/258 254/254/254 257/257/257
f 258/258/258 257/257/257 259/259/259
f 260/260/260 261/261/261 262/262/262
f 260/260/260 262/262/262 263/263/263
f 264/264/264 260/260/260 263/263/263
f 264/264/264 263/263/263 265/265/265
f 266/266/266 267/267/267 268/268/268
f 266/266/266 268/268/268 269/269/269
f 270/270/270 266/266/266 269/269/269
f 270/270/270 269/269/269 271/271/271
f 272/272/272 273/273/273 274/274/274
f 272/272/272 274/274/274 275/275/275
f 276/276/276 272/272/272 275/275/275
f 276/276/276 275/275/275 277/277/277
f 278/278/278 279/279/279 280/280/280
f 278/278/278 280/280/280 281/281/281
f 282/282/282 278/278/278 281/281/281
f 282/282/282 281/281/281 283/283/283
f 284/284/284 285/285/285 286/286/286
f 284/284/284 286/286/286 287/287/287
f 284/284/284 287/287/287 288/288/288
f 289/289/289 290/290/290 291/291/291
f 289/289/289 291/291/291 292/292/292
f 293/293/293 294/294/294 295/295/295
f 293/293/293 295/295/295 296/296/296
f 297/297/297 298/298/298 299/299/299
f 297/297/297 299/299/299 300/300/300
f 301/301/301 302/302/302 303/303/303
f 301/301/301 303/303/303 304/304/304
f 305/305/305 306/306/306 307/307/307
f 305/305/305 307/307/307 308/308/308
f 309/309/309 310/310/310 311/311/311
f 309/309/309 311/311/311 312/312/312
f 313/313/313 314/314/314 315/315/315
f 313/313/313 315/315/315 316/316/316
f 317/317/317 318/318/318 319/319/319
f 317/317/317 319/319/319 320/320/320
f 321/321/321 322/322/322 323/323/323
f 321/321/321 323/323/323 324/324/324
f 325/325/325 326/326/326 327/327/327
f 325/325/325 327/327/327 328/328/328
f 329/329/329 330/330/330 331/331/331
f 329/329/329 331/331/331 332/332/332
f 333/333/333 334/334/334 335/335/335
f 333/333/333 335/335/335 336/336/336
f 337/337/337 338/338/338 339/339/339
f 337/337/337 339/339/339 340/340/340
f 337/337/337 340/340/340 341/341/341
f 342/342/342 343/343/343 344/344/344
f 342/342/342 344/344/344 345/345/345
f 342/342/342 345/345/345 346/346/346
f 347/347/347 348/348/348 349/349/349
f 347/347/347 349/349/349 350/350/350
f 351/351/351 347/347/347 350/350/350
f 351/351/351 350/350/350 352/352/352
f 353/353/353 354/354/354 355/355/355
f 353/353/353 355/355/355 356/356/356
f 357/357/357 353/353/353 356/356/356
f 357/357/357 356/356/356 358/358/358
f 359/359/359 360/360/360 361/361/361
f 359/359/359 361/361/361 362/362/362
f 363/363/363 359/359/359 362/362/362
f 363/363/363 362/362/362 364/364/364
f 365/365/365 366/366/366 367/367/367
f 365/365/365 367/367/367 368/368/368
f 369/369/369 365/365/365 368/368/368
f 369/369/369 368/368/368 370/370/370
f 371/371/371 372/372/372 373/373/373
f 371/371/371 373/373/373 374/374/374
f 375/375/375 371/371/371 374/374/374
f 375/375/375 374/374/374 376/376/376
f 377/377/377 378/378/378 379/379/379
f 377/377/377 379/379/379 380/380/380
f 381/381/381 377/377/377 380/380/380
f 381/381/381 380/380/380 382/382/382
f 383/383/383 384/384/384 385/385/385
f 383/383/383 385/385/385 386/386/386
f 387/387/387 383/383/383 386/386/386
f 387/387/387 386/386/386 388/388/388
f 389/389/389 390/390/390 391/391/391
f 389/389/389 391/391/391 392/392/392
f 393/393/393 389/389/389 392/392/392
f 393/393/393 392/392/392 394/394/394
f 395/395/395 396/396/396 397/397/397
f 395/395/395 397/397/397 398/398/398
f 399/399/399 395/395/395 398/398/398
f 399/399/399 398/398/398 400/400/400
f 401/401/401 402/402/402 403/403/403
f 401/401/401 403/403/403 404/404/404
f 405/405/405 401/401/401 404/404/404
f 405/405/405 404/404/404 406/406/406
f 407/407/407 408/408/408 409/409/409
f 407/407/407 409/409/409 410/410/410
f 411/411/411 407/407/407 410/410/410
f 411/411/411 410/410/410 412/412/412
f 413/413/413 414/414/414 415/415/415
f 413/413/413 415/415/415 416/416/416
f 417/417/417 413/413/413 416/416/416
f 417/417/417 416/416/416 418/418/418
f 419/419/419 420/420/420 421/421/421
f 419/419/419 421/421/421 422/422/422
f 423/423/423 419/419/419 422/422/422
f 423/423/423 422/422/422 424/424/424
f 425/425/425 426/426/426 427/427/427
f 425/425/425 427/427/427 428/428/428
f 429/429/429 425/425/425 428/428/428
f 429/429/429 428/428/428 430/430/430
f 431/431/431 432/432/432 433/433/433
f 431/431/431 433/433/433 434/434/434
f 435/435/435 431/431/431 434/434/434
f 435/435/435 434/434/434 436/436/436
f 437/437/437 438/438/438 439/439/439
f 437/437/437 439/439/439 440/440/440
f 441/441/441 437/437/437 440/440/440
f 441/441/441 440/440/440 442/442/442
f 443/443/443 444/444/444 445/445/445
f 443/443/443 445/445/445 446/446/446
f 447/447/447 443/443/443 446/446/446
f 447/447/447 446/446/446 448/448/448

# Submesh 2: 216 vertices
v 3.213731 -2.843728 2.216282
vn 0.707106 0.000000 0.707108
vt 0.970079 0.576417
v 3.243728 -2.843728 2.186285
vn 0.707106 0.000000 0.707108
vt 0.967029 0.576417
v 3.243728 2.843728 2.186285
vn 0.707106 0.000000 0.707108
vt 0.967029 0.518486
v 3.213731 2.843728 2.216282
vn 0.707106 0.000000 0.707108
vt 0.970079 0.518486
v 2.843728 2.843728 2.216282
vn 0.000000 1.000000 0.000000
vt 0.961538 0.830112
v 3.213731 2.843728 2.216282
vn 0.000000 1.000000 0.000000
vt 0.869199 0.830112
v 3.243728 2.843728 2.186285
vn 0.000000 1.000000 0.000000
vt 0.861713 0.822626
v 3.243728 2.843728 2.006282
vn 0.000000 1.000000 0.000000
vt 0.861713 0.777704
v 2.843728 2.843728 2.006282
vn 0.000000 1.000000 0.000000
vt 0.961538 0.777704
v 3.047227 -2.426656 0.203170
vn -0.000000 1.000000 0.000000
vt 4.044453 -0.034291
v 2.957424 -2.463853 0.203170
vn -0.707107 0.707107 0.000000
vt 3.938859 -0.034291
v 2.957424 -2.463853 2.110943
vn -0.707107 0.707107 0.000000
vt 3.938859 -1.703050
v 3.047227 -2.426656 2.110943
vn -0.000000 1.000000 0.000000
vt 4.044453 -1.703050
v 3.137029 -2.463853 0.203170
vn 0.707107 0.707107 0.000000
vt 4.150049 -0.034291
v 3.137029 -2.463853 2.110943
vn 0.707107 0.707107 0.000000
vt 4.150049 -1.703050
v 3.047227 -1.410973 0.203170
vn -0.000000 1.000000 0.000000
vt 4.520024 -0.034291
v 2.957425 -1.448171 0.203170
vn -0.707106 0.707107 0.000000
vt 4.414433 -0.034291
v 2.957425 -1.448171 2.110943
vn -0.707106 0.707107 0.000000
vt 4.414433 -1.703050
v 3.047227 -1.410973 2.110943
vn -0.000000 1.000000 0.000000
vt 4.520024 -1.703050
v 3.137030 -1.448171 0.203170
vn 0.707106 0.707107 0.000000
vt 4.625620 -0.034291
v 3.137030 -1.448171 2.110943
vn 0.707106 0.707107 0.000000
vt 4.625620 -1.703050
v 3.047227 -0.395291 0.203170
vn -0.000000 1.000000 0.000000
vt 4.995599 -0.034291
v 2.957424 -0.432488 0.203170
vn -0.707106 0.707107 0.000000
vt 4.890004 -0.034291
v 2.957424 -0.432488 2.110943
vn -0.707106 0.707107 0.000000
vt 4.890004 -1.703050
v 3.047227 -0.395291 2.110943
vn -0.000000 1.000000 0.000000
vt 4.995599 -1.703050
v 3.137029 -0.432488 0.203170
vn 0.707106 0.707107 0.000000
vt 5.101196 -0.034291
v 3.137029 -0.432488 2.110943
vn 0.707106 0.707107 0.000000
vt 5.101196 -1.703050
v 3.047227 0.620392 0.203170
vn 0.000000 1.000000 0.000000
vt 5.407177 1.646960
v 2.957424 0.583194 0.203170
vn -0.707106 0.707107 0.000000
vt 5.301588 1.646960
v 2.957424 0.583194 2.110943
vn -0.707106 0.707107 0.000000
vt 5.301588 -0.021799
v 3.047227 0.620392 2.110943
vn 0.000000 1.000000 0.000000
vt 5.407177 -0.021799
v 3.137029 0.583194 0.203170
vn 0.707106 0.707107 0.000000
vt 5.512776 1.646960
v 3.137029 0.583194 2.110943
vn 0.707106 0.707107 0.000000
vt 5.512776 -0.021799
v 3.047227 1.636074 0.203170
vn -0.000000 1.000000 0.000000
vt 4.933177 1.646960
v 2.957424 1.598877 0.203170
vn -0.707106 0.707107 0.000000
vt 4.827584 1.646960
v 2.957424 1.598877 2.110943
vn -0.707106 0.707107 0.000000
vt 4.827584 -0.021799
v 3.047227 1.636074 2.110943
vn -0.000000 1.000000 0.000000
vt 4.933177 -0.021799
v 3.137029 1.598877 0.203170
vn 0.707106 0.707107 0.000000
vt 5.038773 1.646960
v 3.137029 1.598877 2.110943
vn 0.707106 0.707107 0.000000
vt 5.038773 -0.021799
v 2.920227 2.526023 0.203170
vn -1.000000 -0.000000 0.000000
vt 1.904372 -0.034290
v 2.957424 2.436220 0.203170
vn -0.707107 -0.707107 0.000000
vt 1.798778 -0.034290
v 2.957424 2.436220 2.110943
vn -0.707107 -0.707107 0.000000
vt 1.798778 -1.703050
v 2.920227 2.526023 2.110943
vn -1.000000 -0.000000 0.000000
vt 1.904372 -1.703050
v 2.957424 2.615825 0.203170
vn -0.707107 0.707107 0.000000
vt 2.009967 -0.034290
v 2.957424 2.615825 2.110943
vn -0.707107 0.707107 0.000000
vt 2.009967 -1.703050
v 3.047227 2.399023 0.203170
vn 0.000000 -1.000000 0.000000
vt 3.806665 -1.703050
v 3.137029 2.436220 0.203170
vn 0.707107 -0.707107 0.000000
vt 3.912261 -1.703050
v 3.137029 2.436220 2.110943
vn 0.707107 -0.707107 0.000000
vt 3.912261 -0.034290
v 3.047227 2.399023 2.110943
vn 0.000000 -1.000000 0.000000
vt 3.806665 -0.034290
v 2.957424 2.436220 0.203170
vn -0.707107 -0.707107 0.000000
vt 3.701074 -1.703050
v 2.957424 2.436220 2.110943
vn -0.707107 -0.707107 0.000000
vt 3.701074 -0.034290
v 3.243728 -2.843728 0.180003
vn 0.000000 -1.000000 0.000000
vt 0.861713 0.627990
v 3.213731 -2.843728 0.210000
vn 0.000000 -1.000000 0.000000
vt 0.869199 0.620504
v 2.843728 -2.843728 0.210000
vn 0.000000 -1.000000 0.000000
vt 0.961538 0.620504
v 2.843728 -2.843728 0.000000
vn 0.000000 -1.000000 0.000000
vt 0.961538 0.672912
v 3.243728 -2.843728 0.000000
vn 0.000000 -1.000000 0.000000
vt 0.861713 0.672912
v 3.213731 -2.843728 0.210000
vn 0.707106 0.000000 0.707108
vt 0.963644 0.576417
v 3.243728 -2.843728 0.180003
vn 0.707106 0.000000 0.707108
vt 0.960593 0.576417
v 3.243728 2.843728 0.180003
vn 0.707106 0.000000 0.707108
vt 0.960593 0.518486
v 3.213731 2.843728 0.210000
vn 0.707106 0.000000 0.707108
vt 0.963644 0.518486
v 3.213731 -2.843728 0.210000
vn 0.000000 0.000000 1.000000
vt 0.478724 1.361771
v 3.213731 2.843728 0.210000
vn 0.000000 0.000000 1.000000
vt 0.478724 2.601417
v 2.843728 2.843728 0.210000
vn 0.000000 0.000000 1.000000
vt 0.381050 2.601417
v 2.843728 -2.843728 0.210000
vn 0.000000 0.000000 1.000000
vt 0.381050 1.361771
v 3.243728 -2.843728 0.000000
vn 1.000000 0.000000 0.000000
vt 0.067706 1.361771
v 3.243728 2.843728 0.000000
vn 1.000000 0.000000 0.000000
vt 0.067706 2.601417
v 3.243728 2.843728 0.180003
vn 1.000000 0.000000 0.000000
vt 0.015510 2.601417
v 3.243728 -2.843728 0.180003
vn 1.000000 0.000000 0.000000
vt 0.015510 1.361771
v 2.843728 2.843728 0.000000
vn -1.000000 -0.000000 0.000000
vt 0.080832 2.601417
v 2.843728 -2.843728 0.000000
vn -1.000000 -0.000000 0.000000
vt 0.080832 1.361771
v 2.843728 -2.843728 0.210000
vn -1.000000 -0.000000 0.000000
vt 0.141726 1.361771
v 2.843728 2.843728 0.210000
vn -1.000000 -0.000000 0.000000
vt 0.141726 2.601417
v 3.213731 -2.843728 2.216282
vn 0.000000 0.000000 1.000000
vt 0.593139 1.361771
v 3.213731 2.843728 2.216282
vn 0.000000 0.000000 1.000000
vt 0.593139 2.601417
v 2.843728 2.843728 2.216282
vn 0.000000 0.000000 1.000000
vt 0.498139 2.601417
v 2.843728 -2.843728 2.216282
vn 0.000000 0.000000 1.000000
vt 0.498139 1.361771
v 3.243728 -2.843728 2.006282
vn 1.000000 0.000000 0.000000
vt 0.210371 1.361771
v 3.243728 2.843728 2.006282
vn 1.000000 0.000000 0.000000
vt 0.210371 2.601417
v 3.243728 2.843728 2.186285
vn 1.000000 0.000000 0.000000
vt 0.158175 2.601417
v 3.243728 -2.843728 2.186285
vn 1.000000 0.000000 0.000000
vt 0.158175 1.361771
v 2.843728 2.843728 2.006282
vn -1.000000 -0.000000 0.000000
vt 0.223498 2.601417
v 2.843728 -2.843728 2.006282
vn -1.000000 -0.000000 0.000000
vt 0.223498 1.361771
v 2.843728 -2.843728 2.216282
vn -1.000000 -0.000000 0.000000
vt 0.284392 1.361771
v 2.843728 2.843728 2.216282
vn -1.000000 -0.000000 0.000000
vt 0.284392 2.601417
v 3.243728 -2.843728 1.381800
vn 0.000000 0.000000 1.000000
vt 0.716191 1.361771
v 3.243728 2.843728 1.381800
vn 0.000000 0.000000 1.000000
vt 0.716191 2.601417
v 2.843728 2.843728 1.381800
vn 0.000000 0.000000 1.000000
vt 0.609857 2.601417
v 2.843728 -2.843728 1.381800
vn 0.000000 0.000000 1.000000
vt 0.609857 1.361771
v 3.243728 -2.843728 1.281476
vn 1.000000 0.000000 0.000000
vt 0.322014 1.361771
v 3.243728 2.843728 1.281476
vn 1.000000 0.000000 0.000000
vt 0.322014 2.601417
v 3.243728 2.843728 1.381800
vn 1.000000 0.000000 0.000000
vt 0.292922 2.601417
v 3.243728 -2.843728 1.381800
vn 1.000000 0.000000 0.000000
vt 0.292922 1.361771
v 2.843728 2.843728 1.281476
vn -1.000000 -0.000000 0.000000
vt 0.333297 2.601417
v 2.843728 -2.843728 1.281476
vn -1.000000 -0.000000 0.000000
vt 0.333297 1.361771
v 2.843728 -2.843728 1.381800
vn -1.000000 -0.000000 0.000000
vt 0.362389 1.361771
v 2.843728 2.843728 1.381800
vn -1.000000 -0.000000 0.000000
vt 0.362389 2.601417
v 3.243728 -2.843728 1.381800
vn 0.000000 -1.000000 0.000000
vt 0.861713 0.743551
v 2.843728 -2.843728 1.381800
vn 0.000000 -1.000000 0.000000
vt 0.961538 0.743551
v 2.843728 -2.843728 1.281476
vn 0.000000 -1.000000 0.000000
vt 0.961538 0.768588
v 3.243728 -2.843728 1.281476
vn 0.000000 -1.000000 0.000000
vt 0.861713 0.768588
v 2.843728 2.843728 1.381800
vn 0.000000 1.000000 0.000000
vt 0.961538 0.864265
v 3.243728 2.843728 1.381800
vn 0.000000 1.000000 0.000000
vt 0.861713 0.864265
v 3.243728 2.843728 1.281476
vn 0.000000 1.000000 0.000000
vt 0.861713 0.839228
v 2.843728 2.843728 1.281476
vn 0.000000 1.000000 0.000000
vt 0.961538 0.839228
v 2.843728 2.843728 0.210000
vn 0.000000 1.000000 0.000000
vt 0.961537 0.925789
v 3.213731 2.843728 0.210000
vn 0.000000 1.000000 0.000000
vt 0.869199 0.925788
v 3.243728 2.843728 0.180003
vn 0.000000 1.000000 0.000000
vt 0.861713 0.918302
v 3.243728 2.843728 0.000000
vn 0.000000 1.000000 0.000000
vt 0.861713 0.873380
v 2.843728 2.843728 0.000000
vn 0.000000 1.000000 0.000000
vt 0.961537 0.873380
v 3.243728 -2.843728 2.186285
vn 0.000000 -1.000000 0.000000
vt 0.861713 0.689514
v 3.213731 -2.843728 2.216282
vn 0.000000 -1.000000 0.000000
vt 0.869199 0.682027
v 2.843728 -2.843728 2.216282
vn 0.000000 -1.000000 0.000000
vt 0.961538 0.682027
v 2.843728 -2.843728 2.006282
vn 0.000000 -1.000000 0.000000
vt 0.961538 0.734436
v 3.243728 -2.843728 2.006282
vn 0.000000 -1.000000 0.000000
vt 0.861713 0.734435
v 3.174227 2.526023 0.203170
vn 1.000000 0.000000 0.000000
vt 3.985171 -0.021798
v 3.137029 2.615825 0.203170
vn 0.707107 0.707107 0.000000
vt 4.090766 -0.021798
v 3.137029 2.615825 2.110943
vn 0.707107 0.707107 0.000000
vt 4.090766 1.646961
v 3.174227 2.526023 2.110943
vn 1.000000 0.000000 0.000000
vt 3.985171 1.646961
v 3.137029 2.436220 0.203170
vn 0.707107 -0.707107 0.000000
vt 3.879578 -0.021798
v 3.137029 2.436220 2.110943
vn 0.707107 -0.707107 0.000000
vt 3.879578 1.646961
v 3.047227 2.653023 0.203170
vn -0.000000 1.000000 0.000000
vt 4.222173 1.646960
v 2.957424 2.615825 0.203170
vn -0.707107 0.707107 0.000000
vt 4.116579 1.646960
v 2.957424 2.615825 2.110943
vn -0.707107 0.707107 0.000000
vt 4.116579 -0.021799
v 3.047227 2.653023 2.110943
vn -0.000000 1.000000 0.000000
vt 4.222173 -0.021799
v 3.137029 2.615825 0.203170
vn 0.707107 0.707107 0.000000
vt 4.327765 1.646960
v 3.137029 2.615825 2.110943
vn 0.707107 0.707107 0.000000
vt 4.327765 -0.021799
v 2.920227 -2.553656 0.203170
vn -1.000000 -0.000000 0.000000
vt 2.142160 -0.034290
v 2.957424 -2.643458 0.203170
vn -0.707107 -0.707107 0.000000
vt 2.036563 -0.034290
v 2.957424 -2.643458 2.110943
vn -0.707107 -0.707107 0.000000
vt 2.036563 -1.703049
v 2.920227 -2.553656 2.110943
vn -1.000000 -0.000000 0.000000
vt 2.142160 -1.703049
v 2.957424 -2.463853 0.203170
vn -0.707107 0.707107 0.000000
vt 2.247754 -0.034290
v 2.957424 -2.463853 2.110943
vn -0.707107 0.707107 0.000000
vt 2.247754 -1.703049
v 3.174227 1.509074 0.203170
vn 1.000000 0.000000 0.000000
vt 4.459175 -0.021799
v 3.137029 1.598877 0.203170
vn 0.707106 0.707107 0.000000
vt 4.564768 -0.021799
v 3.137029 1.598877 2.110943
vn 0.707106 0.707107 0.000000
vt 4.564768 1.646962
v 3.174227 1.509074 2.110943
vn 1.000000 0.000000 0.000000
vt 4.459175 1.646962
v 3.137029 1.419272 0.203170
vn 0.707106 -0.707107 0.000000
vt 4.353580 -0.021799
v 3.137029 1.419272 2.110943
vn 0.707106 -0.707107 0.000000
vt 4.353580 1.646962
v 3.047227 -2.680656 0.203170
vn 0.000000 -1.000000 0.000000
vt 2.379947 -1.703050
v 3.137029 -2.643458 0.203170
vn 0.707107 -0.707107 0.000000
vt 2.485540 -1.703050
v 3.137029 -2.643458 2.110943
vn 0.707107 -0.707107 0.000000
vt 2.485540 -0.034290
v 3.047227 -2.680656 2.110943
vn 0.000000 -1.000000 0.000000
vt 2.379947 -0.034290
v 2.957424 -2.643458 0.203170
vn -0.707107 -0.707107 0.000000
vt 2.274353 -1.703050
v 2.957424 -2.643458 2.110943
vn -0.707107 -0.707107 0.000000
vt 2.274353 -0.034290
v 3.047227 1.382074 0.203170
vn 0.000000 -1.000000 0.000000
vt 3.568879 -1.703050
v 3.137029 1.419272 0.203170
vn 0.707106 -0.707107 0.000000
vt 3.674475 -1.703050
v 3.137029 1.419272 2.110943
vn 0.707106 -0.707107 0.000000
vt 3.674475 -0.034290
v 3.047227 1.382074 2.110943
vn 0.000000 -1.000000 0.000000
vt 3.568879 -0.034290
v 2.957424 1.419272 0.203170
vn -0.707106 -0.707107 0.000000
vt 3.463286 -1.703050
v 2.957424 1.419272 2.110943
vn -0.707106 -0.707107 0.000000
vt 3.463286 -0.034290
v 3.174227 -2.553656 0.203170
vn 1.000000 0.000000 0.000000
vt 4.282238 -1.703049
v 3.137029 -2.463853 0.203170
vn 0.707107 0.707107 0.000000
vt 4.387834 -1.703049
v 3.137029 -2.463853 2.110943
vn 0.707107 0.707107 0.000000
vt 4.387834 -0.034291
v 3.174227 -2.553656 2.110943
vn 1.000000 0.000000 0.000000
vt 4.282238 -0.034291
v 3.137029 -2.643458 0.203170
vn 0.707107 -0.707107 0.000000
vt 4.176645 -1.703049
v 3.137029 -2.643458 2.110943
vn 0.707107 -0.707107 0.000000
vt 4.176645 -0.034291
v 2.920227 1.509074 0.203170
vn -1.000000 -0.000000 0.000000
vt 4.696178 1.646960
v 2.957424 1.419272 0.203170
vn -0.707106 -0.707107 0.000000
vt 4.590583 1.646960
v 2.957424 1.419272 2.110943
vn -0.707106 -0.707107 0.000000
vt 4.590583 -0.021799
v 2.920227 1.509074 2.110943
vn -1.000000 -0.000000 0.000000
vt 4.696178 -0.021799
v 2.957424 1.598877 0.203170
vn -0.707106 0.707107 0.000000
vt 4.801772 1.646960
v 2.957424 1.598877 2.110943
vn -0.707106 0.707107 0.000000
vt 4.801772 -0.021799
v 2.920227 -1.537973 0.203170
vn -1.000000 0.000000 0.000000
vt 2.617733 -0.034290
v 2.957425 -1.627776 0.203170
vn -0.707106 -0.707107 0.000000
vt 2.512138 -0.034290
v 2.957425 -1.627776 2.110943
vn -0.707106 -0.707107 0.000000
vt 2.512138 -1.703050
v 2.920227 -1.537973 2.110943
vn -1.000000 0.000000 0.000000
vt 2.617733 -1.703050
v 2.957425 -1.448171 0.203170
vn -0.707106 0.707107 0.000000
vt 2.723328 -0.034290
v 2.957425 -1.448171 2.110943
vn -0.707106 0.707107 0.000000
vt 2.723328 -1.703050
v 3.174227 0.493392 0.203170
vn 1.000000 0.000000 0.000000
vt 5.170177 -0.021799
v 3.137029 0.583194 0.203170
vn 0.707106 0.707107 0.000000
vt 5.275775 -0.021799
v 3.137029 0.583194 2.110943
vn 0.707106 0.707107 0.000000
vt 5.275775 1.646960
v 3.174227 0.493392 2.110943
vn 1.000000 0.000000 0.000000
vt 5.170177 1.646960
v 3.137029 0.403589 0.203170
vn 0.707106 -0.707107 0.000000
vt 5.064584 -0.021799
v 3.137029 0.403589 2.110943
vn 0.707106 -0.707107 0.000000
vt 5.064584 1.646960
v 3.047227 -1.664973 0.203170
vn 0.000000 -1.000000 0.000000
vt 2.855520 -1.703050
v 3.137030 -1.627776 0.203170
vn 0.707106 -0.707107 0.000000
vt 2.961112 -1.703050
v 3.137030 -1.627776 2.110943
vn 0.707106 -0.707107 0.000000
vt 2.961112 -0.034290
v 3.047227 -1.664973 2.110943
vn 0.000000 -1.000000 0.000000
vt 2.855520 -0.034290
v 2.957425 -1.627776 0.203170
vn -0.707106 -0.707107 0.000000
vt 2.749925 -1.703050
v 2.957425 -1.627776 2.110943
vn -0.707106 -0.707107 0.000000
vt 2.749925 -0.034290
v 3.047227 0.366392 0.203170
vn 0.000000 -1.000000 0.000000
vt 3.331093 -1.703050
v 3.137029 0.403589 0.203170
vn 0.707106 -0.707107 0.000000
vt 3.436690 -1.703050
v 3.137029 0.403589 2.110943
vn 0.707106 -0.707107 0.000000
vt 3.436690 -0.034290
v 3.047227 0.366392 2.110943
vn 0.000000 -1.000000 0.000000
vt 3.331093 -0.034290
v 2.957424 0.403589 0.203170
vn -0.707106 -0.707107 0.000000
vt 3.225498 -1.703050
v 2.957424 0.403589 2.110943
vn -0.707106 -0.707107 0.000000
vt 3.225498 -0.034290
v 3.174227 -1.537973 0.203170
vn 1.000000 -0.000000 0.000000
vt 4.757812 -1.703050
v 3.137030 -1.448171 0.203170
vn 0.707106 0.707107 0.000000
vt 4.863408 -1.703050
v 3.137030 -1.448171 2.110943
vn 0.707106 0.707107 0.000000
vt 4.863408 -0.034291
v 3.174227 -1.537973 2.110943
vn 1.000000 -0.000000 0.000000
vt 4.757812 -0.034291
v 3.137030 -1.627776 0.203170
vn 0.707106 -0.707107 0.000000
vt 4.652218 -1.703050
v 3.137030 -1.627776 2.110943
vn 0.707106 -0.707107 0.000000
vt 4.652218 -0.034291
v 2.920227 0.493392 0.203170
vn -1.000000 -0.000000 0.000000
vt 1.666586 -0.034290
v 2.957424 0.403589 0.203170
vn -0.707106 -0.707107 0.000000
vt 1.560991 -0.034290
v 2.957424 0.403589 2.110943
vn -0.707106 -0.707107 0.000000
vt 1.560991 -1.703050
v 2.920227 0.493392 2.110943
vn -1.000000 -0.000000 0.000000
vt 1.666586 -1.703050
v 2.957424 0.583194 0.203170
vn -0.707106 0.707107 0.000000
vt 1.772181 -0.034290
v 2.957424 0.583194 2.110943
vn -0.707106 0.707107 0.000000
vt 1.772181 -1.703050
v 2.920227 -0.522291 0.203170
vn -1.000000 -0.000000 0.000000
vt 1.427978 -0.034290
v 2.957424 -0.612093 0.203170
vn -0.707106 -0.707107 0.000000
vt 1.322385 -0.034290
v 2.957424 -0.612093 2.110943
vn -0.707106 -0.707107 0.000000
vt 1.322385 -1.703050
v 2.920227 -0.522291 2.110943
vn -1.000000 -0.000000 0.000000
vt 1.427978 -1.703050
v 2.957424 -0.432488 0.203170
vn -0.707106 0.707107 0.000000
vt 1.533573 -0.034290
v 2.957424 -0.432488 2.110943
vn -0.707106 0.707107 0.000000
vt 1.533573 -1.703050
v 3.174227 -0.522291 0.203170
vn 1.000000 0.000000 0.000000
vt 5.233387 -1.703050
v 3.137029 -0.432488 0.203170
vn 0.707106 0.707107 0.000000
vt 5.338983 -1.703050
v 3.137029 -0.432488 2.110943
vn 0.707106 0.707107 0.000000
vt 5.338983 -0.034291
v 3.174227 -0.522291 2.110943
vn 1.000000 0.000000 0.000000
vt 5.233387 -0.034291
v 3.137029 -0.612093 0.203170
vn 0.707106 -0.707107 0.000000
vt 5.127792 -1.703050
v 3.137029 -0.612093 2.110943
vn 0.707106 -0.707107 0.000000
vt 5.127792 -0.034291
v 3.047227 -0.649291 0.203170
vn -0.000000 -1.000000 0.000000
vt 3.093306 -1.703050
v 3.137029 -0.612093 0.203170
vn 0.707106 -0.707107 0.000000
vt 3.198901 -1.703050
v 3.137029 -0.612093 2.110943
vn 0.707106 -0.707107 0.000000
vt 3.198901 -0.034290
v 3.047227 -0.649291 2.110943
vn -0.000000 -1.000000 0.000000
vt 3.093306 -0.034290
v 2.957424 -0.612093 0.203170
vn -0.707106 -0.707107 0.000000
vt 2.987712 -1.703050
v 2.957424 -0.612093 2.110943
vn -0.707106 -0.707107 0.000000
vt 2.987712 -0.034290
g Gefaengnis_part_2
# Submesh 2: 134 triangles
f 449/449/449 450/450/450 451/451/451
f 449/449/449 451/451/451 452/452/452
f 453/453/453 454/454/454 455/455/455
f 453/453/453 455/455/455 456/456/456
f 453/453/453 456/456/456 457/457/457
f 458/458/458 459/459/459 460/460/460
f 458/458/458 460/460/460 461/461/461
f 462/462/462 458/458/458 461/461/461
f 462/462/462 461/461/461 463/463/463
f 464/464/464 465/465/465 466/466/466
f 464/464/464 466/466/466 467/467/467
f 468/468/468 464/464/464 467/467/467
f 468/468/468 467/467/467 469/469/469
f 470/470/470 471/471/471 472/472/472
f 470/470/470 472/472/472 473/473/473
f 474/474/474 470/470/470 473/473/473
f 474/474/474 473/473/473 475/475/475
f 476/476/476 477/477/477 478/478/478
f 476/476/476 478/478/478 479/479/479
f 480/480/480 476/476/476 479/479/479
f 480/480/480 479/479/479 481/481/481
f 482/482/482 483/483/483 484/484/484
f 482/482/482 484/484/484 485/485/485
f 486/486/486 482/482/482 485/485/485
f 486/486/486 485/485/485 487/487/487
f 488/488/488 489/489/489 490/490/490
f 488/488/488 490/490/490 491/491/491
f 492/492/492 488/488/488 491/491/491
f 492/492/492 491/491/491 493/493/493
f 494/494/494 495/495/495 496/496/496
f 494/494/494 496/496/496 497/497/497
f 498/498/498 494/494/494 497/497/497
f 498/498/498 497/497/497 499/499/499
f 500/500/500 501/501/501 502/502/502
f 500/500/500 502/502/502 503/503/503
f 500/500/500 503/503/503 504/504/504
f 505/505/505 506/506/506 507/507/507
f 505/505/505 507/507/507 508/508/508
f 509/509/509 510/510/510 511/511/511
f 509/509/509 511/511/511 512/512/512
f 513/513/513 514/514/514 515/515/515
f 513/513/513 515/515/515 516/516/516
f 517/517/517 518/518/518 519/519/519
f 517/517/517 519/519/519 520/520/520
f 521/521/521 522/522/522 523/523/523
f 521/521/521 523/523/523 524/524/524
f 525/525/525 526/526/526 527/527/527
f 525/525/525 527/527/527 528/528/528
f 529/529/529 530/530/530 531/531/531
f 529/529/529 531/531/531 532/532/532
f 533/533/533 534/534/534 535/535/535
f 533/533/533 535/535/535 536/536/536
f 537/537/537 538/538/538 539/539/539
f 537/537/537 539/539/539 540/540/540
f 541/541/541 542/542/542 543/543/543
f 541/541/541 543/543/543 544/544/544
f 545/545/545 546/546/546 547/547/547
f 545/545/545 547/547/547 548/548/548
f 549/549/549 550/550/550 551/551/551
f 549/549/549 551/551/551 552/552/552
f 553/553/553 554/554/554 555/555/555
f 553/553/553 555/555/555 556/556/556
f 553/553/553 556/556/556 557/557/557
f 558/558/558 559/559/559 560/560/560
f 558/558/558 560/560/560 561/561/561
f 558/558/558 561/561/561 562/562/562
f 563/563/563 564/564/564 565/565/565
f 563/563/563 565/565/565 566/566/566
f 567/567/567 563/563/563 566/566/566
f 567/567/567 566/566/566 568/568/568
f 569/569/569 570/570/570 571/571/571
f 569/569/569 571/571/571 572/572/572
f 573/573/573 569/569/569 572/572/572
f 573/573/573 572/572/572 574/574/574
f 575/575/575 576/576/576 577/577/577
f 575/575/575 577/577/577 578/578/578
f 579/579/579 575/575/575 578/578/578
f 579/579/579 578/578/578 580/580/580
f 581/581/581 582/582/582 583/583/583
f 581/581/581 583/583/583 584/584/584
f 585/585/585 581/581/581 584/584/584
f 585/585/585 584/584/584 586/586/586
f 587/587/587 588/588/588 589/589/589
f 587/587/587 589/589/589 590/590/590
f 591/591/591 587/587/587 590/590/590
f 591/591/591 590/590/590 592/592/592
f 593/593/593 594/594/594 595/595/595
f 593/593/593 595/595/595 596/596/596
f 597/597/597 593/593/593 596/596/596
f 597/597/597 596/596/596 598/598/598
f 599/599/599 600/600/600 601/601/601
f 599/599/599 601/601/601 602/602/602
f 603/603/603 599/599/599 602/602/602
f 603/603/603 602/602/602 604/604/604
f 605/605/605 606/606/606 607/607/607
f 605/605/605 607/607/607 608/608/608
f 609/609/609 605/605/605 608/608/608
f 609/609/609 608/608/608 610/610/610
f 611/611/611 612/612/612 613/613/613
f 611/611/611 613/613/613 614/614/614
f 615/615/615 611/611/611 614/614/614
f 615/615/615 614/614/614 616/616/616
f 617/617/617 618/618/618 619/619/619
f 617/617/617 619/619/619 620/620/620
f 621/621/621 617/617/617 620/620/620
f 621/621/621 620/620/620 622/622/622
f 623/623/623 624/624/624 625/625/625
f 623/623/623 625/625/625 626/626/626
f 627/627/627 623/623/623 626/626/626
f 627/627/627 626/626/626 628/628/628
f 629/629/629 630/630/630 631/631/631
f 629/629/629 631/631/631 632/632/632
f 633/633/633 629/629/629 632/632/632
f 633/633/633 632/632/632 634/634/634
f 635/635/635 636/636/636 637/637/637
f 635/635/635 637/637/637 638/638/638
f 639/639/639 635/635/635 638/638/638
f 639/639/639 638/638/638 640/640/640
f 641/641/641 642/642/642 643/643/643
f 641/641/641 643/643/643 644/644/644
f 645/645/645 641/641/641 644/644/644
f 645/645/645 644/644/644 646/646/646
f 647/647/647 648/648/648 649/649/649
f 647/647/647 649/649/649 650/650/650
f 651/651/651 647/647/647 650/650/650
f 651/651/651 650/650/650 652/652/652
f 653/653/653 654/654/654 655/655/655
f 653/653/653 655/655/655 656/656/656
f 657/657/657 653/653/653 656/656/656
f 657/657/657 656/656/656 658/658/658
f 659/659/659 660/660/660 661/661/661
f 659/659/659 661/661/661 662/662/662
f 663/663/663 659/659/659 662/662/662
f 663/663/663 662/662/662 664/664/664

# Submesh 3: 232 vertices
v -2.843728 3.213731 0.210000
vn 0.000000 0.000000 1.000000
vt 0.124986 4.326224
v -3.213731 3.213731 0.210000
vn 0.000000 0.000000 1.000000
vt 0.026918 4.326224
v -3.213731 -3.213731 0.210000
vn 0.000000 0.000000 1.000000
vt 0.026918 2.635045
v -2.843728 -3.213731 0.210000
vn 0.000000 0.000000 1.000000
vt 0.124986 2.635045
v -2.843728 -3.243728 2.006282
vn 1.000000 -0.000000 0.000000
vt 0.520257 2.627152
v -2.843728 3.243728 2.006282
vn 1.000000 -0.000000 0.000000
vt 0.520257 4.334116
v -2.843728 3.243728 2.186285
vn 1.000000 0.000000 0.000000
vt 0.472548 4.334116
v -2.843728 3.213731 2.216282
vn 1.000000 0.000000 0.000000
vt 0.464598 4.326224
v -2.843728 -3.213731 2.216282
vn 1.000000 0.000000 0.000000
vt 0.464598 2.635045
v -2.843728 -3.243728 2.186285
vn 1.000000 0.000000 0.000000
vt 0.472548 2.627152
v -3.047227 2.426656 0.203170
vn -0.000000 -1.000000 0.000000
vt 2.379946 -1.703050
v -2.957424 2.463853 0.203170
vn 0.707107 -0.707107 0.000000
vt 2.485538 -1.703050
v -2.957424 2.463853 2.110943
vn 0.707107 -0.707107 0.000000
vt 2.485538 -0.034290
v -3.047227 2.426656 2.110943
vn -0.000000 -1.000000 0.000000
vt 2.379946 -0.034290
v -3.137029 2.463853 0.203170
vn -0.707107 -0.707107 0.000000
vt 2.274353 -1.703050
v -3.137029 2.463853 2.110943
vn -0.707107 -0.707107 0.000000
vt 2.274353 -0.034290
v -3.047227 1.410973 0.203170
vn -0.000000 -1.000000 0.000000
vt 2.617733 -1.703050
v -2.957424 1.448171 0.203170
vn 0.707106 -0.707107 0.000000
vt 2.723328 -1.703050
v -2.957424 1.448171 2.110943
vn 0.707106 -0.707107 0.000000
vt 2.723328 -0.034290
v -3.047227 1.410973 2.110943
vn -0.000000 -1.000000 0.000000
vt 2.617733 -0.034290
v -3.137029 1.448171 0.203170
vn -0.707106 -0.707107 0.000000
vt 2.512139 -1.703050
v -3.137029 1.448171 2.110943
vn -0.707106 -0.707107 0.000000
vt 2.512139 -0.034290
v -3.047227 0.395291 0.203170
vn -0.000000 -1.000000 0.000000
vt 2.855518 -1.703050
v -2.957424 0.432488 0.203170
vn 0.707106 -0.707107 0.000000
vt 2.961114 -1.703050
v -2.957424 0.432488 2.110943
vn 0.707106 -0.707107 0.000000
vt 2.961114 -0.034290
v -3.047227 0.395291 2.110943
vn -0.000000 -1.000000 0.000000
vt 2.855518 -0.034290
v -3.137029 0.432488 0.203170
vn -0.707106 -0.707107 0.000000
vt 2.749925 -1.703050
v -3.137029 0.432488 2.110943
vn -0.707106 -0.707107 0.000000
vt 2.749925 -0.034290
v -3.047227 -0.620392 0.203170
vn -0.000000 -1.000000 0.000000
vt 3.093306 -1.703050
v -2.957424 -0.583194 0.203170
vn 0.707106 -0.707107 0.000000
vt 3.198901 -1.703050
v -2.957424 -0.583194 2.110943
vn 0.707106 -0.707107 0.000000
vt 3.198901 -0.034290
v -3.047227 -0.620392 2.110943
vn -0.000000 -1.000000 0.000000
vt 3.093306 -0.034290
v -3.137029 -0.583194 0.203170
vn -0.707106 -0.707107 0.000000
vt 2.987712 -1.703050
v -3.137029 -0.583194 2.110943
vn -0.707106 -0.707107 0.000000
vt 2.987712 -0.034290
v -3.047227 -1.636074 0.203170
vn -0.000000 -1.000000 0.000000
vt 3.331093 -1.703050
v -2.957424 -1.598877 0.203170
vn 0.707106 -0.707107 0.000000
vt 3.436687 -1.703050
v -2.957424 -1.598877 2.110943
vn 0.707106 -0.707107 0.000000
vt 3.436687 -0.034290
v -3.047227 -1.636074 2.110943
vn -0.000000 -1.000000 0.000000
vt 3.331093 -0.034290
v -3.137029 -1.598877 0.203170
vn -0.707106 -0.707107 0.000000
vt 3.225498 -1.703050
v -3.137029 -1.598877 2.110943
vn -0.707106 -0.707107 0.000000
vt 3.225498 -0.034290
v -3.047227 -2.399023 0.203170
vn 0.000000 1.000000 0.000000
vt 4.222175 1.646960
v -3.137030 -2.436220 0.203170
vn -0.707107 0.707107 0.000000
vt 4.116580 1.646960
v -3.137030 -2.436220 2.110943
vn -0.707107 0.707107 0.000000
vt 4.116580 -0.021799
v -3.047227 -2.399023 2.110943
vn 0.000000 1.000000 0.000000
vt 4.222175 -0.021799
v -2.957425 -2.436220 0.203170
vn 0.707107 0.707107 0.000000
vt 4.327770 1.646960
v -2.957425 -2.436220 2.110943
vn 0.707107 0.707107 0.000000
vt 4.327770 -0.021799
v -3.047227 -2.653023 0.203170
vn -0.000000 -1.000000 0.000000
vt 3.806665 -1.703050
v -2.957425 -2.615825 0.203170
vn 0.707107 -0.707107 0.000000
vt 3.912260 -1.703050
v -2.957425 -2.615825 2.110943
vn 0.707107 -0.707107 0.000000
vt 3.912260 -0.034290
v -3.047227 -2.653023 2.110943
vn -0.000000 -1.000000 0.000000
vt 3.806665 -0.034290
v -3.137030 -2.615825 0.203170
vn -0.707107 -0.707107 0.000000
vt 3.701071 -1.703050
v -3.137030 -2.615825 2.110943
vn -0.707107 -0.707107 0.000000
vt 3.701071 -0.034290
v -2.920227 -2.526023 0.203170
vn 1.000000 -0.000000 0.000000
vt 4.459179 -0.021799
v -2.957425 -2.436220 0.203170
vn 0.707107 0.707107 0.000000
vt 4.564771 -0.021799
v -2.957425 -2.436220 2.110943
vn 0.707107 0.707107 0.000000
vt 4.564771 1.646962
v -2.920227 -2.526023 2.110943
vn 1.000000 -0.000000 0.000000
vt 4.459179 1.646962
v -2.957425 -2.615825 0.203170
vn 0.707107 -0.707107 0.000000
vt 4.353583 -0.021799
v -2.957425 -2.615825 2.110943
vn 0.707107 -0.707107 0.000000
vt 4.353583 1.646962
v -3.213731 3.213731 0.210000
vn -0.707106 0.000000 0.707108
vt 0.960952 0.518754
v -3.243728 3.243728 0.180003
vn -0.707106 0.000000 0.707108
vt 0.963626 0.518486
v -3.243728 -3.243728 0.180003
vn -0.707106 0.000000 0.707108
vt 0.963626 0.576417
v -3.213731 -3.213731 0.210000
vn -0.707106 0.000000 0.707108
vt 0.960952 0.576149
v -3.243728 3.243728 0.180003
vn 0.000000 0.707104 0.707110
vt 0.963626 0.518486
v -3.213731 3.213731 0.210000
vn 0.000000 0.707104 0.707110
vt 0.960952 0.518754
v -2.843728 3.213731 0.210000
vn 0.000000 0.707104 0.707110
vt 0.960952 0.518754
v -2.843728 3.243728 0.180003
vn 0.000000 0.707104 0.707110
vt 0.963626 0.518486
v -3.213731 -3.213731 0.210000
vn 0.000000 -0.707104 0.707110
vt 0.960952 0.576149
v -3.243728 -3.243728 0.180003
vn 0.000000 -0.707104 0.707110
vt 0.963626 0.576417
v -2.843728 -3.243728 0.180003
vn 0.000000 -0.707104 0.707110
vt 0.963626 0.576417
v -2.843728 -3.213731 0.210000
vn 0.000000 -0.707104 0.707110
vt 0.960952 0.576149
v -3.243728 3.243728 0.000000
vn -1.000000 0.000000 0.000000
vt 0.138044 4.334116
v -3.243728 -3.243728 0.000000
vn -1.000000 0.000000 0.000000
vt 0.138044 2.627152
v -3.243728 -3.243728 0.180003
vn -1.000000 0.000000 0.000000
vt 0.185753 2.627152
v -3.243728 3.243728 0.180003
vn -1.000000 0.000000 0.000000
vt 0.185753 4.334116
v -2.843728 -3.243728 0.000000
vn 1.000000 -0.000000 0.000000
vt 0.262972 2.627152
v -2.843728 3.243728 0.000000
vn 1.000000 -0.000000 0.000000
vt 0.262972 4.334116
v -2.843728 3.243728 0.180003
vn 1.000000 0.000000 0.000000
vt 0.215263 4.334116
v -2.843728 3.213731 0.210000
vn 1.000000 0.000000 0.000000
vt 0.207313 4.326224
v -2.843728 -3.213731 0.210000
vn 1.000000 0.000000 0.000000
vt 0.207313 2.635045
v -2.843728 -3.243728 0.180003
vn 1.000000 0.000000 0.000000
vt 0.215263 2.627152
v -3.243728 3.243728 2.006282
vn -1.000000 0.000000 0.000000
vt 0.395329 4.334116
v -3.243728 -3.243728 2.006282
vn -1.000000 0.000000 0.000000
vt 0.395329 2.627152
v -3.243728 -3.243728 2.186285
vn -1.000000 0.000000 0.000000
vt 0.443038 2.627152
v -3.243728 3.243728 2.186285
vn -1.000000 0.000000 0.000000
vt 0.443038 4.334116
v -3.243728 3.243728 1.381800
vn 0.000000 0.000000 1.000000
vt 0.533867 4.334116
v -3.243728 -3.243728 1.381800
vn 0.000000 0.000000 1.000000
vt 0.533867 2.627152
v -2.843728 -3.243728 1.381800
vn 0.000000 0.000000 1.000000
vt 0.639885 2.627152
v -2.843728 3.243728 1.381800
vn 0.000000 0.000000 1.000000
vt 0.639885 4.334116
v -3.243728 3.243728 1.281476
vn -1.000000 0.000000 0.000000
vt 0.652614 4.334116
v -3.243728 -3.243728 1.281476
vn -1.000000 0.000000 0.000000
vt 0.652614 2.627152
v -3.243728 -3.243728 1.381800
vn -1.000000 0.000000 0.000000
vt 0.679204 2.627152
v -3.243728 3.243728 1.381800
vn -1.000000 0.000000 0.000000
vt 0.679204 4.334116
v -2.843728 -3.243728 1.281476
vn 1.000000 -0.000000 0.000000
vt 0.718786 2.627152
v -2.843728 3.243728 1.281476
vn 1.000000 -0.000000 0.000000
vt 0.718786 4.334116
v -2.843728 3.243728 1.381800
vn 1.000000 -0.000000 0.000000
vt 0.692196 4.334116
v -2.843728 -3.243728 1.381800
vn 1.000000 -0.000000 0.000000
vt 0.692196 2.627152
v -3.174227 -2.526023 0.203170
vn -1.000000 0.000000 0.000000
vt 3.985174 1.646961
v -3.137030 -2.615825 0.203170
vn -0.707107 -0.707107 0.000000
vt 3.879578 1.646961
v -3.137030 -2.615825 2.110943
vn -0.707107 -0.707107 0.000000
vt 3.879578 -0.021799
v -3.174227 -2.526023 2.110943
vn -1.000000 0.000000 0.000000
vt 3.985174 -0.021799
v -3.137030 -2.436220 0.203170
vn -0.707107 0.707107 0.000000
vt 4.090770 1.646961
v -3.137030 -2.436220 2.110943
vn -0.707107 0.707107 0.000000
vt 4.090770 -0.021799
v -3.174227 -1.509074 0.203170
vn -1.000000 -0.000000 0.000000
vt 3.568879 -0.034290
v -3.137029 -1.598877 0.203170
vn -0.707106 -0.707107 0.000000
vt 3.463286 -0.034290
v -3.137029 -1.598877 2.110943
vn -0.707106 -0.707107 0.000000
vt 3.463286 -1.703050
v -3.174227 -1.509074 2.110943
vn -1.000000 -0.000000 0.000000
vt 3.568879 -1.703050
v -3.137029 -1.419272 0.203170
vn -0.707106 0.707107 0.000000
vt 3.674475 -0.034290
v -3.137029 -1.419272 2.110943
vn -0.707106 0.707107 0.000000
vt 3.674475 -1.703050
v -2.843728 -3.243728 2.186285
vn 0.000000 -1.000000 0.000000
vt 0.820791 0.570261
v -3.243728 -3.243728 2.186285
vn 0.000000 -1.000000 0.000000
vt 0.912035 0.570261
v -3.243728 -3.243728 2.006282
vn 0.000000 -1.000000 0.000000
vt 0.912035 0.611321
v -2.843728 -3.243728 2.006282
vn 0.000000 -1.000000 0.000000
vt 0.820791 0.611321
v -3.243728 3.243728 2.186285
vn 0.000000 1.000000 0.000000
vt 0.912035 0.749979
v -2.843728 3.243728 2.186285
vn 0.000000 1.000000 0.000000
vt 0.820791 0.749979
v -2.843728 3.243728 2.006282
vn 0.000000 1.000000 0.000000
vt 0.820791 0.708919
v -3.243728 3.243728 2.006282
vn 0.000000 1.000000 0.000000
vt 0.912035 0.708919
v -3.243728 3.243728 1.381800
vn 0.000000 1.000000 0.000000
vt 0.912035 0.788644
v -2.843728 3.243728 1.381800
vn 0.000000 1.000000 0.000000
vt 0.820791 0.788644
v -2.843728 3.243728 1.281476
vn 0.000000 1.000000 0.000000
vt 0.820791 0.765759
v -3.243728 3.243728 1.281476
vn 0.000000 1.000000 0.000000
vt 0.912035 0.765759
v -3.243728 3.243728 0.180003
vn 0.000000 1.000000 0.000000
vt 0.912035 0.838641
v -2.843728 3.243728 0.180003
vn 0.000000 1.000000 0.000000
vt 0.820791 0.838641
v -2.843728 3.243728 0.000000
vn 0.000000 1.000000 0.000000
vt 0.820791 0.797581
v -3.243728 3.243728 0.000000
vn 0.000000 1.000000 0.000000
vt 0.912035 0.797581
v -2.843728 -3.243728 1.381800
vn 0.000000 -1.000000 0.000000
vt 0.820791 0.620258
v -3.243728 -3.243728 1.381800
vn 0.000000 -1.000000 0.000000
vt 0.912035 0.620258
v -3.243728 -3.243728 1.281476
vn 0.000000 -1.000000 0.000000
vt 0.912035 0.643143
v -2.843728 -3.243728 1.281476
vn 0.000000 -1.000000 0.000000
vt 0.820791 0.643143
v -2.843728 -3.243728 0.180003
vn 0.000000 -1.000000 0.000000
vt 0.820791 0.658922
v -3.243728 -3.243728 0.180003
vn 0.000000 -1.000000 0.000000
vt 0.912035 0.658922
v -3.243728 -3.243728 0.000000
vn 0.000000 -1.000000 0.000000
vt 0.912035 0.699982
v -2.843728 -3.243728 0.000000
vn 0.000000 -1.000000 0.000000
vt 0.820791 0.699982
v -2.843728 3.213731 2.216282
vn 0.000000 0.000000 1.000000
vt 0.382600 4.326224
v -3.213731 3.213731 2.216282
vn 0.000000 0.000000 1.000000
vt 0.284533 4.326224
v -3.213731 -3.213731 2.216282
vn 0.000000 0.000000 1.000000
vt 0.284533 2.635045
v -2.843728 -3.213731 2.216282
vn 0.000000 0.000000 1.000000
vt 0.382600 2.635045
v -3.213731 3.213731 2.216282
vn -0.707108 0.000000 0.707106
vt 0.967381 0.518754
v -3.243728 3.243728 2.186285
vn -0.707108 0.000000 0.707106
vt 0.970055 0.518486
v -3.243728 -3.243728 2.186285
vn -0.707108 0.000000 0.707106
vt 0.970055 0.576417
v -3.213731 -3.213731 2.216282
vn -0.707108 0.000000 0.707106
vt 0.967380 0.576149
v -3.243728 3.243728 2.186285
vn 0.000000 0.707105 0.707109
vt 0.954629 0.572845
v -3.213731 3.213731 2.216282
vn 0.000000 0.707105 0.707109
vt 0.957304 0.573113
v -2.843728 3.213731 2.216282
vn 0.000000 0.707105 0.707109
vt 0.957304 0.576417
v -2.843728 3.243728 2.186285
vn 0.000000 0.707105 0.707109
vt 0.954629 0.576417
v -3.213731 -3.213731 2.216282
vn 0.000000 -0.707105 0.707109
vt 0.948307 0.573113
v -3.243728 -3.243728 2.186285
vn 0.000000 -0.707105 0.707109
vt 0.950981 0.572845
v -2.843728 -3.243728 2.186285
vn 0.000000 -0.707105 0.707109
vt 0.950981 0.576417
v -2.843728 -3.213731 2.216282
vn 0.000000 -0.707105 0.707109
vt 0.948307 0.576417
v -2.920227 2.553656 0.203170
vn 1.000000 -0.000000 0.000000
vt 4.044455 -1.703050
v -2.957424 2.643458 0.203170
vn 0.707107 0.707107 0.000000
vt 4.150049 -1.703050
v -2.957424 2.643458 2.110943
vn 0.707107 0.707107 0.000000
vt 4.150049 -0.034291
v -2.920227 2.553656 2.110943
vn 1.000000 -0.000000 0.000000
vt 4.044455 -0.034291
v -2.957424 2.463853 0.203170
vn 0.707107 -0.707107 0.000000
vt 3.938859 -1.703050
v -2.957424 2.463853 2.110943
vn 0.707107 -0.707107 0.000000
vt 3.938859 -0.034291
v -3.047227 -1.382074 0.203170
vn 0.000000 1.000000 0.000000
vt 4.696175 1.646960
v -3.137029 -1.419272 0.203170
vn -0.707106 0.707107 0.000000
vt 4.590583 1.646960
v -3.137029 -1.419272 2.110943
vn -0.707106 0.707107 0.000000
vt 4.590583 -0.021799
v -3.047227 -1.382074 2.110943
vn 0.000000 1.000000 0.000000
vt 4.696175 -0.021799
v -2.957424 -1.419272 0.203170
vn 0.707106 0.707107 0.000000
vt 4.801772 1.646960
v -2.957424 -1.419272 2.110943
vn 0.707106 0.707107 0.000000
vt 4.801772 -0.021799
v -3.047227 2.680656 0.203170
vn 0.000000 1.000000 0.000000
vt 4.282238 -0.034291
v -3.137029 2.643458 0.203170
vn -0.707107 0.707107 0.000000
vt 4.176645 -0.034291
v -3.137029 2.643458 2.110943
vn -0.707107 0.707107 0.000000
vt 4.176645 -1.703050
v -3.047227 2.680656 2.110943
vn 0.000000 1.000000 0.000000
vt 4.282238 -1.703050
v -2.957424 2.643458 0.203170
vn 0.707107 0.707107 0.000000
vt 4.387834 -0.034291
v -2.957424 2.643458 2.110943
vn 0.707107 0.707107 0.000000
vt 4.387834 -1.703050
v -2.920227 -1.509074 0.203170
vn 1.000000 0.000000 0.000000
vt 4.933178 -0.021799
v -2.957424 -1.419272 0.203170
vn 0.707106 0.707107 0.000000
vt 5.038774 -0.021799
v -2.957424 -1.419272 2.110943
vn 0.707106 0.707107 0.000000
vt 5.038774 1.646960
v -2.920227 -1.509074 2.110943
vn 1.000000 0.000000 0.000000
vt 4.933178 1.646960
v -2.957424 -1.598877 0.203170
vn 0.707106 -0.707107 0.000000
vt 4.827584 -0.021799
v -2.957424 -1.598877 2.110943
vn 0.707106 -0.707107 0.000000
vt 4.827584 1.646960
v -3.174227 2.553656 0.203170
vn -1.000000 0.000000 0.000000
vt 1.427979 -0.034290
v -3.137029 2.463853 0.203170
vn -0.707107 -0.707107 0.000000
vt 1.322385 -0.034290
v -3.137029 2.463853 2.110943
vn -0.707107 -0.707107 0.000000
vt 1.322385 -1.703050
v -3.174227 2.553656 2.110943
vn -1.000000 0.000000 0.000000
vt 1.427979 -1.703050
v -3.137029 2.643458 0.203170
vn -0.707107 0.707107 0.000000
vt 1.533573 -0.034290
v -3.137029 2.643458 2.110943
vn -0.707107 0.707107 0.000000
vt 1.533573 -1.703050
v -3.174227 -0.493392 0.203170
vn -1.000000 0.000000 0.000000
vt 2.142159 -0.034290
v -3.137029 -0.583194 0.203170
vn -0.707106 -0.707107 0.000000
vt 2.036563 -0.034290
v -3.137029 -0.583194 2.110943
vn -0.707106 -0.707107 0.000000
vt 2.036563 -1.703050
v -3.174227 -0.493392 2.110943
vn -1.000000 0.000000 0.000000
vt 2.142159 -1.703050
v -3.137029 -0.403589 0.203170
vn -0.707106 0.707107 0.000000
vt 2.247754 -0.034290
v -3.137029 -0.403589 2.110943
vn -0.707106 0.707107 0.000000
vt 2.247754 -1.703050
v -2.920227 1.537973 0.203170
vn 1.000000 -0.000000 0.000000
vt 4.520024 -1.703050
v -2.957424 1.627776 0.203170
vn 0.707106 0.707107 0.000000
vt 4.625620 -1.703050
v -2.957424 1.627776 2.110943
vn 0.707106 0.707107 0.000000
vt 4.625620 -0.034291
v -2.920227 1.537973 2.110943
vn 1.000000 -0.000000 0.000000
vt 4.520024 -0.034291
v -2.957424 1.448171 0.203170
vn 0.707106 -0.707107 0.000000
vt 4.414433 -1.703050
v -2.957424 1.448171 2.110943
vn 0.707106 -0.707107 0.000000
vt 4.414433 -0.034291
v -3.047227 -0.366392 0.203170
vn 0.000000 1.000000 0.000000
vt 5.170177 1.646960
v -3.137029 -0.403589 0.203170
vn -0.707106 0.707107 0.000000
vt 5.064584 1.646960
v -3.137029 -0.403589 2.110943
vn -0.707106 0.707107 0.000000
vt 5.064584 -0.021799
v -3.047227 -0.366392 2.110943
vn 0.000000 1.000000 0.000000
vt 5.170177 -0.021799
v -2.957424 -0.403589 0.203170
vn 0.707106 0.707107 0.000000
vt 5.275775 1.646960
v -2.957424 -0.403589 2.110943
vn 0.707106 0.707107 0.000000
vt 5.275775 -0.021799
v -3.047227 1.664973 0.203170
vn 0.000000 1.000000 0.000000
vt 4.757816 -0.034291
v -3.137029 1.627776 0.203170
vn -0.707106 0.707107 0.000000
vt 4.652215 -0.034291
v -3.137029 1.627776 2.110943
vn -0.707106 0.707107 0.000000
vt 4.652215 -1.703050
v -3.047227 1.664973 2.110943
vn 0.000000 1.000000 0.000000
vt 4.757816 -1.703050
v -2.957424 1.627776 0.203170
vn 0.707106 0.707107 0.000000
vt 4.863408 -0.034291
v -2.957424 1.627776 2.110943
vn 0.707106 0.707107 0.000000
vt 4.863408 -1.703050
v -2.920227 -0.493392 0.203170
vn 1.000000 -0.000000 0.000000
vt 5.407182 -0.021799
v -2.957424 -0.403589 0.203170
vn 0.707106 0.707107 0.000000
vt 5.512777 -0.021799
v -2.957424 -0.403589 2.110943
vn 0.707106 0.707107 0.000000
vt 5.512777 1.646960
v -2.920227 -0.493392 2.110943
vn 1.000000 -0.000000 0.000000
vt 5.407182 1.646960
v -2.957424 -0.583194 0.203170
vn 0.707106 -0.707107 0.000000
vt 5.301588 -0.021799
v -2.957424 -0.583194 2.110943
vn 0.707106 -0.707107 0.000000
vt 5.301588 1.646960
v -3.174227 1.537973 0.203170
vn -1.000000 0.000000 0.000000
vt 1.666586 -0.034290
v -3.137029 1.448171 0.203170
vn -0.707106 -0.707107 0.000000
vt 1.560991 -0.034290
v -3.137029 1.448171 2.110943
vn -0.707106 -0.707107 0.000000
vt 1.560991 -1.703050
v -3.174227 1.537973 2.110943
vn -1.000000 0.000000 0.000000
vt 1.666586 -1.703050
v -3.137029 1.627776 0.203170
vn -0.707106 0.707107 0.000000
vt 1.772181 -0.034290
v -3.137029 1.627776 2.110943
vn -0.707106 0.707107 0.000000
vt 1.772181 -1.703050
v -3.174227 0.522291 0.203170
vn -1.000000 0.000000 0.000000
vt 1.904372 -0.034290
v -3.137029 0.432488 0.203170
vn -0.707106 -0.707107 0.000000
vt 1.798778 -0.034290
v -3.137029 0.432488 2.110943
vn -0.707106 -0.707107 0.000000
vt 1.798778 -1.703050
v -3.174227 0.522291 2.110943
vn -1.000000 0.000000 0.000000
vt 1.904372 -1.703050
v -3.137029 0.612093 0.203170
vn -0.707106 0.707107 0.000000
vt 2.009968 -0.034290
v -3.137029 0.612093 2.110943
vn -0.707106 0.707107 0.000000
vt 2.009968 -1.703050
v -2.920227 0.522291 0.203170
vn 1.000000 -0.000000 0.000000
vt 4.995599 -1.703050
v -2.957424 0.612093 0.203170
vn 0.707106 0.707107 0.000000
vt 5.101196 -1.703050
v -2.957424 0.612093 2.110943
vn 0.707106 0.707107 0.000000
vt 5.101196 -0.034291
v -2.920227 0.522291 2.110943
vn 1.000000 -0.000000 0.000000
vt 4.995599 -0.034291
v -2.957424 0.432488 0.203170
vn 0.707106 -0.707107 0.000000
vt 4.890004 -1.703050
v -2.957424 0.432488 2.110943
vn 0.707106 -0.707107 0.000000
vt 4.890004 -0.034291
v -3.047227 0.649291 0.203170
vn 0.000000 1.000000 0.000000
vt 5.233387 -0.034291
v -3.137029 0.612093 0.203170
vn -0.707106 0.707107 0.000000
vt 5.127792 -0.034291
v -3.137029 0.612093 2.110943
vn -0.707106 0.707107 0.000000
vt 5.127792 -1.703050
v -3.047227 0.649291 2.110943
vn 0.000000 1.000000 0.000000
vt 5.233387 -1.703050
v -2.957424 0.612093 0.203170
vn 0.707106 0.707107 0.000000
vt 5.338983 -0.034291
v -2.957424 0.612093 2.110943
vn 0.707106 0.707107 0.000000
vt 5.338983 -1.703050
g Gefaengnis_part_3
# Submesh 3: 142 triangles
f 665/665/665 666/666/666 667/667/667
f 665/665/665 667/667/667 668/668/668
f 669/669/669 670/670/670 671/671/671
f 669/669/669 671/671/671 672/672/672
f 669/669/669 672/672/672 673/673/673
f 669/669/669 673/673/673 674/674/674
f 675/675/675 676/676/676 677/677/677
f 675/675/675 677/677/677 678/678/678
f 679/679/679 675/675/675 678/678/678
f 679/679/679 678/678/678 680/680/680
f 681/681/681 682/682/682 683/683/683
f 681/681/681 683/683/683 684/684/684
f 685/685/685 681/681/681 684/684/684
f 685/685/685 684/684/684 686/686/686
f 687/687/687 688/688/688 689/689/689
f 687/687/687 689/689/689 690/690/690
f 691/691/691 687/687/687 690/690/690
f 691/691/691 690/690/690 692/692/692
f 693/693/693 694/694/694 695/695/695
f 693/693/693 695/695/695 696/696/696
f 697/697/697 693/693/693 696/696/696
f 697/697/697 696/696/696 698/698/698
f 699/699/699 700/700/700 701/701/701
f 699/699/699 701/701/701 702/702/702
f 703/703/703 699/699/699 702/702/702
f 703/703/703 702/702/702 704/704/704
f 705/705/705 706/706/706 707/707/707
f 705/705/705 707/707/707 708/708/708
f 709/709/709 705/705/705 708/708/708
f 709/709/709 708/708/708 710/710/710
f 711/711/711 712/712/712 713/713/713
f 711/711/711 713/713/713 714/714/714
f 715/715/715 711/711/711 714/714/714
f 715/715/715 714/714/714 716/716/716
f 717/717/717 718/718/718 719/719/719
f 717/717/717 719/719/719 720/720/720
f 721/721/721 717/717/717 720/720/720
f 721/721/721 720/720/720 722/722/722
f 723/723/723 724/724/724 725/725/725
f 723/723/723 725/725/725 726/726/726
f 727/727/727 728/728/728 729/729/729
f 727/727/727 729/729/729 730/730/730
f 731/731/731 732/732/732 733/733/733
f 731/731/731 733/733/733 734/734/734
f 735/735/735 736/736/736 737/737/737
f 735/735/735 737/737/737 738/738/738
f 739/739/739 740/740/740 741/741/741
f 739/739/739 741/741/741 742/742/742
f 739/739/739 742/742/742 743/743/743
f 739/739/739 743/743/743 744/744/744
f 745/745/745 746/746/746 747/747/747
f 745/745/745 747/747/747 748/748/748
f 749/749/749 750/750/750 751/751/751
f 749/749/749 751/751/751 752/752/752
f 753/753/753 754/754/754 755/755/755
f 753/753/753 755/755/755 756/756/756
f 757/757/757 758/758/758 759/759/759
f 757/757/757 759/759/759 760/760/760
f 761/761/761 762/762/762 763/763/763
f 761/761/761 763/763/763 764/764/764
f 765/765/765 761/761/761 764/764/764
f 765/765/765 764/764/764 766/766/766
f 767/767/767 768/768/768 769/769/769
f 767/767/767 769/769/769 770/770/770
f 771/771/771 767/767/767 770/770/770
f 771/771/771 770/770/770 772/772/772
f 773/773/773 774/774/774 775/775/775
f 773/773/773 775/775/775 776/776/776
f 777/777/777 778/778/778 779/779/779
f 777/777/777 779/779/779 780/780/780
f 781/781/781 782/782/782 783/783/783
f 781/781/781 783/783/783 784/784/784
f 785/785/785 786/786/786 787/787/787
f 785/785/785 787/787/787 788/788/788
f 789/789/789 790/790/790 791/791/791
f 789/789/789 791/791/791 792/792/792
f 793/793/793 794/794/794 795/795/795
f 793/793/793 795/795/795 796/796/796
f 797/797/797 798/798/798 799/799/799
f 797/797/797 799/799/799 800/800/800
f 801/801/801 802/802/802 803/803/803
f 801/801/801 803/803/803 804/804/804
f 805/805/805 806/806/806 807/807/807
f 805/805/805 807/807/807 808/808/808
f 809/809/809 810/810/810 811/811/811
f 809/809/809 811/811/811 812/812/812
f 813/813/813 814/814/814 815/815/815
f 813/813/813 815/815/815 816/816/816
f 817/817/817 813/813/813 816/816/816
f 817/817/817 816/816/816 818/818/818
f 819/819/819 820/820/820 821/821/821
f 819/819/819 821/821/821 822/822/822
f 823/823/823 819/819/819 822/822/822
f 823/823/823 822/822/822 824/824/824
f 825/825/825 826/826/826 827/827/827
f 825/825/825 827/827/827 828/828/828
f 829/829/829 825/825/825 828/828/828
f 829/829/829 828/828/828 830/830/830
f 831/831/831 832/832/832 833/833/833
f 831/831/831 833/833/833 834/834/834
f 835/835/835 831/831/831 834/834/834
f 835/835/835 834/834/834 836/836/836
f 837/837/837 838/838/838 839/839/839
f 837/837/837 839/839/839 840/840/840
f 841/841/841 837/837/837 840/840/840
f 841/841/841 840/840/840 842/842/842
f 843/843/843 844/844/844 845/845/845
f 843/843/843 845/845/845 846/846/846
f 847/847/847 843/843/843 846/846/846
f 847/847/847 846/846/846 848/848/848
f 849/849/849 850/850/850 851/851/851
f 849/849/849 851/851/851 852/852/852
f 853/853/853 849/849/849 852/852/852
f 853/853/853 852/852/852 854/854/854
f 855/855/855 856/856/856 857/857/857
f 855/855/855 857/857/857 858/858/858
f 859/859/859 855/855/855 858/858/858
f 859/859/859 858/858/858 860/860/860
f 861/861/861 862/862/862 863/863/863
f 861/861/861 863/863/863 864/864/864
f 865/865/865 861/861/861 864/864/864
f 865/865/865 864/864/864 866/866/866
f 867/867/867 868/868/868 869/869/869
f 867/867/867 869/869/869 870/870/870
f 871/871/871 867/867/867 870/870/870
f 871/871/871 870/870/870 872/872/872
f 873/873/873 874/874/874 875/875/875
f 873/873/873 875/875/875 876/876/876
f 877/877/877 873/873/873 876/876/876
f 877/877/877 876/876/876 878/878/878
f 879/879/879 880/880/880 881/881/881
f 879/879/879 881/881/881 882/882/882
f 883/883/883 879/879/879 882/882/882
f 883/883/883 882/882/882 884/884/884
f 885/885/885 886/886/886 887/887/887
f 885/885/885 887/887/887 888/888/888
f 889/889/889 885/885/885 888/888/888
f 889/889/889 888/888/888 890/890/890
f 891/891/891 892/892/892 893/893/893
f 891/891/891 893/893/893 894/894/894
f 895/895/895 891/891/891 894/894/894
f 895/895/895 894/894/894 896/896/896
