# Converted from HGS (Mercury 3D Engine)
# Model: Buegeleisen
o Buegeleisen

# Submesh 0: 700 vertices
v 0.071289 0.696516 -0.602799
vn 0.693371 -0.693371 -0.196147
vt 0.871420 0.012602
v 0.063442 0.704363 -0.629589
vn 0.494177 -0.494178 -0.715246
vt 0.874535 0.001964
v 0.090263 0.769113 -0.629589
vn 0.698871 -0.000002 -0.715248
vt 0.900246 0.001964
v 0.090263 0.769114 0.483063
vn 0.698872 -0.000000 0.715247
vt 0.900246 0.443764
v 0.071289 0.841711 0.456273
vn 0.693371 0.693371 0.196146
vt 0.929072 0.433126
v 0.063443 0.833864 0.483063
vn 0.494177 0.494177 0.715246
vt 0.925956 0.443764
v 0.101360 0.769114 0.456273
vn 0.980575 -0.000001 0.196147
vt 0.900246 0.433126
v 0.063442 0.704364 0.483063
vn 0.494177 -0.494177 0.715247
vt 0.874536 0.443764
v 0.071289 0.696517 0.456273
vn 0.693370 -0.693371 0.196147
vt 0.871420 0.433126
v 0.101360 0.769114 0.191505
vn 1.000000 -0.000001 -0.000000
vt 0.900246 0.327995
v 0.071289 0.696517 0.191505
vn 0.707106 -0.707107 0.000001
vt 0.871420 0.327995
v 0.071289 0.696517 -0.073263
vn 0.707106 -0.707107 0.000000
vt 0.871420 0.222864
v 0.101360 0.769113 -0.073263
vn 1.000000 -0.000001 -0.000000
vt 0.900246 0.222864
v 0.071289 0.696517 -0.338031
vn 0.707106 -0.707107 0.000001
vt 0.871420 0.117733
v 0.101360 0.769113 -0.338031
vn 1.000000 -0.000001 -0.000000
vt 0.900246 0.117733
v 0.101359 0.769113 -0.602799
vn 0.980574 -0.000001 -0.196147
vt 0.900246 0.012602
v 0.063442 0.833863 -0.629589
vn 0.494176 0.494175 -0.715249
vt 0.925956 0.001964
v 0.071289 0.841710 -0.602799
vn 0.693371 0.693370 -0.196148
vt 0.929071 0.012602
v 0.071289 0.841710 -0.338031
vn 0.707107 0.707106 -0.000001
vt 0.929072 0.117733
v 0.071289 0.841710 -0.073263
vn 0.707107 0.707106 -0.000001
vt 0.929072 0.222864
v 0.071289 0.841710 0.191505
vn 0.707107 0.707106 -0.000001
vt 0.929072 0.327995
v 0.063472 0.769113 -0.640686
vn 0.193877 -0.000001 -0.981026
vt 0.259866 0.695109
v -0.001308 0.769113 -0.640686
vn -0.000001 0.000000 -1.000000
vt 0.234144 0.695109
v 0.044499 0.814919 -0.640686
vn 0.137092 0.137092 -0.981026
vt 0.252332 0.676920
v -0.001308 0.833893 -0.640686
vn 0.000001 0.193878 -0.981026
vt 0.234144 0.669387
v -0.047114 0.814919 -0.640686
vn -0.137092 0.137092 -0.981026
vt 0.215955 0.676920
v -0.066088 0.769113 -0.640686
vn -0.193879 -0.000000 -0.981026
vt 0.208421 0.695109
v -0.047114 0.723307 -0.640686
vn -0.137094 -0.137093 -0.981025
vt 0.215955 0.713297
v -0.001308 0.704333 -0.640686
vn -0.000000 -0.193880 -0.981025
vt 0.234144 0.720831
v 0.044499 0.723307 -0.640686
vn 0.137093 -0.137094 -0.981025
vt 0.252332 0.713297
v 0.063442 0.704363 -0.629589
vn 0.494177 -0.494178 -0.715246
vt 0.259854 0.720819
v -0.001308 0.677543 -0.629589
vn -0.000000 -0.698872 -0.715246
vt 0.234144 0.731468
v -0.066058 0.704363 -0.629589
vn -0.494177 -0.494177 -0.715247
vt 0.208433 0.720819
v -0.092878 0.769113 -0.629589
vn -0.698871 -0.000000 -0.715248
vt 0.197784 0.695109
v -0.066058 0.833863 -0.629589
vn -0.494176 0.494176 -0.715248
vt 0.208433 0.669398
v -0.001308 0.860683 -0.629589
vn 0.000001 0.698871 -0.715248
vt 0.234144 0.658749
v 0.063442 0.833863 -0.629589
vn 0.494176 0.494175 -0.715249
vt 0.259854 0.669398
v 0.090263 0.769113 -0.629589
vn 0.698871 -0.000002 -0.715248
vt 0.270503 0.695109
v 0.488784 0.080437 -0.273834
vn 0.922773 0.383024 0.042220
vt 0.819463 0.215833
v 0.473784 0.095437 -0.515757
vn 0.382685 0.923879 -0.000001
vt 0.825419 0.119773
v 0.473784 0.095437 -0.274520
vn 0.381943 0.924020 0.017475
vt 0.825419 0.215560
v 0.325640 0.047697 0.490610
vn 0.898655 -0.000000 0.438655
vt 0.806463 0.519370
v 0.220608 0.080438 0.661094
vn 0.726180 0.384780 0.569742
vt 0.819463 0.587064
v 0.220608 0.047697 0.661094
vn 0.786754 -0.000000 0.617267
vt 0.806463 0.587064
v 0.325640 0.080438 0.490610
vn 0.829662 0.384258 0.404977
vt 0.819463 0.519370
v 0.406257 0.047696 0.273833
vn 0.960678 -0.000001 0.277664
vt 0.806462 0.433295
v 0.406257 0.080437 0.273833
vn 0.887188 0.383595 0.256423
vt 0.819463 0.433295
v 0.463674 0.047696 -0.000000
vn 0.988911 -0.000001 0.148512
vt 0.806462 0.324564
v 0.463674 0.080437 -0.000000
vn 0.913412 0.383226 0.137174
vt 0.819463 0.324564
v 0.488784 0.047696 -0.273834
vn 0.998955 -0.000001 0.045706
vt 0.806462 0.215833
v 0.488784 0.047696 -0.515071
vn 1.000000 -0.000000 -0.000000
vt 0.806462 0.120045
v 0.488784 0.080437 -0.515071
vn 0.923880 0.382682 -0.000000
vt 0.819463 0.120045
v 0.488784 0.080436 -0.761853
vn 0.872243 0.399202 -0.282541
vt 0.819463 0.022056
v 0.473784 0.095436 -0.756994
vn 0.348778 0.930371 -0.112978
vt 0.825419 0.023985
v 0.452160 0.047695 -0.812453
vn 0.454793 -0.000001 -0.890597
vt 0.806462 0.001964
v 0.452160 0.080436 -0.812453
vn 0.412374 0.421714 -0.807530
vt 0.819463 0.001964
v 0.488784 0.047695 -0.761853
vn 0.951334 -0.000001 -0.308160
vt 0.806462 0.022056
v 0.136556 0.080438 0.746336
vn 0.595471 0.384055 0.705632
vt 0.819463 0.620910
v 0.136556 0.047697 0.746336
vn 0.644930 0.000000 0.764241
vt 0.806463 0.620911
v 0.136556 0.014956 0.746336
vn 0.595470 -0.384054 0.705633
vt 0.793462 0.620911
v 0.220608 0.014956 0.661094
vn 0.726180 -0.384781 0.569743
vt 0.793462 0.587064
v 0.325640 0.014956 0.490610
vn 0.829661 -0.384259 0.404978
vt 0.793462 0.519370
v 0.406257 0.014955 0.273833
vn 0.887187 -0.383597 0.256423
vt 0.793462 0.433295
v 0.463674 0.014955 -0.000000
vn 0.913411 -0.383227 0.137174
vt 0.793462 0.324564
v 0.488784 0.014955 -0.273834
vn 0.922772 -0.383026 0.042221
vt 0.793462 0.215833
v 0.488784 0.014954 -0.515071
vn 0.923879 -0.382684 0.000000
vt 0.793462 0.120045
v 0.488784 0.014954 -0.761853
vn 0.872242 -0.399205 -0.282540
vt 0.793462 0.022056
v 0.452160 0.014954 -0.812453
vn 0.412373 -0.421717 -0.807529
vt 0.793462 0.001964
v 0.452160 0.080436 -0.812453
vn 0.412374 0.421714 -0.807530
vt 0.844433 0.624902
v 0.222250 0.095437 -0.797453
vn 0.000001 0.923879 -0.382685
vt 0.838477 0.716192
v 0.444500 0.095436 -0.797453
vn 0.210360 0.886598 -0.411937
vt 0.838477 0.627944
v -0.452160 0.047696 -0.812452
vn -0.454793 -0.000000 -0.890597
vt 0.857433 0.983980
v -0.226080 0.014955 -0.812452
vn -0.000001 -0.382685 -0.923879
vt 0.870434 0.894210
v -0.452160 0.014955 -0.812452
vn -0.412374 -0.421716 -0.807529
vt 0.870434 0.983980
v -0.226080 0.047696 -0.812452
vn -0.000000 -0.000000 -1.000000
vt 0.857433 0.894210
v -0.000000 0.014955 -0.812453
vn -0.000000 -0.382685 -0.923879
vt 0.870434 0.804441
v -0.000000 0.047696 -0.812453
vn -0.000000 0.000000 -1.000000
vt 0.857433 0.804441
v 0.226080 0.014954 -0.812453
vn -0.000000 -0.382684 -0.923879
vt 0.870434 0.714671
v 0.226080 0.047696 -0.812453
vn -0.000000 -0.000000 -1.000000
vt 0.857433 0.714671
v 0.452160 0.014954 -0.812453
vn 0.412373 -0.421717 -0.807529
vt 0.870434 0.624902
v 0.452160 0.047695 -0.812453
vn 0.454793 -0.000001 -0.890597
vt 0.857433 0.624902
v 0.226080 0.080437 -0.812453
vn 0.000000 0.382682 -0.923880
vt 0.844433 0.714671
v 0.000000 0.080437 -0.812453
vn 0.000000 0.382682 -0.923880
vt 0.844433 0.804441
v 0.000000 0.095437 -0.797453
vn 0.000001 0.923879 -0.382685
vt 0.838477 0.804441
v -0.226080 0.080437 -0.812452
vn 0.000000 0.382682 -0.923880
vt 0.844433 0.894210
v -0.222250 0.095437 -0.797453
vn 0.000001 0.923879 -0.382685
vt 0.838477 0.892690
v -0.452160 0.080437 -0.812452
vn -0.412373 0.421715 -0.807530
vt 0.844433 0.983980
v -0.444500 0.095437 -0.797453
vn -0.210359 0.886599 -0.411937
vt 0.838477 0.980938
v 0.220608 0.080438 0.661094
vn 0.726180 0.384780 0.569742
vt 0.679502 0.069658
v 0.325640 0.080438 0.490610
vn 0.829662 0.384258 0.404977
vt 0.721207 0.137351
v 0.312095 0.095438 0.483999
vn 0.342490 0.924528 0.167176
vt 0.715829 0.139977
v 0.208731 0.095438 0.651775
vn 0.299434 0.924742 0.234927
vt 0.674786 0.073358
v 0.136556 0.080438 0.746336
vn 0.595471 0.384055 0.705632
vt 0.646128 0.035811
v 0.126842 0.095438 0.734824
vn 0.245923 0.924445 0.291416
vt 0.642270 0.040382
v 0.014447 0.080438 0.831577
vn 0.275199 0.398291 0.875003
vt 0.597642 0.001964
v 0.009729 0.095438 0.816577
vn 0.146353 0.872953 0.465332
vt 0.233019 0.000000
v 0.000000 0.080438 0.831577
vn 0.000000 0.382685 0.923879
vt 0.591905 0.001964
v 0.000000 0.095438 0.816577
vn 0.000001 0.967539 0.252723
vt 0.001594 0.000000
v 0.063421 0.095438 0.734824
vn 0.000001 1.000000 -0.000001
vt 0.617088 0.040382
v 0.104365 0.095438 0.651775
vn 0.000001 1.000000 -0.000001
vt 0.633346 0.073358
v 0.000000 0.095438 0.651775
vn 0.000001 1.000000 -0.000001
vt 0.591905 0.073358
v 0.000000 0.095438 0.734824
vn 0.000001 1.000000 -0.000001
vt 0.591905 0.040382
v -0.104365 0.095438 0.651775
vn 0.000001 1.000000 -0.000001
vt 0.550465 0.073358
v -0.063421 0.095438 0.734824
vn 0.000001 1.000000 -0.000001
vt 0.566723 0.040382
v -0.208730 0.095438 0.651775
vn -0.299433 0.924743 0.234927
vt 0.509025 0.073358
v -0.126841 0.095438 0.734824
vn -0.245921 0.924445 0.291417
vt 0.541541 0.040382
v -0.009729 0.095438 0.816577
vn -0.146352 0.872953 0.465332
vt 0.588042 0.007920
v 0.156048 0.095438 0.483999
vn 0.000001 1.000000 -0.000001
vt 0.653867 0.139977
v 0.391807 0.095437 0.269657
vn 0.366761 0.924256 0.106004
vt 0.747480 0.225085
v 0.406257 0.080437 0.273833
vn 0.887188 0.383595 0.256423
vt 0.753217 0.223427
v 0.448815 0.095437 -0.002232
vn 0.377904 0.924104 0.056752
vt 0.770116 0.333044
v 0.463674 0.080437 -0.000000
vn 0.913412 0.383226 0.137174
vt 0.776016 0.332158
v 0.473784 0.095437 -0.274520
vn 0.381943 0.924020 0.017475
vt 0.780030 0.441161
v 0.488784 0.080437 -0.273834
vn 0.922773 0.383024 0.042220
vt 0.785986 0.440889
v -0.473784 0.095437 -0.515757
vn -0.382683 0.923880 -0.000001
vt 0.403780 0.536949
v -0.236892 0.095437 -0.756994
vn 0.000001 1.000000 -0.000001
vt 0.497843 0.632736
v -0.473784 0.095437 -0.756994
vn -0.348776 0.930372 -0.112978
vt 0.403780 0.632736
v -0.236892 0.095437 -0.515757
vn 0.000001 1.000000 -0.000001
vt 0.497843 0.536949
v 0.000000 0.095437 -0.756994
vn 0.000001 1.000000 -0.000001
vt 0.591905 0.632736
v 0.000000 0.095437 -0.515757
vn 0.000001 1.000000 -0.000001
vt 0.591905 0.536949
v 0.236892 0.095437 -0.756994
vn 0.000001 1.000000 -0.000001
vt 0.685968 0.632736
v 0.236892 0.095437 -0.515757
vn 0.000001 1.000000 -0.000001
vt 0.685968 0.536949
v 0.000000 0.095437 -0.274520
vn 0.000001 1.000000 -0.000001
vt 0.591905 0.441161
v 0.236892 0.095437 -0.274520
vn 0.000001 1.000000 -0.000001
vt 0.685968 0.441161
v 0.224408 0.095437 -0.002232
vn 0.000001 1.000000 -0.000001
vt 0.681011 0.333044
v 0.195903 0.095438 0.269657
vn 0.000001 1.000000 -0.000001
vt 0.669693 0.225085
v 0.000000 0.095438 0.483999
vn 0.000001 1.000000 -0.000001
vt 0.591905 0.139977
v -0.156047 0.095438 0.483999
vn 0.000001 1.000000 -0.000001
vt 0.529944 0.139977
v -0.312095 0.095438 0.483999
vn -0.342488 0.924529 0.167176
vt 0.467982 0.139977
v 0.473784 0.095437 -0.515757
vn 0.382685 0.923879 -0.000001
vt 0.780030 0.536949
v 0.473784 0.095436 -0.756994
vn 0.348778 0.930371 -0.112978
vt 0.780030 0.632737
v 0.000000 0.095438 -0.002232
vn 0.000001 1.000000 -0.000001
vt 0.591905 0.333044
v 0.000000 0.095438 0.269657
vn 0.000001 1.000000 -0.000001
vt 0.591905 0.225085
v -0.195903 0.095438 0.269657
vn 0.000001 1.000000 -0.000001
vt 0.514118 0.225085
v -0.391806 0.095438 0.269657
vn -0.366759 0.924257 0.106004
vt 0.436331 0.225085
v -0.224407 0.095438 -0.002232
vn 0.000001 1.000000 -0.000001
vt 0.502800 0.333044
v -0.448815 0.095438 -0.002231
vn -0.377903 0.924104 0.056752
vt 0.413695 0.333044
v -0.236892 0.095437 -0.274520
vn 0.000001 1.000000 -0.000001
vt 0.497843 0.441161
v -0.473784 0.095438 -0.274520
vn -0.381942 0.924021 0.017475
vt 0.403780 0.441161
v -0.014447 0.080438 0.831577
vn -0.275199 0.398291 0.875003
vt 0.586169 0.001964
v 0.000000 0.080438 0.831577
vn 0.000000 0.382685 0.923879
vt 0.591905 0.001964
v -0.136556 0.080438 0.746336
vn -0.595470 0.384056 0.705632
vt 0.537683 0.035811
v -0.220607 0.080438 0.661094
vn -0.726179 0.384782 0.569742
vt 0.504309 0.069658
v -0.325640 0.080438 0.490611
vn -0.829661 0.384260 0.404978
vt 0.462604 0.137351
v -0.406257 0.080438 0.273833
vn -0.887187 0.383597 0.256423
vt 0.430593 0.223427
v -0.463673 0.080438 -0.000000
vn -0.913411 0.383227 0.137174
vt 0.407795 0.332158
v -0.488784 0.080438 -0.273834
vn -0.922772 0.383026 0.042221
vt 0.397824 0.440888
v -0.488784 0.080438 -0.515070
vn -0.923879 0.382684 -0.000000
vt 0.397824 0.536676
v -0.488784 0.080437 -0.761853
vn -0.872242 0.399205 -0.282540
vt 0.397824 0.634666
v -0.452160 0.080437 -0.812452
vn -0.412373 0.421715 -0.807530
vt 0.412366 0.654757
v -0.444500 0.095437 -0.797453
vn -0.210359 0.886599 -0.411937
vt 0.415408 0.648801
v -0.222250 0.095437 -0.797453
vn 0.000001 0.923879 -0.382685
vt 0.503657 0.648801
v 0.000000 0.095437 -0.797453
vn 0.000001 0.923879 -0.382685
vt 0.591905 0.648801
v 0.222250 0.095437 -0.797453
vn 0.000001 0.923879 -0.382685
vt 0.680154 0.648801
v 0.444500 0.095436 -0.797453
vn 0.210360 0.886598 -0.411937
vt 0.768403 0.648801
v 0.488784 0.080436 -0.761853
vn 0.872243 0.399202 -0.282541
vt 0.785986 0.634666
v 0.452160 0.080436 -0.812453
vn 0.412374 0.421714 -0.807530
vt 0.771444 0.654757
v -0.035911 0.658027 0.583248
vn -0.712709 0.067307 -0.698224
vt 0.349385 0.679889
v -0.035911 0.690518 0.581008
vn -0.713617 -0.187273 -0.675040
vt 0.349385 0.666988
v 0.000001 0.687829 0.566073
vn -0.000001 -0.273526 -0.961865
vt 0.363645 0.668056
v 0.000001 0.660087 0.568316
vn -0.000000 0.093592 -0.995611
vt 0.363645 0.679071
v -0.035911 0.568460 0.559237
vn -0.708041 0.182854 -0.682087
vt 0.349385 0.715453
v 0.000001 0.571123 0.544490
vn 0.000000 0.258820 -0.965926
vt 0.363645 0.714396
v -0.035911 0.711267 0.570542
vn -0.717446 -0.470233 -0.513957
vt 0.349385 0.658749
v 0.000001 0.700823 0.558992
vn -0.000001 -0.675514 -0.737347
vt 0.363645 0.662896
v 0.035912 0.711267 0.570542
vn 0.717444 -0.470235 -0.513958
vt 0.377904 0.658749
v 0.035912 0.690518 0.581008
vn 0.713616 -0.187275 -0.675041
vt 0.377904 0.666988
v 0.035912 0.658027 0.583248
vn 0.712708 0.067306 -0.698224
vt 0.377904 0.679889
v 0.035912 0.568460 0.559237
vn 0.708041 0.182852 -0.682087
vt 0.377904 0.715453
v -0.035911 0.478893 0.535225
vn -0.707667 0.182951 -0.682449
vt 0.349385 0.751018
v -0.035911 0.568460 0.559237
vn -0.707667 0.182951 -0.682449
vt 0.349385 0.715453
v 0.000001 0.482159 0.520664
vn 0.000000 0.258821 -0.965925
vt 0.363645 0.749721
v 0.035912 0.568460 0.559237
vn 0.707668 0.182950 -0.682448
vt 0.377904 0.715453
v 0.035912 0.478893 0.535225
vn 0.707668 0.182950 -0.682448
vt 0.377904 0.751018
v -0.035911 0.389326 0.511214
vn -0.707201 0.183797 -0.682705
vt 0.349385 0.786582
v 0.000000 0.251045 0.458406
vn -0.000000 0.260988 -0.965342
vt 0.363645 0.841489
v -0.035911 0.247144 0.472774
vn -0.707108 0.184546 -0.682599
vt 0.349385 0.843038
v 0.000000 0.393195 0.496837
vn 0.000000 0.259904 -0.965634
vt 0.363645 0.785046
v 0.035912 0.247144 0.472774
vn 0.707108 0.184545 -0.682599
vt 0.377904 0.843038
v 0.035912 0.389326 0.511214
vn 0.707201 0.183796 -0.682705
vt 0.377904 0.786582
v 0.035912 0.478893 0.535225
vn 0.707294 0.183047 -0.682810
vt 0.377904 0.751018
v -0.035911 0.478893 0.535225
vn -0.707294 0.183048 -0.682810
vt 0.349385 0.751018
v 0.000001 0.706183 0.667993
vn 0.000000 0.232445 0.972609
vt 0.432953 0.917417
v -0.035911 0.761653 0.626260
vn -0.721294 0.466798 0.511697
vt 0.418694 0.939443
v -0.035911 0.703493 0.653057
vn -0.713336 0.164195 0.681317
vt 0.418694 0.916349
v 0.000001 0.646026 0.670208
vn 0.000000 -0.112158 0.993690
vt 0.432953 0.893531
v -0.035911 0.648087 0.655277
vn -0.712002 -0.078054 0.697825
vt 0.418694 0.894349
v 0.000001 0.552947 0.645121
vn 0.000000 -0.260133 0.965573
vt 0.432953 0.856572
v -0.035911 0.555611 0.630374
vn -0.708016 -0.183627 0.681905
vt 0.418694 0.857630
v 0.035912 0.555611 0.630374
vn 0.708016 -0.183629 0.681905
vt 0.447213 0.857630
v 0.035912 0.648087 0.655277
vn 0.712002 -0.078055 0.697825
vt 0.447213 0.894349
v 0.035912 0.703493 0.653057
vn 0.713336 0.164194 0.681316
vt 0.447213 0.916349
v 0.000001 0.772098 0.637810
vn 0.000001 0.673910 0.738814
vt 0.432953 0.943590
v 0.035912 0.761653 0.626260
vn 0.721295 0.466797 0.511697
vt 0.447213 0.939443
v 0.050801 0.769659 0.514570
vn 0.999998 0.000243 -0.001927
vt 0.509218 0.940546
v 0.035912 0.806069 0.489202
vn 0.707090 0.706992 0.013678
vt 0.519291 0.955003
v 0.035912 0.805543 0.516391
vn 0.708143 0.705383 0.031123
vt 0.508495 0.954794
v 0.050801 0.766925 0.546965
vn 0.999994 0.001049 -0.003270
vt 0.496355 0.939460
v 0.035912 0.802892 0.554915
vn 0.715571 0.667857 0.204758
vt 0.493198 0.953742
v 0.050801 0.736460 0.598401
vn 1.000000 -0.000566 -0.000700
vt 0.475932 0.927364
v 0.035912 0.761653 0.626260
vn 0.721295 0.466797 0.511697
vt 0.464870 0.937367
v 0.050801 0.697006 0.617033
vn 0.999996 -0.002783 0.000711
vt 0.468534 0.911698
v 0.035912 0.703493 0.653057
vn 0.713336 0.164194 0.681316
vt 0.454229 0.914274
v 0.050801 0.653057 0.619262
vn 0.999999 -0.001469 0.000026
vt 0.467648 0.894247
v 0.035912 0.648087 0.655277
vn 0.712002 -0.078055 0.697825
vt 0.453348 0.892273
v 0.050801 0.562035 0.594805
vn 1.000000 -0.000116 -0.000020
vt 0.477359 0.858105
v 0.035912 0.555611 0.630374
vn 0.708016 -0.183629 0.681905
vt 0.463236 0.855554
v 0.035912 0.658027 0.583248
vn 0.712708 0.067306 -0.698224
vt 0.481949 0.896220
v 0.035912 0.690518 0.581008
vn 0.713616 -0.187275 -0.675041
vt 0.482838 0.909122
v 0.035912 0.711267 0.570542
vn 0.717444 -0.470235 -0.513958
vt 0.486994 0.917360
v 0.035912 0.730959 0.539014
vn 0.715622 -0.659703 -0.229514
vt 0.499512 0.925179
v 0.035912 0.733775 0.512748
vn 0.708567 -0.704215 -0.044881
vt 0.509942 0.926297
v 0.050801 0.770149 0.489614
vn 1.000000 0.000001 -0.000066
vt 0.519128 0.940740
v 0.035912 0.568460 0.559237
vn 0.708041 0.182852 -0.682087
vt 0.491483 0.860656
v 0.035912 0.734229 0.490026
vn 0.707088 -0.706984 -0.014129
vt 0.518964 0.926478
v -0.136556 0.047697 0.746336
vn -0.644930 0.000001 0.764242
vt 0.851398 0.001964
v -0.136556 0.080438 0.746336
vn -0.595470 0.384056 0.705632
vt 0.864398 0.001964
v -0.220607 0.080438 0.661094
vn -0.726179 0.384782 0.569742
vt 0.864398 0.035811
v -0.220607 0.014956 0.661094
vn -0.726180 -0.384780 0.569743
vt 0.838397 0.035811
v -0.136556 0.014956 0.746336
vn -0.595471 -0.384054 0.705632
vt 0.838397 0.001964
v -0.220607 0.047697 0.661094
vn -0.786753 0.000001 0.617267
vt 0.851398 0.035811
v -0.325640 0.080438 0.490611
vn -0.829661 0.384260 0.404978
vt 0.864398 0.103505
v -0.325640 0.047697 0.490611
vn -0.898655 0.000001 0.438655
vt 0.851398 0.103505
v -0.406257 0.080438 0.273833
vn -0.887187 0.383597 0.256423
vt 0.864398 0.189580
v -0.406257 0.047697 0.273833
vn -0.960678 0.000001 0.277664
vt 0.851397 0.189580
v -0.463673 0.080438 -0.000000
vn -0.913411 0.383227 0.137174
vt 0.864398 0.298311
v -0.463673 0.047697 -0.000000
vn -0.988910 0.000001 0.148513
vt 0.851397 0.298311
v -0.488784 0.080438 -0.273834
vn -0.922772 0.383026 0.042221
vt 0.864398 0.407042
v -0.488784 0.047697 -0.273834
vn -0.998955 0.000001 0.045707
vt 0.851397 0.407042
v -0.488784 0.080438 -0.515070
vn -0.923879 0.382684 -0.000000
vt 0.864398 0.502829
v -0.488784 0.047696 -0.515070
vn -1.000000 0.000001 0.000000
vt 0.851397 0.502829
v -0.488784 0.080437 -0.761853
vn -0.872242 0.399205 -0.282540
vt 0.864398 0.600819
v -0.488784 0.047696 -0.761853
vn -0.951335 0.000001 -0.308160
vt 0.851397 0.600819
v -0.452160 0.080437 -0.812452
vn -0.412373 0.421715 -0.807530
vt 0.864398 0.620911
v -0.452160 0.047696 -0.812452
vn -0.454793 -0.000000 -0.890597
vt 0.851397 0.620911
v -0.452160 0.014955 -0.812452
vn -0.412374 -0.421716 -0.807529
vt 0.838397 0.620910
v -0.488784 0.014955 -0.515070
vn -0.923880 -0.382682 0.000000
vt 0.838397 0.502829
v -0.488784 0.014955 -0.761853
vn -0.872243 -0.399203 -0.282540
vt 0.838397 0.600819
v -0.473784 -0.000045 -0.515757
vn -0.382685 -0.923879 0.000001
vt 0.832441 0.503102
v -0.473784 -0.000044 -0.274520
vn -0.381943 -0.924021 0.017476
vt 0.832441 0.407314
v -0.488784 0.014956 -0.273834
vn -0.922773 -0.383024 0.042221
vt 0.838397 0.407042
v -0.463673 0.014956 -0.000000
vn -0.913412 -0.383225 0.137175
vt 0.838397 0.298311
v -0.406257 0.014956 0.273833
vn -0.887188 -0.383595 0.256424
vt 0.838397 0.189580
v -0.325640 0.014956 0.490611
vn -0.829662 -0.384257 0.404978
vt 0.838397 0.103505
v -0.473784 -0.000045 -0.756994
vn -0.348778 -0.930371 -0.112977
vt 0.832441 0.598890
v 0.224408 -0.000045 -0.002231
vn -0.000001 -1.000000 0.000001
vt 0.285178 0.323678
v 0.473784 -0.000045 -0.274520
vn 0.381942 -0.924021 0.017476
vt 0.384198 0.215560
v 0.448815 -0.000045 -0.002232
vn 0.377902 -0.924104 0.056753
vt 0.374284 0.323678
v 0.236892 -0.000045 -0.274520
vn -0.000001 -1.000000 0.000001
vt 0.290136 0.215560
v 0.473784 -0.000046 -0.515757
vn 0.382683 -0.923880 0.000001
vt 0.384198 0.119773
v 0.000000 -0.000045 -0.002231
vn -0.000001 -1.000000 0.000001
vt 0.196073 0.323678
v 0.000000 -0.000044 0.269657
vn -0.000001 -1.000000 0.000001
vt 0.196073 0.431636
v 0.195903 -0.000045 0.269657
vn -0.000001 -1.000000 0.000001
vt 0.273860 0.431636
v 0.391807 -0.000045 0.269657
vn 0.366760 -0.924257 0.106005
vt 0.351647 0.431636
v 0.236892 -0.000045 -0.515757
vn -0.000001 -1.000000 0.000001
vt 0.290136 0.119773
v 0.236892 -0.000046 -0.756994
vn -0.000001 -1.000000 0.000001
vt 0.290136 0.023985
v 0.000000 -0.000045 -0.274520
vn -0.000001 -1.000000 0.000001
vt 0.196073 0.215560
v -0.224408 -0.000044 -0.002231
vn -0.000001 -1.000000 0.000001
vt 0.106968 0.323678
v -0.195903 -0.000044 0.269657
vn -0.000001 -1.000000 0.000001
vt 0.118286 0.431636
v -0.156047 -0.000044 0.483999
vn -0.000001 -1.000000 0.000001
vt 0.134112 0.516745
v 0.000000 -0.000044 0.483999
vn -0.000001 -1.000000 0.000001
vt 0.196073 0.516745
v 0.156048 -0.000044 0.483999
vn -0.000001 -1.000000 0.000001
vt 0.258035 0.516745
v 0.312095 -0.000044 0.483999
vn 0.342488 -0.924529 0.167178
vt 0.319996 0.516745
v 0.208730 -0.000044 0.651775
vn 0.299433 -0.924742 0.234929
vt 0.278954 0.583364
v 0.126842 -0.000044 0.734824
vn 0.245921 -0.924445 0.291418
vt 0.246438 0.616340
v 0.104365 -0.000044 0.651775
vn -0.000001 -1.000000 0.000001
vt 0.237513 0.583364
v 0.000000 -0.000044 0.651775
vn -0.000001 -1.000000 0.000001
vt 0.196073 0.583364
v -0.104365 -0.000044 0.651775
vn -0.000001 -1.000000 0.000001
vt 0.154633 0.583364
v -0.208730 -0.000044 0.651775
vn -0.299434 -0.924742 0.234929
vt 0.113193 0.583364
v -0.312095 -0.000044 0.483999
vn -0.342490 -0.924528 0.167178
vt 0.072150 0.516745
v -0.391806 -0.000044 0.269657
vn -0.366761 -0.924256 0.106005
vt 0.040499 0.431636
v -0.448815 -0.000044 -0.002231
vn -0.377904 -0.924104 0.056754
vt 0.017863 0.323678
v -0.236892 -0.000045 -0.274520
vn -0.000001 -1.000000 0.000001
vt 0.102011 0.215560
v -0.000000 -0.000045 -0.515757
vn -0.000001 -1.000000 0.000001
vt 0.196073 0.119773
v -0.000000 -0.000045 -0.756994
vn -0.000001 -1.000000 0.000000
vt 0.196073 0.023985
v 0.222250 -0.000046 -0.797453
vn -0.000001 -0.923880 -0.382682
vt 0.284322 0.007920
v 0.444500 -0.000046 -0.797453
vn 0.210358 -0.886600 -0.411935
vt 0.372571 0.007920
v 0.473784 -0.000046 -0.756994
vn 0.348775 -0.930372 -0.112976
vt 0.384198 0.023985
v -0.473784 -0.000044 -0.274520
vn -0.381943 -0.924021 0.017476
vt 0.007948 0.215560
v -0.236892 -0.000045 -0.515757
vn -0.000001 -1.000000 0.000001
vt 0.102011 0.119773
v -0.236892 -0.000045 -0.756994
vn -0.000001 -1.000000 0.000000
vt 0.102011 0.023985
v -0.000000 -0.000045 -0.797452
vn -0.000001 -0.923880 -0.382682
vt 0.196073 0.007920
v 0.226080 0.014954 -0.812453
vn -0.000000 -0.382684 -0.923879
vt 0.285843 0.001964
v 0.452160 0.014954 -0.812453
vn 0.412373 -0.421717 -0.807529
vt 0.375612 0.001964
v 0.488784 0.014954 -0.761853
vn 0.872242 -0.399205 -0.282540
vt 0.390154 0.022056
v 0.488784 0.014954 -0.515071
vn 0.923879 -0.382684 0.000000
vt 0.390154 0.120045
v -0.000000 0.014955 -0.812453
vn -0.000000 -0.382685 -0.923879
vt 0.196073 0.001964
v -0.226080 0.014955 -0.812452
vn -0.000001 -0.382685 -0.923879
vt 0.106304 0.001964
v -0.444501 -0.000045 -0.797452
vn -0.210360 -0.886599 -0.411935
vt 0.019576 0.007920
v -0.452160 0.014955 -0.812452
vn -0.412374 -0.421716 -0.807529
vt 0.016534 0.001964
v -0.222250 -0.000045 -0.797452
vn -0.000001 -0.923880 -0.382683
vt 0.107824 0.007920
v -0.473784 -0.000045 -0.756994
vn -0.348778 -0.930371 -0.112977
vt 0.007948 0.023985
v -0.473784 -0.000045 -0.515757
vn -0.382685 -0.923879 0.000001
vt 0.007948 0.119773
v -0.488784 0.014955 -0.761853
vn -0.872243 -0.399203 -0.282540
vt 0.001992 0.022056
v 0.488784 0.014955 -0.273834
vn 0.922772 -0.383026 0.042221
vt 0.390154 0.215833
v 0.463674 0.014955 -0.000000
vn 0.913411 -0.383227 0.137174
vt 0.380184 0.324564
v 0.406257 0.014955 0.273833
vn 0.887187 -0.383597 0.256423
vt 0.357385 0.433295
v 0.325640 0.014956 0.490610
vn 0.829661 -0.384259 0.404978
vt 0.325375 0.519370
v 0.220608 0.014956 0.661094
vn 0.726180 -0.384781 0.569743
vt 0.283670 0.587064
v 0.136556 0.014956 0.746336
vn 0.595470 -0.384054 0.705633
vt 0.250295 0.620911
v 0.014447 0.014956 0.831577
vn 0.275200 -0.398289 0.875003
vt 0.201810 0.654757
v 0.009729 -0.000044 0.816577
vn 0.146353 -0.872952 0.465334
vt 0.199936 0.648801
v 0.000000 0.014956 0.831577
vn 0.000003 -0.382682 0.923880
vt 0.196073 0.654757
v 0.000000 -0.000044 0.816577
vn -0.000001 -0.967538 0.252725
vt 0.196073 0.648801
v -0.220607 0.014956 0.661094
vn -0.726180 -0.384780 0.569743
vt 0.108477 0.587064
v -0.126842 -0.000044 0.734824
vn -0.245923 -0.924444 0.291418
vt 0.145708 0.616340
v -0.136556 0.014956 0.746336
vn -0.595471 -0.384054 0.705632
vt 0.141851 0.620911
v -0.009729 -0.000044 0.816577
vn -0.146354 -0.872952 0.465334
vt 0.192210 0.648801
v -0.063421 -0.000044 0.734824
vn -0.000001 -1.000000 0.000001
vt 0.170891 0.616340
v 0.000000 -0.000044 0.734824
vn -0.000001 -1.000000 0.000001
vt 0.196073 0.616340
v 0.063421 -0.000044 0.734824
vn -0.000001 -1.000000 0.000001
vt 0.221256 0.616340
v -0.014447 0.014956 0.831577
vn -0.275200 -0.398289 0.875003
vt 0.190337 0.654757
v -0.325640 0.014956 0.490611
vn -0.829662 -0.384257 0.404978
vt 0.066772 0.519370
v -0.406257 0.014956 0.273833
vn -0.887188 -0.383595 0.256424
vt 0.034761 0.433295
v -0.463673 0.014956 -0.000000
vn -0.913412 -0.383225 0.137175
vt 0.011963 0.324564
v -0.488784 0.014956 -0.273834
vn -0.922773 -0.383024 0.042221
vt 0.001992 0.215833
v 0.000000 0.660086 -0.736304
vn 0.000000 0.093593 0.995611
vt 0.328990 0.887025
v 0.035912 0.658026 -0.751235
vn 0.712709 0.067306 0.698223
vt 0.343250 0.886207
v 0.035912 0.690517 -0.748996
vn 0.713617 -0.187273 0.675041
vt 0.343250 0.899108
v 0.000001 0.687828 -0.734060
vn -0.000000 -0.273523 0.961865
vt 0.328990 0.898040
v 0.035912 0.711266 -0.738529
vn 0.717445 -0.470233 0.513958
vt 0.343250 0.907347
v 0.000001 0.700822 -0.726979
vn -0.000001 -0.675511 0.737350
vt 0.328990 0.903200
v 0.000000 0.571122 -0.712477
vn 0.000001 0.258822 0.965925
vt 0.328990 0.851700
v 0.035912 0.568459 -0.727224
vn 0.708042 0.182854 0.682086
vt 0.343250 0.850642
v -0.035911 0.568459 -0.727224
vn -0.708042 0.182855 0.682086
vt 0.314731 0.850642
v -0.035911 0.658026 -0.751235
vn -0.712709 0.067308 0.698224
vt 0.314731 0.886207
v -0.035911 0.690517 -0.748996
vn -0.713617 -0.187271 0.675041
vt 0.314731 0.899108
v -0.035911 0.711266 -0.738529
vn -0.717446 -0.470231 0.513959
vt 0.314731 0.907347
v 0.000000 0.482158 -0.688651
vn 0.000001 0.258822 0.965925
vt 0.328990 0.816375
v 0.035912 0.478892 -0.703212
vn 0.707668 0.182951 0.682448
vt 0.343250 0.815078
v 0.035912 0.568459 -0.727224
vn 0.707668 0.182951 0.682448
vt 0.343250 0.850642
v -0.035911 0.478892 -0.703212
vn -0.707667 0.182952 0.682449
vt 0.314731 0.815078
v -0.035911 0.568459 -0.727224
vn -0.707667 0.182952 0.682449
vt 0.314731 0.850642
v -0.035911 0.389325 -0.679201
vn -0.707201 0.183798 0.682704
vt 0.314731 0.779514
v -0.035911 0.247143 -0.640761
vn -0.707107 0.184548 0.682600
vt 0.314731 0.723058
v 0.000000 0.251044 -0.626392
vn 0.000001 0.260990 0.965342
vt 0.328990 0.724607
v 0.000000 0.393194 -0.664824
vn 0.000000 0.259906 0.965634
vt 0.328990 0.781050
v 0.035912 0.389325 -0.679201
vn 0.707201 0.183797 0.682704
vt 0.343250 0.779514
v 0.035912 0.478892 -0.703212
vn 0.707295 0.183048 0.682809
vt 0.343250 0.815078
v -0.035911 0.478892 -0.703212
vn -0.707294 0.183049 0.682809
vt 0.314731 0.815078
v 0.035912 0.247143 -0.640761
vn 0.707107 0.184547 0.682599
vt 0.343250 0.723058
v 0.000001 0.716047 0.535718
vn -0.000001 -0.942600 -0.333924
vt 0.016251 0.721864
v 0.035912 0.733775 0.512748
vn 0.708567 -0.704215 -0.044881
vt 0.030511 0.712743
v 0.035912 0.730959 0.539014
vn 0.715622 -0.659703 -0.229514
vt 0.030511 0.723172
v -0.035911 0.733775 0.512748
vn -0.708568 -0.704213 -0.044882
vt 0.001992 0.712743
v -0.035911 0.734229 0.490026
vn -0.707089 -0.706983 -0.014129
vt 0.001992 0.703721
v 0.000001 0.719337 0.490197
vn -0.000002 -0.999799 -0.020057
vt 0.016251 0.703789
v 0.000001 0.718898 0.511993
vn -0.000002 -0.997794 -0.066381
vt 0.016251 0.712443
v 0.035912 0.734229 0.490026
vn 0.707088 -0.706984 -0.014129
vt 0.030511 0.703721
v -0.035911 0.730959 0.539014
vn -0.715624 -0.659701 -0.229515
vt 0.001992 0.723172
v -0.035911 0.711267 0.570542
vn -0.717446 -0.470233 -0.513957
vt 0.001992 0.735691
v 0.000001 0.700823 0.558992
vn -0.000001 -0.675514 -0.737347
vt 0.016251 0.731105
v 0.035912 0.711267 0.570542
vn 0.717444 -0.470235 -0.513958
vt 0.030511 0.735691
v -0.035911 0.802892 0.554915
vn -0.715570 0.667858 0.204757
vt 0.696209 0.953742
v -0.035911 0.805543 0.516391
vn -0.708142 0.705384 0.031122
vt 0.680912 0.954794
v -0.050799 0.769659 0.514570
vn -0.999998 0.000245 -0.001926
vt 0.680189 0.940546
v -0.050799 0.562035 0.594805
vn -1.000000 -0.000114 -0.000020
vt 0.712048 0.858105
v -0.035911 0.658027 0.583248
vn -0.712709 0.067307 -0.698224
vt 0.707458 0.896220
v -0.035911 0.568460 0.559237
vn -0.708041 0.182854 -0.682087
vt 0.697924 0.860656
v -0.050799 0.653057 0.619262
vn -0.999999 -0.001467 0.000026
vt 0.721759 0.894247
v -0.035911 0.555611 0.630374
vn -0.708016 -0.183627 0.681905
vt 0.726171 0.855554
v -0.035911 0.648087 0.655277
vn -0.712002 -0.078054 0.697825
vt 0.736059 0.892273
v -0.050799 0.697006 0.617033
vn -0.999996 -0.002781 0.000712
vt 0.720873 0.911698
v -0.035911 0.703493 0.653057
vn -0.713336 0.164195 0.681317
vt 0.735178 0.914274
v -0.050799 0.736460 0.598401
vn -1.000000 -0.000564 -0.000699
vt 0.713475 0.927364
v -0.035911 0.761653 0.626260
vn -0.721294 0.466798 0.511697
vt 0.724537 0.937367
v -0.050799 0.766925 0.546965
vn -0.999994 0.001051 -0.003270
vt 0.693052 0.939461
v -0.035911 0.733775 0.512748
vn -0.708568 -0.704213 -0.044882
vt 0.679465 0.926297
v -0.035911 0.734229 0.490026
vn -0.707089 -0.706983 -0.014129
vt 0.670443 0.926478
v -0.050799 0.770149 0.489614
vn -1.000000 0.000002 -0.000064
vt 0.670279 0.940740
v -0.035911 0.806069 0.489202
vn -0.707089 0.706992 0.013680
vt 0.670116 0.955003
v -0.035911 0.730959 0.539014
vn -0.715624 -0.659701 -0.229515
vt 0.689895 0.925179
v -0.035911 0.711267 0.570542
vn -0.717446 -0.470233 -0.513957
vt 0.702413 0.917360
v -0.035911 0.690518 0.581008
vn -0.713617 -0.187273 -0.675040
vt 0.706569 0.909122
v 0.035912 0.805543 0.516391
vn 0.708143 0.705383 0.031123
vt 0.078140 0.706960
v 0.035912 0.806069 0.489202
vn 0.707090 0.706992 0.013678
vt 0.078140 0.717757
v 0.000001 0.820961 0.489031
vn 0.000000 0.999814 0.019287
vt 0.063880 0.717824
v 0.000001 0.772098 0.637810
vn 0.000001 0.673910 0.738814
vt 0.063880 0.658749
v -0.035911 0.802892 0.554915
vn -0.715570 0.667858 0.204757
vt 0.049621 0.691664
v -0.035911 0.761653 0.626260
vn -0.721294 0.466798 0.511697
vt 0.049621 0.663335
v 0.000001 0.817804 0.558212
vn 0.000001 0.956894 0.290437
vt 0.063880 0.690355
v 0.035912 0.761653 0.626260
vn 0.721295 0.466797 0.511697
vt 0.078140 0.663335
v 0.035912 0.802892 0.554915
vn 0.715571 0.667857 0.204758
vt 0.078140 0.691664
v 0.000001 0.820420 0.517147
vn 0.000001 0.999090 0.042658
vt 0.063880 0.706661
v -0.035911 0.806069 0.489202
vn -0.707089 0.706992 0.013680
vt 0.049621 0.717757
v -0.035911 0.805543 0.516391
vn -0.708142 0.705384 0.031122
vt 0.049621 0.706960
v 0.000001 0.817803 -0.726199
vn 0.000001 0.956894 -0.290438
vt 0.098534 0.695228
v -0.035911 0.802891 -0.722903
vn -0.715570 0.667858 -0.204758
vt 0.084275 0.693919
v -0.035911 0.805542 -0.684379
vn -0.708178 0.705478 -0.028013
vt 0.084275 0.678623
v 0.000001 0.772097 -0.805798
vn 0.000001 0.673909 -0.738815
vt 0.098534 0.726834
v -0.035911 0.761652 -0.794248
vn -0.721295 0.466797 -0.511697
vt 0.084275 0.722248
v 0.035912 0.761652 -0.794248
vn 0.721295 0.466796 -0.511698
vt 0.112794 0.722248
v 0.035912 0.802891 -0.722903
vn 0.715571 0.667856 -0.204758
vt 0.112794 0.693919
v 0.000001 0.820419 -0.685134
vn 0.000001 0.999266 -0.038315
vt 0.098534 0.678923
v -0.035911 0.806068 -0.634498
vn -0.707078 0.707096 -0.007457
vt 0.084275 0.658817
v 0.000001 0.820960 -0.634327
vn 0.000001 0.999944 -0.010598
vt 0.098534 0.658749
v 0.035912 0.805542 -0.684379
vn 0.708180 0.705476 -0.028014
vt 0.112794 0.678623
v 0.035912 0.806068 -0.634498
vn 0.707079 0.707095 -0.007458
vt 0.112794 0.658817
v -0.035911 0.805542 -0.684379
vn -0.708178 0.705478 -0.028013
vt 0.604777 0.954794
v -0.050799 0.770148 -0.634910
vn -1.000000 -0.000000 -0.000057
vt 0.624420 0.940740
v -0.035911 0.806068 -0.634498
vn -0.707078 0.707096 -0.007457
vt 0.624583 0.955003
v -0.050799 0.769658 -0.682557
vn -0.999998 0.000244 0.001866
vt 0.605500 0.940546
v -0.035911 0.734228 -0.635322
vn -0.707078 -0.707100 0.007068
vt 0.624256 0.926478
v -0.035911 0.802891 -0.722903
vn -0.715570 0.667858 -0.204758
vt 0.589480 0.953742
v -0.050800 0.562034 -0.762793
vn -1.000000 -0.000114 0.000020
vt 0.573641 0.858105
v -0.035911 0.568459 -0.727224
vn -0.708042 0.182855 0.682086
vt 0.587765 0.860656
v -0.035911 0.658026 -0.751235
vn -0.712709 0.067308 0.698224
vt 0.578230 0.896220
v -0.050800 0.653056 -0.787250
vn -0.999999 -0.001467 -0.000026
vt 0.563930 0.894247
v -0.035911 0.555609 -0.798362
vn -0.708017 -0.183629 -0.681904
vt 0.559518 0.855554
v -0.035911 0.648085 -0.823264
vn -0.712003 -0.078055 -0.697825
vt 0.549630 0.892273
v -0.050800 0.697005 -0.785020
vn -0.999996 -0.002781 -0.000711
vt 0.564815 0.911698
v -0.035911 0.703492 -0.821045
vn -0.713336 0.164194 -0.681317
vt 0.550511 0.914274
v -0.050799 0.736459 -0.766388
vn -1.000000 -0.000564 0.000700
vt 0.572214 0.927364
v -0.035911 0.761652 -0.794248
vn -0.721295 0.466797 -0.511697
vt 0.561152 0.937367
v -0.050799 0.766924 -0.714952
vn -0.999994 0.001051 0.003270
vt 0.592637 0.939460
v -0.035911 0.733774 -0.680736
vn -0.708644 -0.704353 0.041355
vt 0.606223 0.926297
v -0.035911 0.690517 -0.748996
vn -0.713617 -0.187271 0.675041
vt 0.579120 0.909122
v -0.035911 0.711266 -0.738529
vn -0.717446 -0.470231 0.513959
vt 0.583275 0.917360
v -0.035911 0.730958 -0.707002
vn -0.715624 -0.659701 0.229516
vt 0.595794 0.925179
v 0.000001 0.716046 -0.703705
vn -0.000001 -0.942599 0.333926
vt 0.029226 0.672577
v 0.035912 0.730958 -0.707002
vn 0.715622 -0.659703 0.229515
vt 0.043486 0.671268
v 0.035912 0.733774 -0.680736
vn 0.708643 -0.704355 0.041356
vt 0.043486 0.681697
v 0.000001 0.718897 -0.679981
vn -0.000001 -0.998118 0.061327
vt 0.029226 0.681997
v 0.035912 0.734228 -0.635322
vn 0.707077 -0.707102 0.007069
vt 0.043486 0.699729
v 0.000001 0.719336 -0.635493
vn -0.000001 -0.999951 0.009934
vt 0.029226 0.699661
v -0.035911 0.733774 -0.680736
vn -0.708644 -0.704353 0.041355
vt 0.014967 0.681697
v -0.035911 0.730958 -0.707002
vn -0.715624 -0.659701 0.229516
vt 0.014967 0.671268
v -0.035911 0.711266 -0.738529
vn -0.717446 -0.470231 0.513959
vt 0.014967 0.658749
v 0.000001 0.700822 -0.726979
vn -0.000001 -0.675511 0.737350
vt 0.029226 0.663335
v 0.035912 0.711266 -0.738529
vn 0.717445 -0.470233 0.513958
vt 0.043486 0.658749
v -0.035911 0.734228 -0.635322
vn -0.707078 -0.707100 0.007068
vt 0.014967 0.699729
v 0.000000 0.090412 0.414306
vn -0.000000 0.264919 -0.964271
vt 0.363645 0.905271
v -0.035911 0.085185 0.428247
vn -0.706596 0.187585 -0.682300
vt 0.349385 0.907347
v -0.035911 0.247144 0.472774
vn -0.706596 0.187585 -0.682300
vt 0.349385 0.843038
v 0.000000 0.251045 0.458406
vn -0.000000 0.264919 -0.964271
vt 0.363645 0.841489
v 0.035912 0.085185 0.428247
vn 0.706596 0.187583 -0.682301
vt 0.377904 0.907347
v 0.035912 0.247144 0.472774
vn 0.706596 0.187583 -0.682301
vt 0.377904 0.843038
v 0.000000 0.552946 -0.813108
vn -0.000000 -0.260135 -0.965572
vt 0.398299 0.745767
v -0.035911 0.555609 -0.798362
vn -0.708017 -0.183629 -0.681904
vt 0.384040 0.744709
v -0.035911 0.648085 -0.823264
vn -0.712003 -0.078055 -0.697825
vt 0.384040 0.707990
v 0.035912 0.555609 -0.798362
vn 0.708016 -0.183630 -0.681904
vt 0.412558 0.744709
v 0.000000 0.646025 -0.838196
vn -0.000000 -0.112159 -0.993690
vt 0.398299 0.708808
v -0.035911 0.703492 -0.821045
vn -0.713336 0.164194 -0.681317
vt 0.384040 0.685990
v 0.000000 0.706182 -0.835980
vn -0.000000 0.232444 -0.972610
vt 0.398299 0.684922
v -0.035911 0.761652 -0.794248
vn -0.721295 0.466797 -0.511697
vt 0.384040 0.662896
v 0.000001 0.772097 -0.805798
vn 0.000001 0.673909 -0.738815
vt 0.398299 0.658749
v 0.035912 0.703492 -0.821045
vn 0.713336 0.164193 -0.681317
vt 0.412558 0.685990
v 0.035912 0.761652 -0.794248
vn 0.721295 0.466796 -0.511698
vt 0.412558 0.662896
v 0.035912 0.648085 -0.823264
vn 0.712003 -0.078056 -0.697825
vt 0.412558 0.707990
v 0.050800 0.562034 -0.762793
vn 1.000000 -0.000116 0.000020
vt 0.808330 0.858105
v 0.035912 0.555609 -0.798362
vn 0.708016 -0.183630 -0.681904
vt 0.822453 0.855554
v 0.035912 0.648085 -0.823264
vn 0.712003 -0.078056 -0.697825
vt 0.832341 0.892273
v 0.035912 0.568459 -0.727224
vn 0.708042 0.182854 0.682086
vt 0.794207 0.860656
v 0.050800 0.653055 -0.787250
vn 0.999999 -0.001469 -0.000026
vt 0.818041 0.894247
v 0.035912 0.703492 -0.821045
vn 0.713336 0.164193 -0.681317
vt 0.831460 0.914274
v 0.050801 0.697005 -0.785020
vn 0.999996 -0.002783 -0.000712
vt 0.817156 0.911698
v 0.035912 0.761652 -0.794248
vn 0.721295 0.466796 -0.511698
vt 0.820820 0.937367
v 0.050801 0.736459 -0.766388
vn 1.000000 -0.000566 0.000699
vt 0.809758 0.927364
v 0.035912 0.802891 -0.722903
vn 0.715571 0.667856 -0.204758
vt 0.792491 0.953742
v 0.050801 0.766924 -0.714952
vn 0.999994 0.001049 0.003270
vt 0.789334 0.939460
v 0.035912 0.805542 -0.684379
vn 0.708180 0.705476 -0.028014
vt 0.777194 0.954794
v 0.050801 0.769658 -0.682558
vn 0.999998 0.000242 0.001865
vt 0.776471 0.940546
v 0.035912 0.806068 -0.634498
vn 0.707079 0.707095 -0.007458
vt 0.757388 0.955003
v 0.050801 0.770148 -0.634910
vn 1.000000 -0.000002 -0.000057
vt 0.757552 0.940740
v 0.035912 0.733774 -0.680736
vn 0.708643 -0.704355 0.041356
vt 0.775748 0.926297
v 0.035912 0.734228 -0.635322
vn 0.707077 -0.707102 0.007069
vt 0.757715 0.926478
v 0.035912 0.658026 -0.751235
vn 0.712709 0.067306 0.698223
vt 0.803741 0.896220
v 0.035912 0.690517 -0.748996
vn 0.713617 -0.187273 0.675041
vt 0.802851 0.909122
v 0.035912 0.711266 -0.738529
vn 0.717445 -0.470233 0.513958
vt 0.798696 0.917360
v 0.035912 0.730958 -0.707002
vn 0.715622 -0.659703 0.229515
vt 0.786177 0.925179
v -0.050800 0.471013 -0.738336
vn -1.000000 -0.000113 0.000025
vt 0.583352 0.821963
v -0.035911 0.478892 -0.703212
vn -0.707667 0.182952 0.682449
vt 0.597299 0.825092
v -0.035911 0.568459 -0.727224
vn -0.707667 0.182952 0.682449
vt 0.587765 0.860656
v -0.050800 0.562034 -0.762793
vn -1.000000 -0.000113 0.000025
vt 0.573641 0.858105
v -0.035911 0.463133 -0.773459
vn -0.707653 -0.183723 -0.682255
vt 0.569406 0.818834
v -0.035911 0.555609 -0.798362
vn -0.707653 -0.183723 -0.682255
vt 0.559518 0.855554
v 0.000000 0.459867 -0.788020
vn 0.000000 -0.260135 -0.965572
vt 0.398299 0.782726
v -0.035911 0.463133 -0.773459
vn -0.707653 -0.183723 -0.682255
vt 0.384040 0.781429
v -0.035911 0.555609 -0.798362
vn -0.707653 -0.183723 -0.682255
vt 0.384040 0.744709
v 0.000000 0.552946 -0.813108
vn 0.000000 -0.260135 -0.965572
vt 0.398299 0.745767
v 0.035912 0.463133 -0.773459
vn 0.707653 -0.183725 -0.682256
vt 0.412558 0.781429
v 0.035912 0.555609 -0.798362
vn 0.707653 -0.183725 -0.682256
vt 0.412558 0.744709
v 0.050800 0.471013 -0.738336
vn 1.000000 -0.000115 0.000024
vt 0.798619 0.821963
v 0.035912 0.463133 -0.773459
vn 0.707653 -0.183725 -0.682256
vt 0.812565 0.818835
v 0.035912 0.555609 -0.798362
vn 0.707653 -0.183725 -0.682256
vt 0.822453 0.855554
v 0.050800 0.562034 -0.762793
vn 1.000000 -0.000115 0.000024
vt 0.808330 0.858105
v 0.035912 0.478892 -0.703212
vn 0.707668 0.182951 0.682448
vt 0.784672 0.825092
v 0.035912 0.568459 -0.727224
vn 0.707668 0.182951 0.682448
vt 0.794207 0.860656
v 0.071289 0.841710 -0.602799
vn 0.693371 0.693370 -0.196148
vt 0.998008 0.878917
v 0.063442 0.833863 -0.629589
vn 0.494176 0.494175 -0.715249
vt 0.994892 0.889555
v -0.001308 0.860683 -0.629589
vn 0.000001 0.698871 -0.715248
vt 0.969182 0.889555
v -0.001307 0.860684 0.483063
vn 0.000000 0.698872 0.715246
vt 0.969182 0.447755
v -0.073904 0.841711 0.456273
vn -0.693370 0.693371 0.196147
vt 0.940356 0.458393
v -0.066057 0.833864 0.483063
vn -0.494176 0.494178 0.715247
vt 0.943472 0.447755
v -0.001307 0.871781 0.456273
vn 0.000001 0.980575 0.196146
vt 0.969182 0.458393
v 0.063443 0.833864 0.483063
vn 0.494177 0.494177 0.715246
vt 0.994892 0.447755
v 0.071289 0.841711 0.456273
vn 0.693371 0.693371 0.196146
vt 0.998008 0.458393
v -0.001307 0.871781 0.191505
vn 0.000001 1.000000 -0.000001
vt 0.969182 0.563524
v 0.071289 0.841710 0.191505
vn 0.707107 0.707106 -0.000001
vt 0.998008 0.563524
v 0.071289 0.841710 -0.073263
vn 0.707107 0.707106 -0.000001
vt 0.998008 0.668655
v -0.001308 0.871781 -0.073263
vn 0.000001 1.000000 -0.000001
vt 0.969182 0.668655
v 0.071289 0.841710 -0.338031
vn 0.707107 0.707106 -0.000001
vt 0.998008 0.773786
v -0.001308 0.871780 -0.338031
vn 0.000001 1.000000 -0.000001
vt 0.969182 0.773786
v -0.001308 0.871780 -0.602799
vn 0.000000 0.980574 -0.196148
vt 0.969182 0.878917
v -0.066058 0.833863 -0.629589
vn -0.494176 0.494176 -0.715248
vt 0.943472 0.889555
v -0.073904 0.841710 -0.602799
vn -0.693371 0.693371 -0.196147
vt 0.940356 0.878917
v -0.073904 0.841710 -0.338031
vn -0.707106 0.707107 -0.000001
vt 0.940356 0.773786
v -0.073904 0.841710 -0.073263
vn -0.707106 0.707107 -0.000001
vt 0.940356 0.668655
v -0.073904 0.841710 0.191505
vn -0.707106 0.707107 -0.000000
vt 0.940356 0.563524
v -0.073904 0.841710 -0.602799
vn -0.693371 0.693371 -0.196147
vt 0.993387 0.433126
v -0.066058 0.833863 -0.629589
vn -0.494176 0.494176 -0.715248
vt 0.990271 0.443764
v -0.092878 0.769113 -0.629589
vn -0.698871 -0.000000 -0.715248
vt 0.964561 0.443764
v -0.092878 0.769114 0.483063
vn -0.698871 0.000001 0.715247
vt 0.964561 0.001964
v -0.073904 0.696517 0.456273
vn -0.693371 -0.693370 0.196147
vt 0.935736 0.012602
v -0.066058 0.704364 0.483063
vn -0.494177 -0.494176 0.715248
vt 0.938851 0.001964
v -0.103975 0.769114 0.456273
vn -0.980574 0.000001 0.196147
vt 0.964561 0.012602
v -0.066057 0.833864 0.483063
vn -0.494176 0.494178 0.715247
vt 0.990272 0.001964
v -0.073904 0.841711 0.456273
vn -0.693370 0.693371 0.196147
vt 0.993387 0.012602
v -0.103975 0.769114 0.191505
vn -1.000000 0.000001 0.000000
vt 0.964561 0.117733
v -0.073904 0.841710 0.191505
vn -0.707106 0.707107 -0.000000
vt 0.993387 0.117733
v -0.073904 0.841710 -0.073263
vn -0.707106 0.707107 -0.000001
vt 0.993387 0.222864
v -0.103975 0.769114 -0.073263
vn -1.000000 0.000001 0.000000
vt 0.964561 0.222864
v -0.073904 0.841710 -0.338031
vn -0.707106 0.707107 -0.000001
vt 0.993387 0.327995
v -0.103975 0.769113 -0.338031
vn -1.000000 0.000001 0.000000
vt 0.964561 0.327995
v -0.103975 0.769113 -0.602799
vn -0.980574 0.000001 -0.196147
vt 0.964561 0.433126
v -0.066058 0.704363 -0.629589
vn -0.494177 -0.494177 -0.715247
vt 0.938851 0.443764
v -0.073904 0.696516 -0.602799
vn -0.693371 -0.693370 -0.196147
vt 0.935735 0.433126
v -0.073904 0.696517 -0.338031
vn -0.707107 -0.707106 0.000001
vt 0.935735 0.327995
v -0.073904 0.696517 -0.073263
vn -0.707107 -0.707106 0.000001
vt 0.935735 0.222864
v -0.073904 0.696517 0.191505
vn -0.707107 -0.707106 0.000001
vt 0.935736 0.117733
v -0.073904 0.696516 -0.602799
vn -0.693371 -0.693370 -0.196147
vt 0.876569 0.458393
v -0.066058 0.704363 -0.629589
vn -0.494177 -0.494177 -0.715247
vt 0.879685 0.447755
v -0.001308 0.677543 -0.629589
vn -0.000000 -0.698872 -0.715246
vt 0.905395 0.447755
v -0.001308 0.677544 0.483063
vn -0.000000 -0.698871 0.715247
vt 0.905395 0.889555
v 0.071289 0.696517 0.456273
vn 0.693370 -0.693371 0.196147
vt 0.934221 0.878918
v 0.063442 0.704364 0.483063
vn 0.494177 -0.494177 0.715247
vt 0.931105 0.889555
v -0.001308 0.666447 0.456273
vn -0.000000 -0.980574 0.196147
vt 0.905395 0.878918
v -0.066058 0.704364 0.483063
vn -0.494177 -0.494176 0.715248
vt 0.879685 0.889555
v -0.073904 0.696517 0.456273
vn -0.693371 -0.693370 0.196147
vt 0.876569 0.878918
v -0.001308 0.666447 0.191505
vn -0.000000 -1.000000 0.000001
vt 0.905395 0.773786
v -0.073904 0.696517 0.191505
vn -0.707107 -0.707106 0.000001
vt 0.876569 0.773786
v -0.073904 0.696517 -0.073263
vn -0.707107 -0.707106 0.000001
vt 0.876569 0.668655
v -0.001308 0.666446 -0.073263
vn -0.000000 -1.000000 0.000001
vt 0.905395 0.668655
v -0.073904 0.696517 -0.338031
vn -0.707107 -0.707106 0.000001
vt 0.876569 0.563524
v -0.001308 0.666446 -0.338031
vn -0.000001 -1.000000 0.000001
vt 0.905395 0.563524
v -0.001308 0.666446 -0.602799
vn -0.000001 -0.980574 -0.196147
vt 0.905395 0.458393
v 0.063442 0.704363 -0.629589
vn 0.494177 -0.494178 -0.715246
vt 0.931105 0.447755
v 0.071289 0.696516 -0.602799
vn 0.693371 -0.693371 -0.196147
vt 0.934221 0.458393
v 0.071289 0.696517 -0.338031
vn 0.707106 -0.707107 0.000001
vt 0.934221 0.563524
v 0.071289 0.696517 -0.073263
vn 0.707106 -0.707107 0.000000
vt 0.934221 0.668655
v 0.071289 0.696517 0.191505
vn 0.707106 -0.707107 0.000001
vt 0.934221 0.773786
v 0.136556 0.047697 0.746336
vn 0.644930 0.000000 0.764241
vt 0.295595 0.658749
v 0.014447 0.014956 0.831577
vn 0.275200 -0.398289 0.875003
vt 0.282595 0.707235
v 0.136556 0.014956 0.746336
vn 0.595470 -0.384054 0.705633
vt 0.282595 0.658749
v 0.014447 0.047697 0.831577
vn 0.300024 0.000001 0.953932
vt 0.295595 0.707235
v 0.000000 0.014956 0.831577
vn 0.000003 -0.382682 0.923880
vt 0.282595 0.712971
v 0.000000 0.047697 0.831577
vn 0.000002 0.000001 1.000000
vt 0.295595 0.712971
v 0.000000 0.080438 0.831577
vn 0.000000 0.382685 0.923879
vt 0.308596 0.712971
v 0.014447 0.080438 0.831577
vn 0.275199 0.398291 0.875003
vt 0.308596 0.707235
v 0.136556 0.080438 0.746336
vn 0.595471 0.384055 0.705632
vt 0.308596 0.658749
v -0.014447 0.014956 0.831577
vn -0.275200 -0.398289 0.875003
vt 0.282595 0.718708
v -0.009729 -0.000044 0.816577
vn -0.146354 -0.872952 0.465334
vt 0.276639 0.716834
v 0.000000 -0.000044 0.816577
vn -0.000001 -0.967538 0.252725
vt 0.276639 0.712971
v 0.000000 0.014956 0.831577
vn -0.000003 -0.382682 0.923880
vt 0.282595 0.712971
v -0.014447 0.047697 0.831577
vn -0.300023 0.000001 0.953932
vt 0.295595 0.718708
v 0.000000 0.047697 0.831577
vn -0.000001 0.000001 1.000000
vt 0.295595 0.712971
v -0.014447 0.080438 0.831577
vn -0.275199 0.398291 0.875003
vt 0.308596 0.718708
v -0.136556 0.080438 0.746336
vn -0.595470 0.384056 0.705632
vt 0.308596 0.767193
v -0.136556 0.047697 0.746336
vn -0.644930 0.000001 0.764242
vt 0.295595 0.767193
v -0.136556 0.014956 0.746336
vn -0.595471 -0.384054 0.705632
vt 0.282595 0.767193
v 0.035912 0.389326 0.511214
vn 0.707201 0.183796 -0.682705
vt 0.510551 0.789527
v 0.050800 0.379992 0.545892
vn 1.000000 -0.000057 -0.000014
vt 0.496782 0.785821
v 0.050800 0.237734 0.507431
vn 1.000000 -0.000001 -0.000000
vt 0.512053 0.729335
v 0.035912 0.247144 0.472774
vn 0.707108 0.184545 -0.682599
vt 0.525814 0.733071
v 0.035912 0.478893 0.535225
vn 0.707294 0.183047 -0.682810
vt 0.501017 0.825092
v 0.050801 0.471014 0.570348
vn 1.000000 -0.000114 -0.000029
vt 0.487070 0.821963
v 0.035912 0.463135 0.605472
vn 0.707289 -0.183818 0.682608
vt 0.473124 0.818835
v 0.035912 0.370659 0.580569
vn 0.707198 -0.184181 0.682604
vt 0.483012 0.782115
v 0.035912 0.228325 0.542088
vn 0.707107 -0.184545 0.682600
vt 0.498292 0.725599
v 0.050800 0.072575 0.461872
vn 1.000000 -0.000167 -0.000053
vt 0.530143 0.663756
v 0.035912 0.085185 0.428247
vn 0.706596 0.187583 -0.682301
vt 0.543495 0.668762
v 0.035912 0.247144 0.472774
vn 0.706596 0.187583 -0.682301
vt 0.525814 0.733071
v 0.050800 0.237734 0.507431
vn 1.000000 -0.000167 -0.000053
vt 0.512053 0.729335
v 0.035912 0.059966 0.495497
vn 0.706611 -0.188728 0.681969
vt 0.516792 0.658749
v 0.035912 0.228325 0.542088
vn 0.706611 -0.188728 0.681969
vt 0.498292 0.725599
v 0.000000 0.054738 0.509437
vn 0.000000 -0.266876 0.963731
vt 0.432953 0.658749
v 0.035912 0.059966 0.495497
vn 0.706611 -0.188728 0.681969
vt 0.447212 0.660825
v 0.035912 0.228325 0.542088
vn 0.706611 -0.188728 0.681969
vt 0.447212 0.727675
v 0.000000 0.224424 0.556457
vn 0.000000 -0.266876 0.963731
vt 0.432953 0.726126
v -0.035911 0.059966 0.495497
vn -0.706611 -0.188726 0.681970
vt 0.418694 0.660825
v -0.035911 0.228325 0.542089
vn -0.706611 -0.188726 0.681970
vt 0.418694 0.727675
v -0.050800 0.072575 0.461872
vn -1.000000 -0.000166 -0.000053
vt 0.659264 0.663756
v -0.035911 0.059966 0.495497
vn -0.706611 -0.188726 0.681970
vt 0.672615 0.658749
v -0.035911 0.228325 0.542089
vn -0.706611 -0.188726 0.681970
vt 0.691115 0.725599
v -0.050800 0.237735 0.507431
vn -1.000000 -0.000166 -0.000053
vt 0.677354 0.729335
v -0.035911 0.085185 0.428247
vn -0.706596 0.187585 -0.682300
vt 0.645912 0.668762
v -0.035911 0.247144 0.472774
vn -0.706596 0.187585 -0.682300
vt 0.663593 0.733071
v -0.000000 0.090411 -0.582293
vn 0.000000 0.264921 0.964270
vt 0.328990 0.660825
v 0.035912 0.085184 -0.596233
vn 0.706596 0.187585 0.682300
vt 0.343250 0.658749
v 0.035912 0.247143 -0.640761
vn 0.706596 0.187585 0.682300
vt 0.343250 0.723058
v 0.000000 0.251044 -0.626392
vn 0.000000 0.264921 0.964270
vt 0.328990 0.724607
v -0.035912 0.085184 -0.596233
vn -0.706596 0.187586 0.682300
vt 0.314731 0.658749
v -0.035911 0.247143 -0.640761
vn -0.706596 0.187586 0.682300
vt 0.314731 0.723058
v 0.044499 0.723308 0.494160
vn 0.137093 -0.137092 0.981026
vt 0.137101 0.676920
v 0.063442 0.704364 0.483063
vn 0.494177 -0.494177 0.715247
vt 0.129579 0.669398
v 0.090263 0.769114 0.483063
vn 0.698872 -0.000000 0.715247
vt 0.155289 0.658749
v 0.063473 0.769114 0.494160
vn 0.193879 0.000001 0.981025
vt 0.155289 0.669386
v 0.063443 0.833864 0.483063
vn 0.494177 0.494177 0.715246
vt 0.180999 0.669398
v 0.044499 0.814920 0.494160
vn 0.137093 0.137094 0.981025
vt 0.173477 0.676920
v -0.001307 0.860684 0.483063
vn 0.000000 0.698872 0.715246
vt 0.191648 0.695109
v -0.001307 0.833894 0.494160
vn -0.000000 0.193880 0.981025
vt 0.181011 0.695109
v -0.066057 0.833864 0.483063
vn -0.494176 0.494178 0.715247
vt 0.180999 0.720819
v -0.047114 0.814920 0.494160
vn -0.137093 0.137095 0.981025
vt 0.173477 0.713297
v -0.092878 0.769114 0.483063
vn -0.698871 0.000001 0.715247
vt 0.155289 0.731468
v -0.066088 0.769114 0.494160
vn -0.193879 0.000001 0.981026
vt 0.155289 0.720831
v -0.066058 0.704364 0.483063
vn -0.494177 -0.494176 0.715248
vt 0.129579 0.720819
v -0.047114 0.723308 0.494160
vn -0.137093 -0.137092 0.981026
vt 0.137101 0.713297
v -0.001308 0.677544 0.483063
vn -0.000000 -0.698871 0.715247
vt 0.118929 0.695109
v -0.001308 0.704334 0.494160
vn 0.000000 -0.193878 0.981026
vt 0.129567 0.695109
v -0.001308 0.769114 0.494160
vn 0.000000 0.000001 1.000000
vt 0.155289 0.695109
v -0.035911 0.370659 0.580569
vn -0.707198 -0.184180 0.682604
vt 0.706395 0.782115
v -0.035911 0.463135 0.605472
vn -0.707289 -0.183817 0.682608
vt 0.716283 0.818835
v -0.050799 0.471014 0.570348
vn -1.000000 -0.000112 -0.000028
vt 0.702337 0.821963
v -0.050800 0.379992 0.545892
vn -1.000000 -0.000055 -0.000015
vt 0.692626 0.785821
v -0.035911 0.478893 0.535225
vn -0.707294 0.183048 -0.682810
vt 0.688390 0.825092
v -0.035911 0.389326 0.511214
vn -0.707201 0.183797 -0.682705
vt 0.678856 0.789527
v -0.035911 0.247144 0.472774
vn -0.707108 0.184546 -0.682599
vt 0.663593 0.733071
v -0.050800 0.237735 0.507431
vn -1.000000 0.000001 -0.000001
vt 0.677354 0.729335
v -0.035911 0.228325 0.542089
vn -0.707108 -0.184543 0.682600
vt 0.691115 0.725599
v 0.035912 0.389325 -0.679201
vn 0.707201 0.183797 0.682704
vt 0.775138 0.789527
v 0.035912 0.247143 -0.640761
vn 0.707107 0.184547 0.682599
vt 0.759875 0.733071
v 0.050800 0.237733 -0.675418
vn 1.000000 -0.000001 -0.000000
vt 0.773636 0.729335
v 0.050800 0.379991 -0.713879
vn 1.000000 -0.000057 0.000014
vt 0.788908 0.785821
v 0.035912 0.228324 -0.710075
vn 0.707107 -0.184546 -0.682599
vt 0.787397 0.725599
v 0.035912 0.370657 -0.748556
vn 0.707198 -0.184183 -0.682603
vt 0.802677 0.782115
v 0.035912 0.463133 -0.773459
vn 0.707289 -0.183819 -0.682607
vt 0.812565 0.818835
v 0.050800 0.471013 -0.738336
vn 1.000000 -0.000114 0.000028
vt 0.798619 0.821963
v 0.035912 0.478892 -0.703212
vn 0.707295 0.183048 0.682809
vt 0.784672 0.825092
v 0.035912 0.370659 0.580569
vn 0.707198 -0.184181 0.682604
vt 0.447212 0.784191
v 0.035912 0.463135 0.605472
vn 0.707289 -0.183818 0.682608
vt 0.447213 0.820910
v 0.000001 0.459868 0.620033
vn -0.000000 -0.260134 0.965573
vt 0.432953 0.819613
v 0.000000 0.366789 0.594946
vn 0.000000 -0.260559 0.965458
vt 0.432953 0.782655
v -0.035911 0.463135 0.605472
vn -0.707289 -0.183817 0.682608
vt 0.418694 0.820910
v -0.035911 0.370659 0.580569
vn -0.707198 -0.184180 0.682604
vt 0.418694 0.784191
v -0.035911 0.228325 0.542089
vn -0.707108 -0.184543 0.682600
vt 0.418694 0.727675
v 0.000000 0.224424 0.556457
vn 0.000001 -0.260985 0.965343
vt 0.432953 0.726126
v 0.035912 0.228325 0.542088
vn 0.707107 -0.184545 0.682600
vt 0.447212 0.727675
v 0.035912 0.463135 0.605472
vn 0.707653 -0.183723 0.682255
vt 0.447213 0.820910
v 0.035912 0.555611 0.630374
vn 0.707653 -0.183723 0.682255
vt 0.447213 0.857630
v 0.000001 0.552947 0.645121
vn -0.000001 -0.260134 0.965573
vt 0.432953 0.856572
v -0.035911 0.555611 0.630374
vn -0.707654 -0.183722 0.682255
vt 0.418694 0.857630
v -0.035911 0.463135 0.605472
vn -0.707654 -0.183722 0.682255
vt 0.418694 0.820910
v 0.035912 0.370657 -0.748556
vn 0.707198 -0.184183 -0.682603
vt 0.412558 0.818148
v 0.035912 0.228324 -0.710075
vn 0.707107 -0.184546 -0.682599
vt 0.412558 0.874664
v 0.000000 0.224423 -0.724444
vn -0.000000 -0.260987 -0.965342
vt 0.398299 0.876213
v 0.000000 0.366788 -0.762933
vn -0.000000 -0.260561 -0.965457
vt 0.398299 0.819684
v -0.035911 0.228324 -0.710075
vn -0.707108 -0.184545 -0.682599
vt 0.384039 0.874664
v -0.035911 0.370658 -0.748556
vn -0.707199 -0.184181 -0.682603
vt 0.384040 0.818148
v -0.035911 0.463133 -0.773459
vn -0.707289 -0.183818 -0.682607
vt 0.384040 0.781429
v 0.000000 0.459867 -0.788020
vn 0.000000 -0.260135 -0.965572
vt 0.398299 0.782726
v 0.035912 0.463133 -0.773459
vn 0.707289 -0.183819 -0.682607
vt 0.412558 0.781429
v -0.035911 0.463135 0.605472
vn -0.707654 -0.183722 0.682255
vt 0.716283 0.818835
v -0.035911 0.555611 0.630374
vn -0.707654 -0.183722 0.682255
vt 0.726171 0.855554
v -0.050799 0.562035 0.594805
vn -1.000000 -0.000113 -0.000025
vt 0.712048 0.858105
v -0.050799 0.471014 0.570348
vn -1.000000 -0.000113 -0.000025
vt 0.702337 0.821963
v -0.035911 0.568460 0.559237
vn -0.707667 0.182951 -0.682449
vt 0.697924 0.860656
v -0.035911 0.478893 0.535225
vn -0.707667 0.182951 -0.682449
vt 0.688390 0.825092
v 0.050801 0.471014 0.570348
vn 1.000000 -0.000115 -0.000025
vt 0.487070 0.821963
v 0.035912 0.478893 0.535225
vn 0.707668 0.182950 -0.682448
vt 0.501017 0.825092
v 0.035912 0.568460 0.559237
vn 0.707668 0.182950 -0.682448
vt 0.491483 0.860656
v 0.050801 0.562035 0.594805
vn 1.000000 -0.000115 -0.000025
vt 0.477359 0.858105
v 0.035912 0.555611 0.630374
vn 0.707653 -0.183723 0.682255
vt 0.463236 0.855554
v 0.035912 0.463135 0.605472
vn 0.707653 -0.183723 0.682255
vt 0.473124 0.818835
v 0.050800 0.072574 -0.629858
vn 1.000000 -0.000168 0.000052
vt 0.755546 0.663756
v 0.035911 0.059965 -0.663483
vn 0.706611 -0.188729 -0.681970
vt 0.768897 0.658749
v 0.035912 0.228324 -0.710075
vn 0.706611 -0.188729 -0.681970
vt 0.787397 0.725599
v 0.050800 0.237733 -0.675418
vn 1.000000 -0.000168 0.000052
vt 0.773636 0.729335
v 0.035912 0.085184 -0.596233
vn 0.706596 0.187585 0.682300
vt 0.742194 0.668762
v 0.035912 0.247143 -0.640761
vn 0.706596 0.187585 0.682300
vt 0.759875 0.733071
v -0.035911 0.370658 -0.748556
vn -0.707199 -0.184181 -0.682603
vt 0.579294 0.782115
v -0.035911 0.228324 -0.710075
vn -0.707108 -0.184545 -0.682599
vt 0.594574 0.725599
v -0.050800 0.237734 -0.675418
vn -1.000000 0.000001 -0.000000
vt 0.608335 0.729335
v -0.050800 0.379991 -0.713879
vn -1.000000 -0.000056 0.000014
vt 0.593064 0.785821
v -0.035911 0.247143 -0.640761
vn -0.707107 0.184548 0.682600
vt 0.622096 0.733071
v -0.035911 0.389325 -0.679201
vn -0.707201 0.183798 0.682704
vt 0.606833 0.789527
v -0.035911 0.478892 -0.703212
vn -0.707294 0.183049 0.682809
vt 0.597299 0.825092
v -0.050800 0.471013 -0.738336
vn -1.000000 -0.000112 0.000028
vt 0.583352 0.821963
v -0.035911 0.463133 -0.773459
vn -0.707289 -0.183818 -0.682607
vt 0.569406 0.818834
v -0.000000 0.054737 -0.677424
vn -0.000001 -0.266878 -0.963730
vt 0.398299 0.943590
v -0.035912 0.059965 -0.663483
vn -0.706611 -0.188728 -0.681970
vt 0.384039 0.941514
v -0.035911 0.228324 -0.710075
vn -0.706611 -0.188728 -0.681970
vt 0.384039 0.874664
v 0.000000 0.224423 -0.724444
vn -0.000001 -0.266878 -0.963730
vt 0.398299 0.876213
v 0.035911 0.059965 -0.663483
vn 0.706611 -0.188729 -0.681970
vt 0.412558 0.941514
v 0.035912 0.228324 -0.710075
vn 0.706611 -0.188729 -0.681970
vt 0.412558 0.874664
v -0.050800 0.072574 -0.629858
vn -1.000000 -0.000166 0.000052
vt 0.626425 0.663756
v -0.035912 0.085184 -0.596233
vn -0.706596 0.187586 0.682300
vt 0.639777 0.668762
v -0.035911 0.247143 -0.640761
vn -0.706596 0.187586 0.682300
vt 0.622096 0.733071
v -0.050800 0.237734 -0.675418
vn -1.000000 -0.000166 0.000052
vt 0.608335 0.729335
v -0.035912 0.059965 -0.663483
vn -0.706611 -0.188728 -0.681970
vt 0.613074 0.658749
v -0.035911 0.228324 -0.710075
vn -0.706611 -0.188728 -0.681970
vt 0.594574 0.725599
g Buegeleisen_part_0
# Submesh 0: 796 triangles
f 1/1/1 2/2/2 3/3/3
f 4/4/4 5/5/5 6/6/6
f 4/4/4 7/7/7 5/5/5
f 8/8/8 7/7/7 4/4/4
f 8/8/8 9/9/9 7/7/7
f 9/9/9 10/10/10 7/7/7
f 9/9/9 11/11/11 10/10/10
f 10/10/10 11/11/11 12/12/12
f 10/10/10 12/12/12 13/13/13
f 13/13/13 12/12/12 14/14/14
f 13/13/13 14/14/14 15/15/15
f 15/15/15 14/14/14 1/1/1
f 15/15/15 1/1/1 16/16/16
f 1/1/1 3/3/3 16/16/16
f 16/16/16 3/3/3 17/17/17
f 16/16/16 17/17/17 18/18/18
f 15/15/15 16/16/16 18/18/18
f 15/15/15 18/18/18 19/19/19
f 13/13/13 15/15/15 19/19/19
f 13/13/13 19/19/19 20/20/20
f 10/10/10 13/13/13 20/20/20
f 10/10/10 20/20/20 21/21/21
f 7/7/7 10/10/10 21/21/21
f 7/7/7 21/21/21 5/5/5
f 22/22/22 23/23/23 24/24/24
f 24/24/24 23/23/23 25/25/25
f 25/25/25 23/23/23 26/26/26
f 26/26/26 23/23/23 27/27/27
f 27/27/27 23/23/23 28/28/28
f 28/28/28 23/23/23 29/29/29
f 29/29/29 23/23/23 30/30/30
f 30/30/30 23/23/23 22/22/22
f 31/31/31 30/30/30 22/22/22
f 32/32/32 30/30/30 31/31/31
f 32/32/32 29/29/29 30/30/30
f 33/33/33 29/29/29 32/32/32
f 33/33/33 28/28/28 29/29/29
f 34/34/34 28/28/28 33/33/33
f 34/34/34 27/27/27 28/28/28
f 35/35/35 27/27/27 34/34/34
f 35/35/35 26/26/26 27/27/27
f 36/36/36 26/26/26 35/35/35
f 36/36/36 25/25/25 26/26/26
f 37/37/37 25/25/25 36/36/36
f 37/37/37 24/24/24 25/25/25
f 38/38/38 24/24/24 37/37/37
f 38/38/38 22/22/22 24/24/24
f 31/31/31 22/22/22 38/38/38
f 39/39/39 40/40/40 41/41/41
f 42/42/42 43/43/43 44/44/44
f 42/42/42 45/45/45 43/43/43
f 46/46/46 45/45/45 42/42/42
f 46/46/46 47/47/47 45/45/45
f 48/48/48 47/47/47 46/46/46
f 48/48/48 49/49/49 47/47/47
f 50/50/50 49/49/49 48/48/48
f 50/50/50 39/39/39 49/49/49
f 51/51/51 39/39/39 50/50/50
f 51/51/51 52/52/52 39/39/39
f 39/39/39 52/52/52 40/40/40
f 40/40/40 52/52/52 53/53/53
f 40/40/40 53/53/53 54/54/54
f 55/55/55 56/56/56 53/53/53
f 55/55/55 53/53/53 57/57/57
f 57/57/57 53/53/53 52/52/52
f 57/57/57 52/52/52 51/51/51
f 44/44/44 43/43/43 58/58/58
f 44/44/44 58/58/58 59/59/59
f 44/44/44 59/59/59 60/60/60
f 44/44/44 60/60/60 61/61/61
f 42/42/42 44/44/44 61/61/61
f 42/42/42 61/61/61 62/62/62
f 46/46/46 42/42/42 62/62/62
f 46/46/46 62/62/62 63/63/63
f 48/48/48 46/46/46 63/63/63
f 48/48/48 63/63/63 64/64/64
f 50/50/50 48/48/48 64/64/64
f 50/50/50 64/64/64 65/65/65
f 51/51/51 50/50/50 65/65/65
f 51/51/51 65/65/65 66/66/66
f 57/57/57 51/51/51 66/66/66
f 57/57/57 66/66/66 67/67/67
f 55/55/55 57/57/57 67/67/67
f 55/55/55 67/67/67 68/68/68
f 69/69/69 70/70/70 71/71/71
f 72/72/72 73/73/73 74/74/74
f 72/72/72 75/75/75 73/73/73
f 75/75/75 76/76/76 73/73/73
f 75/75/75 77/77/77 76/76/76
f 77/77/77 78/78/78 76/76/76
f 77/77/77 79/79/79 78/78/78
f 79/79/79 80/80/80 78/78/78
f 79/79/79 81/81/81 80/80/80
f 79/79/79 69/69/69 81/81/81
f 79/79/79 82/82/82 69/69/69
f 69/69/69 82/82/82 70/70/70
f 70/70/70 82/82/82 83/83/83
f 70/70/70 83/83/83 84/84/84
f 84/84/84 83/83/83 85/85/85
f 84/84/84 85/85/85 86/86/86
f 86/86/86 85/85/85 87/87/87
f 86/86/86 87/87/87 88/88/88
f 72/72/72 87/87/87 85/85/85
f 72/72/72 85/85/85 75/75/75
f 75/75/75 85/85/85 83/83/83
f 75/75/75 83/83/83 77/77/77
f 77/77/77 83/83/83 82/82/82
f 77/77/77 82/82/82 79/79/79
f 89/89/89 90/90/90 91/91/91
f 89/89/89 91/91/91 92/92/92
f 93/93/93 89/89/89 92/92/92
f 93/93/93 92/92/92 94/94/94
f 95/95/95 93/93/93 94/94/94
f 95/95/95 94/94/94 96/96/96
f 97/97/97 95/95/95 96/96/96
f 97/97/97 96/96/96 98/98/98
f 98/98/98 96/96/96 94/94/94
f 99/99/99 100/100/100 101/101/101
f 99/99/99 101/101/101 102/102/102
f 102/102/102 101/101/101 103/103/103
f 102/102/102 103/103/103 104/104/104
f 104/104/104 103/103/103 105/105/105
f 104/104/104 105/105/105 106/106/106
f 107/107/107 104/104/104 106/106/106
f 107/107/107 98/98/98 104/104/104
f 98/98/98 102/102/102 104/104/104
f 98/98/98 99/99/99 102/102/102
f 98/98/98 94/94/94 99/99/99
f 94/94/94 100/100/100 99/99/99
f 94/94/94 92/92/92 100/100/100
f 92/92/92 108/108/108 100/100/100
f 92/92/92 91/91/91 108/108/108
f 108/108/108 91/91/91 109/109/109
f 90/90/90 109/109/109 91/91/91
f 90/90/90 110/110/110 109/109/109
f 110/110/110 111/111/111 109/109/109
f 110/110/110 112/112/112 111/111/111
f 112/112/112 113/113/113 111/111/111
f 112/112/112 114/114/114 113/113/113
f 115/115/115 116/116/116 117/117/117
f 115/115/115 118/118/118 116/116/116
f 118/118/118 119/119/119 116/116/116
f 118/118/118 120/120/120 119/119/119
f 120/120/120 121/121/121 119/119/119
f 120/120/120 122/122/122 121/121/121
f 123/123/123 122/122/122 120/120/120
f 123/123/123 124/124/124 122/122/122
f 123/123/123 125/125/125 124/124/124
f 124/124/124 125/125/125 111/111/111
f 126/126/126 111/111/111 125/125/125
f 126/126/126 109/109/109 111/111/111
f 108/108/108 109/109/109 126/126/126
f 127/127/127 108/108/108 126/126/126
f 100/100/100 108/108/108 127/127/127
f 100/100/100 127/127/127 101/101/101
f 101/101/101 127/127/127 128/128/128
f 101/101/101 128/128/128 103/103/103
f 103/103/103 128/128/128 129/129/129
f 103/103/103 129/129/129 105/105/105
f 124/124/124 111/111/111 113/113/113
f 124/124/124 113/113/113 130/130/130
f 124/124/124 130/130/130 122/122/122
f 122/122/122 130/130/130 131/131/131
f 122/122/122 131/131/131 121/121/121
f 123/123/123 132/132/132 125/125/125
f 133/133/133 125/125/125 132/132/132
f 133/133/133 126/126/126 125/125/125
f 127/127/127 126/126/126 133/133/133
f 128/128/128 127/127/127 133/133/133
f 128/128/128 133/133/133 134/134/134
f 129/129/129 128/128/128 134/134/134
f 129/129/129 134/134/134 135/135/135
f 135/135/135 134/134/134 136/136/136
f 135/135/135 136/136/136 137/137/137
f 137/137/137 136/136/136 138/138/138
f 137/137/137 138/138/138 139/139/139
f 139/139/139 138/138/138 118/118/118
f 139/139/139 118/118/118 115/115/115
f 134/134/134 133/133/133 132/132/132
f 134/134/134 132/132/132 136/136/136
f 138/138/138 136/136/136 132/132/132
f 138/138/138 132/132/132 123/123/123
f 138/138/138 123/123/123 120/120/120
f 138/138/138 120/120/120 118/118/118
f 140/140/140 141/141/141 98/98/98
f 140/140/140 98/98/98 107/107/107
f 142/142/142 140/140/140 107/107/107
f 142/142/142 107/107/107 106/106/106
f 143/143/143 142/142/142 106/106/106
f 143/143/143 106/106/106 105/105/105
f 144/144/144 143/143/143 105/105/105
f 144/144/144 105/105/105 129/129/129
f 145/145/145 144/144/144 129/129/129
f 145/145/145 129/129/129 135/135/135
f 146/146/146 145/145/145 135/135/135
f 146/146/146 135/135/135 137/137/137
f 147/147/147 146/146/146 137/137/137
f 147/147/147 137/137/137 139/139/139
f 148/148/148 147/147/147 139/139/139
f 148/148/148 139/139/139 115/115/115
f 149/149/149 148/148/148 115/115/115
f 149/149/149 115/115/115 117/117/117
f 150/150/150 149/149/149 117/117/117
f 150/150/150 117/117/117 151/151/151
f 117/117/117 152/152/152 151/151/151
f 117/117/117 116/116/116 152/152/152
f 116/116/116 153/153/153 152/152/152
f 116/116/116 119/119/119 153/153/153
f 119/119/119 154/154/154 153/153/153
f 119/119/119 121/121/121 154/154/154
f 121/121/121 155/155/155 154/154/154
f 121/121/121 131/131/131 155/155/155
f 156/156/156 155/155/155 131/131/131
f 156/156/156 157/157/157 155/155/155
f 158/158/158 159/159/159 160/160/160
f 158/158/158 160/160/160 161/161/161
f 162/162/162 158/158/158 161/161/161
f 162/162/162 161/161/161 163/163/163
f 159/159/159 164/164/164 165/165/165
f 159/159/159 165/165/165 160/160/160
f 160/160/160 165/165/165 166/166/166
f 160/160/160 166/166/166 167/167/167
f 161/161/161 160/160/160 167/167/167
f 161/161/161 167/167/167 168/168/168
f 163/163/163 161/161/161 168/168/168
f 163/163/163 168/168/168 169/169/169
f 170/170/170 171/171/171 163/163/163
f 170/170/170 163/163/163 172/172/172
f 172/172/172 163/163/163 173/173/173
f 172/172/172 173/173/173 174/174/174
f 175/175/175 176/176/176 177/177/177
f 175/175/175 178/178/178 176/176/176
f 178/178/178 179/179/179 176/176/176
f 178/178/178 180/180/180 179/179/179
f 178/178/178 181/181/181 180/180/180
f 178/178/178 172/172/172 181/181/181
f 175/175/175 172/172/172 178/178/178
f 175/175/175 182/182/182 172/172/172
f 183/183/183 184/184/184 185/185/185
f 186/186/186 183/183/183 185/185/185
f 186/186/186 185/185/185 187/187/187
f 188/188/188 187/187/187 189/189/189
f 188/188/188 186/186/186 187/187/187
f 190/190/190 186/186/186 188/188/188
f 190/190/190 191/191/191 186/186/186
f 191/191/191 183/183/183 186/186/186
f 191/191/191 192/192/192 183/183/183
f 192/192/192 193/193/193 183/183/183
f 183/183/183 193/193/193 184/184/184
f 192/192/192 194/194/194 193/193/193
f 195/195/195 196/196/196 197/197/197
f 198/198/198 195/195/195 197/197/197
f 198/198/198 197/197/197 199/199/199
f 200/200/200 198/198/198 199/199/199
f 200/200/200 199/199/199 201/201/201
f 202/202/202 200/200/200 201/201/201
f 202/202/202 201/201/201 203/203/203
f 204/204/204 202/202/202 203/203/203
f 204/204/204 203/203/203 205/205/205
f 206/206/206 205/205/205 207/207/207
f 206/206/206 204/204/204 205/205/205
f 206/206/206 208/208/208 204/204/204
f 208/208/208 202/202/202 204/204/204
f 208/208/208 209/209/209 202/202/202
f 209/209/209 200/200/200 202/202/202
f 209/209/209 210/210/210 200/200/200
f 210/210/210 198/198/198 200/200/200
f 210/210/210 211/211/211 198/198/198
f 211/211/211 195/195/195 198/198/198
f 211/211/211 212/212/212 195/195/195
f 212/212/212 213/213/213 195/195/195
f 195/195/195 213/213/213 196/196/196
f 206/206/206 214/214/214 208/208/208
f 212/212/212 215/215/215 213/213/213
f 216/216/216 217/217/217 218/218/218
f 216/216/216 219/219/219 220/220/220
f 216/216/216 221/221/221 219/219/219
f 216/216/216 218/218/218 221/221/221
f 221/221/221 218/218/218 222/222/222
f 221/221/221 222/222/222 223/223/223
f 223/223/223 222/222/222 224/224/224
f 223/223/223 224/224/224 225/225/225
f 225/225/225 224/224/224 226/226/226
f 225/225/225 226/226/226 227/227/227
f 227/227/227 226/226/226 228/228/228
f 227/227/227 228/228/228 229/229/229
f 229/229/229 228/228/228 230/230/230
f 229/229/229 230/230/230 231/231/231
f 231/231/231 230/230/230 232/232/232
f 231/231/231 232/232/232 233/233/233
f 233/233/233 232/232/232 234/234/234
f 233/233/233 234/234/234 235/235/235
f 233/233/233 235/235/235 236/236/236
f 229/229/229 231/231/231 237/237/237
f 237/237/237 231/231/231 233/233/233
f 233/233/233 236/236/236 238/238/238
f 237/237/237 233/233/233 238/238/238
f 238/238/238 239/239/239 237/237/237
f 237/237/237 239/239/239 240/240/240
f 237/237/237 240/240/240 241/241/241
f 229/229/229 237/237/237 241/241/241
f 227/227/227 229/229/229 241/241/241
f 227/227/227 241/241/241 242/242/242
f 225/225/225 227/227/227 242/242/242
f 225/225/225 242/242/242 243/243/243
f 223/223/223 225/225/225 243/243/243
f 223/223/223 243/243/243 244/244/244
f 221/221/221 223/223/223 244/244/244
f 221/221/221 244/244/244 219/219/219
f 238/238/238 245/245/245 239/239/239
f 246/246/246 247/247/247 248/248/248
f 249/249/249 250/250/250 247/247/247
f 246/246/246 249/249/249 247/247/247
f 251/251/251 249/249/249 246/246/246
f 252/252/252 251/251/251 246/246/246
f 252/252/252 246/246/246 253/253/253
f 253/253/253 246/246/246 248/248/248
f 253/253/253 248/248/248 254/254/254
f 250/250/250 255/255/255 256/256/256
f 249/249/249 255/255/255 250/250/250
f 257/257/257 255/255/255 249/249/249
f 251/251/251 257/257/257 249/249/249
f 258/258/258 257/257/257 251/251/251
f 259/259/259 258/258/258 251/251/251
f 259/259/259 251/251/251 252/252/252
f 260/260/260 259/259/259 252/252/252
f 260/260/260 252/252/252 261/261/261
f 261/261/261 252/252/252 253/253/253
f 261/261/261 253/253/253 262/262/262
f 262/262/262 253/253/253 254/254/254
f 262/262/262 254/254/254 263/263/263
f 264/264/264 262/262/262 263/263/263
f 265/265/265 266/266/266 264/264/264
f 264/264/264 266/266/266 262/262/262
f 262/262/262 266/266/266 267/267/267
f 262/262/262 267/267/267 261/261/261
f 261/261/261 267/267/267 268/268/268
f 261/261/261 268/268/268 260/260/260
f 260/260/260 268/268/268 269/269/269
f 260/260/260 269/269/269 270/270/270
f 270/270/270 259/259/259 260/260/260
f 270/270/270 271/271/271 259/259/259
f 271/271/271 258/258/258 259/259/259
f 271/271/271 272/272/272 258/258/258
f 272/272/272 273/273/273 258/258/258
f 258/258/258 273/273/273 257/257/257
f 273/273/273 274/274/274 257/257/257
f 257/257/257 274/274/274 255/255/255
f 255/255/255 274/274/274 275/275/275
f 255/255/255 275/275/275 256/256/256
f 275/275/275 276/276/276 256/256/256
f 256/256/256 276/276/276 277/277/277
f 256/256/256 277/277/277 278/278/278
f 272/272/272 279/279/279 273/273/273
f 279/279/279 280/280/280 273/273/273
f 273/273/273 280/280/280 274/274/274
f 274/274/274 280/280/280 281/281/281
f 274/274/274 281/281/281 275/275/275
f 281/281/281 282/282/282 275/275/275
f 275/275/275 282/282/282 276/276/276
f 283/283/283 276/276/276 282/282/282
f 284/284/284 276/276/276 283/283/283
f 284/284/284 277/277/277 276/276/276
f 285/285/285 277/277/277 284/284/284
f 285/285/285 278/278/278 277/277/277
f 286/286/286 278/278/278 285/285/285
f 283/283/283 282/282/282 287/287/287
f 288/288/288 289/289/289 290/290/290
f 288/288/288 291/291/291 289/289/289
f 287/287/287 291/291/291 288/288/288
f 287/287/287 282/282/282 291/291/291
f 281/281/281 291/291/291 282/282/282
f 292/292/292 291/291/291 281/281/281
f 280/280/280 292/292/292 281/281/281
f 280/280/280 293/293/293 292/292/292
f 279/279/279 293/293/293 280/280/280
f 290/290/290 292/292/292 294/294/294
f 290/290/290 289/289/289 292/292/292
f 292/292/292 289/289/289 291/291/291
f 250/250/250 256/256/256 278/278/278
f 286/286/286 250/250/250 278/278/278
f 295/295/295 250/250/250 286/286/286
f 295/295/295 247/247/247 250/250/250
f 296/296/296 247/247/247 295/295/295
f 296/296/296 248/248/248 247/247/247
f 297/297/297 248/248/248 296/296/296
f 297/297/297 254/254/254 248/248/248
f 298/298/298 254/254/254 297/297/297
f 298/298/298 263/263/263 254/254/254
f 299/299/299 263/263/263 298/298/298
f 299/299/299 264/264/264 263/263/263
f 300/300/300 264/264/264 299/299/299
f 300/300/300 265/265/265 264/264/264
f 301/301/301 265/265/265 300/300/300
f 301/301/301 302/302/302 265/265/265
f 303/303/303 302/302/302 301/301/301
f 303/303/303 304/304/304 302/302/302
f 305/305/305 306/306/306 307/307/307
f 307/307/307 306/306/306 308/308/308
f 308/308/308 306/306/306 309/309/309
f 308/308/308 309/309/309 304/304/304
f 304/304/304 309/309/309 310/310/310
f 304/304/304 310/310/310 311/311/311
f 307/307/307 308/308/308 312/312/312
f 304/304/304 265/265/265 302/302/302
f 304/304/304 311/311/311 265/265/265
f 265/265/265 311/311/311 266/266/266
f 266/266/266 311/311/311 310/310/310
f 266/266/266 310/310/310 267/267/267
f 267/267/267 310/310/310 309/309/309
f 267/267/267 309/309/309 268/268/268
f 268/268/268 309/309/309 306/306/306
f 268/268/268 306/306/306 269/269/269
f 305/305/305 269/269/269 306/306/306
f 313/313/313 269/269/269 305/305/305
f 313/313/313 270/270/270 269/269/269
f 314/314/314 270/270/270 313/313/313
f 314/314/314 271/271/271 270/270/270
f 315/315/315 271/271/271 314/314/314
f 315/315/315 272/272/272 271/271/271
f 316/316/316 272/272/272 315/315/315
f 316/316/316 279/279/279 272/272/272
f 317/317/317 318/318/318 319/319/319
f 317/317/317 319/319/319 320/320/320
f 320/320/320 319/319/319 321/321/321
f 320/320/320 321/321/321 322/322/322
f 323/323/323 324/324/324 318/318/318
f 323/323/323 318/318/318 317/317/317
f 325/325/325 323/323/323 317/317/317
f 325/325/325 317/317/317 326/326/326
f 326/326/326 317/317/317 320/320/320
f 326/326/326 320/320/320 327/327/327
f 327/327/327 320/320/320 322/322/322
f 327/327/327 322/322/322 328/328/328
f 329/329/329 330/330/330 331/331/331
f 329/329/329 331/331/331 323/323/323
f 332/332/332 329/329/329 323/323/323
f 332/332/332 323/323/323 333/333/333
f 334/334/334 335/335/335 336/336/336
f 334/334/334 336/336/336 337/337/337
f 336/336/336 338/338/338 337/337/337
f 337/337/337 338/338/338 339/339/339
f 337/337/337 339/339/339 329/329/329
f 334/334/334 337/337/337 329/329/329
f 334/334/334 329/329/329 340/340/340
f 336/336/336 341/341/341 338/338/338
f 342/342/342 343/343/343 344/344/344
f 345/345/345 346/346/346 347/347/347
f 345/345/345 347/347/347 348/348/348
f 348/348/348 347/347/347 349/349/349
f 348/348/348 349/349/349 343/343/343
f 342/342/342 348/348/348 343/343/343
f 350/350/350 348/348/348 342/342/342
f 351/351/351 350/350/350 342/342/342
f 351/351/351 342/342/342 352/352/352
f 352/352/352 342/342/342 344/344/344
f 352/352/352 344/344/344 353/353/353
f 350/350/350 345/345/345 348/348/348
f 354/354/354 355/355/355 356/356/356
f 357/357/357 358/358/358 359/359/359
f 357/357/357 360/360/360 358/358/358
f 361/361/361 360/360/360 357/357/357
f 361/361/361 362/362/362 360/360/360
f 362/362/362 363/363/363 360/360/360
f 362/362/362 364/364/364 363/363/363
f 364/364/364 365/365/365 363/363/363
f 364/364/364 366/366/366 365/365/365
f 366/366/366 367/367/367 365/365/365
f 366/366/366 354/354/354 367/367/367
f 354/354/354 356/356/356 367/367/367
f 367/367/367 356/356/356 368/368/368
f 356/356/356 369/369/369 368/368/368
f 356/356/356 370/370/370 369/369/369
f 355/355/355 370/370/370 356/356/356
f 355/355/355 371/371/371 370/370/370
f 367/367/367 368/368/368 372/372/372
f 365/365/365 367/367/367 372/372/372
f 365/365/365 372/372/372 373/373/373
f 363/363/363 365/365/365 373/373/373
f 363/363/363 373/373/373 374/374/374
f 360/360/360 363/363/363 374/374/374
f 360/360/360 374/374/374 358/358/358
f 375/375/375 376/376/376 377/377/377
f 378/378/378 379/379/379 380/380/380
f 378/378/378 381/381/381 379/379/379
f 382/382/382 381/381/381 378/378/378
f 382/382/382 383/383/383 381/381/381
f 383/383/383 384/384/384 381/381/381
f 383/383/383 375/375/375 384/384/384
f 375/375/375 377/377/377 384/384/384
f 384/384/384 377/377/377 385/385/385
f 384/384/384 385/385/385 386/386/386
f 381/381/381 384/384/384 386/386/386
f 381/381/381 386/386/386 379/379/379
f 387/387/387 388/388/388 389/389/389
f 390/390/390 391/391/391 388/388/388
f 390/390/390 388/388/388 387/387/387
f 392/392/392 390/390/390 387/387/387
f 392/392/392 387/387/387 393/393/393
f 393/393/393 387/387/387 394/394/394
f 387/387/387 389/389/389 394/394/394
f 394/394/394 389/389/389 395/395/395
f 394/394/394 395/395/395 396/396/396
f 397/397/397 394/394/394 396/396/396
f 393/393/393 394/394/394 397/397/397
f 397/397/397 396/396/396 398/398/398
f 399/399/399 400/400/400 401/401/401
f 402/402/402 403/403/403 400/400/400
f 399/399/399 402/402/402 400/400/400
f 404/404/404 402/402/402 399/399/399
f 405/405/405 406/406/406 407/407/407
f 405/405/405 407/407/407 408/408/408
f 409/409/409 405/405/405 408/408/408
f 409/409/409 408/408/408 410/410/410
f 410/410/410 408/408/408 411/411/411
f 410/410/410 411/411/411 412/412/412
f 412/412/412 411/411/411 413/413/413
f 412/412/412 413/413/413 414/414/414
f 414/414/414 413/413/413 415/415/415
f 414/414/414 415/415/415 404/404/404
f 404/404/404 415/415/415 402/402/402
f 415/415/415 416/416/416 402/402/402
f 402/402/402 416/416/416 403/403/403
f 408/408/408 407/407/407 417/417/417
f 408/408/408 417/417/417 411/411/411
f 411/411/411 417/417/417 418/418/418
f 411/411/411 418/418/418 413/413/413
f 413/413/413 418/418/418 419/419/419
f 413/413/413 419/419/419 415/415/415
f 415/415/415 419/419/419 416/416/416
f 420/420/420 421/421/421 422/422/422
f 420/420/420 422/422/422 423/423/423
f 423/423/423 422/422/422 424/424/424
f 423/423/423 424/424/424 425/425/425
f 426/426/426 423/423/423 425/425/425
f 427/427/427 423/423/423 426/426/426
f 427/427/427 420/420/420 423/423/423
f 428/428/428 420/420/420 427/427/427
f 428/428/428 429/429/429 420/420/420
f 429/429/429 421/421/421 420/420/420
f 429/429/429 430/430/430 421/421/421
f 426/426/426 425/425/425 431/431/431
f 432/432/432 433/433/433 434/434/434
f 432/432/432 434/434/434 435/435/435
f 436/436/436 432/432/432 435/435/435
f 436/436/436 435/435/435 437/437/437
f 438/438/438 439/439/439 440/440/440
f 441/441/441 438/438/438 442/442/442
f 438/438/438 440/440/440 442/442/442
f 442/442/442 440/440/440 443/443/443
f 442/442/442 443/443/443 444/444/444
f 444/444/444 443/443/443 445/445/445
f 444/444/444 445/445/445 446/446/446
f 447/447/447 444/444/444 446/446/446
f 447/447/447 446/446/446 448/448/448
f 441/441/441 442/442/442 449/449/449
f 449/449/449 442/442/442 444/444/444
f 449/449/449 444/444/444 447/447/447
f 450/450/450 451/451/451 452/452/452
f 453/453/453 450/450/450 454/454/454
f 450/450/450 452/452/452 454/454/454
f 454/454/454 452/452/452 455/455/455
f 454/454/454 455/455/455 456/456/456
f 456/456/456 455/455/455 457/457/457
f 456/456/456 457/457/457 458/458/458
f 458/458/458 457/457/457 459/459/459
f 458/458/458 459/459/459 460/460/460
f 460/460/460 459/459/459 461/461/461
f 460/460/460 461/461/461 462/462/462
f 462/462/462 461/461/461 463/463/463
f 462/462/462 463/463/463 464/464/464
f 465/465/465 462/462/462 464/464/464
f 465/465/465 464/464/464 466/466/466
f 453/453/453 454/454/454 467/467/467
f 467/467/467 454/454/454 456/456/456
f 467/467/467 456/456/456 468/468/468
f 468/468/468 456/456/456 458/458/458
f 468/468/468 458/458/458 469/469/469
f 469/469/469 458/458/458 460/460/460
f 469/469/469 460/460/460 470/470/470
f 470/470/470 460/460/460 462/462/462
f 470/470/470 462/462/462 465/465/465
f 471/471/471 472/472/472 473/473/473
f 471/471/471 473/473/473 474/474/474
f 475/475/475 471/471/471 474/474/474
f 475/475/475 474/474/474 476/476/476
f 477/477/477 478/478/478 479/479/479
f 477/477/477 479/479/479 480/480/480
f 481/481/481 477/477/477 480/480/480
f 481/481/481 480/480/480 482/482/482
f 483/483/483 484/484/484 485/485/485
f 483/483/483 485/485/485 486/486/486
f 487/487/487 483/483/483 486/486/486
f 487/487/487 486/486/486 488/488/488
f 489/489/489 490/490/490 491/491/491
f 492/492/492 493/493/493 494/494/494
f 492/492/492 495/495/495 493/493/493
f 496/496/496 495/495/495 492/492/492
f 496/496/496 497/497/497 495/495/495
f 497/497/497 498/498/498 495/495/495
f 497/497/497 499/499/499 498/498/498
f 498/498/498 499/499/499 500/500/500
f 498/498/498 500/500/500 501/501/501
f 501/501/501 500/500/500 502/502/502
f 501/501/501 502/502/502 503/503/503
f 503/503/503 502/502/502 489/489/489
f 503/503/503 489/489/489 504/504/504
f 489/489/489 491/491/491 504/504/504
f 504/504/504 491/491/491 505/505/505
f 504/504/504 505/505/505 506/506/506
f 507/507/507 504/504/504 506/506/506
f 507/507/507 503/503/503 504/504/504
f 508/508/508 503/503/503 507/507/507
f 508/508/508 501/501/501 503/503/503
f 509/509/509 501/501/501 508/508/508
f 509/509/509 498/498/498 501/501/501
f 495/495/495 498/498/498 509/509/509
f 495/495/495 509/509/509 493/493/493
f 510/510/510 511/511/511 512/512/512
f 513/513/513 514/514/514 515/515/515
f 513/513/513 516/516/516 514/514/514
f 517/517/517 516/516/516 513/513/513
f 517/517/517 518/518/518 516/516/516
f 518/518/518 519/519/519 516/516/516
f 518/518/518 520/520/520 519/519/519
f 519/519/519 520/520/520 521/521/521
f 519/519/519 521/521/521 522/522/522
f 522/522/522 521/521/521 523/523/523
f 522/522/522 523/523/523 524/524/524
f 524/524/524 523/523/523 510/510/510
f 524/524/524 510/510/510 525/525/525
f 510/510/510 512/512/512 525/525/525
f 525/525/525 512/512/512 526/526/526
f 525/525/525 526/526/526 527/527/527
f 528/528/528 525/525/525 527/527/527
f 528/528/528 524/524/524 525/525/525
f 529/529/529 524/524/524 528/528/528
f 529/529/529 522/522/522 524/524/524
f 530/530/530 522/522/522 529/529/529
f 530/530/530 519/519/519 522/522/522
f 516/516/516 519/519/519 530/530/530
f 516/516/516 530/530/530 514/514/514
f 531/531/531 532/532/532 533/533/533
f 534/534/534 535/535/535 536/536/536
f 534/534/534 537/537/537 535/535/535
f 538/538/538 537/537/537 534/534/534
f 538/538/538 539/539/539 537/537/537
f 539/539/539 540/540/540 537/537/537
f 539/539/539 541/541/541 540/540/540
f 540/540/540 541/541/541 542/542/542
f 540/540/540 542/542/542 543/543/543
f 543/543/543 542/542/542 544/544/544
f 543/543/543 544/544/544 545/545/545
f 545/545/545 544/544/544 531/531/531
f 545/545/545 531/531/531 546/546/546
f 531/531/531 533/533/533 546/546/546
f 546/546/546 533/533/533 547/547/547
f 546/546/546 547/547/547 548/548/548
f 549/549/549 546/546/546 548/548/548
f 549/549/549 545/545/545 546/546/546
f 550/550/550 545/545/545 549/549/549
f 550/550/550 543/543/543 545/545/545
f 551/551/551 543/543/543 550/550/550
f 551/551/551 540/540/540 543/543/543
f 537/537/537 540/540/540 551/551/551
f 537/537/537 551/551/551 535/535/535
f 552/552/552 553/553/553 554/554/554
f 552/552/552 555/555/555 553/553/553
f 555/555/555 556/556/556 553/553/553
f 555/555/555 557/557/557 556/556/556
f 555/555/555 558/558/558 557/557/557
f 555/555/555 559/559/559 558/558/558
f 552/552/552 559/559/559 555/555/555
f 552/552/552 560/560/560 559/559/559
f 561/561/561 562/562/562 563/563/563
f 561/561/561 563/563/563 564/564/564
f 564/564/564 565/565/565 561/561/561
f 564/564/564 566/566/566 565/565/565
f 566/566/566 567/567/567 565/565/565
f 566/566/566 558/558/558 567/567/567
f 565/565/565 567/567/567 568/568/568
f 565/565/565 568/568/568 569/569/569
f 565/565/565 569/569/569 570/570/570
f 565/565/565 570/570/570 561/561/561
f 571/571/571 572/572/572 573/573/573
f 571/571/571 573/573/573 574/574/574
f 571/571/571 575/575/575 576/576/576
f 571/571/571 576/576/576 572/572/572
f 572/572/572 576/576/576 577/577/577
f 572/572/572 577/577/577 578/578/578
f 573/573/573 572/572/572 578/578/578
f 573/573/573 578/578/578 579/579/579
f 580/580/580 581/581/581 582/582/582
f 580/580/580 582/582/582 583/583/583
f 584/584/584 580/580/580 583/583/583
f 584/584/584 583/583/583 585/585/585
f 586/586/586 587/587/587 588/588/588
f 586/586/586 588/588/588 589/589/589
f 590/590/590 586/586/586 589/589/589
f 590/590/590 589/589/589 591/591/591
f 592/592/592 593/593/593 594/594/594
f 592/592/592 594/594/594 595/595/595
f 596/596/596 592/592/592 595/595/595
f 596/596/596 595/595/595 597/597/597
f 598/598/598 599/599/599 600/600/600
f 598/598/598 600/600/600 601/601/601
f 602/602/602 598/598/598 601/601/601
f 602/602/602 601/601/601 603/603/603
f 604/604/604 605/605/605 606/606/606
f 604/604/604 606/606/606 607/607/607
f 607/607/607 606/606/606 608/608/608
f 607/607/607 608/608/608 609/609/609
f 609/609/609 608/608/608 610/610/610
f 609/609/609 610/610/610 611/611/611
f 611/611/611 610/610/610 612/612/612
f 611/611/611 612/612/612 613/613/613
f 613/613/613 612/612/612 614/614/614
f 613/613/613 614/614/614 615/615/615
f 615/615/615 614/614/614 616/616/616
f 615/615/615 616/616/616 617/617/617
f 617/617/617 616/616/616 618/618/618
f 617/617/617 618/618/618 619/619/619
f 619/619/619 618/618/618 605/605/605
f 619/619/619 605/605/605 604/604/604
f 620/620/620 619/619/619 604/604/604
f 620/620/620 604/604/604 607/607/607
f 620/620/620 607/607/607 609/609/609
f 620/620/620 609/609/609 611/611/611
f 620/620/620 611/611/611 613/613/613
f 620/620/620 613/613/613 615/615/615
f 620/620/620 615/615/615 617/617/617
f 620/620/620 617/617/617 619/619/619
f 621/621/621 622/622/622 623/623/623
f 621/621/621 623/623/623 624/624/624
f 624/624/624 623/623/623 625/625/625
f 624/624/624 625/625/625 626/626/626
f 624/624/624 626/626/626 627/627/627
f 624/624/624 627/627/627 628/628/628
f 621/621/621 624/624/624 628/628/628
f 621/621/621 628/628/628 629/629/629
f 630/630/630 631/631/631 632/632/632
f 630/630/630 632/632/632 633/633/633
f 633/633/633 632/632/632 634/634/634
f 633/633/633 634/634/634 635/635/635
f 633/633/633 635/635/635 636/636/636
f 633/633/633 636/636/636 637/637/637
f 630/630/630 633/633/633 637/637/637
f 630/630/630 637/637/637 638/638/638
f 639/639/639 640/640/640 641/641/641
f 639/639/639 641/641/641 642/642/642
f 642/642/642 641/641/641 643/643/643
f 642/642/642 643/643/643 644/644/644
f 642/642/642 644/644/644 645/645/645
f 642/642/642 645/645/645 646/646/646
f 639/639/639 642/642/642 646/646/646
f 639/639/639 646/646/646 647/647/647
f 648/648/648 649/649/649 650/650/650
f 648/648/648 650/650/650 641/641/641
f 641/641/641 650/650/650 651/651/651
f 641/641/641 651/651/651 652/652/652
f 653/653/653 654/654/654 655/655/655
f 653/653/653 655/655/655 656/656/656
f 656/656/656 655/655/655 657/657/657
f 656/656/656 657/657/657 658/658/658
f 656/656/656 658/658/658 659/659/659
f 656/656/656 659/659/659 660/660/660
f 653/653/653 656/656/656 660/660/660
f 653/653/653 660/660/660 661/661/661
f 662/662/662 663/663/663 664/664/664
f 662/662/662 664/664/664 665/665/665
f 665/665/665 664/664/664 666/666/666
f 665/665/665 666/666/666 667/667/667
f 668/668/668 669/669/669 670/670/670
f 668/668/668 670/670/670 671/671/671
f 668/668/668 671/671/671 672/672/672
f 668/668/668 672/672/672 673/673/673
f 674/674/674 675/675/675 676/676/676
f 674/674/674 676/676/676 677/677/677
f 678/678/678 674/674/674 677/677/677
f 678/678/678 677/677/677 679/679/679
f 680/680/680 681/681/681 682/682/682
f 680/680/680 682/682/682 683/683/683
f 683/683/683 682/682/682 684/684/684
f 683/683/683 684/684/684 685/685/685
f 683/683/683 685/685/685 686/686/686
f 683/683/683 686/686/686 687/687/687
f 680/680/680 683/683/683 687/687/687
f 680/680/680 687/687/687 688/688/688
f 689/689/689 690/690/690 691/691/691
f 689/689/689 691/691/691 692/692/692
f 693/693/693 689/689/689 692/692/692
f 693/693/693 692/692/692 694/694/694
f 695/695/695 696/696/696 697/697/697
f 695/695/695 697/697/697 698/698/698
f 699/699/699 695/695/695 698/698/698
f 699/699/699 698/698/698 700/700/700
