# Converted from HGS (Mercury 3D Engine)
# Model: Fingerhut_Low
o Fingerhut_Low

# Submesh 0: 596 vertices
v 0.449681 0.303490 0.000000
vn 0.992584 0.121565 -0.000000
vt 0.000000 0.267095
v 0.470605 0.132646 0.000000
vn 0.992584 0.121565 0.000000
vt 0.000000 0.132095
v 0.434891 0.132646 -0.179546
vn 0.917028 0.121565 -0.379845
vt 0.125000 0.132095
v 0.415560 0.303490 -0.171539
vn 0.917028 0.121565 -0.379845
vt 0.125000 0.267095
v 0.427013 0.488572 0.000000
vn 0.992290 0.123936 -0.000000
vt 0.000000 0.413345
v 0.394618 0.488572 -0.162864
vn 0.916757 0.123936 -0.379733
vt 0.125000 0.413345
v 0.406975 0.645952 0.000000
vn 0.991991 0.126306 -0.000000
vt 0.000000 0.538345
v 0.376104 0.645952 -0.155196
vn 0.916480 0.126306 -0.379619
vt 0.125000 0.538345
v 0.386936 0.803332 0.000000
vn 0.991043 0.133543 -0.000000
vt 0.000000 0.663345
v 0.357591 0.803332 -0.147527
vn 0.915604 0.133543 -0.379256
vt 0.125000 0.663345
v 0.370412 0.919548 0.000000
vn 0.990042 0.140773 -0.000000
vt 0.000000 0.753189
v 0.342325 0.919548 -0.141204
vn 0.914679 0.140773 -0.378873
vt 0.125000 0.753189
v 0.353887 1.035764 0.000000
vn 0.985159 0.171642 -0.000000
vt 0.000000 0.843033
v 0.327058 1.035763 -0.134880
vn 0.910168 0.171642 -0.377004
vt 0.125000 0.843033
v 0.331380 1.144700 0.000000
vn 0.885922 0.463834 -0.000000
vt 0.000000 0.928970
v 0.306264 1.144700 -0.126267
vn 0.818485 0.463834 -0.339028
vt 0.125000 0.928970
v 0.071761 1.269979 0.029133
vn 0.107833 0.993165 0.044674
vt 0.593384 0.597207
v 0.055259 1.269979 0.053830
vn 0.082613 0.993150 0.082635
vt 0.579132 0.575877
v 0.100954 1.258935 0.099525
vn 0.191337 0.962694 0.191336
vt 0.618596 0.536412
v 0.055291 1.258935 0.130036
vn 0.103551 0.962694 0.249994
vt 0.579160 0.510062
v 0.090707 1.222081 0.215537
vn 0.177828 0.885476 0.429314
vt 0.612417 0.429772
v 0.001429 1.222081 0.233296
vn 0.000000 0.885476 0.464686
vt 0.532641 0.413904
v -0.214109 1.222081 -0.089278
vn -0.429313 0.885476 -0.177827
vt 0.340046 0.702142
v -0.272616 1.179868 -0.113513
vn -0.595082 0.764931 -0.246491
vt 0.295962 0.720403
v -0.295195 1.179868 0.000000
vn -0.644112 0.764931 0.000000
vt 0.276462 0.622367
v -0.231867 1.222081 0.000000
vn -0.464686 0.885476 0.000000
vt 0.324178 0.622367
v -0.272616 1.179868 0.113513
vn -0.595082 0.764931 0.246491
vt 0.295962 0.524331
v -0.214109 1.222081 0.089279
vn -0.429314 0.885476 0.177828
vt 0.340046 0.542592
v -0.208316 1.179868 0.209745
vn -0.455456 0.764931 0.455456
vt 0.351495 0.441221
v -0.163536 1.222081 0.164965
vn -0.328582 0.885476 0.328583
vt 0.385235 0.474961
v -0.112084 1.179868 0.274045
vn -0.246491 0.764931 0.595082
vt 0.434606 0.385688
v -0.087850 1.222081 0.215537
vn -0.177827 0.885476 0.429314
vt 0.452866 0.429772
v 0.001429 1.179869 0.296624
vn 0.000000 0.764931 0.644112
vt 0.532641 0.366188
v 0.114942 1.179868 0.274045
vn 0.246492 0.764931 0.595081
vt 0.630677 0.385688
v 0.211173 1.179868 0.209745
vn 0.455456 0.764931 0.455456
vt 0.713788 0.441221
v 0.166394 1.222081 0.164965
vn 0.328583 0.885475 0.328583
vt 0.680047 0.474961
v 0.131464 1.258935 0.053862
vn 0.249994 0.962694 0.103549
vt 0.644947 0.575849
v 0.077556 1.269979 0.000000
vn 0.116675 0.993170 0.000001
vt 0.598389 0.622367
v -0.328523 1.144700 0.000000
vn -0.885922 0.463834 0.000000
vt 0.247678 0.622367
v -0.303407 1.144700 0.126267
vn -0.818485 0.463833 0.339028
vt 0.269370 0.513316
v -0.231883 1.144700 0.233311
vn -0.626441 0.463834 0.626442
vt 0.331142 0.420868
v -0.124839 1.144700 0.304836
vn -0.339028 0.463834 0.818485
vt 0.423591 0.359095
v 0.001429 1.144700 0.329952
vn 0.000000 0.463834 0.885922
vt 0.532641 0.337404
v 0.127696 1.144700 0.304836
vn 0.339028 0.463834 0.818485
vt 0.641692 0.359095
v 0.234740 1.144700 0.233311
vn 0.626442 0.463834 0.626441
vt 0.734141 0.420868
v 0.306264 1.144700 0.126267
vn 0.818486 0.463834 0.339027
vt 0.795913 0.513316
v 0.275473 1.179868 0.113513
vn 0.595082 0.764931 0.246491
vt 0.769320 0.524332
v 0.216966 1.222081 0.089278
vn 0.429314 0.885476 0.177827
vt 0.725236 0.542592
v 0.142178 1.258935 0.000000
vn 0.270591 0.962694 0.000000
vt 0.654200 0.622367
v 0.298052 1.179868 0.000000
vn 0.644112 0.764931 -0.000000
vt 0.788821 0.622367
v 0.234724 1.222081 0.000000
vn 0.464686 0.885476 -0.000000
vt 0.741105 0.622367
v 0.131464 1.258935 -0.053863
vn 0.249993 0.962694 -0.103550
vt 0.644947 0.668886
v 0.071761 1.269979 -0.029133
vn 0.107832 0.993165 -0.044676
vt 0.593384 0.647528
v 0.055259 1.269979 -0.053830
vn 0.082613 0.993149 -0.082640
vt 0.579132 0.668858
v 0.100953 1.258935 -0.099525
vn 0.191337 0.962694 -0.191337
vt 0.618596 0.708322
v 0.216966 1.222081 -0.089278
vn 0.429313 0.885476 -0.177828
vt 0.725236 0.702143
v 0.166393 1.222081 -0.164965
vn 0.328582 0.885476 -0.328583
vt 0.680047 0.769773
v 0.211173 1.179868 -0.209745
vn 0.455455 0.764931 -0.455456
vt 0.713787 0.803513
v 0.114941 1.179868 -0.274045
vn 0.246490 0.764932 -0.595082
vt 0.630677 0.859046
v 0.275473 1.179868 -0.113513
vn 0.595081 0.764932 -0.246491
vt 0.769320 0.720403
v -0.000000 1.275000 0.000000
vn -0.000640 1.000000 -0.000001
vt 0.531407 0.622367
v 0.030561 1.269979 -0.070332
vn 0.044770 0.993127 -0.108144
vt 0.557802 0.683110
v 0.055291 1.258935 -0.130036
vn 0.103551 0.962695 -0.249993
vt 0.579159 0.734673
v 0.090707 1.222081 -0.215537
vn 0.177827 0.885476 -0.429313
vt 0.612417 0.814962
v 0.001428 1.179868 -0.296624
vn -0.000000 0.764932 -0.644112
vt 0.532641 0.878547
v 0.001428 1.222081 -0.233296
vn -0.000000 0.885476 -0.464685
vt 0.532641 0.830831
v -0.112085 1.179868 -0.274045
vn -0.246491 0.764931 -0.595081
vt 0.434606 0.859046
v -0.087850 1.222081 -0.215537
vn -0.177828 0.885476 -0.429313
vt 0.452866 0.814962
v -0.208316 1.179868 -0.209745
vn -0.455456 0.764931 -0.455456
vt 0.351495 0.803513
v -0.163537 1.222081 -0.164965
vn -0.328582 0.885476 -0.328582
vt 0.385235 0.769773
v -0.128607 1.258935 -0.053862
vn -0.249993 0.962694 -0.103550
vt 0.420336 0.668885
v -0.098097 1.258935 -0.099525
vn -0.191337 0.962694 -0.191337
vt 0.446687 0.708322
v -0.052434 1.258935 -0.130036
vn -0.103551 0.962694 -0.249994
vt 0.486123 0.734672
v 0.001428 1.258935 -0.140749
vn 0.000000 0.962694 -0.270591
vt 0.532641 0.743925
v -0.052402 1.269979 -0.053830
vn -0.083251 0.993047 -0.083224
vt 0.486151 0.668857
v -0.027704 1.269979 -0.070332
vn -0.044991 0.993071 -0.108560
vt 0.507481 0.683110
v 0.001428 1.269979 -0.076127
vn -0.000023 0.993099 -0.117277
vt 0.532641 0.688114
v -0.068904 1.269979 -0.029132
vn -0.108884 0.993031 -0.045091
vt 0.471899 0.647528
v -0.074699 1.269979 0.000000
vn -0.117900 0.993025 0.000000
vt 0.466894 0.622367
v -0.139321 1.258935 0.000000
vn -0.270591 0.962694 0.000001
vt 0.411083 0.622367
v -0.068904 1.269979 0.029133
vn -0.108885 0.993031 0.045090
vt 0.471899 0.597207
v -0.128607 1.258935 0.053863
vn -0.249994 0.962694 0.103550
vt 0.420336 0.575849
v -0.052402 1.269979 0.053830
vn -0.083249 0.993048 0.083222
vt 0.486151 0.575877
v -0.098096 1.258935 0.099525
vn -0.191337 0.962694 0.191336
vt 0.446687 0.536412
v -0.027704 1.269979 0.070333
vn -0.044990 0.993071 0.108559
vt 0.507481 0.561624
v -0.052434 1.258935 0.130036
vn -0.103550 0.962694 0.249994
vt 0.486123 0.510062
v 0.001429 1.269979 0.076127
vn -0.000024 0.993099 0.117277
vt 0.532641 0.556620
v 0.001429 1.258935 0.140750
vn 0.000000 0.962694 0.270591
vt 0.532641 0.500809
v 0.030561 1.269979 0.070333
vn 0.044769 0.993127 0.108142
vt 0.557802 0.561625
v 0.459627 0.000000 -0.189792
vn 0.000000 -1.000000 0.000000
vt 0.979486 0.234406
v 0.405118 0.000000 -0.167213
vn 0.000000 -1.000000 0.000000
vt 0.962607 0.227414
v 0.310399 0.000000 -0.308970
vn 0.000000 -1.000000 0.000000
vt 0.933277 0.271310
v 0.352118 0.000000 -0.350690
vn 0.000000 -1.000000 0.000000
vt 0.946195 0.284229
v 0.168642 0.000000 -0.403689
vn -0.000000 -1.000000 0.000001
vt 0.889381 0.300640
v 0.191220 0.000000 -0.458198
vn -0.000000 -1.000000 0.000001
vt 0.896373 0.317519
v 0.001429 0.000000 -0.436950
vn 0.000000 -1.000000 0.000001
vt 0.837603 0.310939
v 0.001429 0.000000 -0.495950
vn 0.000000 -1.000000 0.000001
vt 0.837603 0.329209
v -0.165785 0.000000 -0.403689
vn 0.000000 -1.000000 0.000001
vt 0.785825 0.300640
v -0.188363 0.000000 -0.458198
vn 0.000000 -1.000000 0.000001
vt 0.778833 0.317519
v -0.307542 0.000000 -0.308970
vn -0.000000 -1.000000 0.000000
vt 0.741929 0.271310
v -0.349261 0.000000 -0.350689
vn -0.000000 -1.000000 0.000000
vt 0.729010 0.284229
v -0.402261 0.000000 -0.167213
vn -0.000000 -1.000000 0.000000
vt 0.712599 0.227414
v -0.456770 0.000000 -0.189792
vn -0.000000 -1.000000 0.000000
vt 0.695720 0.234406
v -0.435521 0.000000 0.000000
vn 0.000000 -1.000000 0.000000
vt 0.702300 0.175636
v -0.494522 0.000000 0.000000
vn 0.000000 -1.000000 0.000000
vt 0.684030 0.175636
v -0.402261 0.000000 0.167214
vn 0.000000 -1.000000 0.000000
vt 0.712599 0.123858
v -0.456770 0.000000 0.189792
vn 0.000000 -1.000000 0.000000
vt 0.695720 0.116866
v -0.307542 0.000000 0.308970
vn 0.000000 -1.000000 0.000000
vt 0.741929 0.079962
v -0.349261 0.000000 0.350690
vn 0.000000 -1.000000 0.000000
vt 0.729010 0.067044
v -0.165785 0.000000 0.403689
vn -0.000000 -1.000000 0.000001
vt 0.785825 0.050632
v -0.188363 0.000000 0.458198
vn -0.000000 -1.000000 0.000001
vt 0.778833 0.033753
v 0.001428 0.000000 0.436950
vn -0.000000 -1.000000 0.000001
vt 0.837603 0.040333
v 0.001428 0.000000 0.495950
vn -0.000000 -1.000000 0.000001
vt 0.837603 0.022063
v 0.168642 0.000000 0.403689
vn 0.000000 -1.000000 0.000001
vt 0.889381 0.050632
v 0.191220 0.000000 0.458198
vn 0.000000 -1.000000 0.000001
vt 0.896373 0.033753
v 0.310399 0.000000 0.308970
vn -0.000000 -1.000000 0.000000
vt 0.933277 0.079962
v 0.352118 0.000000 0.350690
vn -0.000000 -1.000000 0.000000
vt 0.946195 0.067044
v 0.405118 0.000000 0.167214
vn -0.000000 -1.000000 0.000000
vt 0.962607 0.123858
v 0.459627 0.000000 0.189792
vn -0.000000 -1.000000 0.000000
vt 0.979486 0.116866
v 0.438378 0.000000 0.000000
vn 0.000000 -1.000000 0.000000
vt 0.972906 0.175636
v 0.497379 0.000000 0.000000
vn 0.000000 -1.000000 0.000000
vt 0.991176 0.175636
v 0.331380 1.144700 0.000000
vn 0.885922 0.463834 -0.000000
vt 0.817604 0.622367
v 0.306264 1.144700 -0.126267
vn 0.818485 0.463834 -0.339028
vt 0.795913 0.731418
v 0.234740 1.144700 -0.233311
vn 0.626441 0.463834 -0.626442
vt 0.734141 0.823867
v 0.127695 1.144700 -0.304836
vn 0.339027 0.463834 -0.818486
vt 0.641692 0.885639
v 0.001428 1.144700 -0.329952
vn -0.000000 0.463834 -0.885922
vt 0.532641 0.907330
v -0.124839 1.144700 -0.304836
vn -0.339028 0.463834 -0.818485
vt 0.423591 0.885639
v -0.231883 1.144700 -0.233311
vn -0.626442 0.463833 -0.626441
vt 0.331142 0.823866
v -0.303407 1.144700 -0.126267
vn -0.818486 0.463833 -0.339028
vt 0.269370 0.731418
v 0.449681 0.303490 0.000000
vn 0.992584 0.121565 -0.000000
vt 0.125000 0.267095
v 0.434891 0.132646 0.179546
vn 0.917028 0.121565 0.379845
vt 0.000000 0.132095
v 0.470605 0.132646 0.000000
vn 0.992584 0.121565 0.000000
vt 0.125000 0.132095
v 0.415560 0.303490 0.171539
vn 0.917028 0.121565 0.379845
vt 0.000000 0.267095
v 0.394618 0.488572 0.162864
vn 0.916757 0.123936 0.379733
vt 0.000000 0.413345
v 0.427013 0.488572 0.000000
vn 0.992290 0.123936 -0.000000
vt 0.125000 0.413345
v 0.406975 0.645952 0.000000
vn 0.991991 0.126306 -0.000000
vt 0.125000 0.538345
v 0.376105 0.645952 0.155196
vn 0.916480 0.126306 0.379618
vt 0.000000 0.538345
v 0.357591 0.803332 0.147527
vn 0.915604 0.133543 0.379256
vt 0.000000 0.663345
v 0.386936 0.803332 0.000000
vn 0.991043 0.133543 -0.000000
vt 0.125000 0.663345
v 0.370412 0.919548 0.000000
vn 0.990042 0.140773 -0.000000
vt 0.125000 0.753189
v 0.342325 0.919548 0.141204
vn 0.914680 0.140773 0.378872
vt 0.000000 0.753189
v 0.327058 1.035764 0.134880
vn 0.910169 0.171642 0.377004
vt 0.000000 0.843033
v 0.353887 1.035764 0.000000
vn 0.985159 0.171642 -0.000000
vt 0.125000 0.843033
v 0.306264 1.144700 0.126267
vn 0.818486 0.463834 0.339027
vt 0.000000 0.928970
v 0.331380 1.144700 0.000000
vn 0.885922 0.463834 -0.000000
vt 0.125000 0.928970
v 0.318391 0.303490 0.316963
vn 0.701863 0.121565 0.701862
vt 0.000000 0.267095
v 0.333186 0.132646 0.331758
vn 0.701863 0.121565 0.701862
vt 0.000000 0.132095
v 0.434891 0.132646 0.179546
vn 0.917028 0.121565 0.379845
vt 0.125000 0.132095
v 0.415560 0.303490 0.171539
vn 0.917028 0.121565 0.379845
vt 0.125000 0.267095
v 0.302363 0.488572 0.300934
vn 0.701655 0.123936 0.701655
vt 0.000000 0.413345
v 0.394618 0.488572 0.162864
vn 0.916757 0.123936 0.379733
vt 0.125000 0.413345
v 0.288193 0.645952 0.286765
vn 0.701444 0.126306 0.701444
vt 0.000000 0.538345
v 0.376105 0.645952 0.155196
vn 0.916480 0.126306 0.379618
vt 0.125000 0.538345
v 0.274024 0.803332 0.272595
vn 0.700774 0.133543 0.700773
vt 0.000000 0.663345
v 0.357591 0.803332 0.147527
vn 0.915604 0.133543 0.379256
vt 0.125000 0.663345
v 0.262339 0.919548 0.260911
vn 0.700066 0.140773 0.700065
vt 0.000000 0.753189
v 0.342325 0.919548 0.141204
vn 0.914680 0.140773 0.378872
vt 0.125000 0.753189
v 0.250655 1.035764 0.249226
vn 0.696613 0.171642 0.696613
vt 0.000000 0.843033
v 0.327058 1.035764 0.134880
vn 0.910169 0.171642 0.377004
vt 0.125000 0.843033
v 0.234740 1.144700 0.233311
vn 0.626442 0.463834 0.626441
vt 0.000000 0.928970
v 0.306264 1.144700 0.126267
vn 0.818486 0.463834 0.339027
vt 0.125000 0.928970
v 0.172967 0.303490 0.414131
vn 0.379845 0.121565 0.917028
vt 0.000000 0.267095
v 0.180974 0.132646 0.433463
vn 0.379845 0.121565 0.917028
vt 0.000000 0.132095
v 0.333186 0.132646 0.331758
vn 0.701863 0.121565 0.701862
vt 0.125000 0.132095
v 0.318391 0.303490 0.316963
vn 0.701863 0.121565 0.701862
vt 0.125000 0.267095
v 0.164293 0.488572 0.393189
vn 0.379733 0.123936 0.916757
vt 0.000000 0.413345
v 0.302363 0.488572 0.300934
vn 0.701655 0.123936 0.701655
vt 0.125000 0.413345
v 0.156624 0.645952 0.374676
vn 0.379619 0.126306 0.916480
vt 0.000000 0.538345
v 0.288193 0.645952 0.286765
vn 0.701444 0.126306 0.701444
vt 0.125000 0.538345
v 0.148956 0.803332 0.356163
vn 0.379256 0.133543 0.915604
vt 0.000000 0.663345
v 0.274024 0.803332 0.272595
vn 0.700774 0.133543 0.700773
vt 0.125000 0.663345
v 0.142632 0.919548 0.340896
vn 0.378873 0.140773 0.914679
vt 0.000000 0.753189
v 0.262339 0.919548 0.260911
vn 0.700066 0.140773 0.700065
vt 0.125000 0.753189
v 0.136309 1.035764 0.325629
vn 0.377005 0.171642 0.910168
vt 0.000000 0.843033
v 0.250655 1.035764 0.249226
vn 0.696613 0.171642 0.696613
vt 0.125000 0.843033
v 0.127696 1.144700 0.304836
vn 0.339028 0.463834 0.818485
vt 0.000000 0.928970
v 0.234740 1.144700 0.233311
vn 0.626442 0.463834 0.626441
vt 0.125000 0.928970
v 0.001429 0.303490 0.448253
vn -0.000000 0.121565 0.992583
vt 0.000000 0.267095
v 0.001428 0.132646 0.469176
vn -0.000000 0.121565 0.992583
vt 0.000000 0.132095
v 0.180974 0.132646 0.433463
vn 0.379845 0.121565 0.917028
vt 0.125000 0.132095
v 0.172967 0.303490 0.414131
vn 0.379845 0.121565 0.917028
vt 0.125000 0.267095
v 0.001429 0.488572 0.425585
vn 0.000000 0.123936 0.992290
vt 0.000000 0.413345
v 0.164293 0.488572 0.393189
vn 0.379733 0.123936 0.916757
vt 0.125000 0.413345
v 0.001429 0.645952 0.405547
vn 0.000000 0.126306 0.991991
vt 0.000000 0.538345
v 0.156624 0.645952 0.374676
vn 0.379619 0.126306 0.916480
vt 0.125000 0.538345
v 0.001429 0.803332 0.385508
vn 0.000000 0.133543 0.991043
vt 0.000000 0.663345
v 0.148956 0.803332 0.356163
vn 0.379256 0.133543 0.915604
vt 0.125000 0.663345
v 0.001429 0.919548 0.368983
vn 0.000000 0.140773 0.990042
vt 0.000000 0.753189
v 0.142632 0.919548 0.340896
vn 0.378873 0.140773 0.914679
vt 0.125000 0.753189
v 0.001429 1.035764 0.352459
vn 0.000000 0.171642 0.985159
vt 0.000000 0.843033
v 0.136309 1.035764 0.325629
vn 0.377005 0.171642 0.910168
vt 0.125000 0.843033
v 0.001429 1.144700 0.329952
vn 0.000000 0.463834 0.885922
vt 0.000000 0.928970
v 0.127696 1.144700 0.304836
vn 0.339028 0.463834 0.818485
vt 0.125000 0.928970
v -0.170110 0.303490 0.414131
vn -0.379845 0.121565 0.917028
vt 0.000000 0.267095
v -0.178117 0.132646 0.433463
vn -0.379845 0.121565 0.917028
vt 0.000000 0.132095
v 0.001428 0.132646 0.469176
vn -0.000000 0.121565 0.992583
vt 0.125000 0.132095
v 0.001429 0.303490 0.448253
vn -0.000000 0.121565 0.992583
vt 0.125000 0.267095
v -0.161436 0.488572 0.393189
vn -0.379733 0.123936 0.916757
vt 0.000000 0.413345
v 0.001429 0.488572 0.425585
vn 0.000000 0.123936 0.992290
vt 0.125000 0.413345
v -0.153767 0.645952 0.374676
vn -0.379619 0.126306 0.916481
vt 0.000000 0.538345
v 0.001429 0.645952 0.405547
vn 0.000000 0.126306 0.991991
vt 0.125000 0.538345
v -0.146099 0.803332 0.356163
vn -0.379255 0.133543 0.915604
vt 0.000000 0.663345
v 0.001429 0.803332 0.385508
vn 0.000000 0.133543 0.991043
vt 0.125000 0.663345
v -0.139775 0.919548 0.340896
vn -0.378872 0.140773 0.914680
vt 0.000000 0.753189
v 0.001429 0.919548 0.368983
vn 0.000000 0.140773 0.990042
vt 0.125000 0.753189
v -0.133451 1.035764 0.325630
vn -0.377004 0.171642 0.910169
vt 0.000000 0.843033
v 0.001429 1.035764 0.352459
vn 0.000000 0.171642 0.985159
vt 0.125000 0.843033
v -0.124839 1.144700 0.304836
vn -0.339028 0.463834 0.818485
vt 0.000000 0.928970
v 0.001429 1.144700 0.329952
vn 0.000000 0.463834 0.885922
vt 0.125000 0.928970
v -0.315534 0.303490 0.316963
vn -0.701863 0.121565 0.701863
vt 0.000000 0.267095
v -0.330329 0.132646 0.331758
vn -0.701863 0.121565 0.701862
vt 0.000000 0.132095
v -0.178117 0.132646 0.433463
vn -0.379845 0.121565 0.917028
vt 0.125000 0.132095
v -0.170110 0.303490 0.414131
vn -0.379845 0.121565 0.917028
vt 0.125000 0.267095
v -0.299505 0.488572 0.300934
vn -0.701655 0.123936 0.701655
vt 0.000000 0.413345
v -0.161436 0.488572 0.393189
vn -0.379733 0.123936 0.916757
vt 0.125000 0.413345
v -0.285336 0.645952 0.286765
vn -0.701444 0.126306 0.701444
vt 0.000000 0.538345
v -0.153767 0.645952 0.374676
vn -0.379619 0.126306 0.916481
vt 0.125000 0.538345
v -0.271167 0.803332 0.272595
vn -0.700773 0.133543 0.700773
vt 0.000000 0.663345
v -0.146099 0.803332 0.356163
vn -0.379255 0.133543 0.915604
vt 0.125000 0.663345
v -0.259482 0.919548 0.260911
vn -0.700065 0.140773 0.700066
vt 0.000000 0.753189
v -0.139775 0.919548 0.340896
vn -0.378872 0.140773 0.914680
vt 0.125000 0.753189
v -0.247797 1.035764 0.249226
vn -0.696613 0.171642 0.696613
vt 0.000000 0.843033
v -0.133451 1.035764 0.325630
vn -0.377004 0.171642 0.910169
vt 0.125000 0.843033
v -0.231883 1.144700 0.233311
vn -0.626441 0.463834 0.626442
vt 0.000000 0.928970
v -0.124839 1.144700 0.304836
vn -0.339028 0.463834 0.818485
vt 0.125000 0.928970
v -0.412703 0.303490 0.171539
vn -0.917028 0.121565 0.379845
vt 0.000000 0.267095
v -0.432034 0.132646 0.179546
vn -0.917028 0.121565 0.379845
vt 0.000000 0.132095
v -0.330329 0.132646 0.331758
vn -0.701863 0.121565 0.701862
vt 0.125000 0.132095
v -0.315534 0.303490 0.316963
vn -0.701863 0.121565 0.701863
vt 0.125000 0.267095
v -0.391761 0.488572 0.162865
vn -0.916757 0.123936 0.379733
vt 0.000000 0.413345
v -0.299505 0.488572 0.300934
vn -0.701655 0.123936 0.701655
vt 0.125000 0.413345
v -0.373247 0.645952 0.155196
vn -0.916480 0.126306 0.379619
vt 0.000000 0.538345
v -0.285336 0.645952 0.286765
vn -0.701444 0.126306 0.701444
vt 0.125000 0.538345
v -0.354734 0.803332 0.147528
vn -0.915604 0.133543 0.379256
vt 0.000000 0.663345
v -0.271167 0.803332 0.272595
vn -0.700773 0.133543 0.700773
vt 0.125000 0.663345
v -0.339467 0.919548 0.141204
vn -0.914679 0.140773 0.378873
vt 0.000000 0.753189
v -0.259482 0.919548 0.260911
vn -0.700065 0.140773 0.700066
vt 0.125000 0.753189
v -0.324201 1.035764 0.134880
vn -0.910168 0.171642 0.377004
vt 0.000000 0.843033
v -0.247797 1.035764 0.249226
vn -0.696613 0.171642 0.696613
vt 0.125000 0.843033
v -0.303407 1.144700 0.126267
vn -0.818485 0.463833 0.339028
vt 0.000000 0.928970
v -0.231883 1.144700 0.233311
vn -0.626441 0.463834 0.626442
vt 0.125000 0.928970
v -0.446824 0.303490 0.000000
vn -0.992584 0.121565 0.000000
vt 0.000000 0.267095
v -0.467748 0.132646 0.000000
vn -0.992584 0.121565 0.000000
vt 0.000000 0.132095
v -0.432034 0.132646 0.179546
vn -0.917028 0.121565 0.379845
vt 0.125000 0.132095
v -0.412703 0.303490 0.171539
vn -0.917028 0.121565 0.379845
vt 0.125000 0.267095
v -0.424156 0.488572 0.000000
vn -0.992290 0.123936 0.000000
vt 0.000000 0.413345
v -0.391761 0.488572 0.162865
vn -0.916757 0.123936 0.379733
vt 0.125000 0.413345
v -0.404118 0.645952 0.000000
vn -0.991991 0.126306 0.000000
vt 0.000000 0.538345
v -0.373247 0.645952 0.155196
vn -0.916480 0.126306 0.379619
vt 0.125000 0.538345
v -0.384079 0.803332 0.000000
vn -0.991043 0.133543 0.000000
vt 0.000000 0.663345
v -0.354734 0.803332 0.147528
vn -0.915604 0.133543 0.379256
vt 0.125000 0.663345
v -0.367555 0.919548 0.000000
vn -0.990042 0.140773 0.000000
vt 0.000000 0.753189
v -0.339467 0.919548 0.141204
vn -0.914679 0.140773 0.378873
vt 0.125000 0.753189
v -0.351030 1.035764 0.000000
vn -0.985159 0.171642 0.000000
vt 0.000000 0.843033
v -0.324201 1.035764 0.134880
vn -0.910168 0.171642 0.377004
vt 0.125000 0.843033
v -0.328523 1.144700 0.000000
vn -0.885922 0.463834 0.000000
vt 0.000000 0.928970
v -0.303407 1.144700 0.126267
vn -0.818485 0.463833 0.339028
vt 0.125000 0.928970
v -0.412703 0.303490 -0.171539
vn -0.917028 0.121565 -0.379845
vt 0.000000 0.267095
v -0.432034 0.132646 -0.179546
vn -0.917028 0.121565 -0.379845
vt 0.000000 0.132095
v -0.467748 0.132646 0.000000
vn -0.992584 0.121565 0.000000
vt 0.125000 0.132095
v -0.446824 0.303490 0.000000
vn -0.992584 0.121565 0.000000
vt 0.125000 0.267095
v -0.391761 0.488572 -0.162864
vn -0.916757 0.123936 -0.379733
vt 0.000000 0.413345
v -0.424156 0.488572 0.000000
vn -0.992290 0.123936 0.000000
vt 0.125000 0.413345
v -0.373248 0.645952 -0.155196
vn -0.916481 0.126306 -0.379618
vt 0.000000 0.538345
v -0.404118 0.645952 0.000000
vn -0.991991 0.126306 0.000000
vt 0.125000 0.538345
v -0.354734 0.803332 -0.147527
vn -0.915604 0.133543 -0.379255
vt 0.000000 0.663345
v -0.384079 0.803332 0.000000
vn -0.991043 0.133543 0.000000
vt 0.125000 0.663345
v -0.339468 0.919548 -0.141204
vn -0.914680 0.140773 -0.378872
vt 0.000000 0.753189
v -0.367555 0.919548 0.000000
vn -0.990042 0.140773 0.000000
vt 0.125000 0.753189
v -0.324201 1.035763 -0.134880
vn -0.910169 0.171642 -0.377004
vt 0.000000 0.843033
v -0.351030 1.035764 0.000000
vn -0.985159 0.171642 0.000000
vt 0.125000 0.843033
v -0.303407 1.144700 -0.126267
vn -0.818486 0.463833 -0.339028
vt 0.000000 0.928970
v -0.328523 1.144700 0.000000
vn -0.885922 0.463834 0.000000
vt 0.125000 0.928970
v -0.315534 0.303490 -0.316962
vn -0.701863 0.121565 -0.701862
vt 0.000000 0.267095
v -0.330329 0.132646 -0.331757
vn -0.701863 0.121565 -0.701862
vt 0.000000 0.132095
v -0.432034 0.132646 -0.179546
vn -0.917028 0.121565 -0.379845
vt 0.125000 0.132095
v -0.412703 0.303490 -0.171539
vn -0.917028 0.121565 -0.379845
vt 0.125000 0.267095
v -0.299506 0.488572 -0.300934
vn -0.701655 0.123936 -0.701655
vt 0.000000 0.413345
v -0.391761 0.488572 -0.162864
vn -0.916757 0.123936 -0.379733
vt 0.125000 0.413345
v -0.285336 0.645952 -0.286764
vn -0.701444 0.126306 -0.701444
vt 0.000000 0.538345
v -0.373248 0.645952 -0.155196
vn -0.916481 0.126306 -0.379618
vt 0.125000 0.538345
v -0.271167 0.803332 -0.272595
vn -0.700774 0.133543 -0.700773
vt 0.000000 0.663345
v -0.354734 0.803332 -0.147527
vn -0.915604 0.133543 -0.379255
vt 0.125000 0.663345
v -0.259482 0.919548 -0.260910
vn -0.700066 0.140773 -0.700065
vt 0.000000 0.753189
v -0.339468 0.919548 -0.141204
vn -0.914680 0.140773 -0.378872
vt 0.125000 0.753189
v -0.247798 1.035763 -0.249226
vn -0.696613 0.171642 -0.696612
vt 0.000000 0.843033
v -0.324201 1.035763 -0.134880
vn -0.910169 0.171642 -0.377004
vt 0.125000 0.843033
v -0.231883 1.144700 -0.233311
vn -0.626442 0.463833 -0.626441
vt 0.000000 0.928970
v -0.303407 1.144700 -0.126267
vn -0.818486 0.463833 -0.339028
vt 0.125000 0.928970
v -0.170110 0.303490 -0.414131
vn -0.379845 0.121565 -0.917028
vt 0.000000 0.267095
v -0.178118 0.132646 -0.433462
vn -0.379845 0.121565 -0.917028
vt 0.000000 0.132095
v -0.330329 0.132646 -0.331757
vn -0.701863 0.121565 -0.701862
vt 0.125000 0.132095
v -0.315534 0.303490 -0.316962
vn -0.701863 0.121565 -0.701862
vt 0.125000 0.267095
v -0.161436 0.488572 -0.393189
vn -0.379733 0.123936 -0.916757
vt 0.000000 0.413345
v -0.299506 0.488572 -0.300934
vn -0.701655 0.123936 -0.701655
vt 0.125000 0.413345
v -0.153767 0.645952 -0.374676
vn -0.379619 0.126306 -0.916480
vt 0.000000 0.538345
v -0.285336 0.645952 -0.286764
vn -0.701444 0.126306 -0.701444
vt 0.125000 0.538345
v -0.146099 0.803332 -0.356162
vn -0.379256 0.133543 -0.915604
vt 0.000000 0.663345
v -0.271167 0.803332 -0.272595
vn -0.700774 0.133543 -0.700773
vt 0.125000 0.663345
v -0.139775 0.919548 -0.340896
vn -0.378873 0.140773 -0.914679
vt 0.000000 0.753189
v -0.259482 0.919548 -0.260910
vn -0.700066 0.140773 -0.700065
vt 0.125000 0.753189
v -0.133452 1.035763 -0.325629
vn -0.377005 0.171642 -0.910168
vt 0.000000 0.843033
v -0.247798 1.035763 -0.249226
vn -0.696613 0.171642 -0.696612
vt 0.125000 0.843033
v -0.124839 1.144700 -0.304836
vn -0.339028 0.463834 -0.818485
vt 0.000000 0.928970
v -0.231883 1.144700 -0.233311
vn -0.626442 0.463833 -0.626441
vt 0.125000 0.928970
v 0.001428 0.303490 -0.448252
vn -0.000000 0.121564 -0.992584
vt 0.000000 0.267095
v 0.001429 0.132646 -0.469176
vn -0.000000 0.121565 -0.992584
vt 0.000000 0.132095
v -0.178118 0.132646 -0.433462
vn -0.379845 0.121565 -0.917028
vt 0.125000 0.132095
v -0.170110 0.303490 -0.414131
vn -0.379845 0.121565 -0.917028
vt 0.125000 0.267095
v 0.001428 0.488571 -0.425585
vn -0.000000 0.123936 -0.992290
vt 0.000000 0.413345
v -0.161436 0.488572 -0.393189
vn -0.379733 0.123936 -0.916757
vt 0.125000 0.413345
v 0.001428 0.645952 -0.405546
vn -0.000000 0.126306 -0.991991
vt 0.000000 0.538345
v -0.153767 0.645952 -0.374676
vn -0.379619 0.126306 -0.916480
vt 0.125000 0.538345
v 0.001428 0.803332 -0.385508
vn -0.000000 0.133543 -0.991043
vt 0.000000 0.663345
v -0.146099 0.803332 -0.356162
vn -0.379256 0.133543 -0.915604
vt 0.125000 0.663345
v 0.001428 0.919548 -0.368983
vn -0.000000 0.140773 -0.990042
vt 0.000000 0.753189
v -0.139775 0.919548 -0.340896
vn -0.378873 0.140773 -0.914679
vt 0.125000 0.753189
v 0.001428 1.035763 -0.352459
vn -0.000000 0.171642 -0.985159
vt 0.000000 0.843033
v -0.133452 1.035763 -0.325629
vn -0.377005 0.171642 -0.910168
vt 0.125000 0.843033
v 0.001428 1.144700 -0.329952
vn -0.000000 0.463834 -0.885922
vt 0.000000 0.928970
v -0.124839 1.144700 -0.304836
vn -0.339028 0.463834 -0.818485
vt 0.125000 0.928970
v 0.172967 0.303490 -0.414131
vn 0.379845 0.121564 -0.917028
vt 0.000000 0.267095
v 0.180974 0.132646 -0.433462
vn 0.379845 0.121564 -0.917028
vt 0.000000 0.132095
v 0.001429 0.132646 -0.469176
vn -0.000000 0.121565 -0.992584
vt 0.125000 0.132095
v 0.001428 0.303490 -0.448252
vn -0.000000 0.121564 -0.992584
vt 0.125000 0.267095
v 0.164293 0.488572 -0.393189
vn 0.379733 0.123936 -0.916757
vt 0.000000 0.413345
v 0.001428 0.488571 -0.425585
vn -0.000000 0.123936 -0.992290
vt 0.125000 0.413345
v 0.156624 0.645952 -0.374676
vn 0.379618 0.126306 -0.916481
vt 0.000000 0.538345
v 0.001428 0.645952 -0.405546
vn -0.000000 0.126306 -0.991991
vt 0.125000 0.538345
v 0.148956 0.803332 -0.356163
vn 0.379255 0.133543 -0.915605
vt 0.000000 0.663345
v 0.001428 0.803332 -0.385508
vn -0.000000 0.133543 -0.991043
vt 0.125000 0.663345
v 0.142632 0.919548 -0.340896
vn 0.378872 0.140773 -0.914680
vt 0.000000 0.753189
v 0.001428 0.919548 -0.368983
vn -0.000000 0.140773 -0.990042
vt 0.125000 0.753189
v 0.136308 1.035763 -0.325629
vn 0.377003 0.171642 -0.910169
vt 0.000000 0.843033
v 0.001428 1.035763 -0.352459
vn -0.000000 0.171642 -0.985159
vt 0.125000 0.843033
v 0.127695 1.144700 -0.304836
vn 0.339027 0.463834 -0.818486
vt 0.000000 0.928970
v 0.001428 1.144700 -0.329952
vn -0.000000 0.463834 -0.885922
vt 0.125000 0.928970
v 0.318391 0.303490 -0.316962
vn 0.701862 0.121565 -0.701863
vt 0.000000 0.267095
v 0.333186 0.132646 -0.331758
vn 0.701862 0.121565 -0.701863
vt 0.000000 0.132095
v 0.180974 0.132646 -0.433462
vn 0.379845 0.121564 -0.917028
vt 0.125000 0.132095
v 0.172967 0.303490 -0.414131
vn 0.379845 0.121564 -0.917028
vt 0.125000 0.267095
v 0.302362 0.488572 -0.300934
vn 0.701655 0.123936 -0.701655
vt 0.000000 0.413345
v 0.164293 0.488572 -0.393189
vn 0.379733 0.123936 -0.916757
vt 0.125000 0.413345
v 0.288193 0.645952 -0.286765
vn 0.701443 0.126306 -0.701444
vt 0.000000 0.538345
v 0.156624 0.645952 -0.374676
vn 0.379618 0.126306 -0.916481
vt 0.125000 0.538345
v 0.274024 0.803332 -0.272595
vn 0.700773 0.133543 -0.700774
vt 0.000000 0.663345
v 0.148956 0.803332 -0.356163
vn 0.379255 0.133543 -0.915605
vt 0.125000 0.663345
v 0.262339 0.919548 -0.260911
vn 0.700065 0.140773 -0.700066
vt 0.000000 0.753189
v 0.142632 0.919548 -0.340896
vn 0.378872 0.140773 -0.914680
vt 0.125000 0.753189
v 0.250654 1.035763 -0.249226
vn 0.696613 0.171642 -0.696613
vt 0.000000 0.843033
v 0.136308 1.035763 -0.325629
vn 0.377003 0.171642 -0.910169
vt 0.125000 0.843033
v 0.234740 1.144700 -0.233311
vn 0.626441 0.463834 -0.626442
vt 0.000000 0.928970
v 0.127695 1.144700 -0.304836
vn 0.339027 0.463834 -0.818486
vt 0.125000 0.928970
v 0.415560 0.303490 -0.171539
vn 0.917028 0.121565 -0.379845
vt 0.000000 0.267095
v 0.434891 0.132646 -0.179546
vn 0.917028 0.121565 -0.379845
vt 0.000000 0.132095
v 0.333186 0.132646 -0.331758
vn 0.701862 0.121565 -0.701863
vt 0.125000 0.132095
v 0.318391 0.303490 -0.316962
vn 0.701862 0.121565 -0.701863
vt 0.125000 0.267095
v 0.394618 0.488572 -0.162864
vn 0.916757 0.123936 -0.379733
vt 0.000000 0.413345
v 0.302362 0.488572 -0.300934
vn 0.701655 0.123936 -0.701655
vt 0.125000 0.413345
v 0.376104 0.645952 -0.155196
vn 0.916480 0.126306 -0.379619
vt 0.000000 0.538345
v 0.288193 0.645952 -0.286765
vn 0.701443 0.126306 -0.701444
vt 0.125000 0.538345
v 0.357591 0.803332 -0.147527
vn 0.915604 0.133543 -0.379256
vt 0.000000 0.663345
v 0.274024 0.803332 -0.272595
vn 0.700773 0.133543 -0.700774
vt 0.125000 0.663345
v 0.342325 0.919548 -0.141204
vn 0.914679 0.140773 -0.378873
vt 0.000000 0.753189
v 0.262339 0.919548 -0.260911
vn 0.700065 0.140773 -0.700066
vt 0.125000 0.753189
v 0.327058 1.035763 -0.134880
vn 0.910168 0.171642 -0.377004
vt 0.000000 0.843033
v 0.250654 1.035763 -0.249226
vn 0.696613 0.171642 -0.696613
vt 0.125000 0.843033
v 0.306264 1.144700 -0.126267
vn 0.818485 0.463834 -0.339028
vt 0.000000 0.928970
v 0.234740 1.144700 -0.233311
vn 0.626441 0.463834 -0.626442
vt 0.125000 0.928970
v 0.422100 0.132866 0.000000
vn -0.992578 -0.121609 -0.000000
vt 0.967865 0.175636
v 0.370226 0.308249 -0.152761
vn -0.917022 -0.121609 0.379843
vt 0.951802 0.222939
v 0.390078 0.132866 -0.160984
vn -0.917022 -0.121609 0.379843
vt 0.957950 0.225485
v 0.283694 0.308249 -0.282265
vn -0.701858 -0.121609 0.701859
vt 0.925007 0.263041
v 0.298888 0.132866 -0.297459
vn -0.701858 -0.121609 0.701859
vt 0.929712 0.267746
v 0.154189 0.308249 -0.368797
vn -0.379843 -0.121609 0.917023
vt 0.884906 0.289836
v 0.162412 0.132866 -0.388649
vn -0.379843 -0.121609 0.917023
vt 0.887452 0.295983
v 0.001429 0.308249 -0.399183
vn 0.000000 -0.121609 0.992578
vt 0.837603 0.299245
v 0.001429 0.132866 -0.420671
vn -0.000000 -0.121609 0.992578
vt 0.837603 0.305899
v -0.151333 0.308249 -0.368797
vn 0.379843 -0.121609 0.917023
vt 0.790300 0.289836
v -0.159555 0.132866 -0.388649
vn 0.379843 -0.121609 0.917022
vt 0.787754 0.295983
v -0.296031 0.132866 -0.297459
vn 0.701859 -0.121609 0.701859
vt 0.745493 0.267746
v -0.280837 0.308249 -0.282265
vn 0.701859 -0.121609 0.701859
vt 0.750198 0.263041
v -0.367369 0.308249 -0.152761
vn 0.917023 -0.121609 0.379843
vt 0.723403 0.222939
v -0.387221 0.132866 -0.160984
vn 0.917023 -0.121609 0.379843
vt 0.717256 0.225485
v -0.397755 0.308249 0.000000
vn 0.992578 -0.121609 -0.000000
vt 0.713994 0.175636
v -0.419243 0.132866 0.000000
vn 0.992578 -0.121609 -0.000000
vt 0.707340 0.175636
v 0.268189 0.487218 -0.266761
vn -0.701858 -0.121609 0.701859
vt 0.920206 0.258240
v 0.145798 0.487218 -0.348540
vn -0.379843 -0.121609 0.917023
vt 0.882308 0.283563
v 0.001428 0.487218 -0.377256
vn 0.000000 -0.121609 0.992578
vt 0.837603 0.292455
v -0.142941 0.487218 -0.348540
vn 0.379843 -0.121609 0.917023
vt 0.792898 0.283563
v -0.265332 0.487218 -0.266760
vn 0.701859 -0.121609 0.701859
vt 0.754999 0.258240
v -0.347111 0.487218 -0.144370
vn 0.917023 -0.121609 0.379843
vt 0.729676 0.220341
v -0.375828 0.487218 0.000000
vn 0.992578 -0.121609 -0.000000
vt 0.720784 0.175636
v -0.347111 0.487218 0.144370
vn 0.917023 -0.121609 -0.379843
vt 0.729676 0.130931
v -0.329215 0.645317 0.136957
vn 0.917022 -0.121609 -0.379843
vt 0.735218 0.133227
v -0.265332 0.487218 0.266761
vn 0.701859 -0.121609 -0.701859
vt 0.754999 0.093033
v -0.251635 0.645317 0.253064
vn 0.701859 -0.121609 -0.701859
vt 0.759241 0.097274
v -0.142941 0.487218 0.348540
vn 0.379843 -0.121609 -0.917022
vt 0.792898 0.067710
v -0.135529 0.645317 0.330644
vn 0.379843 -0.121609 -0.917022
vt 0.795194 0.073251
v 0.001428 0.645317 -0.357886
vn 0.000000 -0.121609 0.992578
vt 0.837603 0.286457
v -0.135529 0.645317 -0.330644
vn 0.379843 -0.121609 0.917023
vt 0.795194 0.278021
v -0.251636 0.645317 -0.253064
vn 0.701859 -0.121609 0.701858
vt 0.759241 0.253998
v -0.329216 0.645317 -0.136957
vn 0.917023 -0.121609 0.379843
vt 0.735218 0.218045
v -0.356458 0.645317 0.000000
vn 0.992578 -0.121609 -0.000000
vt 0.726782 0.175636
v -0.311582 0.801098 0.129654
vn 0.917022 -0.121609 -0.379843
vt 0.740678 0.135488
v -0.238140 0.801098 0.239568
vn 0.701858 -0.121609 -0.701859
vt 0.763420 0.101453
v -0.128225 0.801098 0.313011
vn 0.379843 -0.121609 -0.917023
vt 0.797455 0.078711
v 0.001429 0.645317 0.357887
vn -0.000000 -0.121609 -0.992578
vt 0.837603 0.064815
v 0.001429 0.801098 0.338801
vn -0.000000 -0.121609 -0.992578
vt 0.837603 0.070725
v 0.138386 0.645317 0.330644
vn -0.379844 -0.121609 -0.917022
vt 0.880012 0.073251
v 0.131082 0.801098 0.313011
vn -0.379844 -0.121609 -0.917022
vt 0.877751 0.078711
v -0.238140 0.801098 -0.239568
vn 0.701859 -0.121609 0.701858
vt 0.763420 0.249819
v -0.311582 0.801098 -0.129653
vn 0.917023 -0.121609 0.379843
vt 0.740678 0.215784
v -0.337372 0.801098 0.000000
vn 0.992578 -0.121609 -0.000000
vt 0.732692 0.175636
v -0.298282 0.918596 0.124145
vn 0.917022 -0.121609 -0.379843
vt 0.744796 0.137194
v -0.227960 0.918596 0.229389
vn 0.701858 -0.121609 -0.701859
vt 0.766572 0.104605
v -0.122716 0.918596 0.299711
vn 0.379843 -0.121609 -0.917023
vt 0.799161 0.082830
v 0.001429 0.918596 0.324405
vn -0.000000 -0.121609 -0.992578
vt 0.837603 0.075183
v 0.125573 0.918596 0.299711
vn -0.379844 -0.121609 -0.917022
vt 0.876045 0.082830
v 0.240997 0.801098 0.239568
vn -0.701859 -0.121609 -0.701859
vt 0.911786 0.101453
v 0.230817 0.918596 0.229389
vn -0.701859 -0.121609 -0.701858
vt 0.908634 0.104605
v 0.314439 0.801098 0.129653
vn -0.917023 -0.121609 -0.379843
vt 0.934528 0.135488
v 0.301140 0.918596 0.124144
vn -0.917023 -0.121609 -0.379843
vt 0.930410 0.137194
v -0.322976 0.918596 0.000000
vn 0.992578 -0.121609 -0.000001
vt 0.737150 0.175636
v -0.285317 1.033142 0.118774
vn 0.917022 -0.121609 -0.379844
vt 0.748811 0.138857
v -0.218037 1.033142 0.219465
vn 0.701858 -0.121609 -0.701859
vt 0.769645 0.107678
v -0.117345 1.033142 0.286745
vn 0.379843 -0.121609 -0.917023
vt 0.800824 0.086844
v 0.001429 1.033142 0.310371
vn -0.000000 -0.121609 -0.992578
vt 0.837603 0.079529
v 0.120202 1.033142 0.286745
vn -0.379844 -0.121609 -0.917022
vt 0.874382 0.086844
v 0.220894 1.033142 0.219465
vn -0.701859 -0.121609 -0.701858
vt 0.905561 0.107678
v 0.288174 1.033142 0.118774
vn -0.917023 -0.121609 -0.379843
vt 0.926395 0.138857
v 0.325833 0.918596 0.000000
vn -0.992578 -0.121609 0.000000
vt 0.938056 0.175636
v 0.311799 1.033142 0.000000
vn -0.992578 -0.121609 0.000000
vt 0.933710 0.175636
v 0.301139 0.918596 -0.124144
vn -0.917022 -0.121609 0.379843
vt 0.930410 0.214078
v 0.288174 1.033142 -0.118774
vn -0.917022 -0.121609 0.379843
vt 0.926395 0.212415
v -0.211619 1.107216 0.213048
vn 0.464318 -0.754200 -0.464319
vt 0.771632 0.109665
v -0.113872 1.107216 0.278361
vn 0.251288 -0.754200 -0.606660
vt 0.801900 0.089441
v 0.001429 1.107217 0.301295
vn 0.000000 -0.754201 -0.656644
vt 0.837603 0.082339
v 0.116729 1.107216 0.278361
vn -0.251287 -0.754201 -0.606659
vt 0.873306 0.089441
v 0.214477 1.107216 0.213048
vn -0.464317 -0.754202 -0.464316
vt 0.903574 0.109665
v 0.279789 1.107216 0.115301
vn -0.606659 -0.754202 -0.251286
vt 0.923798 0.139933
v 0.302724 1.107216 0.000000
vn -0.656643 -0.754202 -0.000000
vt 0.930900 0.175636
v 0.279789 1.107216 -0.115301
vn -0.606659 -0.754202 0.251286
vt 0.923798 0.211339
v 0.220894 1.033142 -0.219465
vn -0.701858 -0.121609 0.701859
vt 0.905561 0.243594
v 0.214476 1.107216 -0.213048
vn -0.464317 -0.754202 0.464317
vt 0.903574 0.241607
v 0.120202 1.033142 -0.286745
vn -0.379842 -0.121609 0.917023
vt 0.874382 0.264428
v 0.116729 1.107216 -0.278361
vn -0.251286 -0.754201 0.606660
vt 0.873306 0.261832
v 0.001428 1.033142 -0.310371
vn 0.000000 -0.121609 0.992578
vt 0.837603 0.271744
v 0.001428 1.107216 -0.301295
vn 0.000000 -0.754200 0.656644
vt 0.837603 0.268933
v -0.117345 1.033142 -0.286745
vn 0.379844 -0.121609 0.917022
vt 0.800824 0.264428
v -0.113872 1.107216 -0.278360
vn 0.251287 -0.754200 0.606660
vt 0.801900 0.261832
v -0.218037 1.033142 -0.219465
vn 0.701859 -0.121609 0.701858
vt 0.769645 0.243594
v -0.211620 1.107216 -0.213048
vn 0.464319 -0.754200 0.464318
vt 0.771632 0.241607
v -0.285317 1.033142 -0.118774
vn 0.917023 -0.121609 0.379843
vt 0.748811 0.212415
v -0.276932 1.107216 -0.115301
vn 0.606661 -0.754199 0.251287
vt 0.751408 0.211339
v -0.308942 1.033142 0.000000
vn 0.992578 -0.121609 -0.000001
vt 0.741495 0.175636
v -0.299867 1.107216 0.000000
vn 0.656645 -0.754199 -0.000000
vt 0.744306 0.175636
v -0.276932 1.107216 0.115301
vn 0.606661 -0.754199 -0.251288
vt 0.751408 0.139933
v -0.000000 1.107440 0.000000
vn 0.000002 -1.000000 0.000000
vt 0.837161 0.175636
v 0.230817 0.918596 -0.229389
vn -0.701858 -0.121609 0.701859
vt 0.908634 0.246667
v 0.125573 0.918596 -0.299711
vn -0.379842 -0.121609 0.917023
vt 0.876045 0.268443
v 0.001428 0.918596 -0.324405
vn 0.000000 -0.121609 0.992578
vt 0.837603 0.276089
v -0.122716 0.918596 -0.299711
vn 0.379843 -0.121609 0.917022
vt 0.799161 0.268443
v -0.227960 0.918596 -0.229389
vn 0.701859 -0.121609 0.701859
vt 0.766572 0.246667
v -0.298283 0.918596 -0.124144
vn 0.917023 -0.121609 0.379843
vt 0.744796 0.214078
v 0.340229 0.801098 0.000000
vn -0.992578 -0.121609 0.000000
vt 0.942514 0.175636
v 0.314439 0.801098 -0.129653
vn -0.917022 -0.121609 0.379843
vt 0.934528 0.215784
v 0.240997 0.801098 -0.239568
vn -0.701858 -0.121609 0.701859
vt 0.911786 0.249819
v 0.131082 0.801098 -0.313011
vn -0.379842 -0.121609 0.917023
vt 0.877751 0.272561
v 0.001428 0.801098 -0.338800
vn 0.000000 -0.121609 0.992578
vt 0.837603 0.280547
v -0.128225 0.801098 -0.313011
vn 0.379843 -0.121609 0.917023
vt 0.797455 0.272561
v 0.254493 0.645317 0.253064
vn -0.701859 -0.121609 -0.701859
vt 0.915965 0.097274
v 0.332073 0.645317 0.136957
vn -0.917023 -0.121609 -0.379843
vt 0.939988 0.133227
v 0.359315 0.645317 0.000000
vn -0.992578 -0.121609 0.000000
vt 0.948424 0.175636
v 0.332073 0.645317 -0.136957
vn -0.917022 -0.121609 0.379843
vt 0.939988 0.218045
v 0.254492 0.645317 -0.253064
vn -0.701858 -0.121609 0.701859
vt 0.915965 0.253998
v 0.138386 0.645317 -0.330644
vn -0.379843 -0.121609 0.917023
vt 0.880012 0.278021
v 0.001429 0.487218 0.377257
vn -0.000000 -0.121609 -0.992578
vt 0.837603 0.058817
v 0.145798 0.487218 0.348540
vn -0.379843 -0.121609 -0.917022
vt 0.882308 0.067709
v 0.268189 0.487218 0.266761
vn -0.701859 -0.121609 -0.701859
vt 0.920206 0.093033
v 0.349968 0.487218 0.144370
vn -0.917023 -0.121609 -0.379843
vt 0.945530 0.130931
v 0.378685 0.487218 0.000000
vn -0.992578 -0.121609 0.000000
vt 0.954422 0.175636
v 0.349968 0.487218 -0.144370
vn -0.917022 -0.121609 0.379843
vt 0.945530 0.220341
v -0.280837 0.308249 0.282266
vn 0.701859 -0.121609 -0.701859
vt 0.750198 0.088232
v -0.367369 0.308249 0.152761
vn 0.917023 -0.121609 -0.379843
vt 0.723403 0.128333
v -0.151332 0.308249 0.368798
vn 0.379843 -0.121609 -0.917022
vt 0.790300 0.061437
v 0.001428 0.308249 0.399184
vn -0.000000 -0.121609 -0.992578
vt 0.837603 0.052027
v 0.154190 0.308249 0.368798
vn -0.379843 -0.121609 -0.917022
vt 0.884906 0.061437
v 0.283694 0.308249 0.282266
vn -0.701859 -0.121609 -0.701859
vt 0.925007 0.088232
v 0.370226 0.308249 0.152761
vn -0.917023 -0.121609 -0.379843
vt 0.951802 0.128333
v 0.400612 0.308249 0.000000
vn -0.992578 -0.121609 -0.000000
vt 0.961212 0.175636
v -0.387221 0.132866 0.160984
vn 0.917023 -0.121609 -0.379843
vt 0.717256 0.125787
v -0.296031 0.132866 0.297460
vn 0.701859 -0.121609 -0.701859
vt 0.745493 0.083527
v -0.159555 0.132866 0.388650
vn 0.379843 -0.121609 -0.917022
vt 0.787754 0.055289
v 0.001428 0.132866 0.420672
vn 0.000000 -0.121609 -0.992578
vt 0.837603 0.045374
v 0.162412 0.132866 0.388650
vn -0.379843 -0.121609 -0.917022
vt 0.887452 0.055289
v 0.298888 0.132866 0.297460
vn -0.701859 -0.121609 -0.701859
vt 0.929712 0.083527
v 0.390078 0.132866 0.160984
vn -0.917023 -0.121609 -0.379843
vt 0.957950 0.125787
v 0.310399 0.000000 0.308970
vn -0.701859 -0.121609 -0.701859
vt 0.933277 0.079962
v 0.298888 0.132866 0.297460
vn -0.701859 -0.121609 -0.701859
vt 0.929712 0.083527
v 0.390078 0.132866 0.160984
vn -0.917023 -0.121609 -0.379843
vt 0.957950 0.125787
v 0.405118 0.000000 0.167214
vn -0.917023 -0.121609 -0.379843
vt 0.962607 0.123858
v 0.438378 0.000000 0.000000
vn -0.992578 -0.121609 -0.000000
vt 0.972906 0.175636
v 0.390078 0.132866 -0.160984
vn -0.917023 -0.121609 0.379843
vt 0.957950 0.225485
v 0.405118 0.000000 -0.167213
vn -0.917023 -0.121609 0.379843
vt 0.962607 0.227414
v 0.298888 0.132866 -0.297459
vn -0.701859 -0.121609 0.701859
vt 0.929712 0.267746
v 0.310399 0.000000 -0.308970
vn -0.701859 -0.121609 0.701859
vt 0.933277 0.271310
v 0.162412 0.132866 -0.388649
vn -0.379843 -0.121609 0.917023
vt 0.887452 0.295983
v 0.168642 0.000000 -0.403689
vn -0.379843 -0.121609 0.917023
vt 0.889381 0.300640
v 0.001429 0.132866 -0.420671
vn 0.000000 -0.121609 0.992578
vt 0.837603 0.305899
v 0.001429 0.000000 -0.436950
vn 0.000000 -0.121609 0.992578
vt 0.837603 0.310939
v -0.159555 0.132866 -0.388649
vn 0.379843 -0.121609 0.917023
vt 0.787754 0.295983
v -0.165785 0.000000 -0.403689
vn 0.379843 -0.121609 0.917023
vt 0.785825 0.300640
v -0.296031 0.132866 -0.297459
vn 0.701859 -0.121609 0.701859
vt 0.745493 0.267746
v -0.307542 0.000000 -0.308970
vn 0.701859 -0.121609 0.701859
vt 0.741929 0.271310
v -0.387221 0.132866 -0.160984
vn 0.917023 -0.121609 0.379843
vt 0.717256 0.225485
v -0.402261 0.000000 -0.167213
vn 0.917023 -0.121609 0.379843
vt 0.712599 0.227414
v -0.435521 0.000000 0.000000
vn 0.992578 -0.121609 0.000000
vt 0.702300 0.175636
v -0.387221 0.132866 0.160984
vn 0.917023 -0.121609 -0.379843
vt 0.717256 0.125787
v -0.402261 0.000000 0.167214
vn 0.917023 -0.121609 -0.379843
vt 0.712599 0.123858
v -0.296031 0.132866 0.297460
vn 0.701859 -0.121609 -0.701859
vt 0.745493 0.083527
v -0.307542 0.000000 0.308970
vn 0.701859 -0.121609 -0.701859
vt 0.741929 0.079962
v -0.159555 0.132866 0.388650
vn 0.379843 -0.121609 -0.917022
vt 0.787754 0.055289
v -0.165785 0.000000 0.403689
vn 0.379843 -0.121609 -0.917022
vt 0.785825 0.050632
v 0.001428 0.132866 0.420672
vn 0.000000 -0.121609 -0.992578
vt 0.837603 0.045374
v 0.001428 0.000000 0.436950
vn 0.000000 -0.121609 -0.992578
vt 0.837603 0.040333
v 0.162412 0.132866 0.388650
vn -0.379843 -0.121609 -0.917023
vt 0.887452 0.055289
v 0.168642 0.000000 0.403689
vn -0.379843 -0.121609 -0.917023
vt 0.889381 0.050632
v 0.333186 0.132646 0.331758
vn 0.622587 0.474100 0.622587
vt 1.250000 0.152087
v 0.342021 0.109442 0.340593
vn 0.622587 0.474100 0.622587
vt 1.250000 0.133906
v 0.446434 0.109442 0.184328
vn 0.813450 0.474099 0.336942
vt 1.375000 0.133906
v 0.434891 0.132646 0.179546
vn 0.813450 0.474099 0.336942
vt 1.375000 0.152087
v 0.483099 0.109442 0.000000
vn 0.880472 0.474098 0.000000
vt 1.500000 0.133906
v 0.470605 0.132646 0.000000
vn 0.880472 0.474098 0.000000
vt 1.500000 0.152087
v 0.446434 0.109442 -0.184327
vn 0.813450 0.474099 -0.336942
vt 1.625000 0.133906
v 0.434891 0.132646 -0.179546
vn 0.813450 0.474099 -0.336942
vt 1.625000 0.152087
v 0.342021 0.109442 -0.340592
vn 0.622587 0.474099 -0.622588
vt 1.750000 0.133906
v 0.333186 0.132646 -0.331758
vn 0.622587 0.474099 -0.622588
vt 1.750000 0.152087
v 0.185756 0.109442 -0.445006
vn 0.336942 0.474099 -0.813450
vt 1.875000 0.133906
v 0.180974 0.132646 -0.433462
vn 0.336942 0.474099 -0.813450
vt 1.875000 0.152087
v 0.001429 0.109442 -0.481670
vn -0.000000 0.474099 -0.880471
vt 2.000000 0.133906
v 0.001429 0.132646 -0.469176
vn -0.000000 0.474099 -0.880471
vt 2.000000 0.152087
v -0.182899 0.109442 -0.445005
vn -0.336942 0.474099 -0.813449
vt 2.125000 0.133906
v -0.178118 0.132646 -0.433462
vn -0.336942 0.474099 -0.813449
vt 2.125000 0.152087
v -0.178118 0.132646 -0.433462
vn -0.336942 0.474099 -0.813449
vt 0.125000 0.152087
v -0.182899 0.109442 -0.445005
vn -0.336942 0.474099 -0.813449
vt 0.125000 0.133906
v -0.339164 0.109442 -0.340592
vn -0.622587 0.474099 -0.622587
vt 0.250000 0.133906
v -0.330329 0.132646 -0.331757
vn -0.622587 0.474099 -0.622587
vt 0.250000 0.152087
v -0.443577 0.109442 -0.184327
vn -0.813450 0.474098 -0.336942
vt 0.375000 0.133906
v -0.432034 0.132646 -0.179546
vn -0.813450 0.474098 -0.336942
vt 0.375000 0.152087
v -0.480242 0.109442 0.000000
vn -0.880472 0.474098 0.000000
vt 0.500000 0.133906
v -0.467748 0.132646 0.000000
vn -0.880472 0.474098 0.000000
vt 0.500000 0.152087
v -0.443577 0.109442 0.184328
vn -0.813450 0.474099 0.336942
vt 0.625000 0.133906
v -0.432034 0.132646 0.179546
vn -0.813450 0.474099 0.336942
vt 0.625000 0.152087
v -0.339164 0.109442 0.340593
vn -0.622588 0.474099 0.622587
vt 0.750000 0.133906
v -0.330329 0.132646 0.331758
vn -0.622588 0.474099 0.622587
vt 0.750000 0.152087
v -0.182899 0.109442 0.445006
vn -0.336942 0.474099 0.813450
vt 0.875000 0.133906
v -0.178117 0.132646 0.433463
vn -0.336942 0.474099 0.813450
vt 0.875000 0.152087
v 0.001428 0.109442 0.481671
vn -0.000000 0.474100 0.880471
vt 1.000000 0.133906
v 0.001428 0.132646 0.469176
vn -0.000000 0.474100 0.880471
vt 1.000000 0.152087
v 0.185756 0.109442 0.445006
vn 0.336942 0.474100 0.813449
vt 1.125000 0.133906
v 0.180974 0.132646 0.433463
vn 0.336942 0.474100 0.813449
vt 1.125000 0.152087
v 0.342021 0.109442 0.340593
vn 0.701164 0.129379 0.701164
vt 1.250000 0.133906
v 0.352118 0.000000 0.350690
vn 0.701164 0.129379 0.701164
vt 1.250000 0.048155
v 0.459627 0.000000 0.189792
vn 0.916114 0.129379 0.379467
vt 1.375000 0.048155
v 0.446434 0.109442 0.184328
vn 0.916114 0.129379 0.379467
vt 1.375000 0.133906
v 0.497379 0.000000 0.000000
vn 0.991595 0.129379 0.000000
vt 1.500000 0.048155
v 0.483099 0.109442 0.000000
vn 0.991595 0.129379 0.000000
vt 1.500000 0.133906
v 0.459627 0.000000 -0.189792
vn 0.916115 0.129379 -0.379467
vt 1.625000 0.048155
v 0.446434 0.109442 -0.184327
vn 0.916115 0.129379 -0.379467
vt 1.625000 0.133906
v 0.352118 0.000000 -0.350690
vn 0.701164 0.129379 -0.701164
vt 1.750000 0.048155
v 0.342021 0.109442 -0.340592
vn 0.701164 0.129379 -0.701164
vt 1.750000 0.133906
v 0.191220 0.000000 -0.458198
vn 0.379467 0.129379 -0.916115
vt 1.875000 0.048155
v 0.185756 0.109442 -0.445006
vn 0.379467 0.129379 -0.916115
vt 1.875000 0.133906
v 0.001429 0.000000 -0.495950
vn -0.000000 0.129378 -0.991595
vt 2.000000 0.048155
v 0.001429 0.109442 -0.481670
vn -0.000000 0.129378 -0.991595
vt 2.000000 0.133906
v -0.188363 0.000000 -0.458198
vn -0.379467 0.129378 -0.916115
vt 2.125000 0.048155
v -0.182899 0.109442 -0.445005
vn -0.379467 0.129378 -0.916115
vt 2.125000 0.133906
v -0.182899 0.109442 -0.445005
vn -0.379467 0.129378 -0.916115
vt 0.125000 0.133906
v -0.188363 0.000000 -0.458198
vn -0.379467 0.129378 -0.916115
vt 0.125000 0.048155
v -0.349261 0.000000 -0.350689
vn -0.701164 0.129379 -0.701164
vt 0.250000 0.048155
v -0.339164 0.109442 -0.340592
vn -0.701164 0.129379 -0.701164
vt 0.250000 0.133906
v -0.456770 0.000000 -0.189792
vn -0.916115 0.129379 -0.379467
vt 0.375000 0.048155
v -0.443577 0.109442 -0.184327
vn -0.916115 0.129379 -0.379467
vt 0.375000 0.133906
v -0.494522 0.000000 0.000000
vn -0.991595 0.129379 0.000000
vt 0.500000 0.048155
v -0.480242 0.109442 0.000000
vn -0.991595 0.129379 0.000000
vt 0.500000 0.133906
v -0.456770 0.000000 0.189792
vn -0.916115 0.129379 0.379467
vt 0.625000 0.048155
v -0.443577 0.109442 0.184328
vn -0.916115 0.129379 0.379467
vt 0.625000 0.133906
v -0.349261 0.000000 0.350690
vn -0.701164 0.129379 0.701164
vt 0.750000 0.048155
v -0.339164 0.109442 0.340593
vn -0.701164 0.129379 0.701164
vt 0.750000 0.133906
v -0.188363 0.000000 0.458198
vn -0.379467 0.129379 0.916114
vt 0.875000 0.048155
v -0.182899 0.109442 0.445006
vn -0.379467 0.129379 0.916114
vt 0.875000 0.133906
v 0.001428 0.000000 0.495950
vn -0.000000 0.129379 0.991595
vt 1.000000 0.048155
v 0.001428 0.109442 0.481671
vn -0.000000 0.129379 0.991595
vt 1.000000 0.133906
v 0.191220 0.000000 0.458198
vn 0.379467 0.129379 0.916114
vt 1.125000 0.048155
v 0.185756 0.109442 0.445006
vn 0.379467 0.129379 0.916114
vt 1.125000 0.133906
g Fingerhut_Low_part_0
# Submesh 0: 736 triangles
f 1/1/1 2/2/2 3/3/3
f 1/1/1 3/3/3 4/4/4
f 5/5/5 1/1/1 4/4/4
f 5/5/5 4/4/4 6/6/6
f 7/7/7 5/5/5 6/6/6
f 7/7/7 6/6/6 8/8/8
f 9/9/9 7/7/7 8/8/8
f 9/9/9 8/8/8 10/10/10
f 11/11/11 9/9/9 10/10/10
f 11/11/11 10/10/10 12/12/12
f 13/13/13 11/11/11 12/12/12
f 13/13/13 12/12/12 14/14/14
f 15/15/15 13/13/13 14/14/14
f 15/15/15 14/14/14 16/16/16
f 17/17/17 18/18/18 19/19/19
f 18/18/18 20/20/20 19/19/19
f 19/19/19 20/20/20 21/21/21
f 20/20/20 22/22/22 21/21/21
f 23/23/23 24/24/24 25/25/25
f 23/23/23 25/25/25 26/26/26
f 26/26/26 25/25/25 27/27/27
f 26/26/26 27/27/27 28/28/28
f 28/28/28 27/27/27 29/29/29
f 28/28/28 29/29/29 30/30/30
f 30/30/30 29/29/29 31/31/31
f 30/30/30 31/31/31 32/32/32
f 32/32/32 31/31/31 33/33/33
f 32/32/32 33/33/33 22/22/22
f 22/22/22 33/33/33 34/34/34
f 22/22/22 34/34/34 21/21/21
f 21/21/21 34/34/34 35/35/35
f 21/21/21 35/35/35 36/36/36
f 19/19/19 21/21/21 36/36/36
f 37/37/37 19/19/19 36/36/36
f 17/17/17 19/19/19 37/37/37
f 38/38/38 17/17/17 37/37/37
f 25/25/25 39/39/39 40/40/40
f 25/25/25 40/40/40 27/27/27
f 27/27/27 40/40/40 41/41/41
f 27/27/27 41/41/41 29/29/29
f 29/29/29 41/41/41 42/42/42
f 29/29/29 42/42/42 31/31/31
f 31/31/31 42/42/42 43/43/43
f 31/31/31 43/43/43 33/33/33
f 33/33/33 43/43/43 44/44/44
f 33/33/33 44/44/44 34/34/34
f 34/34/34 44/44/44 45/45/45
f 34/34/34 45/45/45 35/35/35
f 35/35/35 45/45/45 46/46/46
f 35/35/35 46/46/46 47/47/47
f 36/36/36 35/35/35 47/47/47
f 36/36/36 47/47/47 48/48/48
f 37/37/37 36/36/36 48/48/48
f 49/49/49 37/37/37 48/48/48
f 48/48/48 47/47/47 50/50/50
f 48/48/48 50/50/50 51/51/51
f 49/49/49 48/48/48 51/51/51
f 52/52/52 49/49/49 51/51/51
f 53/53/53 49/49/49 52/52/52
f 54/54/54 53/53/53 52/52/52
f 54/54/54 52/52/52 55/55/55
f 55/55/55 52/52/52 56/56/56
f 55/55/55 56/56/56 57/57/57
f 56/56/56 58/58/58 57/57/57
f 57/57/57 58/58/58 59/59/59
f 56/56/56 60/60/60 58/58/58
f 51/51/51 60/60/60 56/56/56
f 52/52/52 51/51/51 56/56/56
f 51/51/51 50/50/50 60/60/60
f 38/38/38 37/37/37 49/49/49
f 53/53/53 38/38/38 49/49/49
f 61/61/61 38/38/38 53/53/53
f 61/61/61 53/53/53 54/54/54
f 61/61/61 54/54/54 62/62/62
f 62/62/62 54/54/54 55/55/55
f 62/62/62 55/55/55 63/63/63
f 63/63/63 55/55/55 57/57/57
f 63/63/63 57/57/57 64/64/64
f 57/57/57 59/59/59 64/64/64
f 64/64/64 59/59/59 65/65/65
f 64/64/64 65/65/65 66/66/66
f 66/66/66 65/65/65 67/67/67
f 66/66/66 67/67/67 68/68/68
f 68/68/68 67/67/67 69/69/69
f 68/68/68 69/69/69 70/70/70
f 70/70/70 69/69/69 24/24/24
f 70/70/70 24/24/24 23/23/23
f 26/26/26 71/71/71 23/23/23
f 71/71/71 70/70/70 23/23/23
f 71/71/71 72/72/72 70/70/70
f 72/72/72 68/68/68 70/70/70
f 72/72/72 73/73/73 68/68/68
f 73/73/73 66/66/66 68/68/68
f 73/73/73 74/74/74 66/66/66
f 74/74/74 64/64/64 66/66/66
f 74/74/74 63/63/63 64/64/64
f 75/75/75 73/73/73 72/72/72
f 75/75/75 76/76/76 73/73/73
f 76/76/76 74/74/74 73/73/73
f 76/76/76 77/77/77 74/74/74
f 77/77/77 63/63/63 74/74/74
f 77/77/77 62/62/62 63/63/63
f 61/61/61 62/62/62 77/77/77
f 61/61/61 77/77/77 76/76/76
f 61/61/61 76/76/76 75/75/75
f 61/61/61 75/75/75 78/78/78
f 79/79/79 61/61/61 78/78/78
f 80/80/80 79/79/79 78/78/78
f 81/81/81 79/79/79 80/80/80
f 81/81/81 80/80/80 82/82/82
f 83/83/83 81/81/81 82/82/82
f 83/83/83 82/82/82 84/84/84
f 85/85/85 83/83/83 84/84/84
f 85/85/85 84/84/84 86/86/86
f 87/87/87 85/85/85 86/86/86
f 87/87/87 86/86/86 88/88/88
f 89/89/89 87/87/87 88/88/88
f 61/61/61 87/87/87 89/89/89
f 61/61/61 85/85/85 87/87/87
f 61/61/61 83/83/83 85/85/85
f 61/61/61 81/81/81 83/83/83
f 61/61/61 79/79/79 81/81/81
f 61/61/61 17/17/17 38/38/38
f 61/61/61 18/18/18 17/17/17
f 61/61/61 89/89/89 18/18/18
f 18/18/18 89/89/89 20/20/20
f 89/89/89 88/88/88 20/20/20
f 20/20/20 88/88/88 22/22/22
f 88/88/88 32/32/32 22/22/22
f 88/88/88 86/86/86 32/32/32
f 86/86/86 30/30/30 32/32/32
f 86/86/86 84/84/84 30/30/30
f 84/84/84 28/28/28 30/30/30
f 84/84/84 82/82/82 28/28/28
f 82/82/82 26/26/26 28/28/28
f 82/82/82 80/80/80 26/26/26
f 26/26/26 80/80/80 71/71/71
f 80/80/80 78/78/78 71/71/71
f 78/78/78 72/72/72 71/71/71
f 78/78/78 75/75/75 72/72/72
f 90/90/90 91/91/91 92/92/92
f 90/90/90 92/92/92 93/93/93
f 93/93/93 92/92/92 94/94/94
f 93/93/93 94/94/94 95/95/95
f 95/95/95 94/94/94 96/96/96
f 95/95/95 96/96/96 97/97/97
f 97/97/97 96/96/96 98/98/98
f 97/97/97 98/98/98 99/99/99
f 99/99/99 98/98/98 100/100/100
f 99/99/99 100/100/100 101/101/101
f 101/101/101 100/100/100 102/102/102
f 101/101/101 102/102/102 103/103/103
f 103/103/103 102/102/102 104/104/104
f 103/103/103 104/104/104 105/105/105
f 105/105/105 104/104/104 106/106/106
f 105/105/105 106/106/106 107/107/107
f 107/107/107 106/106/106 108/108/108
f 107/107/107 108/108/108 109/109/109
f 109/109/109 108/108/108 110/110/110
f 109/109/109 110/110/110 111/111/111
f 111/111/111 110/110/110 112/112/112
f 111/111/111 112/112/112 113/113/113
f 113/113/113 112/112/112 114/114/114
f 113/113/113 114/114/114 115/115/115
f 115/115/115 114/114/114 116/116/116
f 115/115/115 116/116/116 117/117/117
f 117/117/117 116/116/116 118/118/118
f 117/117/117 118/118/118 119/119/119
f 119/119/119 118/118/118 120/120/120
f 119/119/119 120/120/120 121/121/121
f 121/121/121 120/120/120 91/91/91
f 121/121/121 91/91/91 90/90/90
f 47/47/47 46/46/46 122/122/122
f 47/47/47 122/122/122 50/50/50
f 50/50/50 122/122/122 123/123/123
f 50/50/50 123/123/123 60/60/60
f 60/60/60 123/123/123 124/124/124
f 60/60/60 124/124/124 58/58/58
f 58/58/58 124/124/124 125/125/125
f 58/58/58 125/125/125 59/59/59
f 59/59/59 125/125/125 126/126/126
f 59/59/59 126/126/126 65/65/65
f 65/65/65 126/126/126 127/127/127
f 65/65/65 127/127/127 67/67/67
f 67/67/67 127/127/127 128/128/128
f 67/67/67 128/128/128 69/69/69
f 69/69/69 128/128/128 129/129/129
f 69/69/69 129/129/129 24/24/24
f 24/24/24 129/129/129 39/39/39
f 24/24/24 39/39/39 25/25/25
f 130/130/130 131/131/131 132/132/132
f 130/130/130 133/133/133 131/131/131
f 134/134/134 133/133/133 130/130/130
f 134/134/134 130/130/130 135/135/135
f 136/136/136 134/134/134 135/135/135
f 136/136/136 137/137/137 134/134/134
f 138/138/138 137/137/137 136/136/136
f 138/138/138 136/136/136 139/139/139
f 140/140/140 138/138/138 139/139/139
f 140/140/140 141/141/141 138/138/138
f 142/142/142 141/141/141 140/140/140
f 142/142/142 140/140/140 143/143/143
f 144/144/144 142/142/142 143/143/143
f 144/144/144 143/143/143 145/145/145
f 146/146/146 147/147/147 148/148/148
f 146/146/146 148/148/148 149/149/149
f 150/150/150 146/146/146 149/149/149
f 150/150/150 149/149/149 151/151/151
f 152/152/152 150/150/150 151/151/151
f 152/152/152 151/151/151 153/153/153
f 154/154/154 152/152/152 153/153/153
f 154/154/154 153/153/153 155/155/155
f 156/156/156 154/154/154 155/155/155
f 156/156/156 155/155/155 157/157/157
f 158/158/158 156/156/156 157/157/157
f 158/158/158 157/157/157 159/159/159
f 160/160/160 158/158/158 159/159/159
f 160/160/160 159/159/159 161/161/161
f 162/162/162 163/163/163 164/164/164
f 162/162/162 164/164/164 165/165/165
f 166/166/166 162/162/162 165/165/165
f 166/166/166 165/165/165 167/167/167
f 168/168/168 166/166/166 167/167/167
f 168/168/168 167/167/167 169/169/169
f 170/170/170 168/168/168 169/169/169
f 170/170/170 169/169/169 171/171/171
f 172/172/172 170/170/170 171/171/171
f 172/172/172 171/171/171 173/173/173
f 174/174/174 172/172/172 173/173/173
f 174/174/174 173/173/173 175/175/175
f 176/176/176 174/174/174 175/175/175
f 176/176/176 175/175/175 177/177/177
f 178/178/178 179/179/179 180/180/180
f 178/178/178 180/180/180 181/181/181
f 182/182/182 178/178/178 181/181/181
f 182/182/182 181/181/181 183/183/183
f 184/184/184 182/182/182 183/183/183
f 184/184/184 183/183/183 185/185/185
f 186/186/186 184/184/184 185/185/185
f 186/186/186 185/185/185 187/187/187
f 188/188/188 186/186/186 187/187/187
f 188/188/188 187/187/187 189/189/189
f 190/190/190 188/188/188 189/189/189
f 190/190/190 189/189/189 191/191/191
f 192/192/192 190/190/190 191/191/191
f 192/192/192 191/191/191 193/193/193
f 194/194/194 195/195/195 196/196/196
f 194/194/194 196/196/196 197/197/197
f 198/198/198 194/194/194 197/197/197
f 198/198/198 197/197/197 199/199/199
f 200/200/200 198/198/198 199/199/199
f 200/200/200 199/199/199 201/201/201
f 202/202/202 200/200/200 201/201/201
f 202/202/202 201/201/201 203/203/203
f 204/204/204 202/202/202 203/203/203
f 204/204/204 203/203/203 205/205/205
f 206/206/206 204/204/204 205/205/205
f 206/206/206 205/205/205 207/207/207
f 208/208/208 206/206/206 207/207/207
f 208/208/208 207/207/207 209/209/209
f 210/210/210 211/211/211 212/212/212
f 210/210/210 212/212/212 213/213/213
f 214/214/214 210/210/210 213/213/213
f 214/214/214 213/213/213 215/215/215
f 216/216/216 214/214/214 215/215/215
f 216/216/216 215/215/215 217/217/217
f 218/218/218 216/216/216 217/217/217
f 218/218/218 217/217/217 219/219/219
f 220/220/220 218/218/218 219/219/219
f 220/220/220 219/219/219 221/221/221
f 222/222/222 220/220/220 221/221/221
f 222/222/222 221/221/221 223/223/223
f 224/224/224 222/222/222 223/223/223
f 224/224/224 223/223/223 225/225/225
f 226/226/226 227/227/227 228/228/228
f 226/226/226 228/228/228 229/229/229
f 230/230/230 226/226/226 229/229/229
f 230/230/230 229/229/229 231/231/231
f 232/232/232 230/230/230 231/231/231
f 232/232/232 231/231/231 233/233/233
f 234/234/234 232/232/232 233/233/233
f 234/234/234 233/233/233 235/235/235
f 236/236/236 234/234/234 235/235/235
f 236/236/236 235/235/235 237/237/237
f 238/238/238 236/236/236 237/237/237
f 238/238/238 237/237/237 239/239/239
f 240/240/240 238/238/238 239/239/239
f 240/240/240 239/239/239 241/241/241
f 242/242/242 243/243/243 244/244/244
f 242/242/242 244/244/244 245/245/245
f 246/246/246 242/242/242 245/245/245
f 246/246/246 245/245/245 247/247/247
f 248/248/248 246/246/246 247/247/247
f 248/248/248 247/247/247 249/249/249
f 250/250/250 248/248/248 249/249/249
f 250/250/250 249/249/249 251/251/251
f 252/252/252 250/250/250 251/251/251
f 252/252/252 251/251/251 253/253/253
f 254/254/254 252/252/252 253/253/253
f 254/254/254 253/253/253 255/255/255
f 256/256/256 254/254/254 255/255/255
f 256/256/256 255/255/255 257/257/257
f 258/258/258 259/259/259 260/260/260
f 258/258/258 260/260/260 261/261/261
f 262/262/262 258/258/258 261/261/261
f 262/262/262 261/261/261 263/263/263
f 264/264/264 262/262/262 263/263/263
f 264/264/264 263/263/263 265/265/265
f 266/266/266 264/264/264 265/265/265
f 266/266/266 265/265/265 267/267/267
f 268/268/268 266/266/266 267/267/267
f 268/268/268 267/267/267 269/269/269
f 270/270/270 268/268/268 269/269/269
f 270/270/270 269/269/269 271/271/271
f 272/272/272 270/270/270 271/271/271
f 272/272/272 271/271/271 273/273/273
f 274/274/274 275/275/275 276/276/276
f 274/274/274 276/276/276 277/277/277
f 278/278/278 274/274/274 277/277/277
f 278/278/278 277/277/277 279/279/279
f 280/280/280 278/278/278 279/279/279
f 280/280/280 279/279/279 281/281/281
f 282/282/282 280/280/280 281/281/281
f 282/282/282 281/281/281 283/283/283
f 284/284/284 282/282/282 283/283/283
f 284/284/284 283/283/283 285/285/285
f 286/286/286 284/284/284 285/285/285
f 286/286/286 285/285/285 287/287/287
f 288/288/288 286/286/286 287/287/287
f 288/288/288 287/287/287 289/289/289
f 290/290/290 291/291/291 292/292/292
f 290/290/290 292/292/292 293/293/293
f 294/294/294 290/290/290 293/293/293
f 294/294/294 293/293/293 295/295/295
f 296/296/296 294/294/294 295/295/295
f 296/296/296 295/295/295 297/297/297
f 298/298/298 296/296/296 297/297/297
f 298/298/298 297/297/297 299/299/299
f 300/300/300 298/298/298 299/299/299
f 300/300/300 299/299/299 301/301/301
f 302/302/302 300/300/300 301/301/301
f 302/302/302 301/301/301 303/303/303
f 304/304/304 302/302/302 303/303/303
f 304/304/304 303/303/303 305/305/305
f 306/306/306 307/307/307 308/308/308
f 306/306/306 308/308/308 309/309/309
f 310/310/310 306/306/306 309/309/309
f 310/310/310 309/309/309 311/311/311
f 312/312/312 310/310/310 311/311/311
f 312/312/312 311/311/311 313/313/313
f 314/314/314 312/312/312 313/313/313
f 314/314/314 313/313/313 315/315/315
f 316/316/316 314/314/314 315/315/315
f 316/316/316 315/315/315 317/317/317
f 318/318/318 316/316/316 317/317/317
f 318/318/318 317/317/317 319/319/319
f 320/320/320 318/318/318 319/319/319
f 320/320/320 319/319/319 321/321/321
f 322/322/322 323/323/323 324/324/324
f 322/322/322 324/324/324 325/325/325
f 326/326/326 322/322/322 325/325/325
f 326/326/326 325/325/325 327/327/327
f 328/328/328 326/326/326 327/327/327
f 328/328/328 327/327/327 329/329/329
f 330/330/330 328/328/328 329/329/329
f 330/330/330 329/329/329 331/331/331
f 332/332/332 330/330/330 331/331/331
f 332/332/332 331/331/331 333/333/333
f 334/334/334 332/332/332 333/333/333
f 334/334/334 333/333/333 335/335/335
f 336/336/336 334/334/334 335/335/335
f 336/336/336 335/335/335 337/337/337
f 338/338/338 339/339/339 340/340/340
f 338/338/338 340/340/340 341/341/341
f 342/342/342 338/338/338 341/341/341
f 342/342/342 341/341/341 343/343/343
f 344/344/344 342/342/342 343/343/343
f 344/344/344 343/343/343 345/345/345
f 346/346/346 344/344/344 345/345/345
f 346/346/346 345/345/345 347/347/347
f 348/348/348 346/346/346 347/347/347
f 348/348/348 347/347/347 349/349/349
f 350/350/350 348/348/348 349/349/349
f 350/350/350 349/349/349 351/351/351
f 352/352/352 350/350/350 351/351/351
f 352/352/352 351/351/351 353/353/353
f 354/354/354 355/355/355 356/356/356
f 354/354/354 356/356/356 357/357/357
f 358/358/358 354/354/354 357/357/357
f 358/358/358 357/357/357 359/359/359
f 360/360/360 358/358/358 359/359/359
f 360/360/360 359/359/359 361/361/361
f 362/362/362 360/360/360 361/361/361
f 362/362/362 361/361/361 363/363/363
f 364/364/364 362/362/362 363/363/363
f 364/364/364 363/363/363 365/365/365
f 366/366/366 364/364/364 365/365/365
f 366/366/366 365/365/365 367/367/367
f 368/368/368 366/366/366 367/367/367
f 368/368/368 367/367/367 369/369/369
f 370/370/370 371/371/371 372/372/372
f 372/372/372 371/371/371 373/373/373
f 372/372/372 373/373/373 374/374/374
f 374/374/374 373/373/373 375/375/375
f 374/374/374 375/375/375 376/376/376
f 376/376/376 375/375/375 377/377/377
f 376/376/376 377/377/377 378/378/378
f 378/378/378 377/377/377 379/379/379
f 378/378/378 379/379/379 380/380/380
f 381/381/381 380/380/380 379/379/379
f 381/381/381 379/379/379 382/382/382
f 381/381/381 382/382/382 383/383/383
f 381/381/381 383/383/383 384/384/384
f 384/384/384 383/383/383 385/385/385
f 384/384/384 385/385/385 386/386/386
f 375/375/375 373/373/373 387/387/387
f 375/375/375 387/387/387 388/388/388
f 377/377/377 375/375/375 388/388/388
f 377/377/377 388/388/388 389/389/389
f 379/379/379 377/377/377 389/389/389
f 379/379/379 389/389/389 390/390/390
f 382/382/382 379/379/379 390/390/390
f 382/382/382 390/390/390 391/391/391
f 383/383/383 382/382/382 391/391/391
f 383/383/383 391/391/391 392/392/392
f 385/385/385 383/383/383 392/392/392
f 385/385/385 392/392/392 393/393/393
f 385/385/385 393/393/393 394/394/394
f 393/393/393 395/395/395 394/394/394
f 396/396/396 394/394/394 395/395/395
f 396/396/396 395/395/395 397/397/397
f 398/398/398 396/396/396 397/397/397
f 398/398/398 397/397/397 399/399/399
f 390/390/390 389/389/389 400/400/400
f 390/390/390 400/400/400 401/401/401
f 391/391/391 390/390/390 401/401/401
f 391/391/391 401/401/401 402/402/402
f 392/392/392 391/391/391 402/402/402
f 392/392/392 402/402/402 403/403/403
f 393/393/393 392/392/392 403/403/403
f 393/393/393 403/403/403 404/404/404
f 393/393/393 404/404/404 395/395/395
f 404/404/404 405/405/405 395/395/395
f 397/397/397 395/395/395 405/405/405
f 397/397/397 405/405/405 406/406/406
f 399/399/399 397/397/397 406/406/406
f 399/399/399 406/406/406 407/407/407
f 408/408/408 399/399/399 407/407/407
f 408/408/408 407/407/407 409/409/409
f 410/410/410 408/408/408 409/409/409
f 410/410/410 409/409/409 411/411/411
f 403/403/403 402/402/402 412/412/412
f 403/403/403 412/412/412 413/413/413
f 404/404/404 403/403/403 413/413/413
f 404/404/404 413/413/413 414/414/414
f 404/404/404 414/414/414 405/405/405
f 414/414/414 415/415/415 405/405/405
f 406/406/406 405/405/405 415/415/415
f 406/406/406 415/415/415 416/416/416
f 407/407/407 406/406/406 416/416/416
f 407/407/407 416/416/416 417/417/417
f 409/409/409 407/407/407 417/417/417
f 409/409/409 417/417/417 418/418/418
f 411/411/411 409/409/409 418/418/418
f 411/411/411 418/418/418 419/419/419
f 420/420/420 411/411/411 419/419/419
f 420/420/420 419/419/419 421/421/421
f 422/422/422 420/420/420 421/421/421
f 422/422/422 421/421/421 423/423/423
f 414/414/414 424/424/424 415/415/415
f 424/424/424 425/425/425 415/415/415
f 416/416/416 415/415/415 425/425/425
f 416/416/416 425/425/425 426/426/426
f 417/417/417 416/416/416 426/426/426
f 417/417/417 426/426/426 427/427/427
f 418/418/418 417/417/417 427/427/427
f 418/418/418 427/427/427 428/428/428
f 419/419/419 418/418/418 428/428/428
f 419/419/419 428/428/428 429/429/429
f 421/421/421 419/419/419 429/429/429
f 421/421/421 429/429/429 430/430/430
f 423/423/423 421/421/421 430/430/430
f 423/423/423 430/430/430 431/431/431
f 432/432/432 423/423/423 431/431/431
f 432/432/432 431/431/431 433/433/433
f 434/434/434 432/432/432 433/433/433
f 434/434/434 433/433/433 435/435/435
f 427/427/427 426/426/426 436/436/436
f 427/427/427 436/436/436 437/437/437
f 428/428/428 427/427/427 437/437/437
f 428/428/428 437/437/437 438/438/438
f 429/429/429 428/428/428 438/438/438
f 429/429/429 438/438/438 439/439/439
f 430/430/430 429/429/429 439/439/439
f 430/430/430 439/439/439 440/440/440
f 431/431/431 430/430/430 440/440/440
f 431/431/431 440/440/440 441/441/441
f 433/433/433 431/431/431 441/441/441
f 433/433/433 441/441/441 442/442/442
f 435/435/435 433/433/433 442/442/442
f 435/435/435 442/442/442 443/443/443
f 444/444/444 435/435/435 443/443/443
f 444/444/444 443/443/443 445/445/445
f 446/446/446 444/444/444 445/445/445
f 446/446/446 445/445/445 447/447/447
f 448/448/448 446/446/446 447/447/447
f 448/448/448 447/447/447 449/449/449
f 450/450/450 448/448/448 449/449/449
f 450/450/450 449/449/449 451/451/451
f 452/452/452 450/450/450 451/451/451
f 452/452/452 451/451/451 453/453/453
f 454/454/454 452/452/452 453/453/453
f 454/454/454 453/453/453 455/455/455
f 456/456/456 454/454/454 455/455/455
f 456/456/456 455/455/455 457/457/457
f 456/456/456 457/457/457 458/458/458
f 457/457/457 459/459/459 458/458/458
f 458/458/458 459/459/459 436/436/436
f 436/436/436 459/459/459 437/437/437
f 437/437/437 459/459/459 438/438/438
f 438/438/438 459/459/459 439/439/439
f 439/439/439 459/459/459 440/440/440
f 440/440/440 459/459/459 441/441/441
f 441/441/441 459/459/459 442/442/442
f 442/442/442 459/459/459 443/443/443
f 443/443/443 459/459/459 445/445/445
f 445/445/445 459/459/459 447/447/447
f 447/447/447 459/459/459 449/449/449
f 449/449/449 459/459/459 451/451/451
f 451/451/451 459/459/459 453/453/453
f 453/453/453 459/459/459 455/455/455
f 455/455/455 459/459/459 457/457/457
f 460/460/460 434/434/434 435/435/435
f 460/460/460 435/435/435 444/444/444
f 461/461/461 460/460/460 444/444/444
f 461/461/461 444/444/444 446/446/446
f 462/462/462 461/461/461 446/446/446
f 462/462/462 446/446/446 448/448/448
f 463/463/463 462/462/462 448/448/448
f 463/463/463 448/448/448 450/450/450
f 464/464/464 463/463/463 450/450/450
f 464/464/464 450/450/450 452/452/452
f 465/465/465 464/464/464 452/452/452
f 465/465/465 452/452/452 454/454/454
f 424/424/424 465/465/465 454/454/454
f 424/424/424 454/454/454 456/456/456
f 424/424/424 456/456/456 425/425/425
f 456/456/456 458/458/458 425/425/425
f 426/426/426 425/425/425 458/458/458
f 426/426/426 458/458/458 436/436/436
f 466/466/466 422/422/422 423/423/423
f 466/466/466 423/423/423 432/432/432
f 467/467/467 466/466/466 432/432/432
f 467/467/467 432/432/432 434/434/434
f 468/468/468 467/467/467 434/434/434
f 468/468/468 434/434/434 460/460/460
f 469/469/469 468/468/468 460/460/460
f 469/469/469 460/460/460 461/461/461
f 470/470/470 469/469/469 461/461/461
f 470/470/470 461/461/461 462/462/462
f 471/471/471 470/470/470 462/462/462
f 471/471/471 462/462/462 463/463/463
f 412/412/412 471/471/471 463/463/463
f 412/412/412 463/463/463 464/464/464
f 413/413/413 412/412/412 464/464/464
f 413/413/413 464/464/464 465/465/465
f 414/414/414 413/413/413 465/465/465
f 414/414/414 465/465/465 424/424/424
f 472/472/472 410/410/410 411/411/411
f 472/472/472 411/411/411 420/420/420
f 473/473/473 472/472/472 420/420/420
f 473/473/473 420/420/420 422/422/422
f 474/474/474 473/473/473 422/422/422
f 474/474/474 422/422/422 466/466/466
f 475/475/475 474/474/474 466/466/466
f 475/475/475 466/466/466 467/467/467
f 476/476/476 475/475/475 467/467/467
f 476/476/476 467/467/467 468/468/468
f 477/477/477 476/476/476 468/468/468
f 477/477/477 468/468/468 469/469/469
f 400/400/400 477/477/477 469/469/469
f 400/400/400 469/469/469 470/470/470
f 401/401/401 400/400/400 470/470/470
f 401/401/401 470/470/470 471/471/471
f 402/402/402 401/401/401 471/471/471
f 402/402/402 471/471/471 412/412/412
f 478/478/478 398/398/398 399/399/399
f 478/478/478 399/399/399 408/408/408
f 479/479/479 478/478/478 408/408/408
f 479/479/479 408/408/408 410/410/410
f 480/480/480 479/479/479 410/410/410
f 480/480/480 410/410/410 472/472/472
f 481/481/481 480/480/480 472/472/472
f 481/481/481 472/472/472 473/473/473
f 482/482/482 481/481/481 473/473/473
f 482/482/482 473/473/473 474/474/474
f 483/483/483 482/482/482 474/474/474
f 483/483/483 474/474/474 475/475/475
f 387/387/387 483/483/483 475/475/475
f 387/387/387 475/475/475 476/476/476
f 388/388/388 387/387/387 476/476/476
f 388/388/388 476/476/476 477/477/477
f 389/389/389 388/388/388 477/477/477
f 389/389/389 477/477/477 400/400/400
f 484/484/484 485/485/485 394/394/394
f 484/484/484 394/394/394 396/396/396
f 486/486/486 484/484/484 396/396/396
f 486/486/486 396/396/396 398/398/398
f 487/487/487 486/486/486 398/398/398
f 487/487/487 398/398/398 478/478/478
f 488/488/488 487/487/487 478/478/478
f 488/488/488 478/478/478 479/479/479
f 489/489/489 488/488/488 479/479/479
f 489/489/489 479/479/479 480/480/480
f 490/490/490 489/489/489 480/480/480
f 490/490/490 480/480/480 481/481/481
f 491/491/491 490/490/490 481/481/481
f 491/491/491 481/481/481 482/482/482
f 371/371/371 491/491/491 482/482/482
f 371/371/371 482/482/482 483/483/483
f 373/373/373 371/371/371 483/483/483
f 373/373/373 483/483/483 387/387/387
f 385/385/385 394/394/394 485/485/485
f 386/386/386 385/385/385 485/485/485
f 386/386/386 485/485/485 492/492/492
f 492/492/492 485/485/485 484/484/484
f 492/492/492 484/484/484 493/493/493
f 493/493/493 484/484/484 486/486/486
f 493/493/493 486/486/486 494/494/494
f 494/494/494 486/486/486 487/487/487
f 494/494/494 487/487/487 495/495/495
f 495/495/495 487/487/487 488/488/488
f 495/495/495 488/488/488 496/496/496
f 496/496/496 488/488/488 489/489/489
f 496/496/496 489/489/489 497/497/497
f 497/497/497 489/489/489 490/490/490
f 497/497/497 490/490/490 498/498/498
f 498/498/498 490/490/490 491/491/491
f 498/498/498 491/491/491 370/370/370
f 370/370/370 491/491/491 371/371/371
f 499/499/499 500/500/500 501/501/501
f 499/499/499 501/501/501 502/502/502
f 502/502/502 501/501/501 370/370/370
f 502/502/502 370/370/370 503/503/503
f 503/503/503 370/370/370 504/504/504
f 503/503/503 504/504/504 505/505/505
f 505/505/505 504/504/504 506/506/506
f 505/505/505 506/506/506 507/507/507
f 507/507/507 506/506/506 508/508/508
f 507/507/507 508/508/508 509/509/509
f 509/509/509 508/508/508 510/510/510
f 509/509/509 510/510/510 511/511/511
f 511/511/511 510/510/510 512/512/512
f 511/511/511 512/512/512 513/513/513
f 513/513/513 512/512/512 514/514/514
f 513/513/513 514/514/514 515/515/515
f 515/515/515 514/514/514 516/516/516
f 515/515/515 516/516/516 517/517/517
f 517/517/517 516/516/516 386/386/386
f 517/517/517 386/386/386 518/518/518
f 518/518/518 386/386/386 519/519/519
f 518/518/518 519/519/519 520/520/520
f 520/520/520 519/519/519 521/521/521
f 520/520/520 521/521/521 522/522/522
f 522/522/522 521/521/521 523/523/523
f 522/522/522 523/523/523 524/524/524
f 524/524/524 523/523/523 525/525/525
f 524/524/524 525/525/525 526/526/526
f 526/526/526 525/525/525 527/527/527
f 526/526/526 527/527/527 528/528/528
f 528/528/528 527/527/527 500/500/500
f 528/528/528 500/500/500 499/499/499
f 529/529/529 530/530/530 531/531/531
f 529/529/529 531/531/531 532/532/532
f 532/532/532 531/531/531 533/533/533
f 532/532/532 533/533/533 534/534/534
f 534/534/534 533/533/533 535/535/535
f 534/534/534 535/535/535 536/536/536
f 536/536/536 535/535/535 537/537/537
f 536/536/536 537/537/537 538/538/538
f 538/538/538 537/537/537 539/539/539
f 538/538/538 539/539/539 540/540/540
f 540/540/540 539/539/539 541/541/541
f 540/540/540 541/541/541 542/542/542
f 542/542/542 541/541/541 543/543/543
f 542/542/542 543/543/543 544/544/544
f 545/545/545 546/546/546 547/547/547
f 545/545/545 547/547/547 548/548/548
f 548/548/548 547/547/547 549/549/549
f 548/548/548 549/549/549 550/550/550
f 550/550/550 549/549/549 551/551/551
f 550/550/550 551/551/551 552/552/552
f 552/552/552 551/551/551 553/553/553
f 552/552/552 553/553/553 554/554/554
f 554/554/554 553/553/553 555/555/555
f 554/554/554 555/555/555 556/556/556
f 556/556/556 555/555/555 557/557/557
f 556/556/556 557/557/557 558/558/558
f 558/558/558 557/557/557 559/559/559
f 558/558/558 559/559/559 560/560/560
f 560/560/560 559/559/559 561/561/561
f 560/560/560 561/561/561 562/562/562
f 562/562/562 561/561/561 530/530/530
f 562/562/562 530/530/530 529/529/529
f 563/563/563 564/564/564 565/565/565
f 563/563/563 565/565/565 566/566/566
f 566/566/566 565/565/565 567/567/567
f 566/566/566 567/567/567 568/568/568
f 568/568/568 567/567/567 569/569/569
f 568/568/568 569/569/569 570/570/570
f 570/570/570 569/569/569 571/571/571
f 570/570/570 571/571/571 572/572/572
f 572/572/572 571/571/571 573/573/573
f 572/572/572 573/573/573 574/574/574
f 574/574/574 573/573/573 575/575/575
f 574/574/574 575/575/575 576/576/576
f 576/576/576 575/575/575 577/577/577
f 576/576/576 577/577/577 578/578/578
f 579/579/579 580/580/580 581/581/581
f 579/579/579 581/581/581 582/582/582
f 582/582/582 581/581/581 583/583/583
f 582/582/582 583/583/583 584/584/584
f 584/584/584 583/583/583 585/585/585
f 584/584/584 585/585/585 586/586/586
f 586/586/586 585/585/585 587/587/587
f 586/586/586 587/587/587 588/588/588
f 588/588/588 587/587/587 589/589/589
f 588/588/588 589/589/589 590/590/590
f 590/590/590 589/589/589 591/591/591
f 590/590/590 591/591/591 592/592/592
f 592/592/592 591/591/591 593/593/593
f 592/592/592 593/593/593 594/594/594
f 594/594/594 593/593/593 595/595/595
f 594/594/594 595/595/595 596/596/596
f 596/596/596 595/595/595 564/564/564
f 596/596/596 564/564/564 563/563/563
