# Converted from HGS (Mercury 3D Engine)
# Model: Schuh_Low
o Schuh_Low

# Submesh 0: 677 vertices
v 0.073460 0.974777 -0.756311
vn 0.917491 0.391136 -0.072261
vt 0.646987 0.505036
v 0.171074 0.877854 -0.681287
vn 0.744599 0.404221 -0.531204
vt 0.611422 0.459089
v 0.085120 0.976561 -0.819978
vn 0.959077 0.070714 -0.274173
vt 0.677169 0.505881
v 0.085120 0.976561 -0.819978
vn 0.959077 0.070714 -0.274173
vt 0.677169 0.505881
v 0.043287 0.983303 -0.876779
vn 0.462435 -0.514094 -0.722399
vt 0.704096 0.509078
v 0.042642 1.058119 -0.937808
vn 0.429470 -0.561651 -0.707180
vt 0.733027 0.544544
v 0.084846 1.052462 -0.889979
vn 0.958875 -0.183820 -0.216260
vt 0.710354 0.541862
v -0.000000 -0.006804 1.033143
vn 0.000000 -1.000000 -0.000000
vt 0.740757 0.851012
v 0.197795 -0.006804 0.741638
vn -0.003117 -0.999963 0.008076
vt 0.622833 0.770997
v 0.109531 -0.006804 1.013506
vn -0.003864 -0.999993 -0.000102
vt 0.732813 0.806702
v 0.292875 -0.008165 0.741638
vn -0.006478 -0.999960 0.006117
vt 0.622833 0.732533
v 0.335354 -0.009206 0.606383
vn -0.002120 -0.999972 0.007137
vt 0.568118 0.715349
v 0.193220 -0.006804 0.914881
vn -0.007727 -0.999970 -0.000204
vt 0.692916 0.772847
v -0.000000 -0.006804 0.741638
vn 0.000000 -0.999950 0.010034
vt 0.622833 0.851012
v -0.197795 -0.006804 0.741638
vn 0.003117 -0.999963 0.008076
vt 0.622833 0.931026
v -0.109531 -0.006804 1.013506
vn 0.003864 -0.999993 -0.000102
vt 0.732813 0.895321
v -0.292875 -0.008165 0.741638
vn 0.006478 -0.999960 0.006117
vt 0.622833 0.969490
v -0.193220 -0.006804 0.914881
vn 0.007727 -0.999970 -0.000204
vt 0.692916 0.929176
v -0.335354 -0.009206 0.606383
vn 0.002120 -0.999972 0.007137
vt 0.568118 0.986674
v -0.210284 -0.009416 0.606383
vn 0.000824 -0.999962 0.008743
vt 0.568118 0.936079
v -0.000000 -0.009615 0.606383
vn 0.000000 -0.999946 0.010348
vt 0.568118 0.851012
v 0.210284 -0.009416 0.606383
vn -0.000824 -0.999962 0.008743
vt 0.568118 0.765944
v -0.000000 -0.009615 0.442437
vn 0.000000 -0.999998 -0.002082
vt 0.501796 0.851012
v 0.225423 -0.009615 0.442437
vn 0.001071 -0.999996 -0.002741
vt 0.501796 0.759820
v 0.190987 -0.008458 0.311636
vn 0.002802 -0.999993 -0.002580
vt 0.448883 0.773751
v -0.000000 -0.009615 0.311636
vn 0.000000 -0.999999 -0.001591
vt 0.448883 0.851012
v -0.190987 -0.008458 0.311636
vn -0.002802 -0.999993 -0.002580
vt 0.448883 0.928273
v -0.225423 -0.009615 0.442437
vn -0.001071 -0.999996 -0.002741
vt 0.501796 0.942203
v -0.351502 -0.009577 0.442437
vn -0.000524 -0.999994 -0.003400
vt 0.501796 0.993206
v -0.326005 -0.008480 0.311636
vn -0.001184 -0.999992 -0.003931
vt 0.448883 0.982892
v -0.307313 -0.008290 0.180835
vn -0.002307 -0.999997 0.000774
vt 0.395969 0.975331
v -0.156552 -0.008972 0.180835
vn -0.003515 -0.999994 0.000265
vt 0.395969 0.914342
v -0.000000 -0.009313 0.180835
vn -0.000000 -0.999997 -0.002315
vt 0.395969 0.851012
v 0.156552 -0.008972 0.180835
vn 0.003515 -0.999994 0.000265
vt 0.395969 0.787681
v 0.307313 -0.008290 0.180835
vn 0.002307 -0.999997 0.000774
vt 0.395969 0.726692
v 0.326005 -0.008480 0.311636
vn 0.001184 -0.999992 -0.003931
vt 0.448883 0.719131
v 0.351502 -0.009577 0.442437
vn 0.000524 -0.999994 -0.003400
vt 0.501796 0.708817
v -0.065335 1.048353 -0.804197
vn -0.995985 -0.012447 -0.088656
vt 0.669688 0.539915
v -0.068482 1.228331 -0.905147
vn -0.988325 -0.134317 -0.071924
vt 0.717544 0.625234
v -0.090474 1.207992 -0.998394
vn -0.958386 -0.159208 -0.236956
vt 0.761748 0.615592
v -0.084846 1.052462 -0.889979
vn -0.958875 -0.183820 -0.216260
vt 0.710354 0.541862
v -0.068482 1.228331 -0.905147
vn -0.988325 -0.134317 -0.071924
vt 0.717544 0.625234
v -0.101884 1.348933 -0.959127
vn -0.955159 0.254135 -0.151944
vt 0.743133 0.682406
v -0.092105 1.314505 -1.014794
vn -0.892732 0.213027 -0.397050
vt 0.769522 0.666085
v -0.090474 1.207992 -0.998394
vn -0.958386 -0.159208 -0.236956
vt 0.761748 0.615592
v -0.073460 0.974777 -0.756311
vn -0.917491 0.391136 -0.072261
vt 0.646987 0.505036
v -0.065335 1.048353 -0.804197
vn -0.995985 -0.012447 -0.088656
vt 0.669688 0.539915
v -0.084846 1.052462 -0.889979
vn -0.958875 -0.183820 -0.216260
vt 0.710354 0.541862
v -0.085120 0.976561 -0.819978
vn -0.959077 0.070714 -0.274173
vt 0.677169 0.505881
v -0.107581 1.342935 -0.893631
vn -0.910362 0.399256 0.108793
vt 0.712084 0.679562
v -0.068207 1.384298 -0.900571
vn -0.442234 0.887187 0.131636
vt 0.715375 0.699171
v -0.068207 1.379032 -0.962252
vn -0.467747 0.855842 -0.220788
vt 0.744615 0.696675
v -0.101884 1.348933 -0.959127
vn -0.955159 0.254135 -0.151944
vt 0.743133 0.682406
v -0.177123 0.505833 0.179950
vn 0.901931 0.271671 -0.335731
vt 0.453457 0.340533
v -0.218423 0.369381 0.188339
vn 0.859723 0.074540 -0.505292
vt 0.471290 0.327180
v -0.218423 0.383610 0.086734
vn 0.996129 0.002852 -0.087854
vt 0.478669 0.327702
v -0.203013 0.589183 0.097723
vn 0.979949 0.195136 0.040264
vt 0.446667 0.356648
v -0.202216 0.248551 0.150977
vn 0.570506 0.714663 -0.404698
vt 0.485964 0.313041
v -0.202216 0.242227 0.049373
vn 0.660280 0.751006 -0.004459
vt 0.497905 0.310102
v -0.202216 0.242672 0.015016
vn 0.674346 0.737627 0.034101
vt 0.502443 0.309713
v -0.218423 0.421736 0.052378
vn 0.995144 0.050011 -0.084775
vt 0.477166 0.332751
v -0.214474 0.633618 0.051595
vn 0.980744 0.171432 -0.093552
vt 0.441881 0.367589
v -0.293816 0.876071 0.005691
vn 0.773060 0.556485 0.304472
vt 0.417991 0.406419
v -0.270897 0.790677 0.013438
vn 0.955260 0.238107 -0.175450
vt 0.424792 0.396253
v -0.296111 0.807507 -0.088888
vn 0.969104 0.225289 -0.100408
vt 0.429110 0.409875
v -0.249041 0.737045 0.066388
vn 0.796252 0.405864 0.448616
vt 0.428811 0.383446
v -0.249460 0.710804 0.020685
vn 0.960919 0.197742 -0.193734
vt 0.433437 0.384232
v -0.218423 0.480305 -0.015722
vn 0.988803 0.111273 -0.099434
vt 0.475478 0.343324
v -0.202216 0.243232 -0.053084
vn 0.684542 0.728894 -0.010718
vt 0.512614 0.310158
v -0.141552 0.243610 -0.053084
vn 0.010240 0.999791 -0.017698
vt 0.512648 0.299569
v -0.141552 0.243164 0.015016
vn -0.004992 0.999955 0.008098
vt 0.501141 0.300855
v -0.141552 0.242833 0.049373
vn -0.020753 0.998559 -0.049499
vt 0.496229 0.302092
v -0.141552 0.252638 0.150977
vn 0.065469 0.855024 -0.514439
vt 0.483475 0.307376
v -0.152896 0.369078 0.238463
vn 0.291471 0.236729 -0.926825
vt 0.465201 0.322973
v -0.149444 0.494691 0.224746
vn 0.383873 0.298818 -0.873699
vt 0.451293 0.337030
v -0.126471 0.241060 -0.614217
vn 0.357506 0.733035 0.578662
vt 0.555651 0.382202
v -0.235995 0.238153 -0.421944
vn 0.704320 0.705116 0.082124
vt 0.548447 0.357362
v -0.141552 0.239724 -0.421944
vn 0.009854 0.999934 0.005892
vt 0.562208 0.358532
v -0.187236 0.241060 -0.565396
vn 0.769863 0.434917 0.467075
vt 0.551770 0.375224
v -0.178621 0.467420 -0.562061
vn 0.878877 0.003545 0.477035
vt 0.527025 0.400887
v -0.225679 0.476071 -0.384583
vn 0.989337 0.059407 0.132978
vt 0.518091 0.383322
v -0.252554 0.661636 -0.348176
vn 0.968198 0.202626 0.146752
vt 0.476013 0.415974
v -0.279691 0.721372 -0.098468
vn 0.973659 0.214316 -0.077826
vt 0.440089 0.399410
v -0.230571 0.499053 -0.134875
vn 0.990109 0.129199 -0.054696
vt 0.487394 0.355905
v -0.202216 0.243415 -0.172237
vn 0.695307 0.717228 -0.046171
vt 0.532827 0.318200
v -0.141552 0.236865 -0.172237
vn 0.021971 0.999540 -0.020921
vt 0.539153 0.307238
v -0.000000 0.243429 0.015016
vn -0.000000 0.999977 0.006855
vt 0.489143 0.279472
v -0.000000 0.243211 0.049373
vn -0.000000 0.997879 -0.065099
vt 0.485163 0.283451
v -0.000000 0.243762 -0.053084
vn -0.000000 0.999679 -0.025334
vt 0.498213 0.270402
v -0.000000 0.237054 -0.172237
vn -0.000000 0.999697 -0.024599
vt 0.517639 0.250976
v 0.000000 0.237786 -0.421944
vn -0.000000 0.999954 0.009577
vt 0.585118 0.370857
v 0.000000 0.241060 -0.624571
vn -0.000000 0.760828 0.648954
vt 0.565341 0.390634
v -0.152896 0.467420 -0.599738
vn 0.599437 0.021569 0.800131
vt 0.528976 0.404656
v -0.198189 0.670843 -0.540346
vn 0.873321 0.122957 0.471372
vt 0.494477 0.429199
v -0.283631 0.750845 -0.332587
vn 0.955114 0.268451 0.125261
vt 0.459559 0.426906
v -0.312835 0.924929 -0.075829
vn 0.702155 0.708351 -0.072232
vt 0.418205 0.419781
v -0.310815 0.828879 -0.318951
vn 0.668890 0.743167 0.017007
vt 0.448950 0.433297
v 0.000000 0.467420 -0.685533
vn -0.000000 0.045054 0.998985
vt 0.538325 0.417650
v -0.163950 0.670843 -0.582436
vn 0.632725 0.024498 0.773989
vt 0.498940 0.432250
v -0.242507 0.788899 -0.521199
vn 0.835109 0.204579 0.510627
vt 0.475568 0.440844
v -0.265833 0.851033 -0.511122
vn 0.580372 0.630060 0.515938
vt 0.467361 0.445392
v -0.172824 0.821053 -0.589659
vn 0.562316 0.056166 0.825013
vt 0.480359 0.450086
v -0.154846 0.891156 -0.612376
vn 0.338675 0.383026 0.859413
vt 0.476093 0.457928
v 0.000000 0.804946 -0.674310
vn -0.000000 0.007730 0.999970
vt 0.497470 0.458505
v 0.000000 0.865364 -0.658135
vn 0.000000 0.101698 0.994815
vt 0.490541 0.465435
v 0.000000 0.670843 -0.680441
vn -0.000000 -0.008998 0.999959
vt 0.513042 0.442933
v -0.099213 0.969687 -0.691716
vn -0.842967 0.513431 0.160611
vt 0.616366 0.502623
v -0.146081 0.923986 -0.635136
vn -0.262146 0.867257 0.423255
vt 0.589544 0.480958
v -0.086876 0.940124 -0.649492
vn -0.109514 0.493170 0.863012
vt 0.596350 0.488608
v -0.000000 0.108716 1.055429
vn -0.000000 -0.227329 0.973818
vt 0.072545 0.059082
v -0.109531 0.107986 1.044983
vn -0.461755 -0.224800 0.858048
vt 0.024708 0.058763
v -0.109531 -0.006804 1.013506
vn -0.461755 -0.224800 0.858048
vt 0.024708 0.008630
v -0.000000 -0.006804 1.033143
vn -0.000000 -0.227329 0.973818
vt 0.072545 0.008630
v 0.109531 -0.006804 1.013506
vn 0.461755 -0.224800 0.858048
vt 0.120382 0.008630
v 0.109531 0.107986 1.044983
vn 0.461755 -0.224800 0.858048
vt 0.120382 0.058763
v -0.067835 1.048498 -0.693161
vn -0.463827 0.325569 0.823935
vt 0.617051 0.539984
v -0.096002 1.043784 -0.730681
vn -0.995949 0.042565 0.079211
vt 0.634838 0.537749
v -0.099213 0.969687 -0.691716
vn -0.842967 0.513431 0.160611
vt 0.616366 0.502623
v -0.086876 0.940124 -0.649492
vn -0.109514 0.493170 0.863012
vt 0.596350 0.488608
v -0.073211 1.257593 -0.773466
vn -0.523580 0.373946 0.765525
vt 0.655120 0.639106
v -0.104588 1.246655 -0.824928
vn -0.995018 -0.011009 0.099082
vt 0.679516 0.633920
v -0.096002 1.043784 -0.730681
vn -0.995949 0.042565 0.079211
vt 0.634838 0.537749
v -0.067835 1.048498 -0.693161
vn -0.463827 0.325569 0.823935
vt 0.617051 0.539984
v -0.072677 1.360182 -0.834536
vn -0.491945 0.686072 0.535999
vt 0.684071 0.687738
v -0.107581 1.342935 -0.893631
vn -0.910362 0.399256 0.108793
vt 0.712084 0.679562
v -0.104588 1.246655 -0.824928
vn -0.995018 -0.011009 0.099082
vt 0.679516 0.633920
v -0.073211 1.257593 -0.773466
vn -0.523580 0.373946 0.765525
vt 0.655120 0.639106
v -0.090474 1.207992 -0.998394
vn -0.958386 -0.159208 -0.236956
vt 0.761748 0.615592
v -0.092105 1.314505 -1.014794
vn -0.892732 0.213027 -0.397050
vt 0.769522 0.666085
v -0.054530 1.312578 -1.064482
vn -0.473277 0.223324 -0.852136
vt 0.793077 0.665172
v -0.051005 1.203176 -1.047402
vn -0.445442 -0.360129 -0.819688
vt 0.784980 0.613309
v -0.084846 1.052462 -0.889979
vn -0.958875 -0.183820 -0.216260
vt 0.710354 0.541862
v -0.090474 1.207992 -0.998394
vn -0.958386 -0.159208 -0.236956
vt 0.761748 0.615592
v -0.051005 1.203176 -1.047402
vn -0.445442 -0.360129 -0.819688
vt 0.784980 0.613309
v -0.042642 1.058119 -0.937808
vn -0.429470 -0.561651 -0.707180
vt 0.733027 0.544544
v -0.085120 0.976561 -0.819978
vn -0.959077 0.070714 -0.274173
vt 0.677169 0.505881
v -0.084846 1.052462 -0.889979
vn -0.958875 -0.183820 -0.216260
vt 0.710354 0.541862
v -0.042642 1.058119 -0.937808
vn -0.429470 -0.561651 -0.707180
vt 0.733027 0.544544
v -0.043287 0.983303 -0.876779
vn -0.462435 -0.514094 -0.722399
vt 0.704096 0.509078
v -0.113683 -0.000038 -0.721170
vn -0.256322 -0.360808 -0.896726
vt 0.939866 0.467178
v -0.223839 -0.000000 -0.684959
vn -0.563554 -0.239135 -0.790709
vt 0.981530 0.467178
v -0.241081 0.101839 -0.694507
vn -0.563554 -0.239135 -0.790709
vt 0.988052 0.505697
v -0.124844 0.101839 -0.766881
vn -0.256322 -0.360808 -0.896726
vt 0.944087 0.505697
v 0.000000 0.000000 -0.732245
vn 0.000000 -0.420653 -0.907222
vt 0.896868 0.467178
v 0.000000 0.101839 -0.779866
vn 0.000000 -0.420653 -0.907222
vt 0.896868 0.505697
v 0.124844 0.101839 -0.766881
vn 0.256322 -0.360808 -0.896725
vt 0.849648 0.505697
v 0.113683 -0.000038 -0.721170
vn 0.256322 -0.360808 -0.896725
vt 0.853870 0.467178
v 0.241081 0.101839 -0.694507
vn 0.563554 -0.239135 -0.790709
vt 0.805684 0.505697
v 0.223839 -0.000000 -0.684959
vn 0.563554 -0.239135 -0.790709
vt 0.812205 0.467178
v -0.000000 0.204121 1.053186
vn -0.000000 0.499498 0.866315
vt 0.072545 0.100749
v -0.109531 0.193421 1.042957
vn -0.466541 0.427686 0.774225
vt 0.024708 0.096076
v -0.109531 0.107986 1.044983
vn -0.454315 0.016910 0.890680
vt 0.024708 0.058763
v -0.000000 0.108716 1.055429
vn -0.000000 0.023602 0.999721
vt 0.072545 0.059082
v 0.109531 0.107986 1.044983
vn 0.454315 0.016910 0.890681
vt 0.120382 0.058763
v 0.109531 0.193421 1.042957
vn 0.466540 0.427686 0.774225
vt 0.120382 0.096076
v 0.318927 0.399715 -0.004714
vn 0.988824 0.033962 0.145167
vt 0.653318 0.197616
v 0.336004 0.520367 -0.137717
vn 0.988550 -0.133279 0.070749
vt 0.716369 0.254812
v 0.322032 0.560384 -0.010085
vn 0.958320 -0.089259 0.271395
vt 0.655864 0.273782
v 0.373327 0.687583 -0.116810
vn 0.962465 -0.248162 0.109893
vt 0.706457 0.334081
v 0.362616 0.669603 -0.385668
vn 0.953873 -0.239841 -0.180563
vt 0.833911 0.325557
v 0.353414 0.702576 -0.046913
vn 0.925918 -0.244200 0.288171
vt 0.673323 0.341188
v 0.307087 0.085459 0.136523
vn 0.985438 -0.111601 -0.128288
vt 0.586364 0.051639
v 0.308035 0.218221 0.003073
vn 0.998806 -0.034285 0.034790
vt 0.649627 0.112512
v 0.329571 0.239560 0.204500
vn 0.991531 0.121145 -0.046810
vt 0.554139 0.123435
v 0.322032 0.351443 -0.155963
vn 0.998634 -0.018798 0.048749
vt 0.725018 0.174732
v 0.334823 0.530717 -0.420744
vn 0.976986 -0.069353 -0.201715
vt 0.850539 0.259718
v 0.290447 0.695946 -0.578435
vn 0.800251 -0.140410 -0.582995
vt 0.925292 0.338046
v 0.337956 0.830035 -0.577813
vn 0.805857 0.318463 -0.499175
vt 0.924998 0.401611
v 0.414550 0.771628 -0.320536
vn 0.955412 0.227590 -0.188123
vt 0.803035 0.373923
v 0.410988 0.876482 -0.090965
vn 0.975391 0.216563 0.041381
vt 0.694205 0.423629
v 0.403897 0.859143 -0.016250
vn 0.919573 -0.027097 0.391982
vt 0.658787 0.415410
v 0.331433 0.718391 0.026819
vn 0.823810 -0.179585 0.537667
vt 0.638370 0.348686
v 0.275658 0.589325 0.079842
vn 0.828659 0.062460 0.556258
vt 0.613234 0.287501
v 0.252980 0.448663 0.187281
vn 0.858026 0.379328 0.346269
vt 0.562302 0.221807
v 0.287394 0.333351 0.280929
vn 0.839854 0.519173 0.158442
vt 0.517908 0.168184
v 0.352843 0.219919 0.442437
vn 0.927528 0.371209 0.043549
vt 0.441344 0.116326
v 0.356201 0.093594 0.442437
vn 0.999104 -0.019844 -0.037381
vt 0.441344 0.056411
v 0.325047 0.097312 0.266529
vn 0.989571 -0.061167 -0.130414
vt 0.524734 0.057868
v 0.281906 0.087106 0.000275
vn 0.990658 -0.136369 -0.000661
vt 0.650953 0.050427
v 0.322032 0.226641 -0.162479
vn 0.995749 -0.031260 0.086639
vt 0.728107 0.115570
v 0.326269 0.373874 -0.455164
vn 0.986086 0.089444 -0.140119
vt 0.866856 0.185366
v 0.245317 0.524459 -0.598988
vn 0.838826 0.049926 -0.542105
vt 0.935036 0.256752
v 0.162603 0.518740 -0.696957
vn 0.653662 0.100032 -0.750146
vt 0.981478 0.254040
v 0.173764 0.710435 -0.685315
vn 0.644436 -0.041833 -0.763513
vt 0.975960 0.344914
v 0.171074 0.877854 -0.681287
vn 0.744599 0.404221 -0.531204
vt 0.974050 0.424280
v 0.295707 0.879900 -0.544254
vn 0.211756 0.968352 0.132110
vt 0.909089 0.425250
v 0.361099 0.825318 -0.317475
vn 0.330504 0.932233 -0.147338
vt 0.801584 0.399375
v 0.361240 0.930111 -0.083875
vn 0.339848 0.939809 -0.035545
vt 0.690844 0.449052
v 0.361240 0.896258 0.026535
vn 0.331869 0.607910 0.721324
vt 0.638504 0.433004
v 0.146081 0.923986 -0.635136
vn 0.262146 0.867257 0.423255
vt 0.952172 0.446149
v 0.154846 0.891156 -0.612376
vn -0.338675 0.383026 0.859413
vt 0.926204 0.450824
v 0.265833 0.851033 -0.511122
vn -0.580372 0.630060 0.515938
vt 0.880228 0.434839
v 0.310815 0.828879 -0.318951
vn -0.668890 0.743167 0.017007
vt 0.801669 0.409971
v 0.312835 0.924929 -0.075829
vn -0.702155 0.708351 -0.072232
vt 0.691945 0.460419
v 0.293816 0.876071 0.005691
vn -0.773060 0.556485 0.304472
vt 0.626124 0.444684
v 0.305504 0.742783 0.066690
vn 0.340757 0.145677 0.928796
vt 0.619469 0.360249
v 0.249041 0.737045 0.066388
vn -0.796252 0.405864 0.448616
vt 0.612816 0.363268
v 0.235861 0.589366 0.115374
vn 0.351387 0.408763 0.842283
vt 0.596390 0.287521
v 0.213957 0.589209 0.113468
vn -0.518019 0.586182 0.622934
vt 0.591314 0.290779
v 0.188400 0.512719 0.203748
vn 0.130419 0.858781 0.495466
vt 0.554496 0.252066
v 0.196495 0.473217 0.250038
vn 0.649294 0.600068 0.467265
vt 0.532552 0.233824
v 0.235310 0.381715 0.323285
vn 0.638723 0.673283 0.372455
vt 0.497829 0.191542
v 0.274126 0.296929 0.442437
vn 0.639462 0.737247 0.218072
vt 0.441344 0.152471
v 0.347132 0.185322 0.606383
vn 0.925275 0.352909 0.138999
vt 0.363625 0.100126
v 0.342752 0.092624 0.606383
vn 0.995182 0.014484 0.096967
vt 0.363625 0.056407
v 0.331656 0.094254 0.741638
vn 0.943109 0.044235 0.329528
vt 0.299507 0.056404
v 0.321221 0.179961 0.741638
vn 0.874249 0.357934 0.327983
vt 0.299507 0.096956
v 0.223558 0.095013 0.914881
vn 0.807930 0.030674 0.588479
vt 0.217381 0.056396
v 0.223558 0.177996 0.914881
vn 0.745438 0.430192 0.509173
vt 0.217381 0.095735
v 0.109531 0.193421 1.042957
vn 0.466540 0.427686 0.774225
vt 0.156666 0.103047
v 0.109531 0.107986 1.044983
vn 0.454315 0.016910 0.890681
vt 0.155705 0.062547
v 0.289494 0.261500 0.606383
vn 0.623027 0.758252 0.192069
vt 0.363625 0.136174
v 0.264523 0.237458 0.741638
vn 0.598443 0.749103 0.284097
vt 0.299507 0.124339
v 0.242550 0.212458 0.832072
vn 0.582362 0.736422 0.344291
vt 0.256637 0.112282
v -0.092105 1.314505 -1.014794
vn -0.892732 0.213027 -0.397050
vt 0.769522 0.666085
v -0.060067 1.357799 -1.023933
vn -0.458479 0.693786 -0.555390
vt 0.773855 0.686609
v -0.054530 1.312578 -1.064482
vn -0.473277 0.223324 -0.852136
vt 0.793077 0.665172
v 0.065335 1.048353 -0.804197
vn 0.995985 -0.012447 -0.088656
vt 0.669688 0.539915
v 0.084846 1.052462 -0.889979
vn 0.958875 -0.183820 -0.216260
vt 0.710354 0.541862
v 0.090474 1.207992 -0.998394
vn 0.958386 -0.159208 -0.236956
vt 0.761748 0.615592
v 0.068482 1.228331 -0.905147
vn 0.988325 -0.134317 -0.071924
vt 0.717544 0.625234
v 0.068482 1.228331 -0.905147
vn 0.988325 -0.134317 -0.071924
vt 0.717544 0.625234
v 0.090474 1.207992 -0.998394
vn 0.958386 -0.159208 -0.236956
vt 0.761748 0.615592
v 0.092105 1.314505 -1.014794
vn 0.892732 0.213027 -0.397050
vt 0.769522 0.666085
v 0.101884 1.348933 -0.959127
vn 0.955159 0.254136 -0.151944
vt 0.743133 0.682406
v 0.073460 0.974777 -0.756311
vn 0.917491 0.391136 -0.072261
vt 0.646987 0.505036
v 0.085120 0.976561 -0.819978
vn 0.959077 0.070714 -0.274173
vt 0.677169 0.505881
v 0.084846 1.052462 -0.889979
vn 0.958875 -0.183820 -0.216260
vt 0.710354 0.541862
v 0.065335 1.048353 -0.804197
vn 0.995985 -0.012447 -0.088656
vt 0.669688 0.539915
v 0.107581 1.342935 -0.893631
vn 0.910362 0.399256 0.108793
vt 0.712084 0.679562
v 0.101884 1.348933 -0.959127
vn 0.955159 0.254136 -0.151944
vt 0.743133 0.682406
v 0.068207 1.379032 -0.962252
vn 0.467746 0.855842 -0.220788
vt 0.744615 0.696675
v 0.068207 1.384298 -0.900571
vn 0.442234 0.887187 0.131636
vt 0.715375 0.699171
v 0.188400 0.512719 0.203748
vn 0.130419 0.858781 0.495466
vt 0.426557 0.316623
v 0.213957 0.589209 0.113468
vn -0.518019 0.586182 0.622934
vt 0.411990 0.321849
v 0.203013 0.589183 0.097723
vn -0.979949 0.195136 0.040264
vt 0.411967 0.321948
v 0.177123 0.505833 0.179950
vn -0.901931 0.271671 -0.335731
vt 0.428082 0.315157
v 0.213957 0.589209 0.113468
vn -0.518019 0.586182 0.622934
vt 0.411990 0.321849
v 0.249041 0.737045 0.066388
vn -0.796252 0.405864 0.448616
vt 0.385169 0.339803
v 0.214474 0.633618 0.051595
vn -0.980744 0.171432 -0.093552
vt 0.401026 0.326734
v 0.203013 0.589183 0.097723
vn -0.979949 0.195136 0.040264
vt 0.411967 0.321948
v 0.218423 0.421736 0.052378
vn -0.995144 0.050011 -0.084775
vt 0.435863 0.291449
v 0.218423 0.383610 0.086734
vn -0.996129 0.002852 -0.087854
vt 0.440913 0.289946
v 0.202216 0.242672 0.015016
vn -0.674346 0.737627 0.034101
vt 0.458902 0.266171
v 0.293816 0.876071 0.005691
vn -0.773060 0.556485 0.304472
vt 0.362195 0.350624
v 0.270897 0.790677 0.013438
vn -0.955261 0.238107 -0.175449
vt 0.372362 0.343822
v 0.249460 0.710804 0.020685
vn -0.960919 0.197742 -0.193734
vt 0.384383 0.335177
v 0.218423 0.480305 -0.015722
vn -0.988803 0.111273 -0.099434
vt 0.425290 0.293137
v 0.202216 0.243232 -0.053084
vn -0.684542 0.728894 -0.010718
vt 0.458457 0.256000
v 0.141552 0.243610 -0.053084
vn -0.010240 0.999791 -0.017698
vt 0.469046 0.255966
v -0.000000 0.369532 0.237724
vn -0.000000 0.295249 -0.955420
vt 0.456688 0.311927
v -0.000000 0.505167 0.239318
vn -0.000000 0.295993 -0.955190
vt 0.440345 0.328270
v 0.149444 0.494691 0.224746
vn -0.383873 0.298818 -0.873699
vt 0.431584 0.317322
v 0.152896 0.369078 0.238463
vn -0.291471 0.236729 -0.926825
vt 0.445642 0.303414
v 0.218423 0.369381 0.188339
vn -0.859723 0.074540 -0.505292
vt 0.441435 0.297324
v 0.202216 0.242227 0.049373
vn -0.660280 0.751006 -0.004459
vt 0.458513 0.270710
v 0.141552 0.243164 0.015016
vn 0.004992 0.999955 0.008098
vt 0.467760 0.267474
v 0.141552 0.236865 -0.172237
vn -0.021971 0.999540 -0.020921
vt 0.461376 0.229461
v 0.202216 0.243415 -0.172237
vn -0.695307 0.717228 -0.046171
vt 0.450414 0.235788
v 0.230571 0.499053 -0.134875
vn -0.990109 0.129199 -0.054696
vt 0.412710 0.281221
v 0.141552 0.239724 -0.421944
vn -0.009854 0.999934 0.005892
vt 0.410083 0.206406
v 0.141552 0.242833 0.049373
vn 0.020753 0.998559 -0.049499
vt 0.466522 0.272386
v 0.202216 0.248551 0.150977
vn -0.570506 0.714663 -0.404698
vt 0.455574 0.282651
v 0.141552 0.252638 0.150977
vn -0.065469 0.855024 -0.514439
vt 0.461239 0.285139
v -0.000000 0.262477 0.156591
vn -0.000000 0.861972 -0.506955
vt 0.473170 0.295444
v 0.000000 0.241060 -0.624571
vn -0.000000 0.760828 0.648954
vt 0.377980 0.203274
v 0.000000 0.237786 -0.421944
vn -0.000000 0.999954 0.009577
vt 0.397758 0.183496
v 0.141552 0.236865 -0.172237
vn -0.021971 0.999540 -0.020921
vt 0.461234 0.229319
v -0.000000 0.237054 -0.172237
vn -0.000000 0.999697 -0.024599
vt 0.517497 0.250834
v 0.172824 0.821053 -0.589659
vn -0.562316 0.056166 0.825013
vt 0.318528 0.288256
v 0.000000 0.804946 -0.674310
vn -0.000000 0.007730 0.999970
vt 0.310109 0.271145
v 0.000000 0.670843 -0.680441
vn -0.000000 -0.008998 0.999959
vt 0.325682 0.255573
v 0.163950 0.670843 -0.582436
vn -0.632725 0.024498 0.773989
vt 0.336364 0.269675
v 0.000000 0.467420 -0.685533
vn -0.000000 0.045054 0.998985
vt 0.350965 0.230289
v 0.152896 0.467420 -0.599738
vn -0.599437 0.021569 0.800131
vt 0.363958 0.239639
v 0.126471 0.241060 -0.614217
vn -0.357506 0.733035 0.578662
vt 0.386413 0.212964
v 0.235995 0.238153 -0.421944
vn -0.704320 0.705116 0.082124
vt 0.411252 0.220168
v 0.225679 0.476071 -0.384583
vn -0.989337 0.059407 0.132978
vt 0.385293 0.250524
v 0.279691 0.721372 -0.098468
vn -0.973659 0.214316 -0.077826
vt 0.369204 0.328526
v 0.252554 0.661636 -0.348176
vn -0.968198 0.202626 0.146752
vt 0.352641 0.292602
v 0.296111 0.807507 -0.088888
vn -0.969104 0.225289 -0.100408
vt 0.358740 0.339505
v 0.283631 0.750845 -0.332587
vn -0.955114 0.268451 0.125261
vt 0.341709 0.309056
v 0.198189 0.670843 -0.540346
vn -0.873321 0.122957 0.471372
vt 0.339416 0.274138
v 0.242507 0.788899 -0.521199
vn -0.835109 0.204579 0.510627
vt 0.327771 0.293047
v 0.178621 0.467420 -0.562061
vn -0.878877 0.003545 0.477035
vt 0.367728 0.241590
v 0.187236 0.241060 -0.565396
vn -0.769863 0.434917 0.467075
vt 0.393390 0.216844
v 0.312835 0.924929 -0.075829
vn -0.702155 0.708351 -0.072232
vt 0.348834 0.350409
v 0.310815 0.828879 -0.318951
vn -0.668890 0.743167 0.017007
vt 0.335317 0.319665
v 0.265833 0.851033 -0.511122
vn -0.580372 0.630060 0.515938
vt 0.323222 0.301254
v 0.154846 0.891156 -0.612376
vn -0.338675 0.383026 0.859413
vt 0.310686 0.292522
v 0.000000 0.865364 -0.658135
vn 0.000000 0.101698 0.994815
vt 0.303180 0.278074
v -0.068207 1.384298 -0.900571
vn -0.442234 0.887187 0.131636
vt 0.715375 0.699171
v -0.107581 1.342935 -0.893631
vn -0.910362 0.399256 0.108793
vt 0.712084 0.679562
v -0.072677 1.360182 -0.834536
vn -0.491945 0.686072 0.535999
vt 0.684071 0.687738
v 0.067835 1.048498 -0.693161
vn 0.463827 0.325569 0.823935
vt 0.617051 0.539984
v 0.086876 0.940124 -0.649492
vn 0.109514 0.493170 0.863012
vt 0.596350 0.488608
v 0.099213 0.969687 -0.691716
vn 0.842967 0.513431 0.160611
vt 0.616366 0.502623
v 0.096002 1.043784 -0.730681
vn 0.995949 0.042565 0.079211
vt 0.634838 0.537749
v 0.073211 1.257593 -0.773466
vn 0.523580 0.373947 0.765525
vt 0.655120 0.639106
v 0.067835 1.048498 -0.693161
vn 0.463827 0.325569 0.823935
vt 0.617051 0.539984
v 0.096002 1.043784 -0.730681
vn 0.995949 0.042565 0.079211
vt 0.634838 0.537749
v 0.104588 1.246655 -0.824928
vn 0.995018 -0.011009 0.099082
vt 0.679516 0.633920
v 0.072677 1.360182 -0.834536
vn 0.491945 0.686072 0.535999
vt 0.684071 0.687738
v 0.073211 1.257593 -0.773466
vn 0.523580 0.373947 0.765525
vt 0.655120 0.639106
v 0.104588 1.246655 -0.824928
vn 0.995018 -0.011009 0.099082
vt 0.679516 0.633920
v 0.107581 1.342935 -0.893631
vn 0.910362 0.399256 0.108793
vt 0.712084 0.679562
v 0.090474 1.207992 -0.998394
vn 0.958386 -0.159208 -0.236956
vt 0.761748 0.615592
v 0.051005 1.203176 -1.047402
vn 0.445442 -0.360129 -0.819688
vt 0.784980 0.613309
v 0.054530 1.312578 -1.064482
vn 0.473278 0.223324 -0.852135
vt 0.793077 0.665172
v 0.092105 1.314505 -1.014794
vn 0.892732 0.213027 -0.397050
vt 0.769522 0.666085
v 0.084846 1.052462 -0.889979
vn 0.958875 -0.183820 -0.216260
vt 0.710354 0.541862
v 0.042642 1.058119 -0.937808
vn 0.429470 -0.561651 -0.707180
vt 0.733027 0.544544
v 0.051005 1.203176 -1.047402
vn 0.445442 -0.360129 -0.819688
vt 0.784980 0.613309
v 0.090474 1.207992 -0.998394
vn 0.958386 -0.159208 -0.236956
vt 0.761748 0.615592
v 0.314796 0.090528 -0.185260
vn 0.902209 -0.292949 0.316543
vt 0.738906 0.051045
v 0.317617 -0.000000 -0.205444
vn 0.912846 -0.104456 0.394717
vt 0.748475 0.008130
v 0.332336 -0.000000 -0.455164
vn 0.992822 -0.109966 -0.047041
vt 0.866855 0.008130
v 0.347723 0.101843 -0.455164
vn 0.992822 -0.109966 -0.047041
vt 0.866855 0.056409
v 0.316761 0.101841 -0.618148
vn 0.872402 -0.168770 -0.458727
vt 0.944119 0.056408
v 0.304661 -0.000000 -0.604519
vn 0.872402 -0.168770 -0.458727
vt 0.937658 0.008130
v 0.241081 0.101839 -0.694507
vn 0.563554 -0.239135 -0.790709
vt 0.980317 0.056407
v 0.223839 -0.000000 -0.684959
vn 0.563554 -0.239135 -0.790709
vt 0.975791 0.008130
v 0.109531 0.107986 1.044983
vn 0.461755 -0.224800 0.858048
vt 0.155705 0.062547
v 0.109531 -0.006804 1.013506
vn 0.461755 -0.224800 0.858048
vt 0.170627 0.008130
v 0.193220 -0.006804 0.914881
vn 0.783202 -0.238973 0.574009
vt 0.217381 0.008130
v 0.223558 0.095013 0.914881
vn 0.783202 -0.238973 0.574009
vt 0.217381 0.056396
v 0.331656 0.094254 0.741638
vn 0.903079 -0.251074 0.348438
vt 0.299507 0.056404
v 0.292875 -0.008165 0.741638
vn 0.903079 -0.251074 0.348438
vt 0.299507 0.008130
v 0.342752 0.092624 0.606383
vn 0.980271 -0.138183 0.141333
vt 0.363625 0.056407
v 0.335354 -0.009206 0.606383
vn 0.980271 -0.138183 0.141333
vt 0.363625 0.008130
v 0.351502 -0.009577 0.442437
vn 0.997204 -0.058327 -0.046718
vt 0.441344 0.008130
v 0.356201 0.093594 0.442437
vn 0.997204 -0.058327 -0.046718
vt 0.441344 0.056411
v 0.326005 -0.008480 0.311636
vn 0.985617 -0.056122 -0.159406
vt 0.503351 0.008130
v 0.325047 0.097312 0.266529
vn 0.985617 -0.056122 -0.159406
vt 0.524734 0.057868
v 0.307087 0.085459 0.136523
vn 0.904633 -0.293533 -0.308994
vt 0.586364 0.051639
v 0.307313 -0.008290 0.180835
vn 0.919306 -0.163459 -0.357992
vt 0.565358 0.008130
v 0.277187 0.036187 0.117199
vn 0.828608 -0.405165 -0.386329
vt 0.595525 0.028353
v 0.281906 0.087106 0.000275
vn 0.813000 -0.581300 -0.033479
vt 0.650953 0.050427
v 0.253116 0.052154 -0.000338
vn 0.813000 -0.581300 -0.033479
vt 0.651244 0.033948
v 0.276447 0.048280 -0.150185
vn 0.813641 -0.397334 0.424398
vt 0.722279 0.031017
v 0.104588 1.246655 -0.824928
vn 0.995018 -0.011009 0.099082
vt 0.679516 0.633920
v 0.068482 1.228331 -0.905147
vn 0.988325 -0.134317 -0.071924
vt 0.717544 0.625234
v 0.101884 1.348933 -0.959127
vn 0.955159 0.254136 -0.151944
vt 0.743133 0.682406
v 0.107581 1.342935 -0.893631
vn 0.910362 0.399256 0.108793
vt 0.712084 0.679562
v 0.096002 1.043784 -0.730681
vn 0.995949 0.042565 0.079211
vt 0.634838 0.537749
v 0.065335 1.048353 -0.804197
vn 0.995985 -0.012447 -0.088656
vt 0.669688 0.539915
v 0.068482 1.228331 -0.905147
vn 0.988325 -0.134317 -0.071924
vt 0.717544 0.625234
v 0.104588 1.246655 -0.824928
vn 0.995018 -0.011009 0.099082
vt 0.679516 0.633920
v 0.099213 0.969687 -0.691716
vn 0.842967 0.513431 0.160611
vt 0.616366 0.502623
v 0.073460 0.974777 -0.756311
vn 0.917491 0.391136 -0.072261
vt 0.646987 0.505036
v 0.065335 1.048353 -0.804197
vn 0.995985 -0.012447 -0.088656
vt 0.669688 0.539915
v 0.096002 1.043784 -0.730681
vn 0.995949 0.042565 0.079211
vt 0.634838 0.537749
v 0.146081 0.923986 -0.635136
vn 0.262146 0.867257 0.423255
vt 0.589544 0.480958
v 0.171074 0.877854 -0.681287
vn 0.744599 0.404221 -0.531204
vt 0.611422 0.459089
v 0.073460 0.974777 -0.756311
vn 0.917491 0.391136 -0.072261
vt 0.646987 0.505036
v 0.099213 0.969687 -0.691716
vn 0.842967 0.513431 0.160611
vt 0.616366 0.502623
v 0.068207 1.379032 -0.962252
vn 0.467746 0.855842 -0.220788
vt 0.744615 0.696675
v 0.101884 1.348933 -0.959127
vn 0.955159 0.254136 -0.151944
vt 0.743133 0.682406
v 0.092105 1.314505 -1.014794
vn 0.892732 0.213027 -0.397050
vt 0.769522 0.666085
v 0.060067 1.357799 -1.023933
vn 0.458479 0.693786 -0.555390
vt 0.773855 0.686609
v -0.104588 1.246655 -0.824928
vn -0.995018 -0.011009 0.099082
vt 0.679516 0.633920
v -0.107581 1.342935 -0.893631
vn -0.910362 0.399256 0.108793
vt 0.712084 0.679562
v -0.101884 1.348933 -0.959127
vn -0.955159 0.254135 -0.151944
vt 0.743133 0.682406
v -0.068482 1.228331 -0.905147
vn -0.988325 -0.134317 -0.071924
vt 0.717544 0.625234
v -0.096002 1.043784 -0.730681
vn -0.995949 0.042565 0.079211
vt 0.634838 0.537749
v -0.104588 1.246655 -0.824928
vn -0.995018 -0.011009 0.099082
vt 0.679516 0.633920
v -0.068482 1.228331 -0.905147
vn -0.988325 -0.134317 -0.071924
vt 0.717544 0.625234
v -0.065335 1.048353 -0.804197
vn -0.995985 -0.012447 -0.088656
vt 0.669688 0.539915
v -0.099213 0.969687 -0.691716
vn -0.842967 0.513431 0.160611
vt 0.616366 0.502623
v -0.096002 1.043784 -0.730681
vn -0.995949 0.042565 0.079211
vt 0.634838 0.537749
v -0.065335 1.048353 -0.804197
vn -0.995985 -0.012447 -0.088656
vt 0.669688 0.539915
v -0.073460 0.974777 -0.756311
vn -0.917491 0.391136 -0.072261
vt 0.646987 0.505036
v -0.146081 0.923986 -0.635136
vn -0.262146 0.867257 0.423255
vt 0.589544 0.480958
v -0.099213 0.969687 -0.691716
vn -0.842967 0.513431 0.160611
vt 0.616366 0.502623
v -0.073460 0.974777 -0.756311
vn -0.917491 0.391136 -0.072261
vt 0.646987 0.505036
v -0.171074 0.877854 -0.681287
vn -0.744599 0.404221 -0.531205
vt 0.611422 0.459089
v -0.068207 1.379032 -0.962252
vn -0.467747 0.855842 -0.220788
vt 0.744615 0.696675
v -0.060067 1.357799 -1.023933
vn -0.458479 0.693786 -0.555390
vt 0.773855 0.686609
v -0.092105 1.314505 -1.014794
vn -0.892732 0.213027 -0.397050
vt 0.769522 0.666085
v -0.101884 1.348933 -0.959127
vn -0.955159 0.254135 -0.151944
vt 0.743133 0.682406
v 0.347723 0.101843 -0.455164
vn 0.998718 -0.015086 -0.048320
vt 0.866855 0.056409
v 0.316761 0.101841 -0.618148
vn 0.883435 0.012319 -0.468393
vt 0.944119 0.056408
v 0.313520 0.231998 -0.617706
vn 0.876357 0.092598 -0.472678
vt 0.943909 0.118109
v 0.348673 0.237858 -0.455164
vn 0.995527 0.062216 -0.071098
vt 0.866855 0.120887
v 0.281795 0.362154 -0.620732
vn 0.849968 0.183370 -0.493892
vt 0.945344 0.179810
v 0.314796 0.090528 -0.185260
vn 0.989526 -0.086812 0.115334
vt 0.738906 0.051045
v 0.241081 0.101839 -0.694507
vn 0.622876 0.006079 -0.782297
vt 0.980317 0.056407
v 0.232779 0.226641 -0.701325
vn 0.626935 0.053338 -0.777244
vt 0.983549 0.115570
v 0.206278 0.351443 -0.707116
vn 0.640348 0.155015 -0.752280
vt 0.986295 0.174732
v -0.073460 0.974777 -0.756311
vn -0.917491 0.391136 -0.072261
vt 0.646987 0.505036
v -0.085120 0.976561 -0.819978
vn -0.959077 0.070714 -0.274173
vt 0.677169 0.505881
v -0.171074 0.877854 -0.681287
vn -0.744599 0.404221 -0.531205
vt 0.611422 0.459089
v -0.314796 0.090528 -0.185260
vn -0.989526 -0.086812 0.115334
vt 0.738906 0.051045
v -0.348673 0.237858 -0.455164
vn -0.995527 0.062216 -0.071098
vt 0.866855 0.120887
v -0.347723 0.101843 -0.455164
vn -0.998718 -0.015086 -0.048320
vt 0.866855 0.056409
v -0.313520 0.231998 -0.617706
vn -0.876357 0.092598 -0.472678
vt 0.943909 0.118109
v -0.281795 0.362154 -0.620732
vn -0.849968 0.183370 -0.493892
vt 0.945344 0.179810
v -0.316761 0.101841 -0.618148
vn -0.883435 0.012319 -0.468393
vt 0.944119 0.056408
v -0.281906 0.087106 0.000275
vn -0.990658 -0.136369 -0.000661
vt 0.650953 0.050427
v -0.322032 0.226641 -0.162479
vn -0.995749 -0.031260 0.086639
vt 0.728107 0.115570
v -0.326269 0.373874 -0.455164
vn -0.986086 0.089444 -0.140119
vt 0.866856 0.185366
v -0.245317 0.524459 -0.598988
vn -0.838826 0.049926 -0.542105
vt 0.935036 0.256752
v -0.162603 0.518740 -0.696957
vn -0.653662 0.100032 -0.750146
vt 0.981478 0.254040
v -0.206278 0.351443 -0.707116
vn -0.640348 0.155015 -0.752280
vt 0.986295 0.174732
v -0.232779 0.226641 -0.701325
vn -0.626934 0.053338 -0.777244
vt 0.983549 0.115570
v -0.241081 0.101839 -0.694507
vn -0.622876 0.006079 -0.782297
vt 0.980317 0.056407
v -0.290447 0.695946 -0.578435
vn -0.800251 -0.140410 -0.582995
vt 0.925292 0.338046
v -0.171074 0.877854 -0.681287
vn -0.744599 0.404221 -0.531205
vt 0.974050 0.424280
v -0.173764 0.710435 -0.685315
vn -0.644436 -0.041833 -0.763513
vt 0.975960 0.344914
v -0.334823 0.530717 -0.420744
vn -0.976986 -0.069353 -0.201715
vt 0.850539 0.259718
v -0.322032 0.351443 -0.155963
vn -0.998634 -0.018798 0.048749
vt 0.725018 0.174732
v -0.308035 0.218221 0.003073
vn -0.998806 -0.034285 0.034790
vt 0.649627 0.112512
v -0.307087 0.085459 0.136523
vn -0.985438 -0.111601 -0.128288
vt 0.586364 0.051639
v -0.325047 0.097312 0.266529
vn -0.989571 -0.061167 -0.130414
vt 0.524734 0.057868
v -0.329571 0.239560 0.204500
vn -0.991531 0.121145 -0.046810
vt 0.554139 0.123435
v -0.318927 0.399715 -0.004714
vn -0.988824 0.033962 0.145167
vt 0.653318 0.197616
v -0.336004 0.520367 -0.137717
vn -0.988550 -0.133279 0.070749
vt 0.716369 0.254812
v -0.362616 0.669603 -0.385668
vn -0.953873 -0.239841 -0.180563
vt 0.833911 0.325557
v -0.337956 0.830035 -0.577813
vn -0.805857 0.318463 -0.499175
vt 0.924998 0.401611
v -0.295707 0.879900 -0.544254
vn -0.211756 0.968352 0.132110
vt 0.909089 0.425250
v -0.146081 0.923986 -0.635136
vn -0.262146 0.867257 0.423255
vt 0.952172 0.446149
v -0.154846 0.891156 -0.612376
vn 0.338675 0.383026 0.859413
vt 0.926204 0.450824
v -0.265833 0.851033 -0.511122
vn 0.580372 0.630060 0.515938
vt 0.880228 0.434839
v -0.361099 0.825318 -0.317475
vn -0.330504 0.932233 -0.147338
vt 0.801584 0.399375
v -0.310815 0.828879 -0.318951
vn 0.668890 0.743167 0.017007
vt 0.801669 0.409971
v -0.361240 0.930111 -0.083875
vn -0.339848 0.939809 -0.035545
vt 0.690844 0.449052
v -0.312835 0.924929 -0.075829
vn 0.702155 0.708351 -0.072232
vt 0.691945 0.460419
v -0.356201 0.093594 0.442437
vn -0.999104 -0.019844 -0.037381
vt 0.441344 0.056411
v -0.352843 0.219919 0.442437
vn -0.927528 0.371209 0.043549
vt 0.441344 0.116326
v -0.287394 0.333351 0.280929
vn -0.839854 0.519173 0.158442
vt 0.517908 0.168184
v -0.252980 0.448663 0.187281
vn -0.858026 0.379328 0.346269
vt 0.562302 0.221807
v -0.322032 0.560384 -0.010085
vn -0.958320 -0.089259 0.271395
vt 0.655864 0.273782
v -0.373327 0.687583 -0.116810
vn -0.962465 -0.248162 0.109893
vt 0.706457 0.334081
v -0.414550 0.771628 -0.320536
vn -0.955412 0.227590 -0.188123
vt 0.803035 0.373923
v -0.410988 0.876482 -0.090965
vn -0.975391 0.216563 0.041381
vt 0.694205 0.423629
v -0.403897 0.859143 -0.016250
vn -0.919574 -0.027097 0.391982
vt 0.658787 0.415410
v -0.361240 0.896258 0.026535
vn -0.331869 0.607910 0.721324
vt 0.638504 0.433004
v -0.331433 0.718391 0.026819
vn -0.823810 -0.179585 0.537667
vt 0.638370 0.348686
v -0.275658 0.589325 0.079842
vn -0.828659 0.062460 0.556258
vt 0.613234 0.287501
v -0.353414 0.702576 -0.046913
vn -0.925918 -0.244200 0.288171
vt 0.673323 0.341188
v -0.305504 0.742783 0.066690
vn -0.340757 0.145677 0.928797
vt 0.619469 0.360249
v -0.235861 0.589366 0.115374
vn -0.351387 0.408762 0.842283
vt 0.596390 0.287521
v -0.293816 0.876071 0.005691
vn 0.773060 0.556485 0.304472
vt 0.626124 0.444684
v -0.249041 0.737045 0.066388
vn 0.796252 0.405864 0.448616
vt 0.612816 0.363268
v -0.213957 0.589209 0.113468
vn 0.518019 0.586182 0.622934
vt 0.591314 0.290779
v -0.188400 0.512719 0.203748
vn -0.130420 0.858781 0.495466
vt 0.554496 0.252066
v -0.196495 0.473217 0.250038
vn -0.649294 0.600068 0.467264
vt 0.532552 0.233824
v -0.235310 0.381715 0.323285
vn -0.638723 0.673283 0.372455
vt 0.497829 0.191542
v -0.274126 0.296929 0.442437
vn -0.639462 0.737247 0.218072
vt 0.441344 0.152471
v -0.347132 0.185322 0.606383
vn -0.925275 0.352909 0.138999
vt 0.363625 0.100126
v -0.342752 0.092624 0.606383
vn -0.995182 0.014484 0.096967
vt 0.363625 0.056407
v -0.331656 0.094254 0.741638
vn -0.943109 0.044235 0.329528
vt 0.299507 0.056404
v -0.321221 0.179961 0.741638
vn -0.874249 0.357934 0.327983
vt 0.299507 0.096956
v -0.289494 0.261500 0.606383
vn -0.623028 0.758252 0.192069
vt 0.363625 0.136174
v -0.264523 0.237458 0.741638
vn -0.598443 0.749103 0.284097
vt 0.299507 0.124339
v -0.223558 0.177996 0.914881
vn -0.745438 0.430192 0.509173
vt 0.217381 0.095735
v -0.242550 0.212458 0.832072
vn -0.582362 0.736422 0.344291
vt 0.256637 0.112282
v -0.223558 0.095013 0.914881
vn -0.807930 0.030674 0.588479
vt 0.217381 0.056396
v -0.109531 0.193421 1.042957
vn -0.466541 0.427686 0.774225
vt 0.156666 0.103047
v -0.109531 0.107986 1.044983
vn -0.454315 0.016910 0.890680
vt 0.155705 0.062547
v 0.099213 0.969687 -0.691716
vn 0.842967 0.513431 0.160611
vt 0.616366 0.502623
v 0.086876 0.940124 -0.649492
vn 0.109514 0.493170 0.863012
vt 0.596350 0.488608
v 0.146081 0.923986 -0.635136
vn 0.262146 0.867257 0.423255
vt 0.589544 0.480958
v -0.000000 0.000000 -0.455164
vn -0.000000 -1.000000 -0.000013
vt 0.138685 0.851012
v -0.225423 -0.000038 -0.455164
vn -0.000019 -1.000000 -0.000024
vt 0.138685 0.942203
v -0.225423 -0.000000 -0.581437
vn -0.000046 -1.000000 -0.000033
vt 0.087603 0.942203
v 0.000000 0.000000 -0.581437
vn -0.000000 -1.000000 0.000013
vt 0.087603 0.851012
v 0.225423 -0.000000 -0.581437
vn 0.000046 -1.000000 -0.000033
vt 0.087603 0.759820
v 0.225423 -0.000038 -0.455164
vn 0.000019 -1.000000 -0.000024
vt 0.138685 0.759820
v 0.164555 -0.000000 -0.205444
vn -0.000007 -1.000000 0.000069
vt 0.239706 0.784443
v -0.000000 0.000000 -0.205444
vn 0.000000 -1.000000 0.000000
vt 0.239706 0.851012
v -0.164555 -0.000000 -0.205444
vn 0.000007 -1.000000 0.000069
vt 0.239706 0.917580
v -0.332336 -0.000000 -0.455164
vn -0.000165 -1.000000 -0.000029
vt 0.138685 0.985453
v -0.304661 -0.000000 -0.604519
vn -0.000192 -1.000000 -0.000079
vt 0.078266 0.974258
v -0.223839 -0.000000 -0.684959
vn -0.000200 -1.000000 -0.000003
vt 0.045725 0.941562
v -0.113683 -0.000038 -0.721170
vn -0.000041 -1.000000 0.000086
vt 0.031076 0.897000
v 0.000000 0.000000 -0.732245
vn -0.000000 -1.000000 0.000175
vt 0.026596 0.851012
v 0.113683 -0.000038 -0.721170
vn 0.000041 -1.000000 0.000086
vt 0.031077 0.805023
v 0.223839 -0.000000 -0.684959
vn 0.000200 -1.000000 -0.000003
vt 0.045725 0.760461
v 0.304661 -0.000000 -0.604519
vn 0.000192 -1.000000 -0.000079
vt 0.078266 0.727765
v 0.332336 -0.000000 -0.455164
vn 0.000165 -1.000000 -0.000029
vt 0.138685 0.716570
v 0.317617 -0.000000 -0.205444
vn 0.000146 -1.000000 0.000098
vt 0.239706 0.722524
v -0.317617 -0.000000 -0.205444
vn -0.000146 -1.000000 0.000098
vt 0.239706 0.979499
v 0.092105 1.314505 -1.014794
vn 0.892732 0.213027 -0.397050
vt 0.769522 0.666085
v 0.054530 1.312578 -1.064482
vn 0.473278 0.223324 -0.852135
vt 0.793077 0.665172
v 0.060067 1.357799 -1.023933
vn 0.458479 0.693786 -0.555390
vt 0.773855 0.686609
v -0.188400 0.512719 0.203748
vn -0.130420 0.858781 0.495466
vt 0.451991 0.342057
v -0.203013 0.589183 0.097723
vn 0.979949 0.195136 0.040264
vt 0.446667 0.356648
v -0.213957 0.589209 0.113468
vn 0.518019 0.586182 0.622934
vt 0.446765 0.356625
v -0.214474 0.633618 0.051595
vn 0.980744 0.171432 -0.093552
vt 0.441881 0.367589
v -0.000000 1.395763 -0.900571
vn 0.000000 0.986817 0.161841
vt 0.460869 0.687620
v -0.068207 1.384298 -0.900571
vn -0.442234 0.887187 0.131636
vt 0.433806 0.683071
v -0.072677 1.360182 -0.834536
vn -0.491945 0.686072 0.535999
vt 0.432032 0.673502
v -0.000000 1.360182 -0.829426
vn 0.000000 0.759005 0.651084
vt 0.460869 0.673502
v -0.073211 1.257593 -0.773466
vn -0.523580 0.373946 0.765525
vt 0.431820 0.632797
v 0.000000 1.259544 -0.763051
vn -0.000000 0.438982 0.898496
vt 0.460869 0.633571
v -0.067835 1.048498 -0.693161
vn -0.463827 0.325569 0.823935
vt 0.433954 0.549832
v 0.000000 1.048498 -0.690105
vn -0.000000 0.317778 0.948165
vt 0.460869 0.549832
v -0.086876 0.940124 -0.649492
vn -0.109514 0.493170 0.863012
vt 0.426398 0.506831
v 0.000000 0.940124 -0.665558
vn 0.000000 0.249402 0.968400
vt 0.460869 0.506831
v -0.146081 0.923986 -0.635136
vn -0.262146 0.867257 0.423255
vt 0.402907 0.500428
v -0.154846 0.891156 -0.612376
vn 0.338675 0.383026 0.859413
vt 0.399429 0.487401
v 0.000000 0.865364 -0.658135
vn 0.000000 0.101698 0.994815
vt 0.460869 0.477167
v 0.154846 0.891156 -0.612376
vn -0.338675 0.383026 0.859413
vt 0.522309 0.487401
v 0.086876 0.940124 -0.649492
vn 0.109514 0.493170 0.863012
vt 0.495340 0.506831
v 0.067835 1.048498 -0.693161
vn 0.463827 0.325569 0.823935
vt 0.487785 0.549832
v 0.073211 1.257593 -0.773466
vn 0.523580 0.373947 0.765525
vt 0.489918 0.632797
v 0.072677 1.360182 -0.834536
vn 0.491945 0.686072 0.535999
vt 0.489706 0.673502
v 0.068207 1.384298 -0.900571
vn 0.442234 0.887187 0.131636
vt 0.487932 0.683071
v 0.146081 0.923986 -0.635136
vn 0.262146 0.867257 0.423255
vt 0.518831 0.500428
v -0.000000 1.390496 -0.962252
vn -0.000000 0.977275 -0.211975
vt 0.460869 0.685530
v -0.068207 1.379032 -0.962252
vn -0.467747 0.855842 -0.220788
vt 0.433806 0.680981
v -0.068207 1.384298 -0.900571
vn -0.442234 0.887187 0.131636
vt 0.433806 0.683071
v 0.068207 1.384298 -0.900571
vn 0.442234 0.887187 0.131636
vt 0.487932 0.683071
v 0.068207 1.379032 -0.962252
vn 0.467746 0.855842 -0.220788
vt 0.487932 0.680981
v -0.090261 0.710435 -0.741530
vn -0.400538 -0.096512 -0.911183
vt 0.931007 0.735885
v 0.000000 0.888358 -0.817497
vn 0.000000 -0.463962 -0.885855
vt 0.896868 0.803181
v 0.000000 0.710435 -0.750256
vn -0.000000 -0.165451 -0.986218
vt 0.896868 0.735885
v -0.108628 0.518740 -0.738702
vn -0.361251 0.089705 -0.928144
vt 0.937954 0.663381
v 0.000000 0.518740 -0.754177
vn 0.000000 0.071915 -0.997411
vt 0.896868 0.663381
v -0.124844 0.351443 -0.759589
vn -0.348068 0.106425 -0.931409
vt 0.944087 0.600104
v 0.000000 0.351443 -0.776617
vn -0.000000 0.091568 -0.995799
vt 0.896868 0.600104
v -0.124844 0.226641 -0.765957
vn -0.331416 0.024747 -0.943160
vt 0.944087 0.552900
v 0.000000 0.226641 -0.782243
vn -0.000000 0.021070 -0.999778
vt 0.896868 0.552900
v -0.124844 0.101839 -0.766881
vn -0.326541 -0.004393 -0.945173
vt 0.944087 0.505697
v -0.241081 0.101839 -0.694507
vn -0.622876 0.006079 -0.782297
vt 0.988052 0.505697
v -0.232779 0.226641 -0.701325
vn -0.626934 0.053338 -0.777244
vt 0.984912 0.552900
v -0.206278 0.351443 -0.707116
vn -0.640348 0.155015 -0.752280
vt 0.974888 0.600104
v -0.162603 0.518740 -0.696957
vn -0.653662 0.100032 -0.750146
vt 0.958369 0.663381
v -0.173764 0.710435 -0.685315
vn -0.644436 -0.041833 -0.763513
vt 0.962591 0.735885
v -0.068648 0.888358 -0.803767
vn -0.463011 -0.329964 -0.822645
vt 0.922832 0.803181
v -0.171074 0.877854 -0.681287
vn -0.744599 0.404221 -0.531205
vt 0.961573 0.799208
v -0.043287 0.983303 -0.876779
vn -0.462435 -0.514094 -0.722399
vt 0.913240 0.839092
v -0.085120 0.976561 -0.819978
vn -0.959077 0.070714 -0.274173
vt 0.929063 0.836542
v 0.051005 1.203176 -1.047402
vn 0.445442 -0.360129 -0.819688
vt 0.877576 0.922254
v -0.000000 1.203176 -1.047690
vn -0.000000 -0.383499 -0.923541
vt 0.896868 0.922254
v -0.000000 1.312578 -1.067671
vn 0.000000 0.256010 -0.966674
vt 0.896868 0.963633
v 0.042642 1.058119 -0.937808
vn 0.429470 -0.561651 -0.707180
vt 0.880740 0.867389
v -0.000000 1.058119 -0.951236
vn 0.000000 -0.612125 -0.790761
vt 0.896868 0.867389
v 0.043287 0.983303 -0.876779
vn 0.462435 -0.514094 -0.722399
vt 0.880495 0.839092
v 0.000000 0.983303 -0.886649
vn 0.000000 -0.613825 -0.789442
vt 0.896868 0.839092
v 0.068648 0.888358 -0.803767
vn 0.463011 -0.329964 -0.822645
vt 0.870903 0.803181
v 0.090261 0.710435 -0.741530
vn 0.400538 -0.096512 -0.911183
vt 0.862729 0.735885
v 0.108628 0.518740 -0.738702
vn 0.361251 0.089705 -0.928144
vt 0.855782 0.663381
v 0.124844 0.351443 -0.759589
vn 0.348068 0.106425 -0.931409
vt 0.849648 0.600104
v 0.124844 0.226641 -0.765957
vn 0.331416 0.024747 -0.943160
vt 0.849648 0.552900
v 0.124844 0.101839 -0.766881
vn 0.326541 -0.004393 -0.945173
vt 0.849648 0.505697
v 0.000000 0.101839 -0.779866
vn 0.000000 -0.005818 -0.999983
vt 0.896868 0.505697
v 0.241081 0.101839 -0.694507
vn 0.622876 0.006079 -0.782297
vt 0.805684 0.505697
v 0.232779 0.226641 -0.701325
vn 0.626935 0.053338 -0.777244
vt 0.808824 0.552900
v 0.206278 0.351443 -0.707116
vn 0.640348 0.155015 -0.752280
vt 0.818848 0.600104
v 0.162603 0.518740 -0.696957
vn 0.653662 0.100032 -0.750146
vt 0.835367 0.663381
v 0.173764 0.710435 -0.685315
vn 0.644436 -0.041833 -0.763513
vt 0.831145 0.735885
v 0.171074 0.877854 -0.681287
vn 0.744599 0.404221 -0.531204
vt 0.832163 0.799208
v 0.085120 0.976561 -0.819978
vn 0.959077 0.070714 -0.274173
vt 0.864673 0.836542
v 0.068207 1.384298 -0.900571
vn 0.442234 0.887187 0.131636
vt 0.715375 0.699171
v 0.072677 1.360182 -0.834536
vn 0.491945 0.686072 0.535999
vt 0.684071 0.687738
v 0.107581 1.342935 -0.893631
vn 0.910362 0.399256 0.108793
vt 0.712084 0.679562
v -0.000000 0.283341 0.852248
vn 0.000000 0.975744 0.218912
vt 0.165501 0.292458
v -0.126929 0.236563 0.968724
vn -0.383637 0.823553 0.417832
vt 0.099383 0.231784
v -0.000000 0.256167 0.966653
vn -0.000000 0.923173 0.384385
vt 0.165501 0.232863
v -0.150189 0.262925 0.853328
vn -0.334920 0.900269 0.278109
vt 0.087266 0.291895
v -0.000000 0.304440 0.741638
vn -0.000000 0.976145 0.217121
vt 0.165501 0.350076
v -0.176367 0.283347 0.741638
vn -0.293813 0.923819 0.245425
vt 0.073630 0.350076
v -0.181423 0.316961 0.606383
vn -0.299611 0.920903 0.249342
vt 0.070996 0.420532
v -0.000000 0.336082 0.606383
vn 0.000000 0.961425 0.275066
vt 0.165501 0.420532
v 0.181423 0.316961 0.606383
vn 0.299611 0.920903 0.249342
vt 0.260006 0.420532
v 0.174477 0.372927 0.442437
vn 0.330012 0.878079 0.346509
vt 0.256388 0.505933
v -0.000000 0.388938 0.442437
vn 0.000000 0.913440 0.406973
vt 0.165501 0.505933
v 0.157061 0.426747 0.343336
vn 0.340114 0.766242 0.545157
vt 0.247316 0.557556
v -0.000000 0.445332 0.352630
vn 0.000000 0.783596 0.621270
vt 0.165501 0.552715
v 0.139646 0.483366 0.290140
vn 0.363709 0.649491 0.667740
vt 0.238244 0.585266
v -0.000000 0.494043 0.311240
vn 0.000000 0.655293 0.755375
vt 0.165501 0.574275
v -0.000000 0.544255 0.263725
vn 0.000000 0.999773 -0.021309
vt 0.165501 0.599026
v -0.139646 0.483366 0.290140
vn -0.363709 0.649491 0.667740
vt 0.092758 0.585266
v -0.137542 0.531884 0.258157
vn -0.071864 0.997401 0.005242
vt 0.093854 0.601926
v -0.196495 0.473217 0.250038
vn -0.649294 0.600068 0.467264
vt 0.063145 0.606156
v -0.188400 0.512719 0.203748
vn -0.130420 0.858781 0.495466
vt 0.067362 0.630268
v -0.157061 0.426747 0.343336
vn -0.340114 0.766242 0.545157
vt 0.083686 0.557556
v -0.174477 0.372927 0.442437
vn -0.330012 0.878079 0.346509
vt 0.074614 0.505933
v 0.150189 0.262925 0.853328
vn 0.334920 0.900269 0.278109
vt 0.243736 0.291895
v 0.176367 0.283347 0.741638
vn 0.293812 0.923819 0.245425
vt 0.257373 0.350076
v 0.264523 0.237458 0.741638
vn 0.598443 0.749103 0.284097
vt 0.303294 0.350076
v 0.289494 0.261500 0.606383
vn 0.623027 0.758252 0.192069
vt 0.316302 0.420532
v 0.274126 0.296929 0.442437
vn 0.639462 0.737247 0.218072
vt 0.308296 0.505933
v 0.235310 0.381715 0.323285
vn 0.638723 0.673283 0.372455
vt 0.288077 0.568001
v 0.196495 0.473217 0.250038
vn 0.649294 0.600068 0.467265
vt 0.267858 0.606156
v 0.137542 0.531884 0.258157
vn 0.071864 0.997401 0.005242
vt 0.237149 0.601926
v -0.000000 0.505167 0.239318
vn -0.000000 0.295993 -0.955190
vt 0.165501 0.611740
v -0.149444 0.494691 0.224746
vn 0.383873 0.298818 -0.873699
vt 0.087654 0.619331
v -0.177123 0.505833 0.179950
vn 0.901931 0.271671 -0.335731
vt 0.073236 0.642665
v 0.188400 0.512719 0.203748
vn 0.130419 0.858781 0.495466
vt 0.263641 0.630268
v 0.149444 0.494691 0.224746
vn -0.383873 0.298818 -0.873699
vt 0.243349 0.619331
v 0.177123 0.505833 0.179950
vn -0.901931 0.271671 -0.335731
vt 0.257767 0.642665
v 0.126929 0.236563 0.968724
vn 0.383637 0.823553 0.417832
vt 0.231620 0.231784
v -0.000000 0.204121 1.053186
vn -0.000000 0.499498 0.866315
vt 0.165501 0.187787
v 0.109531 0.193421 1.042957
vn 0.466540 0.427686 0.774225
vt 0.222558 0.193115
v 0.223558 0.177996 0.914881
vn 0.745438 0.430192 0.509173
vt 0.281955 0.259832
v 0.242550 0.212458 0.832072
vn 0.582362 0.736422 0.344291
vt 0.291848 0.302968
v -0.235310 0.381715 0.323285
vn -0.638723 0.673283 0.372455
vt 0.042926 0.568001
v -0.274126 0.296929 0.442437
vn -0.639462 0.737247 0.218072
vt 0.022706 0.505933
v -0.289494 0.261500 0.606383
vn -0.623028 0.758252 0.192069
vt 0.014701 0.420532
v -0.264523 0.237458 0.741638
vn -0.598443 0.749103 0.284097
vt 0.027709 0.350076
v -0.242550 0.212458 0.832072
vn -0.582362 0.736422 0.344291
vt 0.039155 0.302968
v -0.223558 0.177996 0.914881
vn -0.745438 0.430192 0.509173
vt 0.049047 0.259832
v -0.109531 0.193421 1.042957
vn -0.466541 0.427686 0.774225
vt 0.108445 0.193115
v -0.317617 -0.000000 -0.205444
vn 0.000658 -0.752402 0.658704
vt 0.239706 0.979499
v -0.161035 0.048529 -0.150169
vn 0.000471 -0.751735 0.659465
vt 0.262067 0.916156
v -0.276447 0.048280 -0.150185
vn 0.000658 -0.752402 0.658704
vt 0.262060 0.962844
v -0.164555 -0.000000 -0.205444
vn 0.000471 -0.751735 0.659465
vt 0.239706 0.917580
v -0.000000 0.048660 -0.150160
vn 0.000000 -0.751068 0.660225
vt 0.262070 0.851012
v -0.000000 0.000000 -0.205444
vn 0.000000 -0.751068 0.660225
vt 0.239706 0.851012
v 0.164555 -0.000000 -0.205444
vn -0.000471 -0.751735 0.659465
vt 0.239706 0.784443
v 0.161035 0.048529 -0.150169
vn -0.000471 -0.751735 0.659465
vt 0.262067 0.785867
v 0.317617 -0.000000 -0.205444
vn -0.000658 -0.752402 0.658704
vt 0.239706 0.722524
v 0.276447 0.048280 -0.150185
vn -0.000658 -0.752402 0.658704
vt 0.262060 0.739179
v -0.307313 -0.008290 0.180835
vn 0.002753 -0.813043 -0.582197
vt 0.395969 0.975331
v -0.277187 0.036187 0.117199
vn 0.002753 -0.813043 -0.582197
vt 0.370226 0.963143
v -0.161035 0.037761 0.117215
vn 0.004255 -0.805015 -0.593239
vt 0.370233 0.916156
v -0.156552 -0.008972 0.180835
vn 0.004255 -0.805015 -0.593239
vt 0.395969 0.914342
v -0.000000 -0.009313 0.180835
vn 0.000000 -0.796849 -0.604179
vt 0.395969 0.851012
v -0.000000 0.040389 0.117224
vn 0.000000 -0.796849 -0.604179
vt 0.370236 0.851012
v 0.161035 0.037761 0.117215
vn -0.004255 -0.805015 -0.593239
vt 0.370233 0.785867
v 0.156552 -0.008972 0.180835
vn -0.004255 -0.805015 -0.593239
vt 0.395969 0.787681
v 0.307313 -0.008290 0.180835
vn -0.002753 -0.813043 -0.582197
vt 0.395969 0.726692
v 0.277187 0.036187 0.117199
vn -0.002753 -0.813043 -0.582197
vt 0.370226 0.738880
v -0.314796 0.090528 -0.185260
vn -0.902209 -0.292949 0.316543
vt 0.738906 0.051045
v -0.332336 -0.000000 -0.455164
vn -0.992822 -0.109966 -0.047041
vt 0.866855 0.008130
v -0.317617 -0.000000 -0.205444
vn -0.912846 -0.104456 0.394717
vt 0.748475 0.008130
v -0.347723 0.101843 -0.455164
vn -0.992822 -0.109966 -0.047041
vt 0.866855 0.056409
v -0.316761 0.101841 -0.618148
vn -0.872402 -0.168770 -0.458727
vt 0.944119 0.056408
v -0.304661 -0.000000 -0.604519
vn -0.872402 -0.168770 -0.458727
vt 0.937658 0.008130
v -0.241081 0.101839 -0.694507
vn -0.563554 -0.239135 -0.790709
vt 0.980317 0.056407
v -0.223839 -0.000000 -0.684959
vn -0.563554 -0.239135 -0.790709
vt 0.975791 0.008130
v -0.109531 0.107986 1.044983
vn -0.461755 -0.224800 0.858048
vt 0.155705 0.062547
v -0.193220 -0.006804 0.914881
vn -0.783202 -0.238973 0.574009
vt 0.217381 0.008130
v -0.109531 -0.006804 1.013506
vn -0.461755 -0.224800 0.858048
vt 0.170627 0.008130
v -0.223558 0.095013 0.914881
vn -0.783202 -0.238973 0.574009
vt 0.217381 0.056396
v -0.331656 0.094254 0.741638
vn -0.903079 -0.251074 0.348438
vt 0.299507 0.056404
v -0.292875 -0.008165 0.741638
vn -0.903079 -0.251074 0.348438
vt 0.299507 0.008130
v -0.342752 0.092624 0.606383
vn -0.980271 -0.138183 0.141333
vt 0.363625 0.056407
v -0.335354 -0.009206 0.606383
vn -0.980271 -0.138183 0.141333
vt 0.363625 0.008130
v -0.351502 -0.009577 0.442437
vn -0.997204 -0.058327 -0.046718
vt 0.441344 0.008130
v -0.356201 0.093594 0.442437
vn -0.997204 -0.058327 -0.046718
vt 0.441344 0.056411
v -0.326005 -0.008480 0.311636
vn -0.985617 -0.056122 -0.159406
vt 0.503351 0.008130
v -0.325047 0.097312 0.266529
vn -0.985617 -0.056122 -0.159406
vt 0.524734 0.057868
v -0.307087 0.085459 0.136523
vn -0.904633 -0.293533 -0.308994
vt 0.586364 0.051639
v -0.307313 -0.008290 0.180835
vn -0.919306 -0.163459 -0.357992
vt 0.565358 0.008130
v -0.277187 0.036187 0.117199
vn -0.828608 -0.405165 -0.386329
vt 0.595525 0.028353
v -0.281906 0.087106 0.000275
vn -0.813001 -0.581300 -0.033479
vt 0.650953 0.050427
v -0.253116 0.052154 -0.000338
vn -0.813001 -0.581300 -0.033479
vt 0.651244 0.033948
v -0.276447 0.048280 -0.150185
vn -0.813641 -0.397334 0.424398
vt 0.722279 0.031017
v -0.042642 1.058119 -0.937808
vn -0.429470 -0.561651 -0.707180
vt 0.912996 0.867389
v -0.051005 1.203176 -1.047402
vn -0.445442 -0.360129 -0.819688
vt 0.916159 0.922254
v -0.054530 1.312578 -1.064482
vn -0.473277 0.223324 -0.852136
vt 0.917492 0.963633
v -0.000000 1.369263 -1.023933
vn 0.000000 0.817285 -0.576233
vt 0.896868 0.985073
v -0.060067 1.357799 -1.023933
vn -0.458479 0.693786 -0.555390
vt 0.919587 0.980737
v -0.068207 1.379032 -0.962252
vn -0.467747 0.855842 -0.220788
vt 0.922666 0.988768
v -0.000000 1.390496 -0.962252
vn -0.000000 0.977275 -0.211975
vt 0.896868 0.993104
v 0.068207 1.379032 -0.962252
vn 0.467746 0.855842 -0.220788
vt 0.871070 0.988768
v 0.060067 1.357799 -1.023933
vn 0.458479 0.693786 -0.555390
vt 0.874149 0.980737
v 0.054530 1.312578 -1.064482
vn 0.473278 0.223324 -0.852135
vt 0.876243 0.963633
v 0.161035 0.052868 0.000664
vn -0.008106 -0.998782 -0.048668
vt 0.323084 0.785867
v 0.253116 0.052154 -0.000338
vn -0.008046 -0.998620 -0.051892
vt 0.322678 0.748617
v 0.277187 0.036187 0.117199
vn -0.011533 -0.991392 -0.130415
vt 0.370226 0.738880
v 0.276447 0.048280 -0.150185
vn -0.004509 -0.999627 0.026954
vt 0.262060 0.739179
v 0.161035 0.048529 -0.150169
vn -0.004344 -0.999551 0.029652
vt 0.262067 0.785867
v -0.000000 0.054102 0.001194
vn 0.000000 -0.998967 -0.045445
vt 0.323298 0.851012
v -0.000000 0.048660 -0.150160
vn 0.000000 -0.999477 0.032351
vt 0.262070 0.851012
v -0.161035 0.048529 -0.150169
vn 0.004344 -0.999551 0.029653
vt 0.262067 0.916156
v -0.161035 0.052868 0.000664
vn 0.008106 -0.998782 -0.048668
vt 0.323084 0.916156
v -0.276447 0.048280 -0.150185
vn 0.004509 -0.999627 0.026954
vt 0.262060 0.962844
v -0.253116 0.052154 -0.000338
vn 0.008046 -0.998620 -0.051892
vt 0.322678 0.953406
v -0.277187 0.036187 0.117199
vn 0.011533 -0.991392 -0.130415
vt 0.370226 0.963143
v -0.161035 0.037761 0.117215
vn 0.011819 -0.991872 -0.126689
vt 0.370233 0.916156
v -0.000000 0.040389 0.117224
vn 0.000000 -0.992410 -0.122971
vt 0.370236 0.851012
v 0.161035 0.037761 0.117215
vn -0.011819 -0.991872 -0.126689
vt 0.370233 0.785867
g Schuh_Low_part_0
# Submesh 0: 774 triangles
f 1/1/1 2/2/2 3/3/3
f 4/4/4 5/5/5 6/6/6
f 4/4/4 6/6/6 7/7/7
f 8/8/8 9/9/9 10/10/10
f 10/10/10 9/9/9 11/11/11
f 9/9/9 12/12/12 11/11/11
f 10/10/10 11/11/11 13/13/13
f 8/8/8 14/14/14 9/9/9
f 8/8/8 15/15/15 14/14/14
f 8/8/8 16/16/16 15/15/15
f 16/16/16 17/17/17 15/15/15
f 16/16/16 18/18/18 17/17/17
f 15/15/15 17/17/17 19/19/19
f 15/15/15 19/19/19 20/20/20
f 14/14/14 15/15/15 20/20/20
f 14/14/14 20/20/20 21/21/21
f 14/14/14 21/21/21 22/22/22
f 22/22/22 21/21/21 23/23/23
f 22/22/22 23/23/23 24/24/24
f 23/23/23 25/25/25 24/24/24
f 23/23/23 26/26/26 25/25/25
f 23/23/23 27/27/27 26/26/26
f 23/23/23 28/28/28 27/27/27
f 20/20/20 28/28/28 23/23/23
f 20/20/20 23/23/23 21/21/21
f 19/19/19 28/28/28 20/20/20
f 19/19/19 29/29/29 28/28/28
f 28/28/28 29/29/29 30/30/30
f 28/28/28 30/30/30 27/27/27
f 27/27/27 30/30/30 31/31/31
f 27/27/27 31/31/31 32/32/32
f 26/26/26 27/27/27 32/32/32
f 26/26/26 32/32/32 33/33/33
f 26/26/26 33/33/33 34/34/34
f 26/26/26 34/34/34 25/25/25
f 25/25/25 34/34/34 35/35/35
f 25/25/25 35/35/35 36/36/36
f 24/24/24 25/25/25 36/36/36
f 24/24/24 36/36/36 37/37/37
f 12/12/12 24/24/24 37/37/37
f 12/12/12 22/22/22 24/24/24
f 9/9/9 22/22/22 12/12/12
f 14/14/14 22/22/22 9/9/9
f 38/38/38 39/39/39 40/40/40
f 38/38/38 40/40/40 41/41/41
f 42/42/42 43/43/43 44/44/44
f 42/42/42 44/44/44 45/45/45
f 46/46/46 47/47/47 48/48/48
f 46/46/46 48/48/48 49/49/49
f 50/50/50 51/51/51 52/52/52
f 50/50/50 52/52/52 53/53/53
f 54/54/54 55/55/55 56/56/56
f 54/54/54 56/56/56 57/57/57
f 55/55/55 58/58/58 59/59/59
f 55/55/55 59/59/59 56/56/56
f 56/56/56 59/59/59 60/60/60
f 56/56/56 60/60/60 61/61/61
f 57/57/57 56/56/56 61/61/61
f 57/57/57 61/61/61 62/62/62
f 63/63/63 64/64/64 65/65/65
f 66/66/66 64/64/64 63/63/63
f 66/66/66 67/67/67 64/64/64
f 66/66/66 62/62/62 67/67/67
f 62/62/62 68/68/68 67/67/67
f 62/62/62 61/61/61 68/68/68
f 61/61/61 69/69/69 68/68/68
f 61/61/61 60/60/60 69/69/69
f 70/70/70 69/69/69 60/60/60
f 70/70/70 60/60/60 71/71/71
f 71/71/71 60/60/60 59/59/59
f 71/71/71 59/59/59 72/72/72
f 72/72/72 59/59/59 58/58/58
f 72/72/72 58/58/58 73/73/73
f 73/73/73 58/58/58 55/55/55
f 73/73/73 55/55/55 74/74/74
f 74/74/74 55/55/55 54/54/54
f 74/74/74 54/54/54 75/75/75
f 76/76/76 77/77/77 78/78/78
f 76/76/76 79/79/79 77/77/77
f 80/80/80 79/79/79 76/76/76
f 81/81/81 79/79/79 80/80/80
f 82/82/82 81/81/81 80/80/80
f 83/83/83 81/81/81 82/82/82
f 65/65/65 83/83/83 82/82/82
f 64/64/64 83/83/83 65/65/65
f 64/64/64 67/67/67 83/83/83
f 67/67/67 84/84/84 83/83/83
f 67/67/67 68/68/68 84/84/84
f 68/68/68 85/85/85 84/84/84
f 68/68/68 69/69/69 85/85/85
f 86/86/86 85/85/85 69/69/69
f 86/86/86 69/69/69 70/70/70
f 83/83/83 84/84/84 81/81/81
f 84/84/84 77/77/77 81/81/81
f 84/84/84 85/85/85 77/77/77
f 78/78/78 77/77/77 85/85/85
f 78/78/78 85/85/85 86/86/86
f 81/81/81 77/77/77 79/79/79
f 87/87/87 72/72/72 88/88/88
f 87/87/87 71/71/71 72/72/72
f 89/89/89 71/71/71 87/87/87
f 89/89/89 70/70/70 71/71/71
f 90/90/90 70/70/70 89/89/89
f 90/90/90 86/86/86 70/70/70
f 91/91/91 86/86/86 90/90/90
f 91/91/91 78/78/78 86/86/86
f 92/92/92 78/78/78 91/91/91
f 92/92/92 76/76/76 78/78/78
f 93/93/93 76/76/76 92/92/92
f 80/80/80 76/76/76 93/93/93
f 94/94/94 80/80/80 93/93/93
f 82/82/82 80/80/80 94/94/94
f 95/95/95 82/82/82 94/94/94
f 65/65/65 82/82/82 95/95/95
f 96/96/96 65/65/65 95/95/95
f 63/63/63 65/65/65 96/96/96
f 96/96/96 95/95/95 97/97/97
f 93/93/93 92/92/92 98/98/98
f 99/99/99 93/93/93 98/98/98
f 94/94/94 93/93/93 99/99/99
f 100/100/100 94/94/94 99/99/99
f 95/95/95 94/94/94 100/100/100
f 97/97/97 95/95/95 100/100/100
f 97/97/97 100/100/100 101/101/101
f 101/101/101 100/100/100 102/102/102
f 101/101/101 102/102/102 103/103/103
f 103/103/103 102/102/102 104/104/104
f 103/103/103 104/104/104 105/105/105
f 100/100/100 99/99/99 102/102/102
f 102/102/102 99/99/99 106/106/106
f 102/102/102 106/106/106 104/104/104
f 99/99/99 98/98/98 106/106/106
f 107/107/107 108/108/108 109/109/109
f 110/110/110 111/111/111 112/112/112
f 110/110/110 112/112/112 113/113/113
f 110/110/110 113/113/113 114/114/114
f 110/110/110 114/114/114 115/115/115
f 116/116/116 117/117/117 118/118/118
f 116/116/116 118/118/118 119/119/119
f 120/120/120 121/121/121 122/122/122
f 120/120/120 122/122/122 123/123/123
f 124/124/124 125/125/125 126/126/126
f 124/124/124 126/126/126 127/127/127
f 128/128/128 129/129/129 130/130/130
f 128/128/128 130/130/130 131/131/131
f 132/132/132 133/133/133 134/134/134
f 132/132/132 134/134/134 135/135/135
f 136/136/136 137/137/137 138/138/138
f 136/136/136 138/138/138 139/139/139
f 140/140/140 141/141/141 142/142/142
f 140/140/140 142/142/142 143/143/143
f 144/144/144 140/140/140 143/143/143
f 144/144/144 143/143/143 145/145/145
f 144/144/144 145/145/145 146/146/146
f 144/144/144 146/146/146 147/147/147
f 147/147/147 146/146/146 148/148/148
f 147/147/147 148/148/148 149/149/149
f 150/150/150 151/151/151 152/152/152
f 150/150/150 152/152/152 153/153/153
f 150/150/150 153/153/153 154/154/154
f 150/150/150 154/154/154 155/155/155
f 156/156/156 157/157/157 158/158/158
f 158/158/158 157/157/157 159/159/159
f 157/157/157 160/160/160 159/159/159
f 158/158/158 159/159/159 161/161/161
f 162/162/162 163/163/163 164/164/164
f 164/164/164 163/163/163 156/156/156
f 163/163/163 165/165/165 156/156/156
f 156/156/156 165/165/165 157/157/157
f 165/165/165 166/166/166 157/157/157
f 157/157/157 166/166/166 160/160/160
f 166/166/166 167/167/167 160/160/160
f 160/160/160 167/167/167 168/168/168
f 160/160/160 168/168/168 169/169/169
f 159/159/159 160/160/160 169/169/169
f 159/159/159 169/169/169 170/170/170
f 161/161/161 159/159/159 170/170/170
f 161/161/161 170/170/170 171/171/171
f 172/172/172 161/161/161 171/171/171
f 173/173/173 161/161/161 172/172/172
f 173/173/173 158/158/158 161/161/161
f 174/174/174 158/158/158 173/173/173
f 174/174/174 156/156/156 158/158/158
f 164/164/164 156/156/156 174/174/174
f 175/175/175 164/164/164 174/174/174
f 176/176/176 164/164/164 175/175/175
f 177/177/177 164/164/164 176/176/176
f 177/177/177 178/178/178 164/164/164
f 178/178/178 162/162/162 164/164/164
f 162/162/162 179/179/179 163/163/163
f 179/179/179 180/180/180 163/163/163
f 163/163/163 180/180/180 165/165/165
f 180/180/180 181/181/181 165/165/165
f 165/165/165 181/181/181 166/166/166
f 181/181/181 182/182/182 166/166/166
f 166/166/166 182/182/182 167/167/167
f 167/167/167 182/182/182 183/183/183
f 167/167/167 183/183/183 184/184/184
f 167/167/167 184/184/184 185/185/185
f 167/167/167 185/185/185 168/168/168
f 185/185/185 186/186/186 168/168/168
f 169/169/169 168/168/168 186/186/186
f 169/169/169 186/186/186 187/187/187
f 170/170/170 169/169/169 187/187/187
f 170/170/170 187/187/187 188/188/188
f 171/171/171 170/170/170 188/188/188
f 171/171/171 188/188/188 189/189/189
f 190/190/190 186/186/186 185/185/185
f 190/190/190 191/191/191 186/186/186
f 186/186/186 191/191/191 192/192/192
f 187/187/187 186/186/186 192/192/192
f 187/187/187 192/192/192 193/193/193
f 188/188/188 187/187/187 193/193/193
f 188/188/188 193/193/193 194/194/194
f 189/189/189 188/188/188 194/194/194
f 189/189/189 194/194/194 195/195/195
f 196/196/196 189/189/189 195/195/195
f 196/196/196 195/195/195 197/197/197
f 198/198/198 196/196/196 197/197/197
f 198/198/198 197/197/197 199/199/199
f 200/200/200 198/198/198 199/199/199
f 172/172/172 171/171/171 189/189/189
f 172/172/172 189/189/189 196/196/196
f 173/173/173 172/172/172 196/196/196
f 173/173/173 196/196/196 198/198/198
f 174/174/174 173/173/173 198/198/198
f 174/174/174 198/198/198 200/200/200
f 200/200/200 201/201/201 174/174/174
f 202/202/202 174/174/174 201/201/201
f 202/202/202 175/175/175 174/174/174
f 203/203/203 175/175/175 202/202/202
f 203/203/203 176/176/176 175/175/175
f 203/203/203 204/204/204 176/176/176
f 204/204/204 177/177/177 176/176/176
f 204/204/204 205/205/205 177/177/177
f 206/206/206 205/205/205 204/204/204
f 206/206/206 204/204/204 207/207/207
f 208/208/208 206/206/206 207/207/207
f 208/208/208 207/207/207 209/209/209
f 210/210/210 208/208/208 209/209/209
f 210/210/210 211/211/211 208/208/208
f 203/203/203 212/212/212 204/204/204
f 212/212/212 207/207/207 204/204/204
f 212/212/212 213/213/213 207/207/207
f 213/213/213 209/209/209 207/207/207
f 213/213/213 214/214/214 209/209/209
f 215/215/215 216/216/216 217/217/217
f 218/218/218 219/219/219 220/220/220
f 218/218/218 220/220/220 221/221/221
f 222/222/222 223/223/223 224/224/224
f 222/222/222 224/224/224 225/225/225
f 226/226/226 227/227/227 228/228/228
f 226/226/226 228/228/228 229/229/229
f 230/230/230 231/231/231 232/232/232
f 230/230/230 232/232/232 233/233/233
f 234/234/234 235/235/235 236/236/236
f 234/234/234 236/236/236 237/237/237
f 238/238/238 239/239/239 240/240/240
f 238/238/238 240/240/240 236/236/236
f 241/241/241 240/240/240 242/242/242
f 237/237/237 241/241/241 243/243/243
f 241/241/241 242/242/242 243/243/243
f 243/243/243 242/242/242 244/244/244
f 239/239/239 245/245/245 246/246/246
f 239/239/239 246/246/246 247/247/247
f 239/239/239 247/247/247 240/240/240
f 240/240/240 247/247/247 248/248/248
f 240/240/240 248/248/248 242/242/242
f 242/242/242 248/248/248 249/249/249
f 242/242/242 249/249/249 244/244/244
f 250/250/250 244/244/244 249/249/249
f 251/251/251 74/74/74 75/75/75
f 251/251/251 75/75/75 252/252/252
f 251/251/251 252/252/252 253/253/253
f 251/251/251 253/253/253 254/254/254
f 254/254/254 253/253/253 237/237/237
f 254/254/254 237/237/237 255/255/255
f 237/237/237 243/243/243 255/255/255
f 255/255/255 243/243/243 256/256/256
f 243/243/243 244/244/244 256/256/256
f 257/257/257 256/256/256 244/244/244
f 250/250/250 257/257/257 244/244/244
f 89/89/89 257/257/257 250/250/250
f 90/90/90 89/89/89 250/250/250
f 90/90/90 250/250/250 258/258/258
f 258/258/258 250/250/250 249/249/249
f 258/258/258 249/249/249 259/259/259
f 248/248/248 259/259/259 249/249/249
f 248/248/248 260/260/260 259/259/259
f 261/261/261 258/258/258 259/259/259
f 89/89/89 87/87/87 257/257/257
f 87/87/87 262/262/262 257/257/257
f 257/257/257 262/262/262 256/256/256
f 262/262/262 263/263/263 256/256/256
f 255/255/255 256/256/256 263/263/263
f 264/264/264 255/255/255 263/263/263
f 264/264/264 254/254/254 255/255/255
f 265/265/265 254/254/254 264/264/264
f 265/265/265 251/251/251 254/254/254
f 265/265/265 74/74/74 251/251/251
f 265/265/265 73/73/73 74/74/74
f 88/88/88 73/73/73 265/265/265
f 88/88/88 72/72/72 73/73/73
f 88/88/88 265/265/265 264/264/264
f 87/87/87 88/88/88 262/262/262
f 88/88/88 264/264/264 262/262/262
f 262/262/262 264/264/264 263/263/263
f 266/266/266 267/267/267 261/261/261
f 267/267/267 268/268/268 261/261/261
f 267/267/267 269/269/269 268/268/268
f 270/270/270 271/271/271 272/272/272
f 270/270/270 272/272/272 273/273/273
f 273/273/273 272/272/272 274/274/274
f 273/273/273 274/274/274 275/275/275
f 275/275/275 274/274/274 266/266/266
f 275/275/275 266/266/266 276/276/276
f 266/266/266 261/261/261 276/276/276
f 276/276/276 261/261/261 277/277/277
f 261/261/261 259/259/259 277/277/277
f 260/260/260 277/277/277 259/259/259
f 260/260/260 278/278/278 277/277/277
f 279/279/279 278/278/278 260/260/260
f 279/279/279 280/280/280 278/278/278
f 281/281/281 280/280/280 279/279/279
f 281/281/281 282/282/282 280/280/280
f 282/282/282 283/283/283 280/280/280
f 282/282/282 284/284/284 283/283/283
f 284/284/284 273/273/273 283/283/283
f 284/284/284 270/270/270 273/273/273
f 285/285/285 275/275/275 276/276/276
f 283/283/283 273/273/273 275/275/275
f 283/283/283 275/275/275 285/285/285
f 280/280/280 283/283/283 285/285/285
f 280/280/280 285/285/285 278/278/278
f 278/278/278 285/285/285 286/286/286
f 285/285/285 276/276/276 286/286/286
f 276/276/276 277/277/277 286/286/286
f 278/278/278 286/286/286 277/277/277
f 247/247/247 260/260/260 248/248/248
f 247/247/247 279/279/279 260/260/260
f 246/246/246 279/279/279 247/247/247
f 246/246/246 281/281/281 279/279/279
f 245/245/245 281/281/281 246/246/246
f 245/245/245 287/287/287 281/281/281
f 287/287/287 282/282/282 281/281/281
f 287/287/287 288/288/288 282/282/282
f 288/288/288 284/284/284 282/282/282
f 288/288/288 289/289/289 284/284/284
f 289/289/289 270/270/270 284/284/284
f 289/289/289 290/290/290 270/270/270
f 290/290/290 271/271/271 270/270/270
f 290/290/290 291/291/291 271/271/271
f 292/292/292 293/293/293 294/294/294
f 295/295/295 296/296/296 297/297/297
f 295/295/295 297/297/297 298/298/298
f 299/299/299 300/300/300 301/301/301
f 299/299/299 301/301/301 302/302/302
f 303/303/303 304/304/304 305/305/305
f 303/303/303 305/305/305 306/306/306
f 307/307/307 308/308/308 309/309/309
f 307/307/307 309/309/309 310/310/310
f 311/311/311 312/312/312 313/313/313
f 311/311/311 313/313/313 314/314/314
f 315/315/315 316/316/316 317/317/317
f 315/315/315 317/317/317 318/318/318
f 317/317/317 319/319/319 318/318/318
f 317/317/317 320/320/320 319/319/319
f 320/320/320 321/321/321 319/319/319
f 320/320/320 322/322/322 321/321/321
f 323/323/323 324/324/324 325/325/325
f 323/323/323 325/325/325 326/326/326
f 325/325/325 327/327/327 326/326/326
f 325/325/325 328/328/328 327/327/327
f 328/328/328 329/329/329 327/327/327
f 328/328/328 330/330/330 329/329/329
f 329/329/329 330/330/330 331/331/331
f 329/329/329 331/331/331 332/332/332
f 332/332/332 331/331/331 333/333/333
f 332/332/332 333/333/333 334/334/334
f 333/333/333 335/335/335 334/334/334
f 333/333/333 336/336/336 335/335/335
f 335/335/335 336/336/336 337/337/337
f 337/337/337 338/338/338 335/335/335
f 337/337/337 339/339/339 338/338/338
f 339/339/339 315/315/315 338/338/338
f 339/339/339 340/340/340 315/315/315
f 340/340/340 316/316/316 315/315/315
f 341/341/341 342/342/342 343/343/343
f 341/341/341 343/343/343 344/344/344
f 345/345/345 346/346/346 347/347/347
f 345/345/345 347/347/347 348/348/348
f 349/349/349 350/350/350 351/351/351
f 349/349/349 351/351/351 352/352/352
f 353/353/353 354/354/354 355/355/355
f 353/353/353 355/355/355 356/356/356
f 357/357/357 358/358/358 359/359/359
f 357/357/357 359/359/359 360/360/360
f 361/361/361 362/362/362 363/363/363
f 361/361/361 363/363/363 364/364/364
f 365/365/365 366/366/366 367/367/367
f 365/365/365 367/367/367 368/368/368
f 369/369/369 370/370/370 371/371/371
f 369/369/369 371/371/371 372/372/372
f 373/373/373 374/374/374 375/375/375
f 373/373/373 375/375/375 376/376/376
f 377/377/377 378/378/378 379/379/379
f 377/377/377 379/379/379 380/380/380
f 381/381/381 382/382/382 383/383/383
f 381/381/381 383/383/383 384/384/384
f 384/384/384 383/383/383 385/385/385
f 386/386/386 381/381/381 384/384/384
f 382/382/382 387/387/387 388/388/388
f 382/382/382 388/388/388 383/383/383
f 383/383/383 388/388/388 389/389/389
f 383/383/383 389/389/389 385/385/385
f 385/385/385 389/389/389 183/183/183
f 385/385/385 183/183/183 182/182/182
f 181/181/181 385/385/385 182/182/182
f 384/384/384 385/385/385 181/181/181
f 180/180/180 384/384/384 181/181/181
f 386/386/386 384/384/384 180/180/180
f 179/179/179 386/386/386 180/180/180
f 390/390/390 391/391/391 392/392/392
f 393/393/393 394/394/394 395/395/395
f 395/395/395 394/394/394 396/396/396
f 394/394/394 397/397/397 396/396/396
f 395/395/395 396/396/396 398/398/398
f 399/399/399 400/400/400 393/393/393
f 393/393/393 400/400/400 394/394/394
f 400/400/400 401/401/401 394/394/394
f 394/394/394 401/401/401 397/397/397
f 401/401/401 402/402/402 397/397/397
f 397/397/397 402/402/402 403/403/403
f 397/397/397 403/403/403 404/404/404
f 396/396/396 397/397/397 404/404/404
f 396/396/396 404/404/404 405/405/405
f 398/398/398 396/396/396 405/405/405
f 398/398/398 405/405/405 406/406/406
f 407/407/407 408/408/408 409/409/409
f 407/407/407 409/409/409 403/403/403
f 407/407/407 403/403/403 402/402/402
f 410/410/410 407/407/407 402/402/402
f 401/401/401 410/410/410 402/402/402
f 411/411/411 410/410/410 401/401/401
f 400/400/400 411/411/411 401/401/401
f 412/412/412 411/411/411 400/400/400
f 399/399/399 412/412/412 400/400/400
f 413/413/413 412/412/412 399/399/399
f 414/414/414 415/415/415 413/413/413
f 413/413/413 415/415/415 412/412/412
f 415/415/415 416/416/416 412/412/412
f 412/412/412 416/416/416 411/411/411
f 416/416/416 417/417/417 411/411/411
f 411/411/411 417/417/417 410/410/410
f 417/417/417 418/418/418 410/410/410
f 410/410/410 418/418/418 407/407/407
f 418/418/418 419/419/419 407/407/407
f 407/407/407 419/419/419 408/408/408
f 408/408/408 419/419/419 420/420/420
f 421/421/421 408/408/408 420/420/420
f 421/421/421 420/420/420 422/422/422
f 420/420/420 423/423/423 422/422/422
f 424/424/424 423/423/423 420/420/420
f 424/424/424 425/425/425 423/423/423
f 426/426/426 425/425/425 424/424/424
f 426/426/426 427/427/427 425/425/425
f 428/428/428 415/415/415 414/414/414
f 428/428/428 429/429/429 415/415/415
f 429/429/429 430/430/430 415/415/415
f 430/430/430 431/431/431 415/415/415
f 415/415/415 431/431/431 416/416/416
f 431/431/431 432/432/432 416/416/416
f 416/416/416 432/432/432 417/417/417
f 432/432/432 433/433/433 417/417/417
f 417/417/417 433/433/433 418/418/418
f 433/433/433 434/434/434 418/418/418
f 418/418/418 434/434/434 419/419/419
f 434/434/434 420/420/420 419/419/419
f 434/434/434 424/424/424 420/420/420
f 435/435/435 424/424/424 434/434/434
f 435/435/435 426/426/426 424/424/424
f 436/436/436 426/426/426 435/435/435
f 436/436/436 437/437/437 426/426/426
f 438/438/438 437/437/437 436/436/436
f 439/439/439 438/438/438 440/440/440
f 438/438/438 436/436/436 440/440/440
f 440/440/440 436/436/436 435/435/435
f 438/438/438 441/441/441 437/437/437
f 439/439/439 441/441/441 438/438/438
f 439/439/439 442/442/442 441/441/441
f 431/431/431 442/442/442 439/439/439
f 431/431/431 439/439/439 432/432/432
f 439/439/439 440/440/440 432/432/432
f 432/432/432 440/440/440 433/433/433
f 440/440/440 435/435/435 433/433/433
f 433/433/433 435/435/435 434/434/434
f 437/437/437 427/427/427 426/426/426
f 437/437/437 443/443/443 427/427/427
f 441/441/441 443/443/443 437/437/437
f 441/441/441 444/444/444 443/443/443
f 442/442/442 444/444/444 441/441/441
f 442/442/442 445/445/445 444/444/444
f 446/446/446 445/445/445 442/442/442
f 431/431/431 446/446/446 442/442/442
f 446/446/446 431/431/431 447/447/447
f 448/448/448 447/447/447 431/431/431
f 448/448/448 431/431/431 430/430/430
f 449/449/449 448/448/448 430/430/430
f 449/449/449 430/430/430 429/429/429
f 449/449/449 429/429/429 450/450/450
f 450/450/450 429/429/429 428/428/428
f 450/450/450 428/428/428 451/451/451
f 452/452/452 450/450/450 451/451/451
f 452/452/452 453/453/453 450/450/450
f 449/449/449 450/450/450 454/454/454
f 454/454/454 450/450/450 453/453/453
f 454/454/454 453/453/453 455/455/455
f 455/455/455 453/453/453 456/456/456
f 455/455/455 456/456/456 457/457/457
f 458/458/458 453/453/453 452/452/452
f 458/458/458 456/456/456 453/453/453
f 459/459/459 456/456/456 458/458/458
f 459/459/459 458/458/458 460/460/460
f 461/461/461 462/462/462 463/463/463
f 464/464/464 465/465/465 466/466/466
f 464/464/464 466/466/466 467/467/467
f 464/464/464 467/467/467 468/468/468
f 464/464/464 468/468/468 469/469/469
f 470/470/470 464/464/464 469/469/469
f 471/471/471 464/464/464 470/470/470
f 471/471/471 472/472/472 464/464/464
f 472/472/472 465/465/465 464/464/464
f 472/472/472 473/473/473 465/465/465
f 465/465/465 473/473/473 474/474/474
f 465/465/465 474/474/474 466/466/466
f 466/466/466 474/474/474 475/475/475
f 466/466/466 475/475/475 476/476/476
f 467/467/467 466/466/466 476/476/476
f 467/467/467 476/476/476 477/477/477
f 467/467/467 477/477/477 478/478/478
f 467/467/467 478/478/478 468/468/468
f 468/468/468 478/478/478 479/479/479
f 468/468/468 479/479/479 480/480/480
f 469/469/469 468/468/468 480/480/480
f 469/469/469 480/480/480 481/481/481
f 470/470/470 469/469/469 481/481/481
f 470/470/470 481/481/481 482/482/482
f 472/472/472 483/483/483 473/473/473
f 484/484/484 485/485/485 486/486/486
f 487/487/487 54/54/54 488/488/488
f 487/487/487 488/488/488 489/489/489
f 489/489/489 488/488/488 490/490/490
f 489/489/489 490/490/490 66/66/66
f 491/491/491 492/492/492 493/493/493
f 491/491/491 493/493/493 494/494/494
f 494/494/494 493/493/493 495/495/495
f 494/494/494 495/495/495 496/496/496
f 496/496/496 495/495/495 497/497/497
f 496/496/496 497/497/497 498/498/498
f 498/498/498 497/497/497 499/499/499
f 498/498/498 499/499/499 500/500/500
f 499/499/499 501/501/501 502/502/502
f 500/500/500 499/499/499 502/502/502
f 500/500/500 502/502/502 503/503/503
f 500/500/500 503/503/503 504/504/504
f 500/500/500 504/504/504 505/505/505
f 498/498/498 500/500/500 505/505/505
f 498/498/498 505/505/505 506/506/506
f 496/496/496 498/498/498 506/506/506
f 496/496/496 506/506/506 507/507/507
f 494/494/494 496/496/496 507/507/507
f 494/494/494 507/507/507 508/508/508
f 491/491/491 494/494/494 508/508/508
f 491/491/491 508/508/508 509/509/509
f 505/505/505 504/504/504 510/510/510
f 511/511/511 512/512/512 513/513/513
f 511/511/511 513/513/513 491/491/491
f 511/511/511 491/491/491 514/514/514
f 511/511/511 514/514/514 515/515/515
f 516/516/516 517/517/517 518/518/518
f 519/519/519 516/516/516 518/518/518
f 519/519/519 518/518/518 520/520/520
f 521/521/521 519/519/519 520/520/520
f 521/521/521 520/520/520 522/522/522
f 523/523/523 521/521/521 522/522/522
f 523/523/523 522/522/522 524/524/524
f 525/525/525 523/523/523 524/524/524
f 526/526/526 523/523/523 525/525/525
f 526/526/526 527/527/527 523/523/523
f 527/527/527 521/521/521 523/523/523
f 527/527/527 528/528/528 521/521/521
f 528/528/528 519/519/519 521/521/521
f 528/528/528 529/529/529 519/519/519
f 529/529/529 516/516/516 519/519/519
f 529/529/529 530/530/530 516/516/516
f 530/530/530 531/531/531 516/516/516
f 530/530/530 532/532/532 531/531/531
f 532/532/532 533/533/533 531/531/531
f 532/532/532 534/534/534 533/533/533
f 535/535/535 536/536/536 537/537/537
f 538/538/538 536/536/536 535/535/535
f 538/538/538 539/539/539 536/536/536
f 540/540/540 539/539/539 538/538/538
f 540/540/540 541/541/541 539/539/539
f 542/542/542 541/541/541 540/540/540
f 542/542/542 517/517/517 541/541/541
f 543/543/543 517/517/517 542/542/542
f 543/543/543 518/518/518 517/517/517
f 544/544/544 518/518/518 543/543/543
f 544/544/544 520/520/520 518/518/518
f 545/545/545 520/520/520 544/544/544
f 545/545/545 522/522/522 520/520/520
f 546/546/546 522/522/522 545/545/545
f 546/546/546 524/524/524 522/522/522
f 547/547/547 524/524/524 546/546/546
f 547/547/547 548/548/548 524/524/524
f 525/525/525 524/524/524 548/548/548
f 549/549/549 547/547/547 546/546/546
f 549/549/549 546/546/546 550/550/550
f 550/550/550 546/546/546 545/545/545
f 550/550/550 545/545/545 551/551/551
f 551/551/551 545/545/545 544/544/544
f 551/551/551 544/544/544 552/552/552
f 552/552/552 544/544/544 543/543/543
f 552/552/552 543/543/543 553/553/553
f 553/553/553 543/543/543 542/542/542
f 553/553/553 542/542/542 554/554/554
f 554/554/554 542/542/542 540/540/540
f 554/554/554 540/540/540 555/555/555
f 556/556/556 557/557/557 558/558/558
f 559/559/559 560/560/560 561/561/561
f 559/559/559 562/562/562 560/560/560
f 563/563/563 562/562/562 559/559/559
f 563/563/563 564/564/564 562/562/562
f 563/563/563 565/565/565 564/564/564
f 563/563/563 566/566/566 565/565/565
f 563/563/563 567/567/567 566/566/566
f 566/566/566 567/567/567 568/568/568
f 566/566/566 568/568/568 569/569/569
f 569/569/569 568/568/568 570/570/570
f 569/569/569 570/570/570 571/571/571
f 571/571/571 570/570/570 572/572/572
f 571/571/571 572/572/572 573/573/573
f 574/574/574 573/573/573 572/572/572
f 574/574/574 575/575/575 573/573/573
f 574/574/574 576/576/576 575/575/575
f 576/576/576 577/577/577 575/575/575
f 576/576/576 578/578/578 577/577/577
f 571/571/571 573/573/573 575/575/575
f 571/571/571 575/575/575 579/579/579
f 569/569/569 571/571/571 579/579/579
f 569/569/569 579/579/579 580/580/580
f 566/566/566 569/569/569 580/580/580
f 566/566/566 580/580/580 565/565/565
f 563/563/563 559/559/559 581/581/581
f 563/563/563 581/581/581 582/582/582
f 563/563/563 582/582/582 567/567/567
f 567/567/567 582/582/582 583/583/583
f 567/567/567 583/583/583 584/584/584
f 568/568/568 567/567/567 584/584/584
f 568/568/568 584/584/584 585/585/585
f 568/568/568 585/585/585 586/586/586
f 568/568/568 586/586/586 570/570/570
f 570/570/570 586/586/586 587/587/587
f 570/570/570 587/587/587 572/572/572
f 588/588/588 572/572/572 587/587/587
f 574/574/574 572/572/572 588/588/588
f 589/589/589 574/574/574 588/588/588
f 589/589/589 576/576/576 574/574/574
f 589/589/589 590/590/590 576/576/576
f 590/590/590 578/578/578 576/576/576
f 590/590/590 591/591/591 578/578/578
f 588/588/588 587/587/587 592/592/592
f 593/593/593 588/588/588 592/592/592
f 589/589/589 588/588/588 593/593/593
f 593/593/593 592/592/592 594/594/594
f 595/595/595 596/596/596 597/597/597
f 598/598/598 595/595/595 597/597/597
f 581/581/581 595/595/595 598/598/598
f 581/581/581 598/598/598 599/599/599
f 582/582/582 581/581/581 599/599/599
f 582/582/582 599/599/599 583/583/583
f 579/579/579 575/575/575 577/577/577
f 579/579/579 577/577/577 600/600/600
f 580/580/580 579/579/579 600/600/600
f 580/580/580 600/600/600 601/601/601
f 580/580/580 601/601/601 602/602/602
f 580/580/580 602/602/602 565/565/565
f 565/565/565 602/602/602 603/603/603
f 565/565/565 603/603/603 564/564/564
f 564/564/564 603/603/603 604/604/604
f 564/564/564 604/604/604 562/562/562
f 562/562/562 604/604/604 605/605/605
f 562/562/562 605/605/605 560/560/560
f 605/605/605 606/606/606 560/560/560
f 560/560/560 606/606/606 596/596/596
f 560/560/560 596/596/596 561/561/561
f 595/595/595 561/561/561 596/596/596
f 559/559/559 561/561/561 595/595/595
f 559/559/559 595/595/595 581/581/581
f 607/607/607 608/608/608 609/609/609
f 607/607/607 610/610/610 608/608/608
f 611/611/611 608/608/608 610/610/610
f 611/611/611 610/610/610 612/612/612
f 611/611/611 612/612/612 613/613/613
f 611/611/611 613/613/613 614/614/614
f 615/615/615 614/614/614 613/613/613
f 615/615/615 616/616/616 614/614/614
f 617/617/617 618/618/618 619/619/619
f 617/617/617 619/619/619 620/620/620
f 621/621/621 620/620/620 619/619/619
f 621/621/621 619/619/619 622/622/622
f 621/621/621 622/622/622 623/623/623
f 621/621/621 623/623/623 624/624/624
f 625/625/625 624/624/624 623/623/623
f 625/625/625 623/623/623 626/626/626
f 627/627/627 628/628/628 629/629/629
f 627/627/627 630/630/630 628/628/628
f 628/628/628 630/630/630 631/631/631
f 628/628/628 631/631/631 632/632/632
f 632/632/632 631/631/631 633/633/633
f 632/632/632 633/633/633 634/634/634
f 635/635/635 636/636/636 637/637/637
f 635/635/635 638/638/638 636/636/636
f 636/636/636 638/638/638 639/639/639
f 636/636/636 639/639/639 640/640/640
f 640/640/640 639/639/639 641/641/641
f 640/640/640 641/641/641 642/642/642
f 641/641/641 643/643/643 642/642/642
f 641/641/641 644/644/644 643/643/643
f 644/644/644 645/645/645 643/643/643
f 644/644/644 646/646/646 645/645/645
f 645/645/645 646/646/646 647/647/647
f 645/645/645 647/647/647 648/648/648
f 647/647/647 649/649/649 648/648/648
f 649/649/649 647/647/647 650/650/650
f 649/649/649 650/650/650 651/651/651
f 651/651/651 650/650/650 627/627/627
f 651/651/651 627/627/627 652/652/652
f 652/652/652 627/627/627 629/629/629
f 516/516/516 531/531/531 517/517/517
f 531/531/531 541/541/541 517/517/517
f 531/531/531 533/533/533 541/541/541
f 533/533/533 539/539/539 541/541/541
f 533/533/533 653/653/653 539/539/539
f 653/653/653 536/536/536 539/539/539
f 653/653/653 654/654/654 536/536/536
f 654/654/654 537/537/537 536/536/536
f 654/654/654 655/655/655 537/537/537
f 655/655/655 656/656/656 537/537/537
f 655/655/655 657/657/657 656/656/656
f 656/656/656 657/657/657 658/658/658
f 656/656/656 658/658/658 659/659/659
f 656/656/656 659/659/659 660/660/660
f 656/656/656 660/660/660 661/661/661
f 662/662/662 656/656/656 661/661/661
f 662/662/662 537/537/537 656/656/656
f 535/535/535 537/537/537 662/662/662
f 663/663/663 664/664/664 665/665/665
f 666/666/666 664/664/664 663/663/663
f 666/666/666 663/663/663 667/667/667
f 668/668/668 667/667/667 663/663/663
f 668/668/668 669/669/669 667/667/667
f 668/668/668 670/670/670 669/669/669
f 668/668/668 671/671/671 670/670/670
f 672/672/672 670/670/670 671/671/671
f 672/672/672 671/671/671 673/673/673
f 671/671/671 674/674/674 673/673/673
f 671/671/671 675/675/675 674/674/674
f 676/676/676 675/675/675 671/671/671
f 676/676/676 671/671/671 668/668/668
f 676/676/676 668/668/668 663/663/663
f 676/676/676 663/663/663 677/677/677
f 663/663/663 665/665/665 677/677/677
