# Converted from HGS (Mercury 3D Engine)
# Model: Schubkarre_Low
o Schubkarre_Low

# Submesh 0: 690 vertices
v 0.291887 0.796747 0.664197
vn 0.803939 0.422515 0.418525
vt 0.252184 0.853945
v 0.282701 0.813598 0.666186
vn 0.399354 0.840269 0.366695
vt 0.259546 0.854658
v 0.274605 0.798079 0.679322
vn 0.348503 0.492968 0.797200
vt 0.252902 0.860525
v 0.409075 0.722406 -0.228943
vn 0.991219 -0.003203 0.132194
vt 0.210662 0.462415
v 0.372969 0.745311 0.046243
vn 0.991217 -0.006262 0.132098
vt 0.223652 0.583867
v 0.372293 0.553343 0.042222
vn 0.991016 -0.006292 0.133594
vt 0.140181 0.583251
v 0.331648 0.560909 0.344091
vn 0.991148 -0.009678 0.132412
vt 0.146506 0.717597
v 0.333312 0.770468 0.348481
vn 0.991250 -0.009663 0.131645
vt 0.237918 0.717258
v 0.289873 0.568853 0.660435
vn 0.991300 -0.010781 0.131176
vt 0.152821 0.854386
v 0.287859 0.340958 0.656672
vn 0.991168 0.011815 0.132082
vt 0.053459 0.854827
v 0.291887 0.796747 0.664197
vn 0.991314 -0.010780 0.131073
vt 0.252184 0.853945
v 0.409295 0.546452 -0.232585
vn 0.991169 -0.003210 0.132564
vt 0.134422 0.460950
v 0.409514 0.370499 -0.236228
vn 0.991138 0.003849 0.132779
vt 0.058182 0.459484
v 0.434981 0.376835 -0.430431
vn 0.991373 0.001643 0.131063
vt 0.059171 0.376725
v 0.435097 0.519684 -0.427449
vn 0.991294 -0.002692 0.131640
vt 0.120879 0.377710
v 0.452933 0.381237 -0.564208
vn 0.991569 0.000020 0.129576
vt 0.059868 0.318386
v 0.452874 0.483991 -0.562068
vn 0.991575 -0.002468 0.129512
vt 0.103780 0.319368
v 0.467545 0.384918 -0.677791
vn 0.991933 -0.000893 0.126764
vt 0.060435 0.270902
v 0.467499 0.435486 -0.676744
vn 0.991888 -0.001882 0.127098
vt 0.081963 0.271370
v 0.467453 0.486054 -0.675698
vn 0.991910 -0.001840 0.126931
vt 0.103491 0.271838
v 0.452814 0.586744 -0.559927
vn 0.991621 -0.002461 0.129158
vt 0.147692 0.320351
v 0.435212 0.662533 -0.424467
vn 0.991280 -0.002694 0.131748
vt 0.182587 0.378695
v 0.371618 0.361375 0.038200
vn 0.990742 0.005668 0.135639
vt 0.056711 0.582635
v 0.329983 0.351350 0.339702
vn 0.991015 0.012456 0.133168
vt 0.055094 0.717936
v 0.289128 0.253198 0.669941
vn 0.954363 0.026663 0.297456
vt 0.015329 0.861411
v 0.286407 0.325236 0.671450
vn 0.924400 0.026826 0.380479
vt 0.046741 0.861411
v 0.040237 0.233557 0.999602
vn 0.797461 0.017481 0.603118
vt 0.009778 1.005273
v 0.479012 0.387820 -0.767577
vn 0.991962 -0.001347 0.126531
vt 0.060880 0.233637
v 0.481038 0.373080 -0.782992
vn 0.991723 -0.001853 0.128385
vt 0.054315 0.227053
v 0.373465 0.271251 0.036313
vn 0.990528 0.017658 0.136170
vt 0.017413 0.582635
v 0.332533 0.262615 0.337843
vn 0.990797 0.023625 0.133275
vt 0.016402 0.717936
v 0.410722 0.279111 -0.238142
vn 0.991107 0.010916 0.132618
vt 0.018333 0.459484
v 0.435759 0.284599 -0.432363
vn 0.991418 0.005976 0.130591
vt 0.018951 0.376725
v 0.453407 0.288401 -0.566153
vn 0.991604 0.002516 0.129287
vt 0.019387 0.318386
v 0.467773 0.291595 -0.679746
vn 0.991967 0.000057 0.126496
vt 0.019742 0.270902
v 0.481038 0.294544 -0.784637
vn 0.991723 -0.001853 0.128385
vt 0.020070 0.227053
v 0.511568 0.299407 -1.016770
vn 0.991466 -0.002730 0.130340
vt 0.020070 0.125833
v 0.511568 0.377942 -1.015124
vn 0.991466 -0.002730 0.130340
vt 0.054315 0.125833
v 0.543001 0.304413 -1.255764
vn 0.995443 0.001997 -0.095338
vt 0.020070 0.021622
v 0.543001 0.382949 -1.254119
vn 0.995443 0.001997 -0.095338
vt 0.054315 0.021622
v 0.530501 0.310375 -1.293147
vn 0.948684 0.006622 -0.316157
vt 0.022327 0.005274
v 0.530501 0.378558 -1.291719
vn 0.948684 0.006622 -0.316157
vt 0.052058 0.005274
v 0.256232 0.309726 0.581678
vn -0.000000 0.062324 -0.998056
vt 0.179119 0.224925
v -0.000000 0.309726 0.581678
vn 0.000000 0.062324 -0.998056
vt 0.069476 0.224925
v 0.000000 0.554612 0.596970
vn 0.000000 0.062325 -0.998056
vt 0.069476 0.118051
v 0.255102 0.554612 0.596970
vn -0.000000 0.062325 -0.998056
vt 0.178626 0.118051
v 0.000000 0.799497 0.612263
vn 0.000000 0.062325 -0.998056
vt 0.069476 0.011178
v 0.253971 0.799497 0.612263
vn 0.000000 0.062325 -0.998056
vt 0.178133 0.011178
v 0.270592 0.340462 0.671769
vn 0.000000 0.964997 0.262263
vt 0.126470 0.243041
v -0.000000 0.340462 0.671769
vn 0.000000 0.964997 0.262263
vt 0.242374 0.243041
v 0.000000 0.251264 0.999973
vn 0.000000 0.964997 0.262263
vt 0.242373 0.386904
v 0.024997 0.251264 0.999973
vn 0.000000 0.964997 0.262263
vt 0.233537 0.386904
v 0.479856 0.302459 -1.293313
vn 0.000000 0.020940 -0.999781
vt 0.433993 0.646349
v 0.471939 0.310375 -1.293147
vn 0.000000 0.020940 -0.999781
vt 0.430541 0.642897
v 0.471939 0.378558 -1.291719
vn 0.000000 0.020940 -0.999781
vt 0.430541 0.613167
v 0.479856 0.386474 -1.291553
vn 0.000000 0.020940 -0.999781
vt 0.433993 0.609715
v 0.522583 0.386474 -1.291553
vn 0.000000 0.020940 -0.999781
vt 0.452619 0.609715
v 0.530501 0.378558 -1.291719
vn 0.000000 0.020940 -0.999781
vt 0.456071 0.613167
v 0.530501 0.310375 -1.293147
vn 0.000000 0.020940 -0.999781
vt 0.456071 0.642897
v 0.522583 0.302459 -1.293313
vn 0.000000 0.020940 -0.999781
vt 0.452619 0.646349
v 0.261179 0.814427 0.626599
vn -0.196862 0.943873 -0.265234
vt 0.612051 0.026503
v 0.253971 0.799497 0.612263
vn -0.000000 0.692638 -0.721286
vt 0.608909 0.032615
v 0.000000 0.799497 0.612263
vn -0.000000 0.692638 -0.721285
vt 0.500251 0.032615
v 0.000000 0.814427 0.626599
vn -0.000000 0.924011 -0.382367
vt 0.500251 0.026503
v 0.000000 0.813598 0.666186
vn -0.000000 0.902759 0.430147
vt 0.500251 0.009241
v 0.000000 0.798079 0.679322
vn 0.000000 0.646074 0.763275
vt 0.500251 0.003374
v 0.274605 0.798079 0.679322
vn 0.348503 0.492968 0.797200
vt 0.617904 0.003374
v 0.282701 0.813598 0.666186
vn 0.399354 0.840269 0.366695
vt 0.621434 0.009241
v 0.322157 0.786688 0.348821
vn 0.510534 0.859809 -0.009105
vt 0.638634 0.147320
v 0.293730 0.789525 0.348880
vn -0.391422 0.911730 -0.124652
vt 0.626242 0.147320
v 0.359733 0.761061 0.046573
vn 0.444970 0.895315 -0.020300
vt 0.655015 0.278821
v 0.329160 0.762421 0.046601
vn -0.384371 0.914752 -0.124451
vt 0.641687 0.278821
v 0.394338 0.737460 -0.231774
vn 0.402764 0.906751 -0.124839
vt 0.670101 0.399924
v 0.361788 0.737460 -0.231774
vn -0.381254 0.898301 -0.218403
vt 0.655911 0.399924
v 0.420281 0.676638 -0.430397
vn 0.390177 0.863947 -0.318366
vt 0.681411 0.485939
v 0.383739 0.676638 -0.430397
vn -0.379009 0.835263 -0.398357
vt 0.665481 0.485939
v 0.438240 0.599301 -0.568627
vn 0.394515 0.774690 -0.494179
vt 0.689241 0.545480
v 0.398935 0.599301 -0.568627
vn -0.375239 0.738475 -0.560224
vt 0.672105 0.545480
v 0.453431 0.496951 -0.686320
vn 0.384490 0.681278 -0.622919
vt 0.695863 0.595842
v 0.411787 0.496951 -0.686320
vn -0.348403 0.648716 -0.676596
vt 0.677708 0.595842
v 0.465798 0.388317 -0.782673
vn 0.458801 0.806498 -0.372911
vt 0.701254 0.636846
v 0.422252 0.388317 -0.782673
vn -0.382133 0.830458 -0.405357
vt 0.682270 0.636846
v 0.395597 0.486076 -0.675672
vn -0.652830 0.505246 -0.564394
vt 0.670545 0.591102
v 0.383216 0.586732 -0.559904
vn -0.694334 0.550901 -0.463043
vt 0.665253 0.543538
v 0.368325 0.662526 -0.424447
vn -0.699972 0.625777 -0.344155
vt 0.658761 0.485195
v 0.346201 0.722424 -0.228856
vn -0.710743 0.670751 -0.211986
vt 0.649444 0.401465
v 0.316031 0.747636 0.046291
vn -0.740402 0.656665 -0.143515
vt 0.636100 0.280043
v 0.282884 0.775336 0.348583
vn -0.784630 0.603080 -0.143701
vt 0.621439 0.146641
v 0.253971 0.799497 0.612263
vn -0.807180 0.572591 -0.143528
vt 0.608909 0.032615
v 0.291887 0.796747 0.664197
vn 0.803939 0.422515 0.418525
vt 0.625438 0.009954
v 0.333312 0.770468 0.348481
vn 0.824378 0.563058 0.058019
vt 0.643408 0.146641
v 0.372969 0.745311 0.046243
vn 0.767152 0.639938 0.044244
vt 0.660945 0.280032
v 0.409075 0.722406 -0.228943
vn 0.728154 0.684252 -0.039883
vt 0.676912 0.401484
v 0.435212 0.662533 -0.424467
vn 0.716831 0.669957 -0.193158
vt 0.687920 0.485204
v 0.452814 0.586744 -0.559927
vn 0.723596 0.604867 -0.332483
vt 0.695594 0.543549
v 0.467453 0.486054 -0.675698
vn 0.709145 0.546369 -0.445639
vt 0.701976 0.592061
v 0.479012 0.387820 -0.767577
vn 0.647401 0.573162 -0.502351
vt 0.707015 0.630262
v 0.481038 0.373080 -0.782992
vn 0.688876 0.693447 -0.211144
vt 0.707898 0.636846
v 0.511568 0.377942 -1.015124
vn 0.704071 0.701976 0.107304
vt 0.721208 0.738066
v 0.496328 0.393179 -1.014805
vn 0.381380 0.921804 0.069468
vt 0.714564 0.738066
v 0.543001 0.382949 -1.254119
vn 0.702475 0.704715 -0.099532
vt 0.734910 0.842278
v 0.448083 0.393179 -1.014805
vn -0.381749 0.923977 -0.023126
vt 0.693532 0.738066
v 0.527761 0.398185 -1.253799
vn 0.378026 0.916726 -0.129268
vt 0.728267 0.842278
v 0.474679 0.398185 -1.253799
vn -0.375129 0.910340 -0.174811
vt 0.705126 0.842278
v 0.432843 0.377942 -1.015124
vn -0.704930 0.706416 -0.063647
vt 0.686888 0.738066
v 0.459439 0.382949 -1.254119
vn -0.692994 0.697004 -0.184239
vt 0.698482 0.842278
v 0.407012 0.373080 -0.782992
vn -0.690985 0.631151 -0.352404
vt 0.675627 0.636846
v 0.530501 0.378558 -1.291719
vn 0.670819 0.677298 -0.302108
vt 0.729461 0.858626
v 0.522583 0.386474 -1.291553
vn 0.359970 0.875964 -0.321107
vt 0.726009 0.858626
v 0.479856 0.386474 -1.291553
vn -0.359971 0.875963 -0.321107
vt 0.707383 0.858626
v 0.471939 0.378558 -1.291719
vn -0.670821 0.677296 -0.302108
vt 0.703931 0.858626
v -0.291887 0.796747 0.664197
vn -0.646109 0.267864 0.714697
vt 0.252184 0.853945
v -0.274605 0.798079 0.679322
vn -0.348503 0.492967 0.797200
vt 0.252902 0.860525
v -0.282701 0.813598 0.666186
vn -0.399354 0.840269 0.366695
vt 0.259546 0.854658
v 0.422252 0.388317 -0.782673
vn -0.382133 0.830458 -0.405357
vt 0.797127 0.608467
v 0.407012 0.373080 -0.782992
vn -0.690985 0.631151 -0.352404
vt 0.790483 0.608467
v 0.395597 0.486076 -0.675672
vn -0.652830 0.505246 -0.564394
vt 0.839669 0.563671
v 0.411787 0.496951 -0.686320
vn -0.348403 0.648716 -0.676596
vt 0.845355 0.567463
v 0.272599 0.569270 0.675545
vn 0.658036 -0.018219 0.752766
vt 0.153141 0.860968
v 0.291887 0.796747 0.664197
vn 0.657850 -0.018220 0.752929
vt 0.252184 0.853945
v 0.274605 0.798079 0.679322
vn 0.657850 -0.018220 0.752929
vt 0.252902 0.860525
v 0.289873 0.568853 0.660435
vn 0.658036 -0.018219 0.752766
vt 0.152821 0.854386
v 0.270592 0.340462 0.671769
vn 0.621722 0.373529 0.688432
vt 0.053380 0.861411
v 0.287859 0.340958 0.656672
vn 0.627698 0.277679 0.727248
vt 0.053459 0.854827
v 0.286407 0.325236 0.671450
vn 0.566759 0.547461 0.615688
vt 0.046741 0.861411
v 0.024997 0.251264 0.999973
vn 0.591660 0.545487 0.593618
vt 0.017499 1.005273
v 0.040237 0.233557 0.999602
vn 0.591660 0.545487 0.593618
vt 0.009778 1.005273
v -0.270592 0.340462 0.671769
vn 0.000000 0.964997 0.262263
vt 0.242374 0.243041
v -0.024997 0.251264 0.999973
vn 0.000000 0.964997 0.262263
vt 0.242373 0.386904
v 0.000000 0.251264 0.999973
vn 0.000000 0.964997 0.262263
vt 0.233537 0.386904
v -0.000000 0.340462 0.671769
vn 0.000000 0.964997 0.262263
vt 0.126470 0.243041
v -0.479856 0.302459 -1.293313
vn 0.000000 0.020940 -0.999781
vt 0.433993 0.646349
v -0.522583 0.302459 -1.293313
vn 0.000000 0.020940 -0.999781
vt 0.452619 0.646349
v -0.530501 0.310375 -1.293147
vn 0.000000 0.020940 -0.999781
vt 0.456071 0.642897
v -0.530501 0.378558 -1.291719
vn 0.000000 0.020940 -0.999781
vt 0.456071 0.613167
v -0.522583 0.386474 -1.291553
vn 0.000000 0.020940 -0.999781
vt 0.452619 0.609715
v -0.479856 0.386474 -1.291553
vn 0.000000 0.020940 -0.999781
vt 0.433993 0.609715
v -0.471939 0.378558 -1.291719
vn 0.000000 0.020940 -0.999781
vt 0.430541 0.613167
v -0.471939 0.310375 -1.293147
vn 0.000000 0.020940 -0.999781
vt 0.430541 0.642897
v -0.261179 0.814427 0.626599
vn 0.196862 0.943873 -0.265234
vt 0.612051 0.026503
v 0.000000 0.814427 0.626599
vn -0.000000 0.924011 -0.382367
vt 0.500251 0.026503
v 0.000000 0.799497 0.612263
vn -0.000000 0.692638 -0.721285
vt 0.500251 0.032615
v -0.253971 0.799497 0.612263
vn 0.000000 0.692638 -0.721285
vt 0.608909 0.032615
v -0.293730 0.789525 0.348880
vn 0.391422 0.911730 -0.124652
vt 0.626242 0.147320
v -0.329160 0.762421 0.046601
vn 0.384371 0.914752 -0.124451
vt 0.641687 0.278821
v -0.359733 0.761061 0.046573
vn -0.444970 0.895315 -0.020300
vt 0.655015 0.278821
v -0.322157 0.786688 0.348821
vn -0.510534 0.859809 -0.009105
vt 0.638634 0.147320
v -0.282701 0.813598 0.666186
vn -0.399354 0.840269 0.366695
vt 0.621434 0.009241
v 0.000000 0.813598 0.666186
vn -0.000000 0.902759 0.430147
vt 0.500251 0.009241
v -0.274605 0.798079 0.679322
vn -0.348503 0.492967 0.797200
vt 0.617904 0.003374
v 0.000000 0.798079 0.679322
vn 0.000000 0.646074 0.763275
vt 0.500251 0.003374
v -0.253971 0.799497 0.612263
vn 0.807179 0.572592 -0.143527
vt 0.608909 0.032615
v -0.282884 0.775336 0.348583
vn 0.784630 0.603080 -0.143701
vt 0.621439 0.146641
v -0.316031 0.747636 0.046291
vn 0.740401 0.656665 -0.143515
vt 0.636100 0.280043
v -0.361788 0.737460 -0.231774
vn 0.381254 0.898301 -0.218403
vt 0.655911 0.399924
v -0.346201 0.722424 -0.228856
vn 0.710742 0.670751 -0.211986
vt 0.649444 0.401465
v -0.383739 0.676638 -0.430397
vn 0.379009 0.835263 -0.398357
vt 0.665481 0.485939
v -0.368325 0.662526 -0.424447
vn 0.699972 0.625777 -0.344156
vt 0.658761 0.485195
v -0.398935 0.599301 -0.568627
vn 0.375239 0.738475 -0.560224
vt 0.672105 0.545480
v -0.383216 0.586732 -0.559904
vn 0.694334 0.550901 -0.463043
vt 0.665253 0.543538
v -0.411787 0.496951 -0.686320
vn 0.348403 0.648716 -0.676596
vt 0.677708 0.595842
v -0.395597 0.486076 -0.675672
vn 0.652830 0.505246 -0.564394
vt 0.670545 0.591102
v -0.459439 0.382949 -1.254119
vn 0.692995 0.697004 -0.184239
vt 0.698482 0.842278
v -0.471939 0.378558 -1.291719
vn 0.670821 0.677296 -0.302108
vt 0.703931 0.858626
v -0.479856 0.386474 -1.291553
vn 0.359971 0.875963 -0.321108
vt 0.707383 0.858626
v -0.474679 0.398185 -1.253799
vn 0.375129 0.910340 -0.174811
vt 0.705126 0.842278
v -0.522583 0.386474 -1.291553
vn -0.359971 0.875963 -0.321107
vt 0.726009 0.858626
v -0.527761 0.398185 -1.253799
vn -0.378027 0.916725 -0.129268
vt 0.728267 0.842278
v -0.448083 0.393179 -1.014805
vn 0.381749 0.923977 -0.023126
vt 0.693532 0.738066
v -0.496328 0.393179 -1.014805
vn -0.381380 0.921805 0.069468
vt 0.714564 0.738066
v -0.422252 0.388317 -0.782673
vn 0.382133 0.830458 -0.405357
vt 0.682270 0.636846
v -0.465798 0.388317 -0.782673
vn -0.458801 0.806498 -0.372911
vt 0.701254 0.636846
v -0.453431 0.496951 -0.686320
vn -0.384490 0.681278 -0.622919
vt 0.695863 0.595842
v -0.438240 0.599301 -0.568627
vn -0.394514 0.774690 -0.494179
vt 0.689241 0.545480
v -0.420281 0.676638 -0.430397
vn -0.390177 0.863947 -0.318367
vt 0.681411 0.485939
v -0.394338 0.737460 -0.231774
vn -0.402764 0.906751 -0.124839
vt 0.670101 0.399924
v -0.432843 0.377942 -1.015124
vn 0.704930 0.706416 -0.063647
vt 0.686888 0.738066
v -0.407012 0.373080 -0.782992
vn 0.690985 0.631151 -0.352404
vt 0.675627 0.636846
v -0.530501 0.378558 -1.291719
vn -0.670822 0.677296 -0.302107
vt 0.729461 0.858626
v -0.543001 0.382949 -1.254119
vn -0.702476 0.704714 -0.099531
vt 0.734910 0.842278
v -0.511568 0.377942 -1.015124
vn -0.704071 0.701976 0.107304
vt 0.721208 0.738066
v -0.481038 0.373080 -0.782992
vn -0.688875 0.693447 -0.211144
vt 0.707898 0.636846
v -0.479012 0.387820 -0.767577
vn -0.647401 0.573162 -0.502351
vt 0.707015 0.630262
v -0.467453 0.486054 -0.675698
vn -0.709145 0.546369 -0.445639
vt 0.701976 0.592061
v -0.452814 0.586744 -0.559927
vn -0.723595 0.604868 -0.332483
vt 0.695594 0.543549
v -0.435212 0.662533 -0.424467
vn -0.716831 0.669958 -0.193158
vt 0.687920 0.485204
v -0.409075 0.722406 -0.228943
vn -0.728154 0.684252 -0.039883
vt 0.676912 0.401484
v -0.372969 0.745311 0.046243
vn -0.767152 0.639938 0.044244
vt 0.660945 0.280032
v -0.333312 0.770468 0.348481
vn -0.824378 0.563058 0.058019
vt 0.643408 0.146641
v -0.291887 0.796747 0.664197
vn -0.851996 0.519472 0.065205
vt 0.625438 0.009954
v -0.422252 0.388317 -0.782673
vn 0.382133 0.830458 -0.405357
vt 0.797127 0.608467
v -0.411787 0.496951 -0.686320
vn 0.348403 0.648716 -0.676596
vt 0.845355 0.567463
v -0.395597 0.486076 -0.675672
vn 0.652830 0.505246 -0.564394
vt 0.839669 0.563671
v -0.407012 0.373080 -0.782992
vn 0.690985 0.631151 -0.352404
vt 0.790483 0.608467
v -0.395752 0.411103 -0.677242
vn 0.994396 0.000144 -0.105720
vt 0.807499 0.564145
v -0.383881 0.333750 -0.565203
vn 0.994200 -0.000182 -0.107551
vt 0.775330 0.517134
v -0.395907 0.336130 -0.678813
vn 0.994432 -0.000026 -0.105378
vt 0.775330 0.564618
v -0.407012 0.338328 -0.783720
vn 0.994223 0.001093 -0.107327
vt 0.779118 0.608467
v -0.459439 0.304413 -1.255764
vn 0.976704 0.004494 -0.214546
vt 0.756238 0.813899
v -0.471939 0.310375 -1.293147
vn 0.948683 0.006623 -0.316158
vt 0.758496 0.830247
v -0.471939 0.378558 -1.291719
vn 0.948683 0.006623 -0.316158
vt 0.788226 0.830247
v -0.459439 0.382949 -1.254119
vn 0.976704 0.004494 -0.214546
vt 0.790483 0.813899
v -0.432843 0.299407 -1.016770
vn 0.993868 0.002316 -0.110549
vt 0.756238 0.709687
v -0.432843 0.377942 -1.015124
vn 0.993868 0.002316 -0.110549
vt 0.790483 0.709687
v -0.407012 0.294544 -0.784637
vn 0.993868 0.002316 -0.110549
vt 0.756238 0.608467
v -0.407012 0.373080 -0.782992
vn 0.994111 0.001566 -0.108360
vt 0.790483 0.608467
v -0.395597 0.486076 -0.675672
vn 0.994360 0.000314 -0.106061
vt 0.839669 0.563671
v -0.383548 0.460241 -0.562553
vn 0.994195 -0.000181 -0.107593
vt 0.829592 0.516146
v -0.369107 0.330947 -0.431392
vn 0.994037 -0.000813 -0.109040
vt 0.775330 0.458795
v -0.368716 0.496737 -0.427920
vn 0.993981 -0.000802 -0.109552
vt 0.847041 0.457806
v -0.348148 0.326878 -0.237141
vn 0.993909 -0.001296 -0.110192
vt 0.775330 0.376036
v -0.347174 0.524651 -0.232999
vn 0.993901 -0.001294 -0.110273
vt 0.861081 0.374561
v -0.316959 0.321128 0.037357
vn 0.993717 0.000192 -0.111920
vt 0.775330 0.252885
v -0.316495 0.534382 0.041824
vn 0.993826 0.000172 -0.110950
vt 0.868082 0.252274
v -0.282694 0.314811 0.338936
vn 0.993903 0.001973 -0.110244
vt 0.775330 0.117584
v -0.383216 0.586732 -0.559904
vn 0.994190 -0.000180 -0.107636
vt 0.883855 0.515159
v -0.368325 0.662526 -0.424447
vn 0.993924 -0.000790 -0.110065
vt 0.918752 0.456816
v -0.346201 0.722424 -0.228856
vn 0.993892 -0.001292 -0.110353
vt 0.946833 0.373086
v -0.316031 0.747636 0.046291
vn 0.993934 0.000151 -0.109980
vt 0.960833 0.251664
v -0.282789 0.545073 0.343760
vn 0.993942 0.001968 -0.109890
vt 0.875772 0.117923
v -0.282884 0.775336 0.348583
vn 0.993981 0.001963 -0.109536
vt 0.976215 0.118262
v -0.256232 0.309726 0.581678
vn 0.994087 0.002430 -0.108559
vt 0.775330 0.013095
v -0.255102 0.554612 0.596970
vn 0.994063 0.002439 -0.108784
vt 0.882203 0.008666
v -0.253971 0.799497 0.612263
vn 0.994038 0.002449 -0.109008
vt 0.989076 0.004236
v -0.287859 0.340958 0.656672
vn -0.991168 0.011815 0.132082
vt 0.053459 0.854827
v -0.289873 0.568853 0.660435
vn -0.991300 -0.010781 0.131176
vt 0.152821 0.854386
v -0.331648 0.560909 0.344091
vn -0.991148 -0.009678 0.132412
vt 0.146506 0.717597
v -0.291887 0.796747 0.664197
vn -0.991314 -0.010780 0.131073
vt 0.252184 0.853945
v -0.333312 0.770468 0.348481
vn -0.991250 -0.009663 0.131645
vt 0.237918 0.717258
v -0.372969 0.745311 0.046243
vn -0.991217 -0.006262 0.132098
vt 0.223652 0.583867
v -0.372293 0.553343 0.042222
vn -0.991016 -0.006292 0.133594
vt 0.140181 0.583251
v -0.409075 0.722406 -0.228943
vn -0.991219 -0.003203 0.132194
vt 0.210662 0.462415
v -0.371618 0.361375 0.038200
vn -0.990742 0.005668 0.135639
vt 0.056711 0.582635
v -0.329983 0.351350 0.339702
vn -0.991015 0.012456 0.133168
vt 0.055094 0.717936
v -0.289128 0.253198 0.669941
vn -0.954363 0.026663 0.297457
vt 0.015329 0.861411
v -0.286407 0.325236 0.671450
vn -0.924400 0.026826 0.380479
vt 0.046741 0.861411
v -0.040237 0.233557 0.999602
vn -0.797461 0.017481 0.603118
vt 0.009778 1.005273
v -0.332533 0.262615 0.337843
vn -0.990797 0.023625 0.133275
vt 0.016402 0.717936
v -0.373465 0.271251 0.036313
vn -0.990528 0.017658 0.136170
vt 0.017413 0.582635
v -0.409514 0.370499 -0.236228
vn -0.991138 0.003849 0.132779
vt 0.058182 0.459484
v -0.409295 0.546452 -0.232585
vn -0.991169 -0.003210 0.132564
vt 0.134422 0.460950
v -0.434981 0.376835 -0.430431
vn -0.991373 0.001643 0.131063
vt 0.059171 0.376725
v -0.435097 0.519684 -0.427449
vn -0.991294 -0.002692 0.131640
vt 0.120879 0.377710
v -0.452933 0.381237 -0.564208
vn -0.991570 0.000020 0.129576
vt 0.059868 0.318386
v -0.452874 0.483991 -0.562068
vn -0.991575 -0.002468 0.129512
vt 0.103780 0.319368
v -0.467545 0.384918 -0.677791
vn -0.991933 -0.000893 0.126764
vt 0.060435 0.270902
v -0.467499 0.435486 -0.676744
vn -0.991888 -0.001882 0.127098
vt 0.081963 0.271370
v -0.467453 0.486054 -0.675698
vn -0.991910 -0.001840 0.126931
vt 0.103491 0.271838
v -0.452814 0.586744 -0.559927
vn -0.991621 -0.002461 0.129158
vt 0.147692 0.320351
v -0.435212 0.662533 -0.424467
vn -0.991280 -0.002694 0.131748
vt 0.182587 0.378695
v -0.479012 0.387820 -0.767577
vn -0.991962 -0.001347 0.126531
vt 0.060880 0.233637
v -0.481038 0.373080 -0.782992
vn -0.991723 -0.001853 0.128385
vt 0.054315 0.227053
v -0.543001 0.382949 -1.254119
vn -0.995443 0.001997 -0.095338
vt 0.054315 0.021622
v -0.530501 0.378558 -1.291719
vn -0.948684 0.006622 -0.316157
vt 0.052058 0.005274
v -0.530501 0.310375 -1.293147
vn -0.948684 0.006622 -0.316157
vt 0.022327 0.005274
v -0.543001 0.304413 -1.255764
vn -0.995443 0.001997 -0.095338
vt 0.020070 0.021622
v -0.511568 0.377942 -1.015124
vn -0.991466 -0.002730 0.130340
vt 0.054315 0.125833
v -0.511568 0.299407 -1.016770
vn -0.991466 -0.002730 0.130340
vt 0.020070 0.125833
v -0.481038 0.294544 -0.784637
vn -0.991723 -0.001853 0.128385
vt 0.020070 0.227053
v -0.467773 0.291595 -0.679746
vn -0.991967 0.000057 0.126496
vt 0.019742 0.270902
v -0.453407 0.288401 -0.566153
vn -0.991604 0.002516 0.129287
vt 0.019387 0.318386
v -0.435759 0.284599 -0.432363
vn -0.991418 0.005976 0.130591
vt 0.018951 0.376725
v -0.410722 0.279111 -0.238142
vn -0.991107 0.010917 0.132618
vt 0.018333 0.459484
v 0.335504 0.000000 -0.601389
vn 0.000000 -1.000000 -0.000002
vt 0.747153 0.019355
v 0.428266 0.000000 -0.601389
vn 0.000000 -1.000000 -0.000002
vt 0.706420 0.019355
v 0.422252 -0.000000 -0.550919
vn 0.000000 -1.000000 -0.000002
vt 0.709061 0.041517
v 0.330792 -0.000000 -0.550919
vn 0.000000 -1.000000 -0.000002
vt 0.749223 0.041517
v 0.352813 0.286656 -0.778662
vn 0.000000 -0.525968 -0.850504
vt 0.694761 0.019355
v 0.450361 0.286656 -0.778662
vn 0.000000 -0.525968 -0.850504
vt 0.651927 0.019355
v 0.428266 0.000000 -0.601389
vn 0.000000 -0.525968 -0.850504
vt 0.661629 0.145229
v 0.335504 0.000000 -0.601389
vn 0.000000 -0.525968 -0.850504
vt 0.702362 0.145229
v 0.450361 0.286656 -0.778662
vn 0.992826 -0.002381 0.119542
vt 0.970716 0.610467
v 0.377592 0.269316 -0.175158
vn 0.992826 -0.002381 0.119542
vt 0.822881 0.830535
v 0.422252 -0.000000 -0.550919
vn 0.992826 -0.002381 0.119542
vt 0.810899 0.627886
v 0.428266 0.000000 -0.601389
vn 0.992826 -0.002381 0.119542
vt 0.822723 0.609143
v 0.377592 0.269316 -0.175158
vn 0.000000 -0.812796 0.582549
vt 0.728672 0.206517
v 0.295805 0.269316 -0.175158
vn 0.000000 -0.812796 0.582549
vt 0.764585 0.206517
v 0.330792 -0.000000 -0.550919
vn 0.000000 -0.812796 0.582549
vt 0.749223 0.041517
v 0.422252 -0.000000 -0.550919
vn 0.000000 -0.812796 0.582549
vt 0.709061 0.041517
v 0.295805 0.269316 -0.175158
vn -0.995579 0.001871 -0.093909
vt 0.978865 0.612938
v 0.352813 0.286656 -0.778662
vn -0.995579 0.001871 -0.093909
vt 0.831030 0.833006
v 0.335504 0.000000 -0.601389
vn -0.995579 0.001871 -0.093909
vt 0.979023 0.834330
v 0.330792 -0.000000 -0.550919
vn -0.995579 0.001871 -0.093909
vt 0.990847 0.815587
v -0.432069 0.000000 -0.601389
vn 0.000000 -1.000000 -0.000002
vt 0.705958 0.019355
v -0.339306 0.000000 -0.601389
vn 0.000000 -1.000000 -0.000002
vt 0.746691 0.019355
v -0.334541 -0.000000 -0.550919
vn 0.000000 -1.000000 -0.000002
vt 0.748783 0.041517
v -0.426001 -0.000000 -0.550919
vn 0.000000 -1.000000 -0.000002
vt 0.708622 0.041517
v -0.454360 0.286656 -0.778662
vn 0.000000 -0.525968 -0.850504
vt 0.652365 0.019355
v -0.356811 0.286656 -0.778662
vn 0.000000 -0.525968 -0.850504
vt 0.695200 0.019355
v -0.339306 0.000000 -0.601389
vn 0.000000 -0.525968 -0.850504
vt 0.702886 0.145229
v -0.432069 0.000000 -0.601389
vn 0.000000 -0.525968 -0.850504
vt 0.662153 0.145229
v -0.356811 0.286656 -0.778662
vn 0.995479 0.001891 -0.094964
vt 0.970716 0.610467
v -0.299158 0.269316 -0.175158
vn 0.995479 0.001891 -0.094964
vt 0.822881 0.830536
v -0.334541 -0.000000 -0.550919
vn 0.995479 0.001891 -0.094964
vt 0.810899 0.627886
v -0.339306 0.000000 -0.601389
vn 0.995479 0.001891 -0.094964
vt 0.822723 0.609143
v -0.299158 0.269316 -0.175158
vn 0.000000 -0.812796 0.582549
vt 0.764321 0.206517
v -0.380944 0.269316 -0.175158
vn 0.000000 -0.812796 0.582549
vt 0.728407 0.206517
v -0.426001 -0.000000 -0.550919
vn 0.000000 -0.812796 0.582549
vt 0.708622 0.041517
v -0.334541 -0.000000 -0.550919
vn 0.000000 -0.812796 0.582549
vt 0.748783 0.041517
v -0.380944 0.269316 -0.175158
vn -0.992700 -0.002402 0.120588
vt 0.978865 0.612938
v -0.454360 0.286656 -0.778662
vn -0.992700 -0.002402 0.120588
vt 0.831030 0.833006
v -0.432069 0.000000 -0.601389
vn -0.992700 -0.002402 0.120588
vt 0.979023 0.834330
v -0.426001 -0.000000 -0.550919
vn -0.992700 -0.002402 0.120588
vt 0.990847 0.815587
v -0.000000 0.279307 -0.784957
vn 0.000000 0.020944 -0.999781
vt 0.489827 0.452400
v -0.422252 0.279307 -0.784957
vn 0.000000 0.020944 -0.999781
vt 0.489827 0.270381
v -0.407012 0.294544 -0.784637
vn 0.000000 0.020943 -0.999781
vt 0.483184 0.277025
v -0.000000 0.294544 -0.784637
vn 0.000000 0.020943 -0.999781
vt 0.483184 0.452400
v -0.407012 0.338328 -0.783720
vn 0.000000 0.020942 -0.999781
vt 0.464092 0.277025
v -0.000000 0.338328 -0.783720
vn 0.000000 0.020942 -0.999781
vt 0.464092 0.452400
v 0.422252 0.279307 -0.784957
vn -0.252070 -0.966372 -0.050852
vt 0.749594 0.608467
v 0.407012 0.294544 -0.784637
vn -0.704928 -0.703132 -0.093173
vt 0.756238 0.608467
v 0.432843 0.299407 -1.016770
vn -0.704928 -0.703133 -0.093173
vt 0.756238 0.709687
v 0.448083 0.284170 -1.017089
vn -0.381748 -0.922198 -0.061799
vt 0.749595 0.709687
v 0.459439 0.304413 -1.255764
vn -0.692991 -0.688681 -0.213265
vt 0.756238 0.813899
v 0.474679 0.289176 -1.256083
vn -0.375127 -0.902222 -0.212779
vt 0.749595 0.813899
v 0.471939 0.310375 -1.293147
vn -0.670817 -0.664055 -0.330206
vt 0.758496 0.830247
v 0.479856 0.302459 -1.293313
vn -0.670817 -0.664055 -0.330206
vt 0.755044 0.830247
v 0.000000 0.569270 0.675545
vn -0.000000 -0.016502 0.999864
vt 0.188135 0.114255
v -0.000000 0.340462 0.671769
vn -0.000000 -0.016502 0.999864
vt 0.188134 0.014494
v 0.270592 0.340462 0.671769
vn 0.000000 -0.016502 0.999864
vt 0.304038 0.014494
v 0.272599 0.569270 0.675545
vn 0.000000 -0.016502 0.999864
vt 0.304913 0.114255
v 0.000000 0.798079 0.679322
vn 0.000000 -0.016502 0.999864
vt 0.188135 0.214016
v 0.274605 0.798079 0.679322
vn 0.000000 -0.016502 0.999864
vt 0.305787 0.214016
v -0.000000 0.294544 -0.784637
vn 0.000000 0.020943 -0.999781
vt 0.483184 0.452400
v -0.000000 0.338328 -0.783720
vn 0.000000 0.020942 -0.999781
vt 0.464092 0.452400
v 0.407012 0.338328 -0.783720
vn 0.000000 0.020942 -0.999781
vt 0.464092 0.277025
v 0.407012 0.294544 -0.784637
vn 0.000000 0.020943 -0.999781
vt 0.483184 0.277025
v -0.000000 0.279307 -0.784957
vn 0.000000 0.020944 -0.999781
vt 0.489827 0.452400
v 0.422252 0.279307 -0.784957
vn 0.000000 0.020944 -0.999781
vt 0.489827 0.270381
v -0.000000 0.338328 -0.783720
vn 0.000000 0.999781 0.020943
vt 0.494225 0.662972
v 0.395907 0.336130 -0.678813
vn -0.000000 0.999781 0.020943
vt 0.603868 0.619123
v 0.407012 0.338328 -0.783720
vn 0.000000 0.999781 0.020943
vt 0.603868 0.662972
v -0.000000 0.336130 -0.678813
vn 0.000000 0.999781 0.020943
vt 0.494225 0.619123
v -0.000000 0.333750 -0.565203
vn -0.000000 0.999781 0.020943
vt 0.494225 0.571638
v 0.383881 0.333750 -0.565203
vn -0.000000 0.999781 0.020943
vt 0.603868 0.571638
v -0.000000 0.330947 -0.431392
vn -0.000000 0.999781 0.020943
vt 0.494225 0.513300
v 0.369107 0.330947 -0.431392
vn -0.000000 0.999781 0.020943
vt 0.603868 0.513300
v -0.000000 0.327162 -0.250675
vn 0.000000 0.999781 0.020943
vt 0.494225 0.430541
v 0.348148 0.326878 -0.237141
vn -0.000000 0.999781 0.020943
vt 0.603868 0.430541
v 0.000000 0.321128 0.037357
vn 0.000000 0.999781 0.020943
vt 0.494225 0.304284
v 0.316959 0.321128 0.037357
vn 0.000000 0.999781 0.020943
vt 0.603868 0.307390
v -0.000000 0.314811 0.338936
vn 0.000000 0.999781 0.020943
vt 0.494225 0.172089
v 0.282694 0.314811 0.338936
vn 0.000000 0.999781 0.020943
vt 0.603868 0.172089
v -0.000000 0.309726 0.581678
vn 0.000000 0.999781 0.020943
vt 0.494225 0.067600
v 0.256232 0.309726 0.581678
vn 0.000000 0.999781 0.020943
vt 0.603868 0.067600
v -0.255102 0.554612 0.596970
vn 0.000000 0.062325 -0.998056
vt 0.069968 0.118051
v -0.253971 0.799497 0.612263
vn 0.000000 0.062325 -0.998056
vt 0.070461 0.011178
v 0.000000 0.799497 0.612263
vn 0.000000 0.062325 -0.998056
vt 0.179119 0.011178
v 0.000000 0.554612 0.596970
vn 0.000000 0.062325 -0.998056
vt 0.179119 0.118051
v -0.256232 0.309726 0.581678
vn 0.000000 0.062324 -0.998056
vt 0.069476 0.224925
v -0.000000 0.309726 0.581678
vn 0.000000 0.062324 -0.998056
vt 0.179119 0.224925
v -0.094722 0.224328 1.066662
vn -1.000000 0.000000 -0.000000
vt 0.543910 0.850371
v -0.082517 0.235936 1.030939
vn -0.811718 0.180483 -0.555463
vt 0.565570 0.857409
v -0.082517 0.212721 1.030939
vn -0.811719 -0.180478 -0.555463
vt 0.565570 0.843333
v -0.082517 0.193940 1.044584
vn -0.811720 -0.472504 -0.343294
vt 0.557297 0.831946
v -0.082517 0.186767 1.066662
vn -0.811720 -0.584047 -0.000000
vt 0.543910 0.827596
v -0.082517 0.193940 1.088740
vn -0.811720 -0.472504 0.343294
vt 0.530524 0.831946
v -0.082517 0.212721 1.102386
vn -0.811720 -0.180481 0.555462
vt 0.522250 0.843333
v -0.082517 0.235936 1.102386
vn -0.811719 0.180480 0.555463
vt 0.522250 0.857409
v -0.082517 0.254717 1.088740
vn -0.811719 0.472505 0.343295
vt 0.530524 0.868796
v -0.082517 0.261890 1.066662
vn -0.811719 0.584048 0.000000
vt 0.543910 0.873146
v -0.082517 0.254717 1.044584
vn -0.811719 0.472504 -0.343295
vt 0.557297 0.868796
v -0.050565 0.243109 1.008861
vn -0.587783 0.250003 -0.769422
vt 0.578956 0.861758
v -0.050565 0.205548 1.008860
vn -0.587785 -0.249997 -0.769422
vt 0.578957 0.838984
v -0.050565 0.175159 1.030939
vn -0.587786 -0.654508 -0.475528
vt 0.565570 0.820559
v -0.050565 0.163552 1.066662
vn -0.587786 -0.809017 0.000000
vt 0.543910 0.813521
v -0.050565 0.175159 1.102386
vn -0.587786 -0.654508 0.475527
vt 0.522250 0.820559
v -0.050565 0.205547 1.124464
vn -0.587785 -0.250001 0.769421
vt 0.508864 0.838984
v -0.050565 0.243109 1.124464
vn -0.587785 0.249999 0.769421
vt 0.508864 0.861758
v -0.050565 0.273497 1.102386
vn -0.587784 0.654509 0.475529
vt 0.522250 0.880183
v -0.050565 0.285105 1.066662
vn -0.587784 0.809018 0.000000
vt 0.543910 0.887221
v -0.050565 0.273497 1.030939
vn -0.587785 0.654509 -0.475529
vt 0.565570 0.880183
v 0.000000 0.798079 0.679322
vn 0.000000 -0.016502 0.999864
vt 0.188135 0.214016
v -0.274605 0.798079 0.679322
vn 0.000000 -0.016502 0.999864
vt 0.305787 0.214016
v -0.272599 0.569270 0.675545
vn -0.000000 -0.016502 0.999864
vt 0.304913 0.114255
v 0.000000 0.569270 0.675545
vn -0.000000 -0.016502 0.999864
vt 0.188135 0.114255
v -0.270592 0.340462 0.671769
vn -0.000000 -0.016503 0.999864
vt 0.304038 0.014494
v -0.000000 0.340462 0.671769
vn -0.000000 -0.016502 0.999864
vt 0.188134 0.014494
v -0.286407 0.325236 0.671450
vn -0.566759 0.547461 0.615688
vt 0.046741 0.861411
v -0.040237 0.233557 0.999602
vn -0.591660 0.545487 0.593618
vt 0.009778 1.005273
v -0.024997 0.251264 0.999973
vn -0.591660 0.545487 0.593618
vt 0.017499 1.005273
v -0.270592 0.340462 0.671769
vn -0.621722 0.373529 0.688431
vt 0.053380 0.861411
v -0.287859 0.340958 0.656672
vn -0.627698 0.277679 0.727248
vt 0.053459 0.854827
v -0.289873 0.568853 0.660435
vn -0.658036 -0.018219 0.752766
vt 0.152821 0.854386
v -0.272599 0.569270 0.675545
vn -0.658036 -0.018219 0.752766
vt 0.153141 0.860968
v -0.291887 0.796747 0.664197
vn -0.657849 -0.018220 0.752929
vt 0.252184 0.853945
v -0.274605 0.798079 0.679322
vn -0.657849 -0.018220 0.752929
vt 0.252902 0.860525
v -0.527761 0.289176 -1.256083
vn -0.378025 -0.910509 -0.167544
vt 0.013426 0.021622
v -0.496328 0.284170 -1.017089
vn -0.381379 -0.923905 0.030805
vt 0.013426 0.125833
v -0.511568 0.299407 -1.016770
vn -0.704069 -0.705855 0.077813
vt 0.020070 0.125833
v -0.543001 0.304413 -1.255764
vn -0.702473 -0.699930 -0.128956
vt 0.020070 0.021622
v -0.522583 0.302459 -1.293313
vn -0.670817 -0.664055 -0.330206
vt 0.018876 0.005274
v -0.530501 0.310375 -1.293147
vn -0.670817 -0.664055 -0.330206
vt 0.022327 0.005274
v -0.274463 0.237973 0.669622
vn -0.698991 -0.662052 0.270369
vt 0.008690 0.861411
v -0.024997 0.215849 0.999231
vn -0.654031 -0.603452 0.456168
vt 0.002057 1.005273
v -0.040237 0.233557 0.999602
vn -0.654031 -0.603452 0.456168
vt 0.009778 1.005273
v -0.289128 0.253198 0.669941
vn -0.698991 -0.662052 0.270369
vt 0.015329 0.861411
v -0.317738 0.247387 0.337524
vn -0.714460 -0.695621 0.075216
vt 0.009761 0.717936
v -0.332533 0.262615 0.337843
vn -0.714460 -0.695621 0.075216
vt 0.016402 0.717936
v -0.373465 0.271251 0.036313
vn -0.711580 -0.698433 0.076450
vt 0.017413 0.582635
v -0.358547 0.256020 0.035994
vn -0.711580 -0.698433 0.076450
vt 0.010772 0.582635
v -0.395692 0.263879 -0.238461
vn -0.709339 -0.700994 0.073790
vt 0.011691 0.459484
v -0.410722 0.279111 -0.238142
vn -0.709339 -0.700994 0.073790
vt 0.018333 0.459484
v -0.420654 0.269365 -0.432682
vn -0.707640 -0.702872 0.072230
vt 0.012309 0.376725
v -0.435759 0.284599 -0.432363
vn -0.707640 -0.702872 0.072230
vt 0.018951 0.376725
v -0.438250 0.273166 -0.566472
vn -0.706425 -0.704196 0.071223
vt 0.012744 0.318386
v -0.453407 0.288401 -0.566153
vn -0.706425 -0.704196 0.071223
vt 0.019387 0.318386
v -0.452573 0.276359 -0.680065
vn -0.705526 -0.705291 0.069265
vt 0.013099 0.270902
v -0.467773 0.291595 -0.679746
vn -0.705526 -0.705291 0.069265
vt 0.019742 0.270902
v -0.465798 0.279307 -0.784957
vn -0.381680 -0.923913 0.026536
vt 0.013426 0.227053
v -0.481038 0.294544 -0.784637
vn -0.704571 -0.705816 0.073504
vt 0.020070 0.227053
v 0.465798 0.279307 -0.784957
vn 0.381680 -0.923913 0.026536
vt 0.468227 0.224543
v 0.448083 0.284170 -1.017089
vn -0.381748 -0.922198 -0.061799
vt 0.460504 0.123324
v 0.496328 0.284170 -1.017089
vn 0.381379 -0.923905 0.030805
vt 0.481537 0.123323
v 0.474679 0.289176 -1.256083
vn -0.375127 -0.902222 -0.212779
vt 0.472098 0.019112
v 0.527761 0.289176 -1.256083
vn 0.378025 -0.910509 -0.167544
vt 0.495239 0.019112
v 0.479856 0.302459 -1.293313
vn 0.000000 -0.941853 -0.336025
vt 0.474356 0.002764
v 0.522583 0.302459 -1.293313
vn 0.000000 -0.941853 -0.336025
vt 0.492982 0.002764
v 0.000000 0.215849 0.999231
vn 0.000000 -0.737513 0.675333
vt 0.267224 1.002764
v 0.274463 0.237973 0.669622
vn 0.000000 -0.998864 -0.047661
vt 0.384815 0.858901
v 0.024997 0.215849 0.999231
vn 0.000000 -0.737513 0.675333
vt 0.276061 1.002764
v -0.000000 0.237973 0.669622
vn 0.000000 -0.998864 -0.047661
vt 0.267224 0.858901
v 0.317738 0.247387 0.337524
vn 0.000039 -0.999596 -0.028432
vt 0.403681 0.715426
v -0.000000 0.247387 0.337524
vn 0.000000 -0.999596 -0.028432
vt 0.267224 0.715426
v 0.000000 0.255967 0.035992
vn 0.000000 -0.999593 -0.028522
vt 0.267224 0.583231
v 0.358547 0.256020 0.035994
vn 0.000143 -0.999593 -0.028522
vt 0.421471 0.580126
v -0.000000 0.264162 -0.251994
vn 0.000000 -0.999594 -0.028503
vt 0.267224 0.456974
v 0.395692 0.263879 -0.238461
vn 0.000166 -0.999594 -0.028503
vt 0.437665 0.456974
v -0.000000 0.269365 -0.432682
vn 0.000000 -0.999595 -0.028447
vt 0.267224 0.374215
v 0.420654 0.269365 -0.432682
vn 0.000063 -0.999595 -0.028447
vt 0.448547 0.374215
v -0.000000 0.273166 -0.566472
vn 0.000000 -0.999601 -0.028251
vt 0.267224 0.315877
v 0.438250 0.273166 -0.566472
vn -0.000000 -0.999601 -0.028251
vt 0.456218 0.315877
v -0.000000 0.276359 -0.680065
vn 0.000000 -0.999605 -0.028096
vt 0.267224 0.268392
v 0.452573 0.276359 -0.680065
vn -0.000000 -0.999605 -0.028096
vt 0.462461 0.268392
v -0.000000 0.279307 -0.784957
vn 0.000000 -0.999605 -0.028095
vt 0.267224 0.224543
v 0.422252 0.279307 -0.784957
vn -0.252070 -0.966372 -0.050852
vt 0.449243 0.224543
v -0.474679 0.289176 -1.256083
vn 0.375127 -0.902222 -0.212779
vt 0.749595 0.813899
v -0.479856 0.302459 -1.293313
vn 0.670817 -0.664055 -0.330206
vt 0.755044 0.830247
v -0.471939 0.310375 -1.293147
vn 0.670817 -0.664055 -0.330206
vt 0.758496 0.830247
v -0.459439 0.304413 -1.255764
vn 0.692991 -0.688681 -0.213265
vt 0.756238 0.813899
v -0.448083 0.284170 -1.017089
vn 0.381748 -0.922198 -0.061799
vt 0.749595 0.709687
v -0.432843 0.299407 -1.016770
vn 0.704928 -0.703132 -0.093173
vt 0.756238 0.709687
v -0.422252 0.279307 -0.784957
vn 0.252070 -0.966372 -0.050852
vt 0.749594 0.608467
v -0.407012 0.294544 -0.784637
vn 0.704928 -0.703132 -0.093173
vt 0.756238 0.608467
v -0.527761 0.289176 -1.256083
vn -0.378025 -0.910509 -0.167544
vt 0.495239 0.019112
v -0.522583 0.302459 -1.293313
vn 0.000000 -0.941853 -0.336025
vt 0.492982 0.002764
v -0.479856 0.302459 -1.293313
vn 0.000000 -0.941853 -0.336025
vt 0.474356 0.002764
v -0.474679 0.289176 -1.256083
vn 0.375127 -0.902222 -0.212779
vt 0.472098 0.019112
v -0.496328 0.284170 -1.017089
vn -0.381379 -0.923905 0.030805
vt 0.481537 0.123323
v -0.448083 0.284170 -1.017089
vn 0.381748 -0.922198 -0.061799
vt 0.460504 0.123324
v -0.465798 0.279307 -0.784957
vn -0.381680 -0.923913 0.026536
vt 0.468227 0.224543
v -0.422252 0.279307 -0.784957
vn 0.252070 -0.966372 -0.050852
vt 0.449243 0.224543
v -0.000000 0.279307 -0.784957
vn 0.000000 -0.999605 -0.028095
vt 0.267224 0.224543
v -0.452573 0.276359 -0.680065
vn 0.000000 -0.999605 -0.028096
vt 0.462461 0.268392
v -0.000000 0.276359 -0.680065
vn 0.000000 -0.999605 -0.028096
vt 0.267224 0.268392
v -0.438250 0.273166 -0.566472
vn 0.000000 -0.999601 -0.028251
vt 0.456218 0.315877
v -0.000000 0.273166 -0.566472
vn 0.000000 -0.999601 -0.028251
vt 0.267224 0.315877
v -0.420654 0.269365 -0.432682
vn -0.000063 -0.999595 -0.028447
vt 0.448547 0.374215
v -0.000000 0.269365 -0.432682
vn 0.000000 -0.999595 -0.028447
vt 0.267224 0.374215
v -0.395692 0.263879 -0.238461
vn -0.000166 -0.999594 -0.028503
vt 0.437665 0.456974
v -0.000000 0.264162 -0.251994
vn 0.000000 -0.999594 -0.028503
vt 0.267224 0.456974
v -0.358547 0.256020 0.035994
vn -0.000143 -0.999593 -0.028522
vt 0.421471 0.580126
v 0.000000 0.255967 0.035992
vn 0.000000 -0.999593 -0.028522
vt 0.267224 0.583231
v -0.317738 0.247387 0.337524
vn -0.000039 -0.999596 -0.028432
vt 0.403681 0.715426
v -0.000000 0.247387 0.337524
vn 0.000000 -0.999596 -0.028432
vt 0.267224 0.715426
v -0.000000 0.237973 0.669622
vn 0.000000 -0.998864 -0.047661
vt 0.267224 0.858901
v -0.274463 0.237973 0.669622
vn 0.000000 -0.998864 -0.047661
vt 0.384815 0.858901
v 0.000000 0.215849 0.999231
vn 0.000000 -0.737513 0.675333
vt 0.267224 1.002764
v -0.024997 0.215849 0.999231
vn 0.000000 -0.737513 0.675333
vt 0.276061 1.002764
v 0.000000 0.251264 0.999973
vn 0.000000 -0.020943 0.999781
vt 0.476116 0.627351
v -0.024997 0.251264 0.999973
vn 0.000000 -0.020943 0.999781
vt 0.476116 0.618514
v -0.040237 0.233557 0.999602
vn 0.000000 -0.020943 0.999781
vt 0.468395 0.611870
v -0.024997 0.215849 0.999231
vn 0.000000 -0.737513 0.675333
vt 0.460674 0.618514
v 0.000000 0.215849 0.999231
vn 0.000000 -0.737513 0.675333
vt 0.460674 0.627351
v 0.024997 0.215849 0.999231
vn 0.000000 -0.737513 0.675333
vt 0.460674 0.618514
v 0.040237 0.233557 0.999602
vn 0.000000 -0.020943 0.999781
vt 0.468395 0.611870
v 0.024997 0.251264 0.999973
vn 0.000000 -0.020943 0.999781
vt 0.476116 0.618514
v 0.040994 0.128828 1.262892
vn 0.709731 -0.305659 0.634708
vt 0.424932 0.792467
v 0.019781 0.125015 1.270809
vn 0.195446 -0.425516 0.883593
vt 0.420132 0.790155
v 0.019781 0.045948 1.207755
vn 0.195446 -0.766753 0.611466
vt 0.458363 0.742215
v 0.040994 0.052818 1.202277
vn 0.709731 -0.550779 0.439231
vt 0.461684 0.746381
v 0.019781 0.002069 1.116640
vn 0.195445 -0.956126 0.218229
vt 0.513608 0.715610
v 0.040994 0.010636 1.114684
vn 0.709731 -0.686810 0.156760
vt 0.514793 0.720805
v 0.019781 0.002069 1.015509
vn 0.195444 -0.956126 -0.218230
vt 0.574926 0.715611
v 0.040994 0.010636 1.017464
vn 0.709730 -0.686811 -0.156761
vt 0.573740 0.720805
v 0.019781 0.045948 0.924393
vn 0.195445 -0.766753 -0.611466
vt 0.630171 0.742215
v 0.040994 0.052818 0.929872
vn 0.709730 -0.550779 -0.439232
vt 0.626849 0.746381
v 0.019781 0.125015 0.861339
vn 0.195445 -0.425515 -0.883594
vt 0.668402 0.790155
v 0.040994 0.128828 0.869256
vn 0.709731 -0.305659 -0.634709
vt 0.663602 0.792467
v 0.049781 0.415904 1.022184
vn 0.980859 0.189838 -0.043329
vt 0.570878 0.966527
v 0.040994 0.436585 1.017464
vn 0.709731 0.686810 -0.156760
vt 0.573740 0.979067
v 0.040994 0.436585 1.114684
vn 0.709731 0.686811 0.156760
vt 0.514793 0.979067
v 0.049781 0.415904 1.109964
vn 0.980859 0.189838 0.043329
vt 0.517655 0.966527
v 0.040994 0.394403 1.202277
vn 0.709730 0.550780 0.439232
vt 0.461684 0.953491
v 0.049781 0.377818 1.189051
vn 0.980859 0.152238 0.121406
vt 0.469704 0.943435
v 0.040994 0.318393 1.262892
vn 0.709730 0.305660 0.634709
vt 0.424932 0.907404
v 0.049781 0.309189 1.243780
vn 0.980859 0.084486 0.175437
vt 0.436520 0.901824
v 0.040994 0.223610 1.284526
vn 0.709731 0.000000 0.704473
vt 0.411815 0.849936
v 0.049781 0.223610 1.263313
vn 0.980859 -0.000000 0.194720
vt 0.424677 0.849936
v 0.049781 0.138032 1.243780
vn 0.980859 -0.084486 0.175436
vt 0.436520 0.798048
v 0.049781 0.069403 1.189050
vn 0.980859 -0.152238 0.121406
vt 0.469704 0.756437
v 0.049781 0.031317 1.109964
vn 0.980859 -0.189837 0.043329
vt 0.517656 0.733344
v 0.049781 0.031317 1.022184
vn 0.980859 -0.189838 -0.043330
vt 0.570878 0.733344
v 0.049781 0.069403 0.943098
vn 0.980859 -0.152238 -0.121406
vt 0.618830 0.756437
v 0.049781 0.138032 0.888368
vn 0.980859 -0.084486 -0.175437
vt 0.652014 0.798048
v 0.040994 0.223610 0.847623
vn 0.709730 0.000000 -0.704473
vt 0.676719 0.849936
v 0.049781 0.223610 0.868836
vn 0.980859 -0.000000 -0.194720
vt 0.663857 0.849936
v 0.040994 0.318393 0.869256
vn 0.709731 0.305659 -0.634708
vt 0.663602 0.907404
v 0.049781 0.309189 0.888368
vn 0.980859 0.084486 -0.175436
vt 0.652014 0.901824
v 0.040994 0.394403 0.929872
vn 0.709731 0.550779 -0.439231
vt 0.626849 0.953491
v 0.049781 0.377818 0.943098
vn 0.980859 0.152238 -0.121406
vt 0.618830 0.943435
v 0.049781 0.223610 1.066074
vn 1.000000 -0.000000 -0.000000
vt 0.544267 0.849936
v 0.019781 0.223610 0.838836
vn 0.195445 0.000000 -0.980715
vt 0.682046 0.849936
v 0.019781 0.322206 0.861339
vn 0.195445 0.425516 -0.883593
vt 0.668402 0.909716
v 0.019781 0.401273 0.924393
vn 0.195446 0.766754 -0.611465
vt 0.630171 0.957656
v 0.019781 0.445152 1.015509
vn 0.195446 0.956126 -0.218229
vt 0.574926 0.984261
v 0.019781 0.445152 1.116640
vn 0.195445 0.956126 0.218230
vt 0.513608 0.984261
v 0.019781 0.401273 1.207755
vn 0.195445 0.766754 0.611466
vt 0.458363 0.957656
v 0.019781 0.322206 1.270809
vn 0.195445 0.425516 0.883593
vt 0.420132 0.909716
v 0.019781 0.223610 1.293313
vn 0.195445 0.000000 0.980715
vt 0.406487 0.849936
v -0.049781 0.031317 1.022184
vn -0.980859 -0.189837 -0.043329
vt 0.570878 0.733344
v -0.049781 0.223610 1.066074
vn -1.000000 0.000000 0.000000
vt 0.544267 0.849936
v -0.049781 0.069403 0.943098
vn -0.980859 -0.152238 -0.121406
vt 0.618830 0.756437
v -0.049781 0.138032 0.888368
vn -0.980859 -0.084485 -0.175436
vt 0.652014 0.798048
v -0.049781 0.223610 0.868836
vn -0.980859 -0.000000 -0.194720
vt 0.663857 0.849936
v -0.049781 0.309189 0.888368
vn -0.980859 0.084486 -0.175436
vt 0.652014 0.901824
v -0.049781 0.377818 0.943098
vn -0.980859 0.152238 -0.121406
vt 0.618830 0.943435
v -0.049781 0.415904 1.022184
vn -0.980859 0.189838 -0.043329
vt 0.570878 0.966527
v -0.040994 0.052818 0.929872
vn -0.709731 -0.550779 -0.439232
vt 0.626849 0.746381
v -0.040994 0.128828 0.869256
vn -0.709731 -0.305659 -0.634708
vt 0.663602 0.792467
v -0.040994 0.223610 0.847623
vn -0.709730 0.000000 -0.704473
vt 0.676719 0.849936
v -0.040994 0.318393 0.869256
vn -0.709731 0.305659 -0.634708
vt 0.663602 0.907404
v -0.040994 0.394403 0.929872
vn -0.709731 0.550779 -0.439231
vt 0.626849 0.953491
v -0.040994 0.436585 1.017464
vn -0.709731 0.686810 -0.156759
vt 0.573740 0.979067
v -0.049781 0.415904 1.109964
vn -0.980859 0.189838 0.043329
vt 0.517655 0.966527
v -0.049781 0.377818 1.189051
vn -0.980859 0.152238 0.121406
vt 0.469704 0.943435
v -0.049781 0.309189 1.243780
vn -0.980859 0.084486 0.175436
vt 0.436520 0.901824
v -0.049781 0.223610 1.263313
vn -0.980859 0.000000 0.194719
vt 0.424677 0.849936
v -0.049781 0.138032 1.243780
vn -0.980859 -0.084486 0.175436
vt 0.436520 0.798048
v -0.049781 0.069403 1.189050
vn -0.980859 -0.152238 0.121406
vt 0.469704 0.756437
v -0.049781 0.031317 1.109964
vn -0.980859 -0.189837 0.043329
vt 0.517656 0.733344
v -0.040994 0.436585 1.114684
vn -0.709730 0.686811 0.156761
vt 0.514793 0.979067
v -0.040994 0.394403 1.202277
vn -0.709730 0.550779 0.439232
vt 0.461684 0.953491
v -0.040994 0.318393 1.262892
vn -0.709731 0.305659 0.634708
vt 0.424932 0.907404
v -0.040994 0.223610 1.284526
vn -0.709732 0.000000 0.704472
vt 0.411815 0.849936
v -0.040994 0.128828 1.262892
vn -0.709732 -0.305659 0.634708
vt 0.424932 0.792467
v -0.040994 0.052818 1.202277
vn -0.709731 -0.550779 0.439232
vt 0.461684 0.746381
v -0.040994 0.010636 1.114684
vn -0.709731 -0.686810 0.156760
vt 0.514793 0.720805
v -0.040994 0.010636 1.017464
vn -0.709731 -0.686810 -0.156760
vt 0.573740 0.720805
v -0.019781 0.125015 1.270809
vn -0.195446 -0.425516 0.883593
vt 0.420132 0.790155
v -0.019781 0.045948 1.207755
vn -0.195446 -0.766753 0.611466
vt 0.458363 0.742215
v -0.019781 0.002069 1.116640
vn -0.195445 -0.956126 0.218229
vt 0.513608 0.715610
v -0.019781 0.002069 1.015509
vn -0.195445 -0.956126 -0.218230
vt 0.574926 0.715611
v -0.019781 0.045948 0.924393
vn -0.195446 -0.766753 -0.611466
vt 0.630171 0.742215
v -0.019781 0.125015 0.861339
vn -0.195445 -0.425515 -0.883594
vt 0.668402 0.790155
v -0.019781 0.223610 0.838836
vn -0.195445 0.000000 -0.980715
vt 0.682046 0.849936
v -0.019781 0.322206 0.861339
vn -0.195445 0.425516 -0.883593
vt 0.668402 0.909716
v -0.019781 0.401273 0.924393
vn -0.195446 0.766754 -0.611465
vt 0.630171 0.957656
v -0.019781 0.445152 1.015509
vn -0.195446 0.956126 -0.218229
vt 0.574926 0.984261
v -0.019781 0.445152 1.116640
vn -0.195445 0.956126 0.218230
vt 0.513608 0.984261
v -0.019781 0.401273 1.207755
vn -0.195445 0.766754 0.611466
vt 0.458363 0.957656
v -0.019781 0.322206 1.270809
vn -0.195445 0.425516 0.883593
vt 0.420132 0.909716
v -0.019781 0.223610 1.293313
vn -0.195446 0.000000 0.980714
vt 0.406487 0.849936
v 0.019781 0.401273 0.924393
vn 0.195446 0.766754 -0.611465
vt 0.937710 0.870414
v -0.019781 0.401273 0.924393
vn -0.195446 0.766754 -0.611465
vt 0.937710 0.900972
v -0.019781 0.445152 1.015509
vn -0.195446 0.956126 -0.218229
vt 0.867330 0.900972
v 0.019781 0.445152 1.015509
vn 0.195446 0.956126 -0.218229
vt 0.867330 0.870414
v -0.019781 0.445152 1.116640
vn -0.195445 0.956126 0.218230
vt 0.789214 0.900972
v 0.019781 0.445152 1.116640
vn 0.195445 0.956126 0.218230
vt 0.789214 0.870414
v -0.019781 0.401273 1.207755
vn -0.195445 0.766754 0.611466
vt 0.718834 0.900972
v 0.019781 0.401273 1.207755
vn 0.195445 0.766754 0.611466
vt 0.718834 0.870414
v 0.019781 0.401273 1.207755
vn 0.195445 0.766754 0.611466
vt 0.993295 0.935401
v -0.019781 0.401273 1.207755
vn -0.195445 0.766754 0.611466
vt 0.993295 0.965959
v -0.019781 0.322206 1.270809
vn -0.195445 0.425516 0.883593
vt 0.932222 0.965959
v 0.019781 0.322206 1.270809
vn 0.195445 0.425516 0.883593
vt 0.932222 0.935401
v -0.019781 0.223610 1.293313
vn -0.195446 0.000000 0.980714
vt 0.856065 0.965959
v 0.019781 0.223610 1.293313
vn 0.195445 0.000000 0.980715
vt 0.856065 0.935401
v -0.019781 0.125015 1.270809
vn -0.195446 -0.425516 0.883593
vt 0.779907 0.965959
v 0.019781 0.125015 1.270809
vn 0.195446 -0.425516 0.883593
vt 0.779907 0.935401
v -0.019781 0.045948 1.207755
vn -0.195446 -0.766753 0.611466
vt 0.718834 0.965959
v 0.019781 0.045948 1.207755
vn 0.195446 -0.766753 0.611466
vt 0.718834 0.935401
v 0.019781 0.045948 1.207755
vn 0.195446 -0.766753 0.611466
vt 0.937710 0.902907
v -0.019781 0.045948 1.207755
vn -0.195446 -0.766753 0.611466
vt 0.937710 0.933465
v -0.019781 0.002069 1.116640
vn -0.195445 -0.956126 0.218229
vt 0.867330 0.933465
v 0.019781 0.002069 1.116640
vn 0.195445 -0.956126 0.218229
vt 0.867330 0.902907
v -0.019781 0.002069 1.015509
vn -0.195445 -0.956126 -0.218230
vt 0.789214 0.933465
v 0.019781 0.002069 1.015509
vn 0.195444 -0.956126 -0.218230
vt 0.789214 0.902907
v -0.019781 0.045948 0.924393
vn -0.195446 -0.766753 -0.611466
vt 0.718834 0.933466
v 0.019781 0.045948 0.924393
vn 0.195445 -0.766753 -0.611466
vt 0.718834 0.902908
v 0.019781 0.045948 0.924393
vn 0.195445 -0.766753 -0.611466
vt 0.993295 0.967945
v -0.019781 0.045948 0.924393
vn -0.195446 -0.766753 -0.611466
vt 0.993295 0.998503
v -0.019781 0.125015 0.861339
vn -0.195445 -0.425515 -0.883594
vt 0.932222 0.998503
v 0.019781 0.125015 0.861339
vn 0.195445 -0.425515 -0.883594
vt 0.932222 0.967945
v -0.019781 0.223610 0.838836
vn -0.195445 0.000000 -0.980715
vt 0.856065 0.998503
v 0.019781 0.223610 0.838836
vn 0.195445 0.000000 -0.980715
vt 0.856065 0.967945
v -0.019781 0.322206 0.861339
vn -0.195445 0.425516 -0.883593
vt 0.779907 0.998503
v 0.019781 0.322206 0.861339
vn 0.195445 0.425516 -0.883593
vt 0.779907 0.967945
v -0.019781 0.401273 0.924393
vn -0.195446 0.766754 -0.611465
vt 0.718834 0.998503
v 0.019781 0.401273 0.924393
vn 0.195446 0.766754 -0.611465
vt 0.718834 0.967945
v -0.282694 0.314811 0.338936
vn -0.000000 0.999781 0.020943
vt 0.494225 0.172089
v -0.256232 0.309726 0.581678
vn -0.000000 0.999781 0.020943
vt 0.494225 0.067600
v -0.000000 0.309726 0.581678
vn 0.000000 0.999781 0.020943
vt 0.603868 0.067600
v -0.000000 0.314811 0.338936
vn 0.000000 0.999781 0.020943
vt 0.603868 0.172089
v -0.316959 0.321128 0.037357
vn -0.000000 0.999781 0.020943
vt 0.494225 0.307390
v 0.000000 0.321128 0.037357
vn 0.000000 0.999781 0.020943
vt 0.603868 0.304284
v -0.348148 0.326878 -0.237141
vn 0.000000 0.999781 0.020943
vt 0.494225 0.430541
v -0.000000 0.327162 -0.250675
vn 0.000000 0.999781 0.020943
vt 0.603868 0.430541
v -0.369107 0.330947 -0.431392
vn 0.000000 0.999781 0.020943
vt 0.494225 0.513300
v -0.000000 0.330947 -0.431392
vn -0.000000 0.999781 0.020943
vt 0.603868 0.513300
v -0.383881 0.333750 -0.565203
vn 0.000000 0.999781 0.020943
vt 0.494225 0.571638
v -0.000000 0.333750 -0.565203
vn -0.000000 0.999781 0.020943
vt 0.603868 0.571638
v -0.395907 0.336130 -0.678813
vn 0.000000 0.999781 0.020943
vt 0.494225 0.619123
v -0.000000 0.336130 -0.678813
vn 0.000000 0.999781 0.020943
vt 0.603868 0.619123
v -0.000000 0.338328 -0.783720
vn 0.000000 0.999781 0.020943
vt 0.603868 0.662972
v -0.407012 0.338328 -0.783720
vn -0.000000 0.999781 0.020943
vt 0.494225 0.662972
v 0.395597 0.486076 -0.675672
vn -0.994360 0.000314 -0.106061
vt 0.839669 0.563671
v 0.395752 0.411103 -0.677242
vn -0.994396 0.000144 -0.105720
vt 0.807499 0.564145
v 0.383548 0.460241 -0.562553
vn -0.994195 -0.000181 -0.107593
vt 0.829592 0.516146
v 0.383216 0.586732 -0.559904
vn -0.994190 -0.000180 -0.107636
vt 0.883855 0.515159
v 0.368716 0.496737 -0.427920
vn -0.993981 -0.000801 -0.109552
vt 0.847041 0.457806
v 0.368325 0.662526 -0.424447
vn -0.993924 -0.000790 -0.110065
vt 0.918752 0.456816
v 0.347174 0.524651 -0.232999
vn -0.993901 -0.001294 -0.110273
vt 0.861081 0.374561
v 0.346201 0.722424 -0.228856
vn -0.993892 -0.001292 -0.110353
vt 0.946833 0.373086
v 0.316495 0.534382 0.041824
vn -0.993826 0.000172 -0.110950
vt 0.868082 0.252274
v 0.316031 0.747636 0.046291
vn -0.993934 0.000151 -0.109980
vt 0.960833 0.251664
v 0.282789 0.545073 0.343760
vn -0.993942 0.001968 -0.109890
vt 0.875772 0.117923
v 0.282884 0.775336 0.348583
vn -0.993981 0.001963 -0.109536
vt 0.976215 0.118262
v 0.316959 0.321128 0.037357
vn -0.993717 0.000192 -0.111920
vt 0.775330 0.252885
v 0.282694 0.314811 0.338936
vn -0.993903 0.001973 -0.110244
vt 0.775330 0.117584
v 0.256232 0.309726 0.581678
vn -0.994087 0.002430 -0.108559
vt 0.775330 0.013095
v 0.255102 0.554612 0.596970
vn -0.994063 0.002439 -0.108784
vt 0.882203 0.008666
v 0.253971 0.799497 0.612263
vn -0.994038 0.002449 -0.109008
vt 0.989076 0.004236
v 0.459439 0.304413 -1.255764
vn -0.976704 0.004494 -0.214546
vt 0.756238 0.813899
v 0.471939 0.378558 -1.291719
vn -0.948683 0.006623 -0.316158
vt 0.788226 0.830247
v 0.471939 0.310375 -1.293147
vn -0.948683 0.006623 -0.316158
vt 0.758496 0.830247
v 0.459439 0.382949 -1.254119
vn -0.976704 0.004494 -0.214546
vt 0.790483 0.813899
v 0.432843 0.299407 -1.016770
vn -0.993868 0.002316 -0.110549
vt 0.756238 0.709687
v 0.432843 0.377942 -1.015124
vn -0.993868 0.002316 -0.110549
vt 0.790483 0.709687
v 0.407012 0.294544 -0.784637
vn -0.993868 0.002316 -0.110549
vt 0.756238 0.608467
v 0.407012 0.373080 -0.782992
vn -0.994111 0.001567 -0.108360
vt 0.790483 0.608467
v 0.407012 0.338328 -0.783720
vn -0.994223 0.001093 -0.107327
vt 0.779118 0.608467
v 0.395907 0.336130 -0.678813
vn -0.994432 -0.000026 -0.105378
vt 0.775330 0.564618
v 0.383881 0.333750 -0.565203
vn -0.994200 -0.000182 -0.107551
vt 0.775330 0.517134
v 0.369107 0.330947 -0.431392
vn -0.994037 -0.000813 -0.109040
vt 0.775330 0.458795
v 0.348148 0.326878 -0.237141
vn -0.993910 -0.001296 -0.110192
vt 0.775330 0.376036
v 0.082929 0.212721 1.030939
vn 0.811720 -0.180480 -0.555462
vt 0.565570 0.843333
v 0.050977 0.205548 1.008860
vn 0.587786 -0.250000 -0.769421
vt 0.578957 0.838984
v 0.050977 0.243109 1.008860
vn 0.587786 0.250002 -0.769420
vt 0.578957 0.861758
v 0.082929 0.235936 1.030939
vn 0.811720 0.180482 -0.555461
vt 0.565570 0.857409
v 0.050977 0.273497 1.030939
vn 0.587784 0.654510 -0.475527
vt 0.565570 0.880183
v 0.082929 0.254717 1.044584
vn 0.811719 0.472505 -0.343294
vt 0.557297 0.868796
v 0.050977 0.285105 1.066662
vn 0.587785 0.809017 0.000000
vt 0.543910 0.887221
v 0.082929 0.261890 1.066662
vn 0.811720 0.584048 0.000000
vt 0.543910 0.873146
v 0.050977 0.273497 1.102386
vn 0.587785 0.654508 0.475529
vt 0.522250 0.880183
v 0.082929 0.254717 1.088740
vn 0.811719 0.472504 0.343295
vt 0.530524 0.868796
v 0.050977 0.243109 1.124464
vn 0.587785 0.249999 0.769421
vt 0.508864 0.861758
v 0.082929 0.235936 1.102386
vn 0.811719 0.180479 0.555462
vt 0.522250 0.857409
v 0.050977 0.205547 1.124464
vn 0.587785 -0.250001 0.769420
vt 0.508864 0.838984
v 0.082929 0.212721 1.102386
vn 0.811719 -0.180482 0.555462
vt 0.522251 0.843333
v 0.050977 0.175159 1.102386
vn 0.587786 -0.654508 0.475528
vt 0.522251 0.820559
v 0.082929 0.193940 1.088740
vn 0.811720 -0.472504 0.343294
vt 0.530524 0.831946
v 0.050977 0.163552 1.066662
vn 0.587786 -0.809016 0.000000
vt 0.543910 0.813521
v 0.082929 0.186767 1.066662
vn 0.811720 -0.584046 0.000000
vt 0.543910 0.827596
v 0.050977 0.175159 1.030939
vn 0.587786 -0.654508 -0.475528
vt 0.565570 0.820559
v 0.082929 0.193940 1.044584
vn 0.811720 -0.472504 -0.343294
vt 0.557297 0.831946
v 0.095133 0.224328 1.066662
vn 1.000000 0.000000 0.000000
vt 0.543910 0.850371
v 0.543001 0.304413 -1.255764
vn 0.702473 -0.699930 -0.128956
vt 0.020070 0.021622
v 0.522583 0.302459 -1.293313
vn 0.670817 -0.664054 -0.330207
vt 0.018876 0.005274
v 0.530501 0.310375 -1.293147
vn 0.670817 -0.664054 -0.330207
vt 0.022327 0.005274
v 0.527761 0.289176 -1.256083
vn 0.378025 -0.910509 -0.167544
vt 0.013426 0.021622
v 0.511568 0.299407 -1.016770
vn 0.704070 -0.705855 0.077813
vt 0.020070 0.125833
v 0.496328 0.284170 -1.017089
vn 0.381379 -0.923905 0.030805
vt 0.013426 0.125833
v 0.481038 0.294544 -0.784637
vn 0.704571 -0.705816 0.073504
vt 0.020070 0.227053
v 0.465798 0.279307 -0.784957
vn 0.381680 -0.923913 0.026536
vt 0.013426 0.227053
v 0.467773 0.291595 -0.679746
vn 0.705526 -0.705291 0.069265
vt 0.019742 0.270902
v 0.452573 0.276359 -0.680065
vn 0.705526 -0.705291 0.069265
vt 0.013099 0.270902
v 0.453407 0.288401 -0.566153
vn 0.706425 -0.704196 0.071223
vt 0.019387 0.318386
v 0.438250 0.273166 -0.566472
vn 0.706425 -0.704196 0.071223
vt 0.012744 0.318386
v 0.435759 0.284599 -0.432363
vn 0.707640 -0.702872 0.072230
vt 0.018951 0.376725
v 0.420654 0.269365 -0.432682
vn 0.707640 -0.702872 0.072230
vt 0.012309 0.376725
v 0.410722 0.279111 -0.238142
vn 0.709339 -0.700994 0.073790
vt 0.018333 0.459484
v 0.395692 0.263879 -0.238461
vn 0.709339 -0.700994 0.073790
vt 0.011691 0.459484
v 0.373465 0.271251 0.036313
vn 0.711580 -0.698433 0.076450
vt 0.017413 0.582635
v 0.358547 0.256020 0.035994
vn 0.711580 -0.698433 0.076450
vt 0.010772 0.582635
v 0.317738 0.247387 0.337524
vn 0.714460 -0.695621 0.075216
vt 0.009761 0.717936
v 0.332533 0.262615 0.337843
vn 0.714460 -0.695621 0.075216
vt 0.016402 0.717936
v 0.289128 0.253198 0.669941
vn 0.698991 -0.662052 0.270369
vt 0.015329 0.861411
v 0.274463 0.237973 0.669622
vn 0.698991 -0.662052 0.270369
vt 0.008690 0.861411
v 0.040237 0.233557 0.999602
vn 0.654031 -0.603452 0.456168
vt 0.009778 1.005273
v 0.024997 0.215849 0.999231
vn 0.654031 -0.603452 0.456168
vt 0.002057 1.005273
g Schubkarre_Low_part_0
# Submesh 0: 740 triangles
f 1/1/1 2/2/2 3/3/3
f 4/4/4 5/5/5 6/6/6
f 7/7/7 6/6/6 5/5/5
f 7/7/7 5/5/5 8/8/8
f 9/9/9 7/7/7 8/8/8
f 10/10/10 7/7/7 9/9/9
f 9/9/9 8/8/8 11/11/11
f 12/12/12 13/13/13 14/14/14
f 12/12/12 14/14/14 15/15/15
f 15/15/15 14/14/14 16/16/16
f 15/15/15 16/16/16 17/17/17
f 17/17/17 16/16/16 18/18/18
f 17/17/17 18/18/18 19/19/19
f 20/20/20 19/19/19 18/18/18
f 21/21/21 19/19/19 20/20/20
f 21/21/21 17/17/17 19/19/19
f 22/22/22 17/17/17 21/21/21
f 22/22/22 15/15/15 17/17/17
f 4/4/4 15/15/15 22/22/22
f 4/4/4 12/12/12 15/15/15
f 4/4/4 6/6/6 12/12/12
f 12/12/12 6/6/6 23/23/23
f 23/23/23 6/6/6 7/7/7
f 23/23/23 7/7/7 24/24/24
f 10/10/10 24/24/24 7/7/7
f 25/25/25 24/24/24 10/10/10
f 25/25/25 10/10/10 26/26/26
f 25/25/25 26/26/26 27/27/27
f 20/20/20 18/18/18 28/28/28
f 18/18/18 29/29/29 28/28/28
f 12/12/12 23/23/23 13/13/13
f 13/13/13 23/23/23 30/30/30
f 30/30/30 23/23/23 24/24/24
f 30/30/30 24/24/24 31/31/31
f 25/25/25 31/31/31 24/24/24
f 13/13/13 30/30/30 32/32/32
f 13/13/13 32/32/32 33/33/33
f 13/13/13 33/33/33 14/14/14
f 14/14/14 33/33/33 34/34/34
f 14/14/14 34/34/34 16/16/16
f 16/16/16 34/34/34 35/35/35
f 16/16/16 35/35/35 18/18/18
f 18/18/18 35/35/35 36/36/36
f 18/18/18 36/36/36 29/29/29
f 29/29/29 36/36/36 37/37/37
f 29/29/29 37/37/37 38/38/38
f 38/38/38 37/37/37 39/39/39
f 38/38/38 39/39/39 40/40/40
f 40/40/40 39/39/39 41/41/41
f 40/40/40 41/41/41 42/42/42
f 43/43/43 44/44/44 45/45/45
f 43/43/43 45/45/45 46/46/46
f 46/46/46 45/45/45 47/47/47
f 46/46/46 47/47/47 48/48/48
f 49/49/49 50/50/50 51/51/51
f 49/49/49 51/51/51 52/52/52
f 53/53/53 54/54/54 55/55/55
f 53/53/53 55/55/55 56/56/56
f 53/53/53 56/56/56 57/57/57
f 53/53/53 57/57/57 58/58/58
f 53/53/53 58/58/58 59/59/59
f 53/53/53 59/59/59 60/60/60
f 61/61/61 62/62/62 63/63/63
f 61/61/61 63/63/63 64/64/64
f 65/65/65 66/66/66 67/67/67
f 65/65/65 67/67/67 68/68/68
f 64/64/64 65/65/65 68/68/68
f 64/64/64 68/68/68 61/61/61
f 61/61/61 68/68/68 69/69/69
f 61/61/61 69/69/69 70/70/70
f 70/70/70 69/69/69 71/71/71
f 70/70/70 71/71/71 72/72/72
f 72/72/72 71/71/71 73/73/73
f 72/72/72 73/73/73 74/74/74
f 75/75/75 74/74/74 73/73/73
f 75/75/75 76/76/76 74/74/74
f 77/77/77 76/76/76 75/75/75
f 77/77/77 78/78/78 76/76/76
f 79/79/79 78/78/78 77/77/77
f 79/79/79 80/80/80 78/78/78
f 81/81/81 80/80/80 79/79/79
f 81/81/81 82/82/82 80/80/80
f 80/80/80 83/83/83 84/84/84
f 80/80/80 84/84/84 78/78/78
f 78/78/78 84/84/84 85/85/85
f 78/78/78 85/85/85 76/76/76
f 76/76/76 85/85/85 86/86/86
f 76/76/76 86/86/86 74/74/74
f 74/74/74 86/86/86 87/87/87
f 74/74/74 87/87/87 72/72/72
f 72/72/72 87/87/87 88/88/88
f 72/72/72 88/88/88 70/70/70
f 70/70/70 88/88/88 89/89/89
f 70/70/70 89/89/89 61/61/61
f 68/68/68 90/90/90 91/91/91
f 68/68/68 91/91/91 69/69/69
f 69/69/69 91/91/91 92/92/92
f 69/69/69 92/92/92 71/71/71
f 71/71/71 92/92/92 93/93/93
f 71/71/71 93/93/93 73/73/73
f 94/94/94 73/73/73 93/93/93
f 94/94/94 75/75/75 73/73/73
f 95/95/95 75/75/75 94/94/94
f 95/95/95 77/77/77 75/75/75
f 96/96/96 77/77/77 95/95/95
f 96/96/96 79/79/79 77/77/77
f 97/97/97 79/79/79 96/96/96
f 97/97/97 81/81/81 79/79/79
f 98/98/98 81/81/81 97/97/97
f 81/81/81 98/98/98 99/99/99
f 81/81/81 99/99/99 100/100/100
f 100/100/100 99/99/99 101/101/101
f 82/82/82 81/81/81 100/100/100
f 82/82/82 100/100/100 102/102/102
f 102/102/102 100/100/100 103/103/103
f 102/102/102 103/103/103 104/104/104
f 105/105/105 102/102/102 104/104/104
f 105/105/105 104/104/104 106/106/106
f 107/107/107 82/82/82 102/102/102
f 107/107/107 102/102/102 105/105/105
f 100/100/100 101/101/101 103/103/103
f 103/103/103 101/101/101 108/108/108
f 103/103/103 108/108/108 109/109/109
f 104/104/104 103/103/103 109/109/109
f 104/104/104 109/109/109 110/110/110
f 106/106/106 104/104/104 110/110/110
f 106/106/106 110/110/110 111/111/111
f 112/112/112 113/113/113 114/114/114
f 115/115/115 116/116/116 117/117/117
f 115/115/115 117/117/117 118/118/118
f 119/119/119 120/120/120 121/121/121
f 119/119/119 122/122/122 120/120/120
f 123/123/123 122/122/122 119/119/119
f 123/123/123 124/124/124 122/122/122
f 125/125/125 124/124/124 123/123/123
f 125/125/125 123/123/123 126/126/126
f 125/125/125 126/126/126 127/127/127
f 128/128/128 129/129/129 130/130/130
f 128/128/128 130/130/130 131/131/131
f 132/132/132 133/133/133 134/134/134
f 132/132/132 134/134/134 135/135/135
f 132/132/132 135/135/135 136/136/136
f 132/132/132 136/136/136 137/137/137
f 132/132/132 137/137/137 138/138/138
f 132/132/132 138/138/138 139/139/139
f 140/140/140 141/141/141 142/142/142
f 140/140/140 142/142/142 143/143/143
f 144/144/144 145/145/145 146/146/146
f 144/144/144 146/146/146 147/147/147
f 140/140/140 144/144/144 147/147/147
f 140/140/140 147/147/147 148/148/148
f 141/141/141 140/140/140 148/148/148
f 141/141/141 148/148/148 149/149/149
f 149/149/149 148/148/148 150/150/150
f 149/149/149 150/150/150 151/151/151
f 144/144/144 140/140/140 152/152/152
f 144/144/144 152/152/152 153/153/153
f 145/145/145 144/144/144 153/153/153
f 145/145/145 153/153/153 154/154/154
f 155/155/155 145/145/145 154/154/154
f 155/155/155 154/154/154 156/156/156
f 157/157/157 155/155/155 156/156/156
f 157/157/157 156/156/156 158/158/158
f 159/159/159 157/157/157 158/158/158
f 159/159/159 158/158/158 160/160/160
f 161/161/161 159/159/159 160/160/160
f 161/161/161 160/160/160 162/162/162
f 163/163/163 164/164/164 165/165/165
f 163/163/163 165/165/165 166/166/166
f 166/166/166 165/165/165 167/167/167
f 166/166/166 167/167/167 168/168/168
f 169/169/169 166/166/166 168/168/168
f 169/169/169 168/168/168 170/170/170
f 171/171/171 169/169/169 170/170/170
f 171/171/171 170/170/170 172/172/172
f 172/172/172 161/161/161 171/171/171
f 172/172/172 173/173/173 161/161/161
f 173/173/173 159/159/159 161/161/161
f 173/173/173 174/174/174 159/159/159
f 174/174/174 157/157/157 159/159/159
f 174/174/174 175/175/175 157/157/157
f 175/175/175 155/155/155 157/157/157
f 175/175/175 176/176/176 155/155/155
f 145/145/145 155/155/155 176/176/176
f 145/145/145 176/176/176 146/146/146
f 177/177/177 163/163/163 166/166/166
f 177/177/177 166/166/166 169/169/169
f 178/178/178 177/177/177 169/169/169
f 178/178/178 169/169/169 171/171/171
f 168/168/168 167/167/167 179/179/179
f 168/168/168 179/179/179 180/180/180
f 170/170/170 168/168/168 180/180/180
f 170/170/170 180/180/180 181/181/181
f 172/172/172 170/170/170 181/181/181
f 172/172/172 181/181/181 182/182/182
f 182/182/182 183/183/183 172/172/172
f 183/183/183 173/173/173 172/172/172
f 183/183/183 184/184/184 173/173/173
f 184/184/184 174/174/174 173/173/173
f 184/184/184 185/185/185 174/174/174
f 185/185/185 175/175/175 174/174/174
f 185/185/185 186/186/186 175/175/175
f 186/186/186 176/176/176 175/175/175
f 186/186/186 187/187/187 176/176/176
f 146/146/146 176/176/176 187/187/187
f 146/146/146 187/187/187 188/188/188
f 147/147/147 146/146/146 188/188/188
f 147/147/147 188/188/188 189/189/189
f 148/148/148 147/147/147 189/189/189
f 148/148/148 189/189/189 190/190/190
f 191/191/191 192/192/192 193/193/193
f 191/191/191 193/193/193 194/194/194
f 195/195/195 196/196/196 197/197/197
f 198/198/198 195/195/195 197/197/197
f 199/199/199 200/200/200 201/201/201
f 199/199/199 201/201/201 202/202/202
f 203/203/203 199/199/199 202/202/202
f 203/203/203 202/202/202 204/204/204
f 205/205/205 203/203/203 204/204/204
f 205/205/205 204/204/204 206/206/206
f 205/205/205 206/206/206 198/198/198
f 198/198/198 206/206/206 207/207/207
f 198/198/198 207/207/207 195/195/195
f 207/207/207 208/208/208 195/195/195
f 195/195/195 208/208/208 196/196/196
f 208/208/208 209/209/209 196/196/196
f 208/208/208 210/210/210 209/209/209
f 210/210/210 211/211/211 209/209/209
f 210/210/210 212/212/212 211/211/211
f 212/212/212 213/213/213 211/211/211
f 212/212/212 214/214/214 213/213/213
f 214/214/214 215/215/215 213/213/213
f 207/207/207 216/216/216 208/208/208
f 216/216/216 210/210/210 208/208/208
f 216/216/216 217/217/217 210/210/210
f 217/217/217 212/212/212 210/210/210
f 217/217/217 218/218/218 212/212/212
f 218/218/218 214/214/214 212/212/212
f 218/218/218 219/219/219 214/214/214
f 219/219/219 220/220/220 214/214/214
f 219/219/219 221/221/221 220/220/220
f 214/214/214 220/220/220 215/215/215
f 220/220/220 222/222/222 215/215/215
f 220/220/220 223/223/223 222/222/222
f 221/221/221 223/223/223 220/220/220
f 221/221/221 224/224/224 223/223/223
f 225/225/225 226/226/226 227/227/227
f 226/226/226 228/228/228 229/229/229
f 226/226/226 229/229/229 227/227/227
f 227/227/227 229/229/229 230/230/230
f 227/227/227 230/230/230 231/231/231
f 232/232/232 231/231/231 230/230/230
f 233/233/233 234/234/234 227/227/227
f 225/225/225 227/227/227 234/234/234
f 235/235/235 225/225/225 234/234/234
f 235/235/235 236/236/236 225/225/225
f 235/235/235 237/237/237 236/236/236
f 235/235/235 234/234/234 238/238/238
f 239/239/239 238/238/238 234/234/234
f 239/239/239 234/234/234 233/233/233
f 240/240/240 239/239/239 233/233/233
f 241/241/241 240/240/240 233/233/233
f 241/241/241 242/242/242 240/240/240
f 241/241/241 243/243/243 242/242/242
f 243/243/243 244/244/244 242/242/242
f 243/243/243 245/245/245 244/244/244
f 245/245/245 246/246/246 244/244/244
f 245/245/245 247/247/247 246/246/246
f 248/248/248 246/246/246 247/247/247
f 249/249/249 248/248/248 247/247/247
f 249/249/249 247/247/247 245/245/245
f 250/250/250 249/249/249 245/245/245
f 250/250/250 245/245/245 243/243/243
f 232/232/232 250/250/250 243/243/243
f 232/232/232 243/243/243 241/241/241
f 232/232/232 241/241/241 231/231/231
f 241/241/241 233/233/233 231/231/231
f 233/233/233 227/227/227 231/231/231
f 248/248/248 251/251/251 246/246/246
f 246/246/246 251/251/251 252/252/252
f 253/253/253 254/254/254 255/255/255
f 253/253/253 255/255/255 256/256/256
f 257/257/257 253/253/253 256/256/256
f 257/257/257 256/256/256 258/258/258
f 252/252/252 257/257/257 258/258/258
f 252/252/252 258/258/258 259/259/259
f 246/246/246 252/252/252 259/259/259
f 246/246/246 259/259/259 260/260/260
f 244/244/244 246/246/246 260/260/260
f 244/244/244 260/260/260 261/261/261
f 242/242/242 244/244/244 261/261/261
f 242/242/242 261/261/261 262/262/262
f 240/240/240 242/242/242 262/262/262
f 240/240/240 262/262/262 263/263/263
f 240/240/240 263/263/263 239/239/239
f 264/264/264 265/265/265 266/266/266
f 264/264/264 266/266/266 267/267/267
f 268/268/268 269/269/269 270/270/270
f 268/268/268 270/270/270 271/271/271
f 272/272/272 273/273/273 274/274/274
f 272/272/272 274/274/274 275/275/275
f 276/276/276 277/277/277 278/278/278
f 276/276/276 278/278/278 279/279/279
f 280/280/280 281/281/281 282/282/282
f 280/280/280 282/282/282 283/283/283
f 284/284/284 285/285/285 286/286/286
f 284/284/284 286/286/286 287/287/287
f 288/288/288 289/289/289 290/290/290
f 288/288/288 290/290/290 291/291/291
f 292/292/292 293/293/293 294/294/294
f 292/292/292 294/294/294 295/295/295
f 296/296/296 297/297/297 298/298/298
f 296/296/296 298/298/298 299/299/299
f 300/300/300 301/301/301 302/302/302
f 300/300/300 302/302/302 303/303/303
f 304/304/304 305/305/305 306/306/306
f 304/304/304 306/306/306 307/307/307
f 307/307/307 306/306/306 308/308/308
f 307/307/307 308/308/308 309/309/309
f 310/310/310 311/311/311 312/312/312
f 310/310/310 312/312/312 313/313/313
f 313/313/313 312/312/312 314/314/314
f 313/313/313 314/314/314 315/315/315
f 315/315/315 314/314/314 316/316/316
f 315/315/315 316/316/316 317/317/317
f 318/318/318 319/319/319 320/320/320
f 318/318/318 320/320/320 321/321/321
f 322/322/322 318/318/318 321/321/321
f 322/322/322 321/321/321 323/323/323
f 324/324/324 325/325/325 326/326/326
f 324/324/324 326/326/326 327/327/327
f 328/328/328 324/324/324 327/327/327
f 328/328/328 327/327/327 329/329/329
f 330/330/330 331/331/331 332/332/332
f 330/330/330 333/333/333 331/331/331
f 331/331/331 333/333/333 334/334/334
f 331/331/331 334/334/334 335/335/335
f 335/335/335 334/334/334 336/336/336
f 335/335/335 336/336/336 337/337/337
f 337/337/337 336/336/336 338/338/338
f 337/337/337 338/338/338 339/339/339
f 339/339/339 338/338/338 340/340/340
f 339/339/339 340/340/340 341/341/341
f 341/341/341 340/340/340 342/342/342
f 341/341/341 342/342/342 343/343/343
f 343/343/343 342/342/342 344/344/344
f 343/343/343 344/344/344 345/345/345
f 346/346/346 347/347/347 348/348/348
f 346/346/346 348/348/348 349/349/349
f 350/350/350 346/346/346 349/349/349
f 350/350/350 349/349/349 351/351/351
f 352/352/352 353/353/353 354/354/354
f 352/352/352 354/354/354 355/355/355
f 352/352/352 355/355/355 356/356/356
f 352/352/352 356/356/356 357/357/357
f 352/352/352 357/357/357 358/358/358
f 352/352/352 358/358/358 359/359/359
f 352/352/352 359/359/359 360/360/360
f 352/352/352 360/360/360 361/361/361
f 352/352/352 361/361/361 362/362/362
f 352/352/352 362/362/362 353/353/353
f 363/363/363 353/353/353 362/362/362
f 364/364/364 353/353/353 363/363/363
f 364/364/364 354/354/354 353/353/353
f 365/365/365 354/354/354 364/364/364
f 365/365/365 355/355/355 354/354/354
f 366/366/366 355/355/355 365/365/365
f 366/366/366 356/356/356 355/355/355
f 367/367/367 356/356/356 366/366/366
f 367/367/367 357/357/357 356/356/356
f 368/368/368 357/357/357 367/367/367
f 368/368/368 358/358/358 357/357/357
f 369/369/369 358/358/358 368/368/368
f 369/369/369 359/359/359 358/358/358
f 370/370/370 359/359/359 369/369/369
f 370/370/370 360/360/360 359/359/359
f 371/371/371 360/360/360 370/370/370
f 371/371/371 361/361/361 360/360/360
f 372/372/372 361/361/361 371/371/371
f 372/372/372 362/362/362 361/361/361
f 363/363/363 362/362/362 372/372/372
f 373/373/373 374/374/374 375/375/375
f 373/373/373 375/375/375 376/376/376
f 376/376/376 375/375/375 377/377/377
f 376/376/376 377/377/377 378/378/378
f 379/379/379 380/380/380 381/381/381
f 379/379/379 381/381/381 382/382/382
f 379/379/379 382/382/382 383/383/383
f 382/382/382 384/384/384 383/383/383
f 382/382/382 385/385/385 384/384/384
f 385/385/385 386/386/386 384/384/384
f 385/385/385 387/387/387 386/386/386
f 388/388/388 389/389/389 390/390/390
f 388/388/388 390/390/390 391/391/391
f 391/391/391 392/392/392 388/388/388
f 391/391/391 393/393/393 392/392/392
f 394/394/394 395/395/395 396/396/396
f 394/394/394 396/396/396 397/397/397
f 398/398/398 394/394/394 397/397/397
f 398/398/398 397/397/397 399/399/399
f 398/398/398 399/399/399 400/400/400
f 398/398/398 400/400/400 401/401/401
f 400/400/400 402/402/402 401/401/401
f 400/400/400 403/403/403 402/402/402
f 404/404/404 402/402/402 403/403/403
f 404/404/404 403/403/403 405/405/405
f 406/406/406 404/404/404 405/405/405
f 406/406/406 405/405/405 407/407/407
f 408/408/408 406/406/406 407/407/407
f 408/408/408 407/407/407 409/409/409
f 410/410/410 408/408/408 409/409/409
f 410/410/410 409/409/409 411/411/411
f 389/389/389 410/410/410 411/411/411
f 389/389/389 411/411/411 390/390/390
f 412/412/412 413/413/413 414/414/414
f 414/414/414 413/413/413 415/415/415
f 414/414/414 415/415/415 416/416/416
f 416/416/416 415/415/415 417/417/417
f 416/416/416 417/417/417 418/418/418
f 419/419/419 420/420/420 421/421/421
f 419/419/419 422/422/422 420/420/420
f 422/422/422 423/423/423 420/420/420
f 422/422/422 424/424/424 423/423/423
f 423/423/423 424/424/424 425/425/425
f 423/423/423 425/425/425 426/426/426
f 426/426/426 425/425/425 427/427/427
f 426/426/426 427/427/427 428/428/428
f 428/428/428 427/427/427 429/429/429
f 428/428/428 429/429/429 430/430/430
f 430/430/430 429/429/429 431/431/431
f 430/430/430 431/431/431 432/432/432
f 432/432/432 431/431/431 433/433/433
f 432/432/432 433/433/433 434/434/434
f 435/435/435 434/434/434 433/433/433
f 435/435/435 412/412/412 434/434/434
f 435/435/435 436/436/436 412/412/412
f 412/412/412 436/436/436 413/413/413
f 437/437/437 438/438/438 439/439/439
f 437/437/437 439/439/439 440/440/440
f 441/441/441 437/437/437 440/440/440
f 441/441/441 440/440/440 442/442/442
f 443/443/443 441/441/441 442/442/442
f 443/443/443 442/442/442 444/444/444
f 445/445/445 446/446/446 447/447/447
f 445/445/445 447/447/447 448/448/448
f 449/449/449 445/445/445 448/448/448
f 449/449/449 448/448/448 450/450/450
f 451/451/451 449/449/449 450/450/450
f 451/451/451 450/450/450 452/452/452
f 453/453/453 451/451/451 452/452/452
f 453/453/453 454/454/454 451/451/451
f 453/453/453 455/455/455 454/454/454
f 456/456/456 454/454/454 455/455/455
f 456/456/456 455/455/455 457/457/457
f 458/458/458 456/456/456 457/457/457
f 458/458/458 457/457/457 459/459/459
f 460/460/460 458/458/458 459/459/459
f 460/460/460 459/459/459 461/461/461
f 462/462/462 460/460/460 461/461/461
f 462/462/462 461/461/461 463/463/463
f 464/464/464 462/462/462 463/463/463
f 464/464/464 463/463/463 465/465/465
f 466/466/466 464/464/464 465/465/465
f 466/466/466 467/467/467 464/464/464
f 468/468/468 467/467/467 466/466/466
f 468/468/468 469/469/469 467/467/467
f 470/470/470 471/471/471 472/472/472
f 470/470/470 472/472/472 473/473/473
f 470/470/470 473/473/473 474/474/474
f 470/470/470 474/474/474 475/475/475
f 470/470/470 475/475/475 476/476/476
f 470/470/470 476/476/476 477/477/477
f 478/478/478 479/479/479 480/480/480
f 478/478/478 480/480/480 481/481/481
f 481/481/481 480/480/480 482/482/482
f 481/481/481 482/482/482 483/483/483
f 483/483/483 482/482/482 484/484/484
f 483/483/483 484/484/484 485/485/485
f 485/485/485 484/484/484 486/486/486
f 485/485/485 486/486/486 487/487/487
f 487/487/487 486/486/486 488/488/488
f 487/487/487 488/488/488 489/489/489
f 490/490/490 491/491/491 492/492/492
f 490/490/490 492/492/492 493/493/493
f 493/493/493 492/492/492 494/494/494
f 493/493/493 494/494/494 495/495/495
f 495/495/495 494/494/494 496/496/496
f 495/495/495 496/496/496 497/497/497
f 497/497/497 496/496/496 498/498/498
f 497/497/497 498/498/498 499/499/499
f 499/499/499 498/498/498 478/478/478
f 499/499/499 478/478/478 500/500/500
f 500/500/500 478/478/478 481/481/481
f 500/500/500 481/481/481 501/501/501
f 501/501/501 481/481/481 483/483/483
f 501/501/501 483/483/483 502/502/502
f 502/502/502 483/483/483 485/485/485
f 502/502/502 485/485/485 503/503/503
f 503/503/503 485/485/485 487/487/487
f 503/503/503 487/487/487 504/504/504
f 504/504/504 487/487/487 489/489/489
f 504/504/504 489/489/489 505/505/505
f 505/505/505 489/489/489 506/506/506
f 505/505/505 506/506/506 507/507/507
f 507/507/507 506/506/506 508/508/508
f 507/507/507 508/508/508 509/509/509
f 509/509/509 508/508/508 510/510/510
f 509/509/509 510/510/510 511/511/511
f 511/511/511 510/510/510 491/491/491
f 511/511/511 491/491/491 490/490/490
f 512/512/512 511/511/511 490/490/490
f 512/512/512 490/490/490 493/493/493
f 512/512/512 493/493/493 495/495/495
f 512/512/512 495/495/495 497/497/497
f 512/512/512 497/497/497 499/499/499
f 512/512/512 499/499/499 500/500/500
f 512/512/512 500/500/500 501/501/501
f 512/512/512 501/501/501 502/502/502
f 512/512/512 502/502/502 503/503/503
f 512/512/512 503/503/503 504/504/504
f 512/512/512 504/504/504 505/505/505
f 512/512/512 505/505/505 507/507/507
f 512/512/512 507/507/507 509/509/509
f 512/512/512 509/509/509 511/511/511
f 489/489/489 488/488/488 513/513/513
f 489/489/489 513/513/513 506/506/506
f 506/506/506 513/513/513 514/514/514
f 506/506/506 514/514/514 508/508/508
f 508/508/508 514/514/514 515/515/515
f 508/508/508 515/515/515 510/510/510
f 510/510/510 515/515/515 516/516/516
f 510/510/510 516/516/516 491/491/491
f 491/491/491 516/516/516 517/517/517
f 491/491/491 517/517/517 492/492/492
f 492/492/492 517/517/517 518/518/518
f 492/492/492 518/518/518 494/494/494
f 494/494/494 518/518/518 519/519/519
f 494/494/494 519/519/519 496/496/496
f 496/496/496 519/519/519 520/520/520
f 496/496/496 520/520/520 498/498/498
f 498/498/498 520/520/520 479/479/479
f 498/498/498 479/479/479 478/478/478
f 521/521/521 522/522/522 523/523/523
f 523/523/523 522/522/522 524/524/524
f 524/524/524 522/522/522 525/525/525
f 525/525/525 522/522/522 526/526/526
f 526/526/526 522/522/522 527/527/527
f 527/527/527 522/522/522 528/528/528
f 529/529/529 524/524/524 530/530/530
f 530/530/530 524/524/524 525/525/525
f 530/530/530 525/525/525 531/531/531
f 531/531/531 525/525/525 526/526/526
f 531/531/531 526/526/526 532/532/532
f 532/532/532 526/526/526 527/527/527
f 532/532/532 527/527/527 533/533/533
f 533/533/533 527/527/527 528/528/528
f 533/533/533 528/528/528 534/534/534
f 534/534/534 528/528/528 535/535/535
f 528/528/528 522/522/522 535/535/535
f 535/535/535 522/522/522 536/536/536
f 536/536/536 522/522/522 537/537/537
f 537/537/537 522/522/522 538/538/538
f 538/538/538 522/522/522 539/539/539
f 539/539/539 522/522/522 540/540/540
f 540/540/540 522/522/522 541/541/541
f 541/541/541 522/522/522 521/521/521
f 534/534/534 535/535/535 542/542/542
f 542/542/542 535/535/535 536/536/536
f 542/542/542 536/536/536 543/543/543
f 543/543/543 536/536/536 537/537/537
f 543/543/543 537/537/537 544/544/544
f 544/544/544 537/537/537 538/538/538
f 544/544/544 538/538/538 545/545/545
f 545/545/545 538/538/538 539/539/539
f 545/545/545 539/539/539 546/546/546
f 546/546/546 539/539/539 540/540/540
f 546/546/546 540/540/540 547/547/547
f 547/547/547 540/540/540 541/541/541
f 547/547/547 541/541/541 548/548/548
f 548/548/548 541/541/541 521/521/521
f 548/548/548 521/521/521 549/549/549
f 549/549/549 521/521/521 523/523/523
f 549/549/549 523/523/523 529/529/529
f 529/529/529 523/523/523 524/524/524
f 550/550/550 546/546/546 547/547/547
f 550/550/550 547/547/547 551/551/551
f 551/551/551 547/547/547 548/548/548
f 551/551/551 548/548/548 552/552/552
f 552/552/552 548/548/548 549/549/549
f 552/552/552 549/549/549 553/553/553
f 553/553/553 549/549/549 529/529/529
f 553/553/553 529/529/529 554/554/554
f 554/554/554 529/529/529 530/530/530
f 554/554/554 530/530/530 555/555/555
f 555/555/555 530/530/530 531/531/531
f 555/555/555 531/531/531 556/556/556
f 556/556/556 531/531/531 532/532/532
f 556/556/556 532/532/532 557/557/557
f 557/557/557 532/532/532 533/533/533
f 557/557/557 533/533/533 558/558/558
f 558/558/558 533/533/533 534/534/534
f 558/558/558 534/534/534 559/559/559
f 559/559/559 534/534/534 542/542/542
f 559/559/559 542/542/542 560/560/560
f 560/560/560 542/542/542 543/543/543
f 560/560/560 543/543/543 561/561/561
f 561/561/561 543/543/543 544/544/544
f 561/561/561 544/544/544 562/562/562
f 562/562/562 544/544/544 545/545/545
f 562/562/562 545/545/545 563/563/563
f 563/563/563 545/545/545 546/546/546
f 563/563/563 546/546/546 550/550/550
f 564/564/564 565/565/565 566/566/566
f 564/564/564 566/566/566 567/567/567
f 567/567/567 566/566/566 568/568/568
f 567/567/567 568/568/568 569/569/569
f 569/569/569 568/568/568 570/570/570
f 569/569/569 570/570/570 571/571/571
f 572/572/572 573/573/573 574/574/574
f 572/572/572 574/574/574 575/575/575
f 575/575/575 574/574/574 576/576/576
f 575/575/575 576/576/576 577/577/577
f 577/577/577 576/576/576 578/578/578
f 577/577/577 578/578/578 579/579/579
f 579/579/579 578/578/578 580/580/580
f 579/579/579 580/580/580 581/581/581
f 582/582/582 583/583/583 584/584/584
f 582/582/582 584/584/584 585/585/585
f 585/585/585 584/584/584 586/586/586
f 585/585/585 586/586/586 587/587/587
f 587/587/587 586/586/586 588/588/588
f 587/587/587 588/588/588 589/589/589
f 590/590/590 591/591/591 592/592/592
f 590/590/590 592/592/592 593/593/593
f 593/593/593 592/592/592 594/594/594
f 593/593/593 594/594/594 595/595/595
f 595/595/595 594/594/594 596/596/596
f 595/595/595 596/596/596 597/597/597
f 597/597/597 596/596/596 598/598/598
f 597/597/597 598/598/598 599/599/599
f 600/600/600 601/601/601 602/602/602
f 600/600/600 602/602/602 603/603/603
f 604/604/604 600/600/600 603/603/603
f 604/604/604 603/603/603 605/605/605
f 606/606/606 604/604/604 605/605/605
f 606/606/606 605/605/605 607/607/607
f 608/608/608 606/606/606 607/607/607
f 608/608/608 607/607/607 609/609/609
f 610/610/610 608/608/608 609/609/609
f 610/610/610 609/609/609 611/611/611
f 612/612/612 610/610/610 611/611/611
f 612/612/612 611/611/611 613/613/613
f 614/614/614 612/612/612 613/613/613
f 614/614/614 615/615/615 612/612/612
f 616/616/616 617/617/617 618/618/618
f 616/616/616 618/618/618 619/619/619
f 619/619/619 618/618/618 620/620/620
f 619/619/619 620/620/620 621/621/621
f 621/621/621 620/620/620 622/622/622
f 621/621/621 622/622/622 623/623/623
f 623/623/623 622/622/622 624/624/624
f 623/623/623 624/624/624 625/625/625
f 625/625/625 624/624/624 626/626/626
f 625/625/625 626/626/626 627/627/627
f 624/624/624 628/628/628 629/629/629
f 624/624/624 629/629/629 626/626/626
f 626/626/626 629/629/629 630/630/630
f 626/626/626 630/630/630 631/631/631
f 627/627/627 626/626/626 631/631/631
f 627/627/627 631/631/631 632/632/632
f 633/633/633 634/634/634 635/635/635
f 633/633/633 636/636/636 634/634/634
f 637/637/637 636/636/636 633/633/633
f 637/637/637 638/638/638 636/636/636
f 639/639/639 638/638/638 637/637/637
f 639/639/639 640/640/640 638/638/638
f 639/639/639 641/641/641 640/640/640
f 641/641/641 616/616/616 640/640/640
f 641/641/641 617/617/617 616/616/616
f 641/641/641 642/642/642 617/617/617
f 617/617/617 642/642/642 643/643/643
f 617/617/617 643/643/643 618/618/618
f 618/618/618 643/643/643 644/644/644
f 618/618/618 644/644/644 620/620/620
f 620/620/620 644/644/644 645/645/645
f 620/620/620 645/645/645 622/622/622
f 622/622/622 645/645/645 628/628/628
f 622/622/622 628/628/628 624/624/624
f 646/646/646 647/647/647 648/648/648
f 646/646/646 648/648/648 649/649/649
f 649/649/649 648/648/648 650/650/650
f 649/649/649 650/650/650 651/651/651
f 651/651/651 650/650/650 652/652/652
f 651/651/651 652/652/652 653/653/653
f 653/653/653 652/652/652 654/654/654
f 653/653/653 654/654/654 655/655/655
f 655/655/655 654/654/654 656/656/656
f 655/655/655 656/656/656 657/657/657
f 657/657/657 656/656/656 658/658/658
f 657/657/657 658/658/658 659/659/659
f 659/659/659 658/658/658 660/660/660
f 659/659/659 660/660/660 661/661/661
f 661/661/661 660/660/660 662/662/662
f 661/661/661 662/662/662 663/663/663
f 663/663/663 662/662/662 664/664/664
f 663/663/663 664/664/664 665/665/665
f 665/665/665 664/664/664 647/647/647
f 665/665/665 647/647/647 646/646/646
f 666/666/666 665/665/665 646/646/646
f 666/666/666 646/646/646 649/649/649
f 666/666/666 649/649/649 651/651/651
f 666/666/666 651/651/651 653/653/653
f 666/666/666 653/653/653 655/655/655
f 666/666/666 655/655/655 657/657/657
f 666/666/666 657/657/657 659/659/659
f 666/666/666 659/659/659 661/661/661
f 666/666/666 661/661/661 663/663/663
f 666/666/666 663/663/663 665/665/665
f 667/667/667 668/668/668 669/669/669
f 667/667/667 670/670/670 668/668/668
f 670/670/670 667/667/667 671/671/671
f 670/670/670 671/671/671 672/672/672
f 672/672/672 671/671/671 673/673/673
f 672/672/672 673/673/673 674/674/674
f 674/674/674 673/673/673 675/675/675
f 674/674/674 675/675/675 676/676/676
f 676/676/676 675/675/675 677/677/677
f 676/676/676 677/677/677 678/678/678
f 678/678/678 677/677/677 679/679/679
f 678/678/678 679/679/679 680/680/680
f 680/680/680 679/679/679 681/681/681
f 680/680/680 681/681/681 682/682/682
f 683/683/683 682/682/682 681/681/681
f 683/683/683 684/684/684 682/682/682
f 685/685/685 684/684/684 683/683/683
f 685/685/685 683/683/683 686/686/686
f 685/685/685 686/686/686 687/687/687
f 685/685/685 687/687/687 688/688/688
f 688/688/688 687/687/687 689/689/689
f 688/688/688 689/689/689 690/690/690
