# Converted from HGS (Mercury 3D Engine)
# Model: Zylinder_Low
o Zylinder_Low

# Submesh 0: 429 vertices
v 0.421472 0.751063 -0.169019
vn 0.000000 -1.000000 -0.000000
vt 0.789287 0.502858
v 0.035693 0.751063 -0.554798
vn -0.122229 -0.417079 0.900614
vt 0.962524 0.502858
v 0.232084 0.751063 -0.500830
vn -0.457627 -0.423375 0.781877
vt 0.905603 0.502858
v 0.367504 0.751063 -0.365410
vn 0.000000 -1.000000 -0.000000
vt 0.851051 0.502858
v 0.421472 0.751063 0.169020
vn 0.000000 -1.000000 -0.000000
vt 0.671846 0.502858
v 0.367504 0.751063 0.365411
vn 0.000000 -1.000000 -0.000000
vt 0.610082 0.502858
v 0.232084 0.751063 0.500830
vn 0.000000 -1.000000 -0.000000
vt 0.555530 0.502858
v 0.035693 0.751063 0.554798
vn 0.000000 -1.000000 -0.000000
vt 0.498610 0.502858
v -0.035693 0.751063 0.554798
vn 0.000000 -1.000000 -0.000000
vt 0.478826 0.502858
v -0.232085 0.751063 0.500830
vn 0.000000 -1.000000 -0.000000
vt 0.421906 0.502858
v -0.367504 0.751063 0.365411
vn 0.000000 -1.000000 -0.000000
vt 0.367354 0.502858
v -0.421472 0.751063 0.169020
vn 0.903999 -0.410106 -0.120828
vt 0.305590 0.502858
v -0.421472 0.751063 -0.169019
vn 0.903999 -0.410107 0.120828
vt 0.188149 0.502858
v -0.367504 0.751063 -0.365410
vn 0.785976 -0.419890 0.453800
vt 0.126385 0.502858
v -0.232085 0.751063 -0.500830
vn 0.457628 -0.423374 0.781877
vt 0.071833 0.502858
v -0.035693 0.751063 -0.554798
vn 0.122229 -0.417079 0.900614
vt 0.982307 0.502858
v -0.034726 0.505076 -0.543624
vn 0.134341 0.046165 0.989859
vt 0.982235 0.357748
v 0.034725 0.505076 -0.543624
vn -0.134341 0.046165 0.989859
vt 0.962596 0.357748
v 0.232084 0.751063 -0.500830
vn -0.457627 -0.423375 0.781877
vt 0.905603 0.502858
v 0.225593 0.510105 -0.490743
vn -0.504486 0.050592 0.861936
vt 0.906089 0.360714
v 0.367504 0.751063 -0.365410
vn -0.864702 0.055096 0.499255
vt 0.851051 0.502858
v 0.356737 0.517847 -0.358051
vn -0.864702 0.055096 0.499255
vt 0.851803 0.365281
v -0.408831 0.521895 0.165615
vn 0.989660 0.055466 -0.132278
vt 0.306154 0.367670
v -0.421472 0.751063 -0.169019
vn 0.903999 -0.410107 0.120828
vt 0.188149 0.502858
v -0.421472 0.751063 0.169020
vn 0.903999 -0.410106 -0.120828
vt 0.305590 0.502858
v -0.408831 0.521895 -0.165615
vn 0.989660 0.055465 0.132277
vt 0.187585 0.367670
v -0.367504 0.751063 -0.365410
vn 0.785976 -0.419890 0.453800
vt 0.126385 0.502858
v -0.356737 0.517847 -0.358051
vn 0.864702 0.055097 0.499255
vt 0.125634 0.365281
v -0.225593 0.510105 -0.490743
vn 0.504486 0.050593 0.861937
vt 0.071347 0.360714
v -0.035693 0.751063 -0.554798
vn 0.122229 -0.417079 0.900614
vt 0.014913 0.502858
v -0.034726 0.505076 -0.543624
vn 0.134341 0.046165 0.989859
vt 0.014840 0.357748
v 0.421472 0.751063 -0.169019
vn -0.989660 0.055464 0.132278
vt 0.789287 0.502858
v 0.408831 0.521895 -0.165615
vn -0.989660 0.055464 0.132278
vt 0.789851 0.367670
v 0.421472 0.751063 0.169020
vn -0.989660 0.055464 -0.132277
vt 0.671846 0.502858
v 0.408831 0.521895 0.165615
vn -0.989660 0.055464 -0.132277
vt 0.671282 0.367670
v 0.367504 0.751063 0.365411
vn -0.864702 0.055097 -0.499255
vt 0.610082 0.502858
v 0.356737 0.517846 0.358051
vn -0.864702 0.055097 -0.499255
vt 0.609331 0.365281
v 0.232084 0.751063 0.500830
vn -0.504486 0.050593 -0.861937
vt 0.555530 0.502858
v 0.225593 0.510105 0.490743
vn -0.504486 0.050593 -0.861937
vt 0.555044 0.360714
v 0.035693 0.751063 0.554798
vn -0.134341 0.046166 -0.989859
vt 0.498610 0.502858
v 0.034725 0.505076 0.543624
vn -0.134341 0.046166 -0.989859
vt 0.498537 0.357748
v -0.035693 0.751063 0.554798
vn 0.134341 0.046166 -0.989859
vt 0.478826 0.502858
v -0.034726 0.505076 0.543624
vn 0.134341 0.046166 -0.989859
vt 0.478899 0.357748
v -0.225593 0.510105 0.490743
vn 0.504486 0.050594 -0.861936
vt 0.422392 0.360714
v -0.232085 0.751063 0.500830
vn 0.504486 0.050594 -0.861936
vt 0.421906 0.502858
v -0.367504 0.751063 0.365411
vn 0.864702 0.055098 -0.499255
vt 0.367354 0.502858
v -0.356737 0.517846 0.358051
vn 0.864702 0.055098 -0.499255
vt 0.368105 0.365281
v 0.041625 0.827589 -0.598298
vn -0.000000 1.000000 0.000001
vt 0.813253 0.983789
v 0.255202 0.827589 -0.388528
vn -0.000000 1.000000 0.000000
vt 0.897751 0.913241
v 0.255202 0.827589 -0.540452
vn -0.000000 1.000000 0.000000
vt 0.897751 0.964335
v 0.407126 0.827589 -0.388528
vn -0.000000 1.000000 0.000000
vt 0.957856 0.913241
v 0.464972 0.827589 -0.174951
vn -0.000000 1.000000 0.000000
vt 0.980742 0.841413
v 0.255202 0.827589 -0.174951
vn -0.000000 1.000000 0.000000
vt 0.897751 0.841413
v 0.464972 0.827589 0.174952
vn -0.000000 1.000000 0.000001
vt 0.980742 0.723736
v 0.255202 0.827589 0.174952
vn -0.000000 1.000000 0.000001
vt 0.897751 0.723736
v 0.407126 0.827589 0.388529
vn -0.000000 1.000000 0.000000
vt 0.957856 0.651908
v 0.255202 0.827589 0.388529
vn -0.000000 1.000000 0.000000
vt 0.897751 0.651908
v 0.255202 0.827589 0.540453
vn -0.000000 1.000000 0.000000
vt 0.897751 0.600814
v 0.041625 0.827589 0.388529
vn -0.000000 1.000000 0.000000
vt 0.813253 0.651908
v 0.041625 0.827589 0.598299
vn -0.000000 1.000000 0.000000
vt 0.813253 0.581360
v -0.041626 0.827589 0.388529
vn -0.000000 1.000000 0.000000
vt 0.780317 0.651908
v -0.041626 0.827589 0.598299
vn -0.000000 1.000000 0.000000
vt 0.780317 0.581360
v -0.255203 0.827589 0.388529
vn -0.000000 1.000000 0.000001
vt 0.695819 0.651908
v -0.255203 0.827589 0.540453
vn -0.000000 1.000000 0.000001
vt 0.695819 0.600814
v -0.407127 0.827589 0.388529
vn -0.000000 1.000000 0.000001
vt 0.635714 0.651908
v -0.255203 0.827589 0.174952
vn -0.000000 1.000000 0.000000
vt 0.695819 0.723736
v -0.464973 0.827589 0.174952
vn -0.000000 1.000000 0.000000
vt 0.612829 0.723736
v -0.255203 0.827589 -0.174951
vn -0.000000 1.000000 0.000000
vt 0.695819 0.841413
v -0.464973 0.827589 -0.174951
vn -0.000000 1.000000 0.000000
vt 0.612829 0.841413
v -0.255203 0.827589 -0.388528
vn -0.000000 1.000000 0.000001
vt 0.695819 0.913241
v -0.407127 0.827589 -0.388528
vn -0.000000 1.000000 0.000001
vt 0.635714 0.913241
v -0.255203 0.827589 -0.540452
vn -0.000000 1.000000 0.000001
vt 0.695819 0.964335
v -0.041626 0.827589 -0.388528
vn -0.000000 1.000000 0.000000
vt 0.780317 0.913241
v -0.041626 0.827589 -0.598298
vn -0.000000 1.000000 0.000001
vt 0.780317 0.983789
v 0.041625 0.827589 -0.388528
vn -0.000000 1.000000 0.000001
vt 0.813253 0.913241
v 0.041625 0.827589 -0.174951
vn -0.000000 1.000000 0.000000
vt 0.813253 0.841413
v 0.041625 0.827589 0.174952
vn -0.000000 1.000000 0.000000
vt 0.813253 0.723736
v -0.041626 0.827589 0.174952
vn -0.000000 1.000000 0.000001
vt 0.780317 0.723736
v -0.041626 0.827589 -0.174951
vn -0.000000 1.000000 0.000000
vt 0.780317 0.841413
v -0.364223 0.234585 0.368966
vn -0.874392 -0.077497 0.478991
vt 0.368790 0.198182
v -0.229324 0.211422 0.513240
vn -0.518868 -0.061472 0.852641
vt 0.424021 0.184518
v -0.242263 0.519505 0.526846
vn -0.512501 -0.061338 0.856493
vt 0.422358 0.366260
v -0.385675 0.531087 0.378748
vn -0.870472 -0.077495 0.486079
vt 0.366398 0.373092
v -0.415050 0.246159 0.166142
vn -0.988822 -0.084548 0.122813
vt 0.305493 0.205010
v -0.440011 0.536874 0.170547
vn -0.988453 -0.084590 0.125718
vt 0.303801 0.376506
v -0.415050 0.246159 -0.166142
vn -0.988822 -0.084548 -0.122813
vt 0.188245 0.205010
v -0.440011 0.536874 -0.170547
vn -0.988453 -0.084590 -0.125718
vt 0.189938 0.376506
v -0.364224 0.234585 -0.368966
vn -0.874392 -0.077496 -0.478991
vt 0.124949 0.198182
v -0.385675 0.531087 -0.378747
vn -0.870472 -0.077494 -0.486079
vt 0.127340 0.373092
v -0.229324 0.211422 -0.513240
vn -0.518868 -0.061471 -0.852641
vt 0.069718 0.184518
v -0.242263 0.519505 -0.526846
vn -0.512501 -0.061337 -0.856493
vt 0.071381 0.366260
v -0.037509 0.196775 -0.568173
vn -0.138249 -0.049702 -0.989149
vt 0.015170 0.175878
v -0.039567 0.512182 -0.583236
vn -0.136008 -0.049662 -0.989462
vt 0.015450 0.361940
v -0.039567 0.512182 0.583236
vn -0.136008 -0.049664 0.989462
vt 0.478289 0.361940
v 0.039567 0.512182 0.583236
vn 0.136008 -0.049663 0.989462
vt 0.499147 0.361940
v 0.041625 0.827589 0.598299
vn 0.133768 -0.049623 0.989770
vt 0.499412 0.548002
v -0.041626 0.827589 0.598299
vn -0.133768 -0.049623 0.989770
vt 0.478023 0.548002
v -0.255203 0.827589 0.540453
vn -0.506116 -0.061201 0.860291
vt 0.420794 0.548002
v -0.407127 0.827589 0.388529
vn -0.866490 -0.077487 0.493143
vt 0.364196 0.548002
v -0.464973 0.827589 0.174952
vn -0.988076 -0.084632 0.128624
vt 0.302278 0.548002
v -0.464973 0.827589 -0.174951
vn -0.988076 -0.084632 -0.128624
vt 0.191461 0.548002
v -0.407127 0.827589 -0.388528
vn -0.866490 -0.077486 -0.493143
vt 0.129543 0.548002
v -0.255203 0.827589 -0.540452
vn -0.506116 -0.061200 -0.860291
vt 0.072945 0.548002
v -0.041626 0.827589 -0.598298
vn -0.133768 -0.049622 -0.989770
vt 0.015716 0.548002
v 0.229324 0.211422 -0.513240
vn 0.518868 -0.061470 -0.852641
vt 0.907719 0.184518
v 0.037509 0.196775 -0.568173
vn 0.138249 -0.049702 -0.989149
vt 0.962266 0.175878
v 0.039567 0.512182 -0.583236
vn 0.136008 -0.049662 -0.989462
vt 0.961986 0.361940
v 0.242263 0.519505 -0.526846
vn 0.512501 -0.061336 -0.856493
vt 0.906056 0.366260
v 0.364223 0.234585 -0.368966
vn 0.874392 -0.077495 -0.478991
vt 0.852487 0.198182
v 0.385674 0.531087 -0.378747
vn 0.870472 -0.077493 -0.486079
vt 0.850096 0.373092
v 0.415049 0.246159 -0.166142
vn 0.988822 -0.084546 -0.122813
vt 0.789191 0.205010
v 0.440011 0.536874 -0.170547
vn 0.988453 -0.084589 -0.125718
vt 0.787498 0.376506
v 0.415049 0.246159 0.166142
vn 0.988822 -0.084546 0.122813
vt 0.671943 0.205010
v 0.440011 0.536874 0.170547
vn 0.988453 -0.084589 0.125718
vt 0.673635 0.376506
v 0.364223 0.234585 0.368966
vn 0.874392 -0.077496 0.478991
vt 0.608646 0.198182
v 0.385675 0.531087 0.378748
vn 0.870472 -0.077494 0.486079
vt 0.611037 0.373092
v 0.229324 0.211422 0.513240
vn 0.518868 -0.061471 0.852641
vt 0.553415 0.184518
v 0.242263 0.519505 0.526846
vn 0.512501 -0.061337 0.856493
vt 0.555078 0.366260
v 0.037509 0.196775 0.568173
vn 0.138249 -0.049703 0.989149
vt 0.498868 0.175878
v -0.037509 0.196775 0.568173
vn -0.138249 -0.049703 0.989149
vt 0.478569 0.175878
v -0.037509 0.196775 -0.568173
vn -0.138249 -0.049702 -0.989149
vt 0.982565 0.175878
v -0.039567 0.512182 -0.583236
vn -0.136008 -0.049662 -0.989462
vt 0.982844 0.361940
v -0.041626 0.827589 -0.598298
vn -0.133768 -0.049622 -0.989770
vt 0.983110 0.548002
v 0.041625 0.827589 -0.598298
vn 0.133768 -0.049622 -0.989770
vt 0.961721 0.548002
v 0.255202 0.827589 -0.540452
vn 0.506116 -0.061200 -0.860291
vt 0.904491 0.548002
v 0.407126 0.827589 -0.388528
vn 0.866491 -0.077485 -0.493143
vt 0.847893 0.548002
v 0.464972 0.827589 -0.174951
vn 0.988076 -0.084630 -0.128624
vt 0.785975 0.548002
v 0.464972 0.827589 0.174952
vn 0.988076 -0.084631 0.128624
vt 0.675158 0.548002
v 0.407126 0.827589 0.388529
vn 0.866490 -0.077486 0.493143
vt 0.613240 0.548002
v 0.255202 0.827589 0.540453
vn 0.506116 -0.061201 0.860291
vt 0.556642 0.548002
v -0.043816 0.088799 0.596022
vn -0.137318 -0.051836 0.989170
vt 0.477420 0.112181
v -0.042410 0.163313 0.600706
vn -0.137318 -0.051836 0.989170
vt 0.477866 0.156138
v -0.249470 0.180294 0.541640
vn -0.508422 0.015137 0.860975
vt 0.422263 0.166155
v -0.257742 0.106342 0.537416
vn -0.508422 0.015137 0.860975
vt 0.419866 0.122530
v -0.398012 0.207658 0.385414
vn -0.857959 0.126915 0.497794
vt 0.365318 0.182297
v -0.411208 0.134613 0.382409
vn -0.857959 0.126915 0.497794
vt 0.362209 0.139208
v -0.453490 0.221257 0.170470
vn -0.972659 0.191188 0.131837
vt 0.302230 0.190319
v -0.468526 0.148663 0.169141
vn -0.972659 0.191188 0.131837
vt 0.300210 0.147496
v -0.453490 0.221257 -0.170470
vn -0.972659 0.191188 -0.131837
vt 0.191509 0.190319
v -0.468526 0.148663 -0.169141
vn -0.972659 0.191188 -0.131837
vt 0.193528 0.147496
v -0.398012 0.207658 -0.385414
vn -0.857959 0.126916 -0.497794
vt 0.128421 0.182297
v -0.411209 0.134614 -0.382409
vn -0.857959 0.126916 -0.497794
vt 0.131530 0.139208
v -0.249470 0.180294 -0.541640
vn -0.508422 0.015138 -0.860975
vt 0.071476 0.166155
v -0.257742 0.106342 -0.537416
vn -0.508422 0.015138 -0.860975
vt 0.073873 0.122530
v -0.042410 0.163314 -0.600706
vn -0.137318 -0.051836 -0.989170
vt 0.015873 0.156138
v -0.043816 0.088799 -0.596022
vn -0.137318 -0.051836 -0.989170
vt 0.016319 0.112181
v -0.043816 0.088799 -0.596022
vn -0.137318 -0.051836 -0.989170
vt 0.983714 0.112181
v -0.042410 0.163314 -0.600706
vn -0.137318 -0.051836 -0.989170
vt 0.983267 0.156138
v 0.042410 0.163314 -0.600706
vn 0.137318 -0.051835 -0.989170
vt 0.961563 0.156138
v 0.043816 0.088799 -0.596022
vn 0.137318 -0.051835 -0.989170
vt 0.961117 0.112181
v 0.249470 0.180294 -0.541640
vn 0.508422 0.015138 -0.860975
vt 0.905961 0.166155
v 0.257742 0.106343 -0.537416
vn 0.508422 0.015138 -0.860975
vt 0.903563 0.122530
v 0.398012 0.207658 -0.385414
vn 0.857959 0.126917 -0.497794
vt 0.849015 0.182297
v 0.411208 0.134614 -0.382409
vn 0.857959 0.126917 -0.497794
vt 0.845906 0.139208
v 0.453490 0.221257 -0.170470
vn 0.972659 0.191189 -0.131837
vt 0.785927 0.190319
v 0.468526 0.148663 -0.169141
vn 0.972659 0.191189 -0.131837
vt 0.783908 0.147496
v 0.453490 0.221257 0.170470
vn 0.972659 0.191189 0.131837
vt 0.675206 0.190319
v 0.468526 0.148663 0.169141
vn 0.972659 0.191189 0.131837
vt 0.677226 0.147496
v 0.398012 0.207658 0.385414
vn 0.857959 0.126916 0.497794
vt 0.612118 0.182297
v 0.411208 0.134614 0.382409
vn 0.857959 0.126916 0.497794
vt 0.615227 0.139208
v 0.249470 0.180294 0.541640
vn 0.508422 0.015138 0.860975
vt 0.555173 0.166155
v 0.257742 0.106342 0.537416
vn 0.508422 0.015138 0.860975
vt 0.557570 0.122530
v 0.042410 0.163313 0.600706
vn 0.137318 -0.051836 0.989170
vt 0.499570 0.156138
v 0.043816 0.088799 0.596022
vn 0.137318 -0.051836 0.989170
vt 0.500016 0.112181
v -0.225336 0.020765 -0.463746
vn 0.502432 0.037184 0.863817
vt 0.074661 0.072047
v -0.034735 0.007641 -0.513718
vn 0.134307 0.092920 0.986574
vt 0.015415 0.064305
v -0.033274 0.136095 -0.526863
vn 0.135409 0.069575 0.988344
vt 0.014731 0.140082
v -0.215856 0.148668 -0.475613
vn 0.506612 0.043910 0.861055
vt 0.070618 0.147498
v -0.355544 0.040969 -0.338354
vn 0.860499 -0.061178 0.505765
vt 0.129759 0.083966
v -0.340587 0.168022 -0.347012
vn 0.866163 -0.003028 0.499752
vt 0.124506 0.158916
v -0.406992 0.051536 -0.156504
vn 0.983282 -0.121991 0.135182
vt 0.190347 0.090199
v -0.389869 0.178144 -0.160509
vn 0.990595 -0.033383 0.132689
vt 0.186738 0.164887
v -0.406992 0.051536 0.156504
vn 0.983282 -0.121991 -0.135182
vt 0.303391 0.090199
v -0.389869 0.178144 0.160509
vn 0.990595 -0.033382 -0.132689
vt 0.307001 0.164887
v -0.355544 0.040969 0.338354
vn 0.860500 -0.061177 -0.505764
vt 0.363980 0.083966
v -0.340587 0.168022 0.347012
vn 0.866164 -0.003028 -0.499752
vt 0.369232 0.158916
v -0.225336 0.020765 0.463746
vn 0.502432 0.037186 -0.863816
vt 0.419078 0.072047
v -0.215856 0.148668 0.475613
vn 0.506612 0.043911 -0.861055
vt 0.423121 0.147498
v -0.033274 0.136095 0.526863
vn 0.135409 0.069576 -0.988344
vt 0.479007 0.140082
v 0.034725 0.505076 0.543624
vn -0.136437 0.046186 -0.989572
vt 0.498537 0.357748
v 0.033274 0.136095 0.526863
vn -0.135409 0.069576 -0.988344
vt 0.498429 0.140082
v -0.034726 0.505076 0.543624
vn 0.136437 0.046186 -0.989572
vt 0.478899 0.357748
v -0.225593 0.510105 0.490743
vn 0.510759 0.050638 -0.858231
vt 0.422392 0.360714
v -0.356737 0.517846 0.358051
vn 0.868837 0.055034 -0.492029
vt 0.368105 0.365281
v -0.408831 0.521895 0.165615
vn 0.990076 0.055413 -0.129150
vt 0.306154 0.367670
v -0.408831 0.521895 -0.165615
vn 0.990076 0.055413 0.129150
vt 0.187585 0.367670
v -0.356737 0.517847 -0.358051
vn 0.868837 0.055033 0.492030
vt 0.125634 0.365281
v -0.225593 0.510105 -0.490743
vn 0.510759 0.050637 0.858231
vt 0.071347 0.360714
v -0.034726 0.505076 -0.543624
vn 0.136437 0.046185 0.989572
vt 0.014840 0.357748
v -0.034735 0.007641 0.513718
vn 0.134307 0.092922 -0.986573
vt 0.478323 0.064305
v 0.034735 0.007641 0.513718
vn -0.134307 0.092922 -0.986573
vt 0.499113 0.064305
v 0.225336 0.020765 0.463746
vn -0.502432 0.037185 -0.863817
vt 0.558358 0.072047
v 0.215856 0.148668 0.475613
vn -0.506612 0.043910 -0.861055
vt 0.554315 0.147498
v 0.355544 0.040969 0.338354
vn -0.860499 -0.061178 -0.505765
vt 0.613456 0.083966
v 0.340586 0.168022 0.347012
vn -0.866163 -0.003029 -0.499752
vt 0.608204 0.158916
v 0.406992 0.051536 0.156504
vn -0.983282 -0.121992 -0.135182
vt 0.674045 0.090199
v 0.389869 0.178144 0.160509
vn -0.990595 -0.033383 -0.132689
vt 0.670435 0.164887
v 0.406992 0.051536 -0.156504
vn -0.983282 -0.121992 0.135182
vt 0.787088 0.090199
v 0.389869 0.178144 -0.160509
vn -0.990595 -0.033383 0.132689
vt 0.790698 0.164887
v 0.355544 0.040969 -0.338354
vn -0.860500 -0.061178 0.505765
vt 0.847678 0.083966
v 0.340586 0.168022 -0.347012
vn -0.866163 -0.003029 0.499752
vt 0.852930 0.158916
v 0.225336 0.020765 -0.463746
vn -0.502432 0.037184 0.863817
vt 0.902775 0.072047
v 0.215856 0.148668 -0.475613
vn -0.506612 0.043909 0.861055
vt 0.906818 0.147498
v 0.034735 0.007641 -0.513718
vn -0.134307 0.092920 0.986574
vt 0.962021 0.064305
v 0.033274 0.136095 -0.526863
vn -0.135409 0.069574 0.988344
vt 0.962705 0.140082
v -0.034735 0.007641 -0.513718
vn 0.134307 0.092920 0.986574
vt 0.982810 0.064305
v -0.033274 0.136095 -0.526863
vn 0.135409 0.069575 0.988344
vt 0.982126 0.140082
v -0.034726 0.505076 -0.543624
vn 0.136437 0.046185 0.989572
vt 0.982235 0.357748
v 0.034725 0.505076 -0.543624
vn -0.136437 0.046185 0.989572
vt 0.962596 0.357748
v 0.225593 0.510105 -0.490743
vn -0.510759 0.050636 0.858231
vt 0.906089 0.360714
v 0.356737 0.517847 -0.358051
vn -0.868837 0.055032 0.492030
vt 0.851803 0.365281
v 0.408831 0.521895 -0.165615
vn -0.990076 0.055412 0.129150
vt 0.789851 0.367670
v 0.408831 0.521895 0.165615
vn -0.990076 0.055412 -0.129150
vt 0.671282 0.367670
v 0.356737 0.517846 0.358051
vn -0.868837 0.055033 -0.492030
vt 0.609331 0.365281
v 0.225593 0.510105 0.490743
vn -0.510759 0.050637 -0.858231
vt 0.555044 0.360714
v 0.421768 0.054847 0.375797
vn 0.214879 -0.976637 0.002486
vt 0.226779 0.727984
v 0.568628 0.094632 0.177981
vn 0.300788 -0.953691 -0.000319
vt 0.254300 0.760316
v 0.499318 0.074277 0.420040
vn 0.260531 -0.965462 0.002577
vt 0.241312 0.720753
v 0.264361 0.025849 0.528125
vn 0.137410 -0.990481 0.008130
vt 0.197280 0.703087
v 0.310323 0.032900 0.604195
vn 0.167123 -0.985892 0.009294
vt 0.205894 0.690654
v 0.044942 0.007855 0.585717
vn 0.042923 -0.999052 0.007255
vt 0.156161 0.693674
v 0.057302 0.008189 0.672928
vn 0.052542 -0.998581 0.008678
vt 0.158477 0.679420
v -0.044942 0.007855 0.585717
vn -0.042923 -0.999052 0.007255
vt 0.139317 0.693674
v -0.057302 0.008189 0.672928
vn -0.052542 -0.998581 0.008678
vt 0.137000 0.679420
v -0.264361 0.025849 0.528125
vn -0.137410 -0.990481 0.008130
vt 0.098197 0.703087
v -0.310323 0.032900 0.604195
vn -0.167123 -0.985892 0.009294
vt 0.089584 0.690654
v -0.421768 0.054847 0.375797
vn -0.214879 -0.976637 0.002486
vt 0.068699 0.727984
v -0.499318 0.074277 0.420040
vn -0.260531 -0.965462 0.002577
vt 0.054166 0.720753
v -0.480558 0.069257 0.166217
vn -0.248262 -0.968693 -0.000087
vt 0.057681 0.762239
v -0.406992 0.051536 -0.156504
vn -0.227361 -0.973811 0.000067
vt 0.071468 0.814986
v -0.406992 0.051536 0.156504
vn -0.227361 -0.973811 -0.000067
vt 0.071468 0.763827
v -0.355544 0.040969 0.338354
vn -0.196799 -0.980441 0.002250
vt 0.081109 0.734104
v -0.225336 0.020765 0.463746
vn -0.125820 -0.992024 0.007541
vt 0.105510 0.713610
v -0.034735 0.007641 0.513718
vn -0.039228 -0.999208 0.006712
vt 0.141229 0.705442
v 0.034735 0.007641 0.513718
vn 0.039228 -0.999208 0.006712
vt 0.154248 0.705442
v 0.225336 0.020765 0.463746
vn 0.125821 -0.992024 0.007541
vt 0.189967 0.713610
v 0.355544 0.040969 0.338354
vn 0.196799 -0.980441 0.002250
vt 0.214368 0.734104
v 0.480558 0.069257 0.166217
vn 0.248262 -0.968693 -0.000087
vt 0.237796 0.762239
v 0.406992 0.051536 0.156504
vn 0.227361 -0.973811 -0.000067
vt 0.224010 0.763827
v 0.480558 0.069257 -0.166217
vn 0.248262 -0.968693 0.000087
vt 0.237796 0.816574
v 0.406992 0.051536 -0.156504
vn 0.227361 -0.973811 0.000067
vt 0.224010 0.814986
v 0.421768 0.054847 -0.375797
vn 0.214879 -0.976637 -0.002486
vt 0.226779 0.850829
v 0.355544 0.040969 -0.338354
vn 0.196799 -0.980441 -0.002250
vt 0.214368 0.844709
v 0.264361 0.025849 -0.528125
vn 0.137410 -0.990481 -0.008130
vt 0.197280 0.875726
v 0.225336 0.020765 -0.463746
vn 0.125821 -0.992024 -0.007541
vt 0.189967 0.865203
v 0.044942 0.007855 -0.585717
vn 0.042923 -0.999052 -0.007255
vt 0.156161 0.885139
v 0.034735 0.007641 -0.513718
vn 0.039228 -0.999208 -0.006712
vt 0.154248 0.873371
v -0.044942 0.007855 -0.585717
vn -0.042923 -0.999052 -0.007255
vt 0.139317 0.885139
v -0.034735 0.007641 -0.513718
vn -0.039228 -0.999208 -0.006712
vt 0.141229 0.873371
v -0.264361 0.025849 -0.528125
vn -0.137410 -0.990481 -0.008130
vt 0.098197 0.875726
v -0.225336 0.020765 -0.463746
vn -0.125820 -0.992024 -0.007541
vt 0.105510 0.865203
v -0.421769 0.054847 -0.375797
vn -0.214879 -0.976637 -0.002486
vt 0.068699 0.850829
v -0.355544 0.040969 -0.338354
vn -0.196799 -0.980441 -0.002250
vt 0.081109 0.844709
v -0.480558 0.069257 -0.166217
vn -0.248262 -0.968693 0.000087
vt 0.057681 0.816574
v -0.568628 0.094632 0.177981
vn -0.300788 -0.953691 -0.000319
vt 0.041177 0.760316
v -0.637607 0.117791 0.501068
vn -0.539453 -0.825591 0.165499
vt 0.028250 0.707509
v -0.393997 0.048726 0.742160
vn -0.337483 -0.898624 0.280322
vt 0.073903 0.668104
v -0.568628 0.094632 -0.177981
vn -0.300788 -0.953691 0.000319
vt 0.041177 0.818497
v -0.499318 0.074277 -0.420040
vn -0.260531 -0.965462 -0.002577
vt 0.054166 0.858060
v -0.310323 0.032900 -0.604195
vn -0.167123 -0.985892 -0.009294
vt 0.089584 0.888159
v -0.057302 0.008189 -0.672928
vn -0.052542 -0.998581 -0.008678
vt 0.137000 0.899393
v 0.057302 0.008189 -0.672928
vn 0.052542 -0.998581 -0.008678
vt 0.158477 0.899393
v 0.310323 0.032900 -0.604195
vn 0.167123 -0.985892 -0.009294
vt 0.205894 0.888159
v 0.499318 0.074277 -0.420040
vn 0.260531 -0.965462 -0.002577
vt 0.241312 0.858060
v 0.568628 0.094632 -0.177981
vn 0.300788 -0.953691 0.000319
vt 0.254300 0.818497
v 0.080476 0.009032 -0.831399
vn 0.102127 -0.941057 -0.322462
vt 0.162820 0.925295
v -0.080476 0.009032 -0.831399
vn -0.102127 -0.941057 -0.322463
vt 0.132657 0.925295
v -0.393997 0.048726 -0.742160
vn -0.337483 -0.898624 -0.280322
vt 0.073903 0.910709
v -0.637607 0.117791 -0.501068
vn -0.539453 -0.825591 -0.165499
vt 0.028250 0.871304
v -0.725118 0.151516 -0.200044
vn -0.622418 -0.781304 -0.046472
vt 0.011851 0.822103
v -0.725118 0.151516 0.200044
vn -0.622418 -0.781304 0.046472
vt 0.011851 0.756710
v -0.080476 0.009032 0.831399
vn -0.102127 -0.941057 0.322463
vt 0.132657 0.653518
v 0.080476 0.009032 0.831399
vn 0.102127 -0.941057 0.322463
vt 0.162820 0.653518
v 0.393997 0.048726 0.742160
vn 0.337483 -0.898624 0.280322
vt 0.221574 0.668104
v 0.637607 0.117791 0.501068
vn 0.539453 -0.825591 0.165499
vt 0.267227 0.707509
v 0.725118 0.151516 0.200044
vn 0.622419 -0.781304 0.046472
vt 0.283627 0.756710
v 0.725118 0.151516 -0.200044
vn 0.622419 -0.781304 -0.046472
vt 0.283627 0.822103
v 0.637607 0.117791 -0.501068
vn 0.539453 -0.825591 -0.165499
vt 0.267227 0.871304
v 0.393997 0.048726 -0.742160
vn 0.337483 -0.898624 -0.280321
vt 0.221574 0.910709
v 0.080476 0.009032 -0.831399
vn 0.102127 -0.941057 -0.322462
vt 0.926327 0.013755
v -0.080476 0.009032 -0.831399
vn -0.102127 -0.941057 -0.322463
vt 0.954447 0.013755
v -0.084221 0.033219 -0.863067
vn -0.153702 -0.428490 -0.890377
vt 0.954561 0.021579
v 0.084221 0.033219 -0.863068
vn 0.153702 -0.428490 -0.890377
vt 0.926213 0.021579
v -0.082808 0.064588 -0.863067
vn -0.095730 0.464304 -0.880487
vt 0.954325 0.031726
v 0.082808 0.064588 -0.863068
vn 0.095730 0.464304 -0.880487
vt 0.926449 0.031726
v 0.405602 0.075808 -0.769659
vn 0.529188 -0.336636 -0.778869
vt 0.869716 0.021579
v 0.398796 0.106462 -0.769659
vn 0.339559 0.550749 -0.762480
vt 0.870728 0.031726
v 0.656332 0.150197 -0.517432
vn 0.864829 -0.180683 -0.468428
vt 0.808783 0.021579
v 0.645319 0.179603 -0.517432
vn 0.565854 0.683815 -0.460658
vt 0.809984 0.031726
v 0.746187 0.186529 -0.204639
vn 0.987460 -0.084749 -0.133191
vt 0.750507 0.021579
v 0.733666 0.215326 -0.204639
vn 0.642759 0.754685 -0.131577
vt 0.751140 0.031726
v 0.746187 0.186529 0.204639
vn 0.987460 -0.084748 0.133191
vt 0.672503 0.021579
v 0.733666 0.215326 0.204639
vn 0.642759 0.754685 0.131577
vt 0.671870 0.031726
v 0.656332 0.150197 0.517433
vn 0.864829 -0.180683 0.468428
vt 0.614227 0.021579
v 0.645319 0.179603 0.517433
vn 0.565854 0.683816 0.460658
vt 0.613026 0.031726
v 0.405602 0.075808 0.769659
vn 0.529187 -0.336636 0.778869
vt 0.553293 0.021579
v 0.398796 0.106462 0.769659
vn 0.339558 0.550749 0.762480
vt 0.552281 0.031726
v 0.084221 0.033219 0.863067
vn 0.153702 -0.428490 0.890377
vt 0.496797 0.021579
v 0.082808 0.064588 0.863067
vn 0.095730 0.464304 0.880487
vt 0.496560 0.031726
v 0.694740 0.224876 0.200044
vn -0.048913 0.997757 0.045701
vt 0.670654 0.039416
v 0.610896 0.192564 0.501068
vn -0.038620 0.986718 0.157786
vt 0.611409 0.039416
v 0.694740 0.224876 -0.200044
vn -0.048913 0.997757 -0.045701
vt 0.752356 0.039416
v 0.610895 0.192564 -0.501068
vn -0.038620 0.986718 -0.157786
vt 0.811601 0.039416
v 0.377491 0.126393 -0.742160
vn -0.030601 0.964603 -0.261924
vt 0.871825 0.039416
v 0.077104 0.088361 -0.831399
vn -0.013187 0.950850 -0.309372
vt 0.926912 0.039416
v -0.077105 0.088361 -0.831399
vn 0.013186 0.950850 -0.309372
vt 0.953862 0.039416
v 0.393997 0.048726 -0.742160
vn 0.337483 -0.898624 -0.280321
vt 0.869274 0.013755
v 0.637607 0.117791 -0.501068
vn 0.539453 -0.825591 -0.165499
vt 0.808557 0.013755
v 0.725118 0.151516 -0.200044
vn 0.622419 -0.781304 -0.046472
vt 0.750728 0.013755
v 0.725118 0.151516 0.200044
vn 0.622419 -0.781304 0.046472
vt 0.672282 0.013755
v 0.637607 0.117791 0.501068
vn 0.539453 -0.825591 0.165499
vt 0.614453 0.013755
v 0.393997 0.048726 0.742160
vn 0.337483 -0.898624 0.280322
vt 0.553736 0.013755
v 0.080476 0.009032 0.831399
vn 0.102127 -0.941057 0.322463
vt 0.496683 0.013755
v -0.080476 0.009032 0.831399
vn -0.102127 -0.941057 0.322463
vt 0.468562 0.013755
v -0.084221 0.033219 0.863068
vn -0.153702 -0.428490 0.890377
vt 0.468449 0.021579
v -0.393997 0.048726 0.742160
vn -0.337483 -0.898624 0.280322
vt 0.411509 0.013755
v -0.405602 0.075808 0.769659
vn -0.529188 -0.336636 0.778869
vt 0.411952 0.021579
v -0.082808 0.064588 0.863068
vn -0.095730 0.464304 0.880487
vt 0.468685 0.031726
v -0.398796 0.106462 0.769659
vn -0.339559 0.550749 0.762480
vt 0.412964 0.031726
v -0.656332 0.150196 0.517432
vn -0.864829 -0.180683 0.468428
vt 0.351018 0.021579
v -0.645319 0.179603 0.517432
vn -0.565854 0.683815 0.460658
vt 0.352220 0.031726
v -0.746187 0.186529 0.204639
vn -0.987460 -0.084749 0.133191
vt 0.292742 0.021579
v -0.733666 0.215326 0.204639
vn -0.642758 0.754685 0.131577
vt 0.293376 0.031726
v -0.746187 0.186529 -0.204639
vn -0.987460 -0.084748 -0.133191
vt 0.214739 0.021579
v -0.733666 0.215326 -0.204639
vn -0.642758 0.754685 -0.131577
vt 0.214105 0.031726
v -0.656333 0.150197 -0.517433
vn -0.864829 -0.180683 -0.468428
vt 0.156463 0.021579
v -0.645319 0.179603 -0.517433
vn -0.565854 0.683816 -0.460658
vt 0.155262 0.031726
v -0.405602 0.075808 -0.769659
vn -0.529187 -0.336636 -0.778869
vt 0.095529 0.021579
v -0.398796 0.106462 -0.769659
vn -0.339558 0.550749 -0.762480
vt 0.094517 0.031726
v -0.084221 0.033219 -0.863067
vn -0.153702 -0.428490 -0.890377
vt 0.039033 0.021579
v -0.082808 0.064588 -0.863067
vn -0.095730 0.464304 -0.880487
vt 0.038796 0.031726
v -0.377491 0.126393 -0.742160
vn 0.030601 0.964603 -0.261924
vt 0.093421 0.039416
v -0.077105 0.088361 -0.831399
vn 0.013186 0.950850 -0.309372
vt 0.038333 0.039416
v -0.637607 0.117791 0.501068
vn -0.539453 -0.825591 0.165499
vt 0.350792 0.013755
v -0.725118 0.151516 0.200044
vn -0.622418 -0.781304 0.046472
vt 0.292963 0.013755
v -0.725118 0.151516 -0.200044
vn -0.622418 -0.781304 -0.046472
vt 0.214518 0.013755
v -0.637607 0.117791 -0.501068
vn -0.539453 -0.825591 -0.165499
vt 0.156689 0.013755
v -0.393997 0.048726 -0.742160
vn -0.337483 -0.898624 -0.280322
vt 0.095972 0.013755
v -0.080476 0.009032 -0.831399
vn -0.102127 -0.941057 -0.322463
vt 0.038919 0.013755
v -0.610896 0.192564 -0.501068
vn 0.038621 0.986718 -0.157786
vt 0.153645 0.039416
v -0.694740 0.224877 -0.200044
vn 0.048913 0.997757 -0.045701
vt 0.212890 0.039416
v -0.694740 0.224877 0.200044
vn 0.048913 0.997757 0.045701
vt 0.294592 0.039416
v -0.610895 0.192564 0.501068
vn 0.038621 0.986718 0.157786
vt 0.353836 0.039416
v -0.377491 0.126393 0.742160
vn 0.030601 0.964603 0.261924
vt 0.414061 0.039416
v -0.077105 0.088361 0.831399
vn 0.013187 0.950850 0.309372
vt 0.469148 0.039416
v 0.077105 0.088361 0.831399
vn -0.013186 0.950850 0.309372
vt 0.496098 0.039416
v 0.377491 0.126393 0.742160
vn -0.030601 0.964603 0.261924
vt 0.551185 0.039416
v 0.257742 0.106343 -0.537416
vn -0.148986 0.988804 0.008354
vt 0.475200 0.878069
v 0.411208 0.134614 -0.382409
vn -0.232889 0.972500 0.002608
vt 0.504302 0.853081
v 0.486816 0.153558 -0.427430
vn -0.260227 0.965545 0.002023
vt 0.518640 0.860339
v 0.302554 0.113216 -0.614824
vn -0.165889 0.986124 0.006265
vt 0.483698 0.890547
v 0.043816 0.088799 -0.596022
vn -0.046620 0.998885 0.007471
vt 0.434633 0.887516
v 0.055867 0.089124 -0.684766
vn -0.051917 0.998645 0.003663
vt 0.436918 0.901821
v -0.043816 0.088799 -0.596022
vn 0.046620 0.998885 0.007471
vt 0.418015 0.887516
v -0.055867 0.089124 -0.684766
vn 0.051917 0.998645 0.003663
vt 0.415730 0.901821
v -0.257742 0.106342 -0.537416
vn 0.148986 0.988804 0.008354
vt 0.377448 0.878069
v -0.302554 0.113216 -0.614824
vn 0.165889 0.986124 0.006265
vt 0.368950 0.890547
v -0.411209 0.134614 -0.382409
vn 0.232889 0.972500 0.002608
vt 0.348346 0.853081
v -0.486817 0.153558 -0.427430
vn 0.260228 0.965545 0.002023
vt 0.334008 0.860339
v -0.468526 0.148663 -0.169141
vn 0.269049 0.963127 -0.000103
vt 0.337477 0.818703
v -0.554391 0.173403 -0.181112
vn 0.301769 0.953381 -0.000188
vt 0.321194 0.820632
v -0.468526 0.148663 0.169141
vn 0.269048 0.963127 0.000103
vt 0.337477 0.764172
v -0.554391 0.173403 0.181112
vn 0.301769 0.953381 0.000188
vt 0.321194 0.762242
v -0.411208 0.134613 0.382409
vn 0.232888 0.972500 -0.002607
vt 0.348346 0.729793
v -0.486817 0.153557 0.427430
vn 0.260228 0.965545 -0.002023
vt 0.334008 0.722536
v -0.257742 0.106342 0.537416
vn 0.148985 0.988804 -0.008353
vt 0.377448 0.704806
v -0.302554 0.113216 0.614824
vn 0.165889 0.986124 -0.006265
vt 0.368950 0.692328
v 0.377491 0.126393 -0.742160
vn -0.030601 0.964603 -0.261924
vt 0.497908 0.911073
v 0.077104 0.088361 -0.831399
vn -0.013187 0.950850 -0.309372
vt 0.440945 0.925458
v -0.077105 0.088361 -0.831399
vn 0.013186 0.950850 -0.309372
vt 0.411702 0.925458
v -0.377491 0.126393 -0.742160
vn 0.030601 0.964603 -0.261924
vt 0.354740 0.911073
v -0.610896 0.192564 -0.501068
vn 0.038621 0.986718 -0.157786
vt 0.310479 0.872209
v -0.694740 0.224877 -0.200044
vn 0.048913 0.997757 -0.045701
vt 0.294579 0.823684
v -0.694740 0.224877 0.200044
vn 0.048913 0.997757 0.045701
vt 0.294579 0.759190
v -0.610895 0.192564 0.501068
vn 0.038621 0.986718 0.157786
vt 0.310479 0.710665
v -0.377491 0.126393 0.742160
vn 0.030601 0.964603 0.261924
vt 0.354740 0.671802
v -0.055867 0.089124 0.684766
vn 0.051917 0.998645 -0.003663
vt 0.415730 0.681053
v -0.077105 0.088361 0.831399
vn 0.013187 0.950850 0.309372
vt 0.411702 0.657416
v -0.043816 0.088799 0.596022
vn 0.046620 0.998885 -0.007471
vt 0.418015 0.695359
v 0.043816 0.088799 0.596022
vn -0.046620 0.998885 -0.007471
vt 0.434633 0.695359
v 0.055867 0.089124 0.684766
vn -0.051917 0.998645 -0.003663
vt 0.436918 0.681053
v 0.257742 0.106342 0.537416
vn -0.148986 0.988804 -0.008353
vt 0.475200 0.704806
v 0.302554 0.113216 0.614824
vn -0.165890 0.986124 -0.006265
vt 0.483698 0.692328
v 0.411208 0.134614 0.382409
vn -0.232889 0.972500 -0.002608
vt 0.504302 0.729793
v 0.486816 0.153558 0.427430
vn -0.260228 0.965545 -0.002023
vt 0.518640 0.722536
v 0.468526 0.148663 0.169141
vn -0.269049 0.963127 0.000103
vt 0.515171 0.764172
v 0.554391 0.173403 0.181112
vn -0.301769 0.953381 0.000188
vt 0.531454 0.762242
v 0.468526 0.148663 -0.169141
vn -0.269049 0.963127 -0.000103
vt 0.515171 0.818703
v 0.554391 0.173403 -0.181112
vn -0.301769 0.953381 -0.000188
vt 0.531454 0.820632
v 0.694740 0.224876 -0.200044
vn -0.048913 0.997757 -0.045701
vt 0.558068 0.823684
v 0.610895 0.192564 -0.501068
vn -0.038620 0.986718 -0.157786
vt 0.542169 0.872209
v 0.077105 0.088361 0.831399
vn -0.013186 0.950850 0.309372
vt 0.440945 0.657416
v 0.377491 0.126393 0.742160
vn -0.030601 0.964603 0.261924
vt 0.497908 0.671802
v 0.610896 0.192564 0.501068
vn -0.038620 0.986718 0.157786
vt 0.542169 0.710665
v 0.694740 0.224876 0.200044
vn -0.048913 0.997757 0.045701
vt 0.558068 0.759190
v -0.229324 0.211422 -0.513240
vn -0.274836 0.745484 -0.607223
vt 0.069718 0.184518
v -0.037509 0.196775 -0.568173
vn -0.071019 0.704278 -0.706363
vt 0.015170 0.175878
v -0.042410 0.163314 -0.600706
vn -0.071019 0.704278 -0.706363
vt 0.015873 0.156138
v -0.249470 0.180294 -0.541640
vn -0.274836 0.745484 -0.607223
vt 0.071476 0.166155
v -0.364224 0.234585 -0.368966
vn -0.476305 0.805827 -0.351817
vt 0.124949 0.198182
v -0.398012 0.207658 -0.385414
vn -0.476305 0.805827 -0.351817
vt 0.128421 0.182297
v -0.415050 0.246159 -0.166142
vn -0.542680 0.834718 -0.093509
vt 0.188245 0.205010
v -0.453490 0.221257 -0.170470
vn -0.542680 0.834718 -0.093509
vt 0.191509 0.190319
v -0.415050 0.246159 0.166142
vn -0.542680 0.834718 0.093509
vt 0.305493 0.205010
v -0.453490 0.221257 0.170470
vn -0.542680 0.834718 0.093509
vt 0.302230 0.190319
v -0.364223 0.234585 0.368966
vn -0.476305 0.805827 0.351817
vt 0.368790 0.198182
v -0.398012 0.207658 0.385414
vn -0.476305 0.805827 0.351817
vt 0.365318 0.182297
v -0.229324 0.211422 0.513240
vn -0.274836 0.745483 0.607223
vt 0.424021 0.184518
v -0.249470 0.180294 0.541640
vn -0.274836 0.745483 0.607223
vt 0.422263 0.166155
v -0.037509 0.196775 0.568173
vn -0.071019 0.704277 0.706364
vt 0.478569 0.175878
v -0.042410 0.163313 0.600706
vn -0.071019 0.704277 0.706364
vt 0.477866 0.156138
v 0.037509 0.196775 0.568173
vn 0.071019 0.704277 0.706364
vt 0.498868 0.175878
v 0.042410 0.163313 0.600706
vn 0.071019 0.704277 0.706364
vt 0.499570 0.156138
v 0.229324 0.211422 0.513240
vn 0.274835 0.745484 0.607223
vt 0.553415 0.184518
v 0.249470 0.180294 0.541640
vn 0.274835 0.745484 0.607223
vt 0.555173 0.166155
v 0.364223 0.234585 0.368966
vn 0.476305 0.805828 0.351817
vt 0.608646 0.198182
v 0.398012 0.207658 0.385414
vn 0.476305 0.805828 0.351817
vt 0.612118 0.182297
v 0.415049 0.246159 0.166142
vn 0.542680 0.834718 0.093509
vt 0.671943 0.205010
v 0.453490 0.221257 0.170470
vn 0.542680 0.834718 0.093509
vt 0.675206 0.190319
v 0.415049 0.246159 -0.166142
vn 0.542680 0.834718 -0.093509
vt 0.789191 0.205010
v 0.453490 0.221257 -0.170470
vn 0.542680 0.834718 -0.093509
vt 0.785927 0.190319
v 0.364223 0.234585 -0.368966
vn 0.476305 0.805828 -0.351817
vt 0.852487 0.198182
v 0.398012 0.207658 -0.385414
vn 0.476305 0.805828 -0.351817
vt 0.849015 0.182297
v 0.229324 0.211422 -0.513240
vn 0.274836 0.745484 -0.607222
vt 0.907719 0.184518
v 0.249470 0.180294 -0.541640
vn 0.274836 0.745484 -0.607222
vt 0.905961 0.166155
v 0.037509 0.196775 -0.568173
vn 0.071019 0.704278 -0.706363
vt 0.962266 0.175878
v 0.042410 0.163314 -0.600706
vn 0.071019 0.704278 -0.706363
vt 0.961563 0.156138
v -0.037509 0.196775 -0.568173
vn -0.071019 0.704278 -0.706363
vt 0.982565 0.175878
v -0.042410 0.163314 -0.600706
vn -0.071019 0.704278 -0.706363
vt 0.983267 0.156138
g Zylinder_Low_part_0
# Submesh 0: 540 triangles
f 1/1/1 2/2/2 3/3/3
f 1/1/1 3/3/3 4/4/4
f 1/1/1 5/5/5 6/6/6
f 1/1/1 6/6/6 7/7/7
f 1/1/1 7/7/7 8/8/8
f 1/1/1 8/8/8 9/9/9
f 1/1/1 9/9/9 10/10/10
f 1/1/1 10/10/10 11/11/11
f 1/1/1 11/11/11 12/12/12
f 1/1/1 12/12/12 13/13/13
f 1/1/1 13/13/13 14/14/14
f 1/1/1 14/14/14 15/15/15
f 1/1/1 15/15/15 16/16/16
f 1/1/1 16/16/16 2/2/2
f 17/17/17 2/2/2 16/16/16
f 17/17/17 18/18/18 2/2/2
f 18/18/18 19/19/19 2/2/2
f 18/18/18 20/20/20 19/19/19
f 20/20/20 21/21/21 19/19/19
f 20/20/20 22/22/22 21/21/21
f 23/23/23 24/24/24 25/25/25
f 23/23/23 26/26/26 24/24/24
f 26/26/26 27/27/27 24/24/24
f 26/26/26 28/28/28 27/27/27
f 28/28/28 15/15/15 27/27/27
f 28/28/28 29/29/29 15/15/15
f 29/29/29 30/30/30 15/15/15
f 29/29/29 31/31/31 30/30/30
f 22/22/22 32/32/32 21/21/21
f 22/22/22 33/33/33 32/32/32
f 33/33/33 34/34/34 32/32/32
f 33/33/33 35/35/35 34/34/34
f 35/35/35 36/36/36 34/34/34
f 35/35/35 37/37/37 36/36/36
f 37/37/37 38/38/38 36/36/36
f 37/37/37 39/39/39 38/38/38
f 39/39/39 40/40/40 38/38/38
f 39/39/39 41/41/41 40/40/40
f 41/41/41 42/42/42 40/40/40
f 41/41/41 43/43/43 42/42/42
f 44/44/44 42/42/42 43/43/43
f 44/44/44 45/45/45 42/42/42
f 44/44/44 46/46/46 45/45/45
f 44/44/44 47/47/47 46/46/46
f 47/47/47 25/25/25 46/46/46
f 47/47/47 23/23/23 25/25/25
f 48/48/48 49/49/49 50/50/50
f 50/50/50 49/49/49 51/51/51
f 49/49/49 52/52/52 51/51/51
f 49/49/49 53/53/53 52/52/52
f 53/53/53 54/54/54 52/52/52
f 53/53/53 55/55/55 54/54/54
f 55/55/55 56/56/56 54/54/54
f 55/55/55 57/57/57 56/56/56
f 57/57/57 58/58/58 56/56/56
f 59/59/59 58/58/58 57/57/57
f 59/59/59 60/60/60 58/58/58
f 61/61/61 60/60/60 59/59/59
f 61/61/61 62/62/62 60/60/60
f 63/63/63 62/62/62 61/61/61
f 63/63/63 64/64/64 62/62/62
f 65/65/65 64/64/64 63/63/63
f 65/65/65 63/63/63 66/66/66
f 65/65/65 66/66/66 67/67/67
f 67/67/67 66/66/66 68/68/68
f 66/66/66 63/63/63 61/61/61
f 67/67/67 68/68/68 69/69/69
f 69/69/69 68/68/68 70/70/70
f 69/69/69 70/70/70 71/71/71
f 71/71/71 70/70/70 72/72/72
f 72/72/72 70/70/70 73/73/73
f 72/72/72 73/73/73 74/74/74
f 73/73/73 48/48/48 74/74/74
f 73/73/73 75/75/75 48/48/48
f 48/48/48 75/75/75 49/49/49
f 75/75/75 53/53/53 49/49/49
f 75/75/75 76/76/76 53/53/53
f 76/76/76 55/55/55 53/53/53
f 76/76/76 77/77/77 55/55/55
f 77/77/77 57/57/57 55/55/55
f 77/77/77 59/59/59 57/57/57
f 61/61/61 59/59/59 77/77/77
f 61/61/61 77/77/77 78/78/78
f 66/66/66 61/61/61 78/78/78
f 68/68/68 66/66/66 78/78/78
f 68/68/68 78/78/78 79/79/79
f 70/70/70 68/68/68 79/79/79
f 70/70/70 79/79/79 73/73/73
f 79/79/79 75/75/75 73/73/73
f 79/79/79 76/76/76 75/75/75
f 78/78/78 76/76/76 79/79/79
f 78/78/78 77/77/77 76/76/76
f 80/80/80 81/81/81 82/82/82
f 80/80/80 82/82/82 83/83/83
f 84/84/84 80/80/80 83/83/83
f 84/84/84 83/83/83 85/85/85
f 86/86/86 84/84/84 85/85/85
f 86/86/86 85/85/85 87/87/87
f 88/88/88 86/86/86 87/87/87
f 88/88/88 87/87/87 89/89/89
f 90/90/90 88/88/88 89/89/89
f 90/90/90 89/89/89 91/91/91
f 92/92/92 90/90/90 91/91/91
f 92/92/92 91/91/91 93/93/93
f 94/94/94 95/95/95 96/96/96
f 94/94/94 96/96/96 97/97/97
f 82/82/82 94/94/94 97/97/97
f 82/82/82 97/97/97 98/98/98
f 83/83/83 82/82/82 98/98/98
f 83/83/83 98/98/98 99/99/99
f 85/85/85 83/83/83 99/99/99
f 85/85/85 99/99/99 100/100/100
f 87/87/87 85/85/85 100/100/100
f 87/87/87 100/100/100 101/101/101
f 89/89/89 87/87/87 101/101/101
f 89/89/89 101/101/101 102/102/102
f 91/91/91 89/89/89 102/102/102
f 91/91/91 102/102/102 103/103/103
f 93/93/93 91/91/91 103/103/103
f 93/93/93 103/103/103 104/104/104
f 105/105/105 106/106/106 107/107/107
f 105/105/105 107/107/107 108/108/108
f 109/109/109 105/105/105 108/108/108
f 109/109/109 108/108/108 110/110/110
f 111/111/111 109/109/109 110/110/110
f 111/111/111 110/110/110 112/112/112
f 113/113/113 111/111/111 112/112/112
f 113/113/113 112/112/112 114/114/114
f 115/115/115 113/113/113 114/114/114
f 115/115/115 114/114/114 116/116/116
f 117/117/117 115/115/115 116/116/116
f 117/117/117 116/116/116 118/118/118
f 119/119/119 117/117/117 118/118/118
f 119/119/119 118/118/118 95/95/95
f 120/120/120 119/119/119 95/95/95
f 120/120/120 95/95/95 94/94/94
f 81/81/81 120/120/120 94/94/94
f 81/81/81 94/94/94 82/82/82
f 106/106/106 121/121/121 122/122/122
f 106/106/106 122/122/122 107/107/107
f 107/107/107 122/122/122 123/123/123
f 107/107/107 123/123/123 124/124/124
f 108/108/108 107/107/107 124/124/124
f 108/108/108 124/124/124 125/125/125
f 110/110/110 108/108/108 125/125/125
f 110/110/110 125/125/125 126/126/126
f 112/112/112 110/110/110 126/126/126
f 112/112/112 126/126/126 127/127/127
f 114/114/114 112/112/112 127/127/127
f 114/114/114 127/127/127 128/128/128
f 116/116/116 114/114/114 128/128/128
f 116/116/116 128/128/128 129/129/129
f 118/118/118 116/116/116 129/129/129
f 118/118/118 129/129/129 130/130/130
f 95/95/95 118/118/118 130/130/130
f 95/95/95 130/130/130 96/96/96
f 131/131/131 132/132/132 133/133/133
f 131/131/131 133/133/133 134/134/134
f 134/134/134 133/133/133 135/135/135
f 134/134/134 135/135/135 136/136/136
f 136/136/136 135/135/135 137/137/137
f 136/136/136 137/137/137 138/138/138
f 138/138/138 137/137/137 139/139/139
f 138/138/138 139/139/139 140/140/140
f 140/140/140 139/139/139 141/141/141
f 140/140/140 141/141/141 142/142/142
f 142/142/142 141/141/141 143/143/143
f 142/142/142 143/143/143 144/144/144
f 144/144/144 143/143/143 145/145/145
f 144/144/144 145/145/145 146/146/146
f 147/147/147 148/148/148 149/149/149
f 147/147/147 149/149/149 150/150/150
f 150/150/150 149/149/149 151/151/151
f 150/150/150 151/151/151 152/152/152
f 152/152/152 151/151/151 153/153/153
f 152/152/152 153/153/153 154/154/154
f 154/154/154 153/153/153 155/155/155
f 154/154/154 155/155/155 156/156/156
f 156/156/156 155/155/155 157/157/157
f 156/156/156 157/157/157 158/158/158
f 158/158/158 157/157/157 159/159/159
f 158/158/158 159/159/159 160/160/160
f 160/160/160 159/159/159 161/161/161
f 160/160/160 161/161/161 162/162/162
f 162/162/162 161/161/161 163/163/163
f 162/162/162 163/163/163 164/164/164
f 164/164/164 163/163/163 132/132/132
f 164/164/164 132/132/132 131/131/131
f 165/165/165 166/166/166 167/167/167
f 165/165/165 167/167/167 168/168/168
f 169/169/169 165/165/165 168/168/168
f 169/169/169 168/168/168 170/170/170
f 171/171/171 169/169/169 170/170/170
f 171/171/171 170/170/170 172/172/172
f 173/173/173 171/171/171 172/172/172
f 173/173/173 172/172/172 174/174/174
f 175/175/175 173/173/173 174/174/174
f 175/175/175 174/174/174 176/176/176
f 177/177/177 175/175/175 176/176/176
f 177/177/177 176/176/176 178/178/178
f 179/179/179 180/180/180 181/181/181
f 179/179/179 182/182/182 180/180/180
f 178/178/178 182/182/182 179/179/179
f 178/178/178 183/183/183 182/182/182
f 176/176/176 183/183/183 178/178/178
f 176/176/176 184/184/184 183/183/183
f 174/174/174 184/184/184 176/176/176
f 174/174/174 185/185/185 184/184/184
f 172/172/172 185/185/185 174/174/174
f 172/172/172 186/186/186 185/185/185
f 170/170/170 186/186/186 172/172/172
f 170/170/170 187/187/187 186/186/186
f 168/168/168 187/187/187 170/170/170
f 168/168/168 188/188/188 187/187/187
f 167/167/167 188/188/188 168/168/168
f 167/167/167 189/189/189 188/188/188
f 190/190/190 177/177/177 178/178/178
f 190/190/190 178/178/178 179/179/179
f 191/191/191 190/190/190 179/179/179
f 191/191/191 179/179/179 181/181/181
f 192/192/192 191/191/191 181/181/181
f 192/192/192 181/181/181 193/193/193
f 194/194/194 192/192/192 193/193/193
f 194/194/194 193/193/193 195/195/195
f 196/196/196 194/194/194 195/195/195
f 196/196/196 195/195/195 197/197/197
f 198/198/198 196/196/196 197/197/197
f 198/198/198 197/197/197 199/199/199
f 200/200/200 198/198/198 199/199/199
f 200/200/200 199/199/199 201/201/201
f 202/202/202 200/200/200 201/201/201
f 202/202/202 201/201/201 203/203/203
f 204/204/204 202/202/202 203/203/203
f 204/204/204 203/203/203 205/205/205
f 206/206/206 204/204/204 205/205/205
f 206/206/206 205/205/205 207/207/207
f 205/205/205 208/208/208 207/207/207
f 205/205/205 209/209/209 208/208/208
f 203/203/203 209/209/209 205/205/205
f 203/203/203 210/210/210 209/209/209
f 201/201/201 210/210/210 203/203/203
f 201/201/201 211/211/211 210/210/210
f 199/199/199 211/211/211 201/201/201
f 199/199/199 212/212/212 211/211/211
f 197/197/197 212/212/212 199/199/199
f 197/197/197 213/213/213 212/212/212
f 195/195/195 213/213/213 197/197/197
f 195/195/195 214/214/214 213/213/213
f 193/193/193 214/214/214 195/195/195
f 193/193/193 215/215/215 214/214/214
f 181/181/181 215/215/215 193/193/193
f 181/181/181 180/180/180 215/215/215
f 216/216/216 217/217/217 218/218/218
f 219/219/219 216/216/216 218/218/218
f 219/219/219 218/218/218 220/220/220
f 221/221/221 219/219/219 220/220/220
f 221/221/221 220/220/220 222/222/222
f 223/223/223 221/221/221 222/222/222
f 223/223/223 222/222/222 224/224/224
f 225/225/225 223/223/223 224/224/224
f 225/225/225 224/224/224 226/226/226
f 227/227/227 225/225/225 226/226/226
f 227/227/227 226/226/226 228/228/228
f 229/229/229 227/227/227 228/228/228
f 229/229/229 230/230/230 231/231/231
f 227/227/227 229/229/229 231/231/231
f 227/227/227 231/231/231 232/232/232
f 225/225/225 227/227/227 232/232/232
f 225/225/225 232/232/232 233/233/233
f 223/223/223 225/225/225 233/233/233
f 223/223/223 233/233/233 234/234/234
f 221/221/221 223/223/223 234/234/234
f 221/221/221 234/234/234 235/235/235
f 219/219/219 221/221/221 235/235/235
f 219/219/219 235/235/235 236/236/236
f 216/216/216 219/219/219 236/236/236
f 216/216/216 236/236/236 237/237/237
f 238/238/238 216/216/216 237/237/237
f 238/238/238 237/237/237 239/239/239
f 240/240/240 238/238/238 239/239/239
f 240/240/240 239/239/239 241/241/241
f 242/242/242 240/240/240 241/241/241
f 242/242/242 241/241/241 243/243/243
f 244/244/244 242/242/242 243/243/243
f 244/244/244 243/243/243 245/245/245
f 246/246/246 244/244/244 245/245/245
f 246/246/246 245/245/245 247/247/247
f 248/248/248 246/246/246 247/247/247
f 248/248/248 247/247/247 249/249/249
f 250/250/250 248/248/248 249/249/249
f 250/250/250 249/249/249 251/251/251
f 252/252/252 250/250/250 251/251/251
f 252/252/252 251/251/251 253/253/253
f 254/254/254 252/252/252 253/253/253
f 254/254/254 253/253/253 230/230/230
f 229/229/229 254/254/254 230/230/230
f 254/254/254 229/229/229 255/255/255
f 229/229/229 228/228/228 255/255/255
f 255/255/255 228/228/228 256/256/256
f 228/228/228 257/257/257 256/256/256
f 254/254/254 255/255/255 258/258/258
f 252/252/252 254/254/254 258/258/258
f 252/252/252 258/258/258 259/259/259
f 250/250/250 252/252/252 259/259/259
f 250/250/250 259/259/259 260/260/260
f 248/248/248 250/250/250 260/260/260
f 248/248/248 260/260/260 261/261/261
f 246/246/246 248/248/248 261/261/261
f 246/246/246 261/261/261 262/262/262
f 244/244/244 246/246/246 262/262/262
f 244/244/244 262/262/262 263/263/263
f 242/242/242 244/244/244 263/263/263
f 242/242/242 263/263/263 264/264/264
f 240/240/240 242/242/242 264/264/264
f 240/240/240 264/264/264 265/265/265
f 238/238/238 240/240/240 265/265/265
f 238/238/238 265/265/265 217/217/217
f 216/216/216 238/238/238 217/217/217
f 263/263/263 262/262/262 266/266/266
f 262/262/262 267/267/267 266/266/266
f 262/262/262 261/261/261 267/267/267
f 261/261/261 268/268/268 267/267/267
f 261/261/261 260/260/260 268/268/268
f 260/260/260 269/269/269 268/268/268
f 260/260/260 259/259/259 269/269/269
f 259/259/259 270/270/270 269/269/269
f 259/259/259 258/258/258 270/270/270
f 258/258/258 271/271/271 270/270/270
f 258/258/258 255/255/255 271/271/271
f 255/255/255 256/256/256 271/271/271
f 228/228/228 226/226/226 257/257/257
f 226/226/226 272/272/272 257/257/257
f 226/226/226 224/224/224 272/272/272
f 224/224/224 273/273/273 272/272/272
f 224/224/224 222/222/222 273/273/273
f 222/222/222 274/274/274 273/273/273
f 222/222/222 220/220/220 274/274/274
f 220/220/220 275/275/275 274/274/274
f 220/220/220 218/218/218 275/275/275
f 218/218/218 276/276/276 275/275/275
f 218/218/218 217/217/217 276/276/276
f 217/217/217 277/277/277 276/276/276
f 217/217/217 265/265/265 277/277/277
f 265/265/265 278/278/278 277/277/277
f 265/265/265 264/264/264 278/278/278
f 264/264/264 279/279/279 278/278/278
f 264/264/264 263/263/263 279/279/279
f 263/263/263 266/266/266 279/279/279
f 280/280/280 281/281/281 282/282/282
f 280/280/280 282/282/282 283/283/283
f 283/283/283 282/282/282 284/284/284
f 283/283/283 284/284/284 285/285/285
f 286/286/286 283/283/283 285/285/285
f 286/286/286 285/285/285 287/287/287
f 288/288/288 286/286/286 287/287/287
f 288/288/288 287/287/287 289/289/289
f 290/290/290 288/288/288 289/289/289
f 290/290/290 289/289/289 291/291/291
f 292/292/292 290/290/290 291/291/291
f 292/292/292 291/291/291 293/293/293
f 294/294/294 292/292/292 293/293/293
f 294/294/294 293/293/293 295/295/295
f 296/296/296 294/294/294 295/295/295
f 296/296/296 295/295/295 297/297/297
f 298/298/298 296/296/296 297/297/297
f 298/298/298 297/297/297 299/299/299
f 300/300/300 301/301/301 295/295/295
f 300/300/300 295/295/295 293/293/293
f 302/302/302 300/300/300 293/293/293
f 302/302/302 293/293/293 291/291/291
f 303/303/303 302/302/302 291/291/291
f 303/303/303 291/291/291 289/289/289
f 304/304/304 303/303/303 289/289/289
f 304/304/304 289/289/289 287/287/287
f 305/305/305 304/304/304 287/287/287
f 305/305/305 287/287/287 285/285/285
f 306/306/306 305/305/305 285/285/285
f 306/306/306 285/285/285 284/284/284
f 307/307/307 280/280/280 283/283/283
f 307/307/307 283/283/283 286/286/286
f 308/308/308 307/307/307 286/286/286
f 308/308/308 286/286/286 288/288/288
f 309/309/309 308/308/308 288/288/288
f 309/309/309 288/288/288 290/290/290
f 310/310/310 309/309/309 290/290/290
f 310/310/310 290/290/290 292/292/292
f 311/311/311 310/310/310 292/292/292
f 311/311/311 292/292/292 294/294/294
f 312/312/312 311/311/311 294/294/294
f 312/312/312 294/294/294 296/296/296
f 313/313/313 312/312/312 296/296/296
f 313/313/313 296/296/296 298/298/298
f 314/314/314 313/313/313 298/298/298
f 314/314/314 298/298/298 315/315/315
f 316/316/316 314/314/314 315/315/315
f 316/316/316 315/315/315 317/317/317
f 315/315/315 298/298/298 299/299/299
f 315/315/315 299/299/299 318/318/318
f 317/317/317 315/315/315 318/318/318
f 317/317/317 318/318/318 319/319/319
f 320/320/320 317/317/317 319/319/319
f 320/320/320 319/319/319 321/321/321
f 322/322/322 320/320/320 321/321/321
f 322/322/322 321/321/321 323/323/323
f 324/324/324 322/322/322 323/323/323
f 324/324/324 323/323/323 325/325/325
f 326/326/326 324/324/324 325/325/325
f 326/326/326 325/325/325 327/327/327
f 328/328/328 326/326/326 327/327/327
f 328/328/328 327/327/327 329/329/329
f 330/330/330 328/328/328 329/329/329
f 330/330/330 329/329/329 331/331/331
f 332/332/332 331/331/331 329/329/329
f 332/332/332 333/333/333 331/331/331
f 334/334/334 316/316/316 317/317/317
f 334/334/334 317/317/317 320/320/320
f 335/335/335 334/334/334 320/320/320
f 335/335/335 320/320/320 322/322/322
f 336/336/336 335/335/335 322/322/322
f 336/336/336 322/322/322 324/324/324
f 337/337/337 336/336/336 324/324/324
f 337/337/337 324/324/324 326/326/326
f 338/338/338 337/337/337 326/326/326
f 338/338/338 326/326/326 328/328/328
f 339/339/339 338/338/338 328/328/328
f 339/339/339 328/328/328 330/330/330
f 340/340/340 332/332/332 329/329/329
f 340/340/340 329/329/329 327/327/327
f 341/341/341 340/340/340 327/327/327
f 341/341/341 327/327/327 325/325/325
f 342/342/342 341/341/341 325/325/325
f 342/342/342 325/325/325 323/323/323
f 343/343/343 342/342/342 323/323/323
f 343/343/343 323/323/323 321/321/321
f 344/344/344 343/343/343 321/321/321
f 344/344/344 321/321/321 319/319/319
f 345/345/345 344/344/344 319/319/319
f 345/345/345 319/319/319 318/318/318
f 346/346/346 345/345/345 318/318/318
f 346/346/346 318/318/318 299/299/299
f 347/347/347 346/346/346 299/299/299
f 347/347/347 299/299/299 297/297/297
f 301/301/301 347/347/347 297/297/297
f 301/301/301 297/297/297 295/295/295
f 348/348/348 349/349/349 350/350/350
f 348/348/348 350/350/350 351/351/351
f 352/352/352 348/348/348 351/351/351
f 352/352/352 351/351/351 353/353/353
f 354/354/354 352/352/352 353/353/353
f 354/354/354 353/353/353 355/355/355
f 356/356/356 354/354/354 355/355/355
f 356/356/356 355/355/355 357/357/357
f 358/358/358 356/356/356 357/357/357
f 358/358/358 357/357/357 359/359/359
f 360/360/360 358/358/358 359/359/359
f 360/360/360 359/359/359 361/361/361
f 362/362/362 360/360/360 361/361/361
f 362/362/362 361/361/361 363/363/363
f 364/364/364 362/362/362 363/363/363
f 364/364/364 363/363/363 365/365/365
f 366/366/366 364/364/364 365/365/365
f 366/366/366 365/365/365 367/367/367
f 353/353/353 351/351/351 368/368/368
f 353/353/353 368/368/368 369/369/369
f 355/355/355 353/353/353 369/369/369
f 355/355/355 369/369/369 370/370/370
f 357/357/357 355/355/355 370/370/370
f 357/357/357 370/370/370 371/371/371
f 359/359/359 357/357/357 371/371/371
f 359/359/359 371/371/371 372/372/372
f 361/361/361 359/359/359 372/372/372
f 361/361/361 372/372/372 373/373/373
f 363/363/363 361/361/361 373/373/373
f 363/363/363 373/373/373 374/374/374
f 365/365/365 363/363/363 374/374/374
f 365/365/365 374/374/374 375/375/375
f 367/367/367 365/365/365 375/375/375
f 367/367/367 375/375/375 376/376/376
f 377/377/377 367/367/367 376/376/376
f 377/377/377 376/376/376 378/378/378
f 379/379/379 366/366/366 367/367/367
f 379/379/379 367/367/367 377/377/377
f 380/380/380 379/379/379 377/377/377
f 380/380/380 377/377/377 381/381/381
f 382/382/382 380/380/380 381/381/381
f 382/382/382 381/381/381 383/383/383
f 384/384/384 382/382/382 383/383/383
f 384/384/384 383/383/383 385/385/385
f 386/386/386 384/384/384 385/385/385
f 386/386/386 385/385/385 387/387/387
f 388/388/388 386/386/386 387/387/387
f 388/388/388 387/387/387 389/389/389
f 349/349/349 388/388/388 389/389/389
f 349/349/349 389/389/389 350/350/350
f 350/350/350 389/389/389 390/390/390
f 350/350/350 390/390/390 391/391/391
f 351/351/351 350/350/350 391/391/391
f 351/351/351 391/391/391 368/368/368
f 381/381/381 377/377/377 378/378/378
f 381/381/381 378/378/378 392/392/392
f 383/383/383 381/381/381 392/392/392
f 383/383/383 392/392/392 393/393/393
f 385/385/385 383/383/383 393/393/393
f 385/385/385 393/393/393 394/394/394
f 387/387/387 385/385/385 394/394/394
f 387/387/387 394/394/394 395/395/395
f 389/389/389 387/387/387 395/395/395
f 389/389/389 395/395/395 390/390/390
f 396/396/396 397/397/397 398/398/398
f 396/396/396 398/398/398 399/399/399
f 400/400/400 396/396/396 399/399/399
f 400/400/400 399/399/399 401/401/401
f 402/402/402 400/400/400 401/401/401
f 402/402/402 401/401/401 403/403/403
f 404/404/404 402/402/402 403/403/403
f 404/404/404 403/403/403 405/405/405
f 406/406/406 404/404/404 405/405/405
f 406/406/406 405/405/405 407/407/407
f 408/408/408 406/406/406 407/407/407
f 408/408/408 407/407/407 409/409/409
f 410/410/410 408/408/408 409/409/409
f 410/410/410 409/409/409 411/411/411
f 412/412/412 410/410/410 411/411/411
f 412/412/412 411/411/411 413/413/413
f 414/414/414 412/412/412 413/413/413
f 414/414/414 413/413/413 415/415/415
f 416/416/416 414/414/414 415/415/415
f 416/416/416 415/415/415 417/417/417
f 418/418/418 416/416/416 417/417/417
f 418/418/418 417/417/417 419/419/419
f 420/420/420 418/418/418 419/419/419
f 420/420/420 419/419/419 421/421/421
f 422/422/422 420/420/420 421/421/421
f 422/422/422 421/421/421 423/423/423
f 424/424/424 422/422/422 423/423/423
f 424/424/424 423/423/423 425/425/425
f 426/426/426 424/424/424 425/425/425
f 426/426/426 425/425/425 427/427/427
f 428/428/428 426/426/426 427/427/427
f 428/428/428 427/427/427 429/429/429
